G04 EAGLE Gerber RS-274X export*
G75*
%MOMM*%
%FSLAX34Y34*%
%LPD*%
%INTop Copper*%
%IPPOS*%
%AMOC8*
5,1,8,0,0,1.08239X$1,22.5*%
G01*
%ADD10R,0.812800X0.304800*%
%ADD11R,0.304800X0.812800*%
%ADD12R,4.800600X5.791200*%
%ADD13C,1.524000*%
%ADD14C,0.203200*%


D10*
X308356Y311900D03*
X308356Y306900D03*
X308356Y296900D03*
X308356Y291900D03*
X308356Y286900D03*
X308356Y281900D03*
X308356Y276900D03*
X308356Y271900D03*
X308356Y266900D03*
X308356Y261900D03*
X308356Y256900D03*
X308356Y246900D03*
D11*
X315400Y239903D03*
X320400Y239903D03*
X325400Y239903D03*
X335400Y239903D03*
X340400Y239903D03*
X345400Y239903D03*
X350400Y239903D03*
X355400Y239903D03*
X360400Y239903D03*
X365400Y239903D03*
X370400Y239903D03*
D10*
X377444Y246900D03*
X377444Y251900D03*
X377444Y261900D03*
X377444Y266900D03*
X377444Y271900D03*
X377444Y276900D03*
X377444Y286900D03*
X377444Y291900D03*
X377444Y301900D03*
X377444Y311900D03*
D11*
X365400Y318897D03*
X360400Y318897D03*
X355400Y318897D03*
X345400Y318897D03*
X340400Y318897D03*
X335400Y318897D03*
X325400Y318897D03*
X315400Y318897D03*
D12*
X342900Y279400D03*
D10*
X308356Y251900D03*
D11*
X330400Y239903D03*
D10*
X377444Y256900D03*
X377444Y281900D03*
X377444Y306900D03*
D13*
X482600Y58420D02*
X482600Y43180D01*
X457200Y43180D02*
X457200Y58420D01*
X431800Y58420D02*
X431800Y43180D01*
X406400Y43180D02*
X406400Y58420D01*
X381000Y58420D02*
X381000Y43180D01*
X355600Y43180D02*
X355600Y58420D01*
X330200Y58420D02*
X330200Y43180D01*
X304800Y43180D02*
X304800Y58420D01*
X279400Y58420D02*
X279400Y43180D01*
X254000Y43180D02*
X254000Y58420D01*
X228600Y58420D02*
X228600Y43180D01*
X203200Y43180D02*
X203200Y58420D01*
X254000Y449580D02*
X254000Y464820D01*
X279400Y464820D02*
X279400Y449580D01*
X304800Y449580D02*
X304800Y464820D01*
X330200Y464820D02*
X330200Y449580D01*
X355600Y449580D02*
X355600Y464820D01*
X381000Y464820D02*
X381000Y449580D01*
X406400Y449580D02*
X406400Y464820D01*
X431800Y464820D02*
X431800Y449580D01*
X576580Y393700D02*
X591820Y393700D01*
X591820Y368300D02*
X576580Y368300D01*
X576580Y342900D02*
X591820Y342900D01*
X591820Y317500D02*
X576580Y317500D01*
X576580Y292100D02*
X591820Y292100D01*
X591820Y266700D02*
X576580Y266700D01*
X576580Y241300D02*
X591820Y241300D01*
X591820Y215900D02*
X576580Y215900D01*
X576580Y190500D02*
X591820Y190500D01*
X591820Y165100D02*
X576580Y165100D01*
X576580Y139700D02*
X591820Y139700D01*
X591820Y114300D02*
X576580Y114300D01*
X576580Y88900D02*
X591820Y88900D01*
X121920Y88900D02*
X106680Y88900D01*
X106680Y114300D02*
X121920Y114300D01*
X121920Y139700D02*
X106680Y139700D01*
X106680Y165100D02*
X121920Y165100D01*
X121920Y190500D02*
X106680Y190500D01*
X106680Y215900D02*
X121920Y215900D01*
X121920Y241300D02*
X106680Y241300D01*
X106680Y266700D02*
X121920Y266700D01*
X121920Y292100D02*
X106680Y292100D01*
X106680Y317500D02*
X121920Y317500D01*
X121920Y342900D02*
X106680Y342900D01*
X106680Y368300D02*
X121920Y368300D01*
X121920Y393700D02*
X106680Y393700D01*
D14*
X246900Y311900D02*
X308356Y311900D01*
X165100Y393700D02*
X114300Y393700D01*
X165100Y393700D02*
X246900Y311900D01*
X239200Y306900D02*
X308356Y306900D01*
X177800Y368300D02*
X114300Y368300D01*
X177800Y368300D02*
X239200Y306900D01*
X236500Y296900D02*
X308356Y296900D01*
X236500Y296900D02*
X190500Y342900D01*
X114300Y342900D01*
X228800Y291900D02*
X308356Y291900D01*
X228800Y291900D02*
X203200Y317500D01*
X114300Y317500D01*
X208400Y286900D02*
X308356Y286900D01*
X208400Y286900D02*
X203200Y292100D01*
X114300Y292100D01*
X218400Y281900D02*
X308356Y281900D01*
X218400Y281900D02*
X203200Y266700D01*
X114300Y266700D01*
X238800Y276900D02*
X308356Y276900D01*
X203200Y241300D02*
X114300Y241300D01*
X203200Y241300D02*
X238800Y276900D01*
X246500Y271900D02*
X308356Y271900D01*
X246500Y271900D02*
X190500Y215900D01*
X114300Y215900D01*
X308156Y266700D02*
X308356Y266900D01*
X308156Y266700D02*
X254000Y266700D01*
X177800Y190500D01*
X114300Y190500D01*
X261900Y261900D02*
X308356Y261900D01*
X165100Y165100D02*
X114300Y165100D01*
X165100Y165100D02*
X261900Y261900D01*
X269600Y256900D02*
X308356Y256900D01*
X152400Y139700D02*
X114300Y139700D01*
X152400Y139700D02*
X269600Y256900D01*
X277300Y251900D02*
X308356Y251900D01*
X139700Y114300D02*
X114300Y114300D01*
X139700Y114300D02*
X277300Y251900D01*
X285000Y246900D02*
X308356Y246900D01*
X127000Y88900D02*
X114300Y88900D01*
X127000Y88900D02*
X285000Y246900D01*
X377444Y311900D02*
X464300Y311900D01*
X546100Y393700D02*
X584200Y393700D01*
X546100Y393700D02*
X464300Y311900D01*
X472000Y306900D02*
X377444Y306900D01*
X533400Y368300D02*
X584200Y368300D01*
X533400Y368300D02*
X472000Y306900D01*
X492400Y301900D02*
X377444Y301900D01*
X533400Y342900D02*
X584200Y342900D01*
X533400Y342900D02*
X492400Y301900D01*
X377644Y292100D02*
X377444Y291900D01*
X508000Y292100D02*
X533400Y317500D01*
X584200Y317500D01*
X508000Y292100D02*
X377644Y292100D01*
X377444Y286900D02*
X540900Y286900D01*
X546100Y292100D01*
X584200Y292100D01*
X505500Y281900D02*
X377444Y281900D01*
X505500Y281900D02*
X520700Y266700D01*
X584200Y266700D01*
X447000Y276900D02*
X377444Y276900D01*
X482600Y241300D02*
X584200Y241300D01*
X482600Y241300D02*
X447000Y276900D01*
X439300Y271900D02*
X377444Y271900D01*
X495300Y215900D02*
X584200Y215900D01*
X495300Y215900D02*
X439300Y271900D01*
X377644Y266700D02*
X377444Y266900D01*
X377644Y266700D02*
X431800Y266700D01*
X508000Y190500D01*
X584200Y190500D01*
X423900Y261900D02*
X377444Y261900D01*
X520700Y165100D02*
X584200Y165100D01*
X520700Y165100D02*
X423900Y261900D01*
X416200Y256900D02*
X377444Y256900D01*
X533400Y139700D02*
X584200Y139700D01*
X533400Y139700D02*
X416200Y256900D01*
X408500Y251900D02*
X377444Y251900D01*
X546100Y114300D02*
X584200Y114300D01*
X546100Y114300D02*
X408500Y251900D01*
X400800Y246900D02*
X377444Y246900D01*
X558800Y88900D02*
X584200Y88900D01*
X558800Y88900D02*
X400800Y246900D01*
X315400Y239903D02*
X315400Y213800D01*
X203200Y101600D01*
X203200Y50800D01*
X320400Y206100D02*
X320400Y239903D01*
X320400Y206100D02*
X228600Y114300D01*
X228600Y50800D01*
X325400Y198400D02*
X325400Y239903D01*
X254000Y127000D02*
X254000Y50800D01*
X254000Y127000D02*
X325400Y198400D01*
X330200Y239703D02*
X330400Y239903D01*
X330200Y177800D02*
X279400Y127000D01*
X279400Y50800D01*
X330200Y177800D02*
X330200Y239703D01*
X335400Y239903D02*
X335400Y157600D01*
X304800Y127000D02*
X304800Y50800D01*
X304800Y127000D02*
X335400Y157600D01*
X340400Y111800D02*
X340400Y239903D01*
X340400Y111800D02*
X330200Y101600D01*
X330200Y50800D01*
X345400Y111800D02*
X345400Y239903D01*
X345400Y111800D02*
X355600Y101600D01*
X355600Y50800D01*
X350400Y132200D02*
X350400Y239903D01*
X381000Y101600D02*
X381000Y50800D01*
X381000Y101600D02*
X350400Y132200D01*
X355600Y239703D02*
X355400Y239903D01*
X355600Y239703D02*
X355600Y139700D01*
X406400Y88900D01*
X406400Y50800D01*
X360400Y160300D02*
X360400Y239903D01*
X431800Y88900D02*
X431800Y50800D01*
X431800Y88900D02*
X360400Y160300D01*
X365400Y168000D02*
X365400Y239903D01*
X457200Y76200D02*
X457200Y50800D01*
X457200Y76200D02*
X365400Y168000D01*
X370400Y175700D02*
X370400Y239903D01*
X482600Y63500D02*
X482600Y50800D01*
X482600Y63500D02*
X370400Y175700D01*
X315400Y318897D02*
X315400Y345000D01*
X254000Y406400D02*
X254000Y457200D01*
X254000Y406400D02*
X315400Y345000D01*
X325400Y360400D02*
X325400Y318897D01*
X325400Y360400D02*
X279400Y406400D01*
X279400Y457200D01*
X335400Y363100D02*
X335400Y318897D01*
X335400Y363100D02*
X304800Y393700D01*
X304800Y457200D01*
X340400Y396200D02*
X340400Y318897D01*
X340400Y396200D02*
X330200Y406400D01*
X330200Y457200D01*
X345400Y396200D02*
X345400Y318897D01*
X345400Y396200D02*
X355600Y406400D01*
X355600Y457200D01*
X355600Y319097D02*
X355400Y318897D01*
X355600Y319097D02*
X355600Y368300D01*
X381000Y393700D01*
X381000Y457200D01*
X360400Y360400D02*
X360400Y318897D01*
X406400Y406400D02*
X406400Y457200D01*
X406400Y406400D02*
X360400Y360400D01*
X365400Y352700D02*
X365400Y318897D01*
X431800Y419100D02*
X431800Y457200D01*
X431800Y419100D02*
X365400Y352700D01*
M02*
