M48
;GenerationSoftware,Autodesk,EAGLE,9.3.0*%
;CreationDate,2019-04-07T22:48:59Z*%
FMAT,2
ICI,OFF
METRIC,TZ,000.000
T1C1.016
%
G90
M71
T1
X48260Y5080
X45720Y5080
X43180Y5080
X40640Y5080
X38100Y5080
X35560Y5080
X33020Y5080
X30480Y5080
X27940Y5080
X25400Y5080
X22860Y5080
X20320Y5080
X25400Y45720
X27940Y45720
X30480Y45720
X33020Y45720
X35560Y45720
X38100Y45720
X40640Y45720
X43180Y45720
X58420Y39370
X58420Y36830
X58420Y34290
X58420Y31750
X58420Y29210
X58420Y26670
X58420Y24130
X58420Y21590
X58420Y19050
X58420Y16510
X58420Y13970
X58420Y11430
X58420Y8890
X11430Y8890
X11430Y11430
X11430Y13970
X11430Y16510
X11430Y19050
X11430Y21590
X11430Y24130
X11430Y26670
X11430Y29210
X11430Y31750
X11430Y34290
X11430Y36830
X11430Y39370
M30