G04 EAGLE Gerber RS-274X export*
G75*
%MOMM*%
%FSLAX34Y34*%
%LPD*%
%INTop Copper*%
%IPPOS*%
%AMOC8*
5,1,8,0,0,1.08239X$1,22.5*%
G01*
%ADD10P,1.539592X8X22.500000*%
%ADD11P,1.539592X8X202.500000*%
%ADD12P,1.539592X8X292.500000*%
%ADD13P,1.539592X8X112.500000*%
%ADD14P,1.429621X8X112.500000*%
%ADD15P,1.429621X8X292.500000*%
%ADD16C,1.524000*%
%ADD17R,0.508000X1.549400*%
%ADD18R,4.140200X4.902200*%
%ADD19P,1.429621X8X22.500000*%
%ADD20P,1.429621X8X202.500000*%
%ADD21R,0.304800X0.812800*%
%ADD22R,0.812800X0.304800*%
%ADD23R,5.791200X4.800600*%
%ADD24P,2.336880X8X22.500000*%
%ADD25R,5.330000X5.590000*%
%ADD26R,6.350000X5.280000*%
%ADD27C,2.095500*%
%ADD28P,1.632244X8X292.500000*%
%ADD29R,1.800000X3.400000*%
%ADD30R,5.200000X1.100000*%
%ADD31P,1.632244X8X112.500000*%
%ADD32R,7.300000X7.300000*%
%ADD33P,6.983147X8X22.500000*%
%ADD34C,1.270000*%
%ADD35C,3.556000*%
%ADD36C,2.667000*%
%ADD37C,0.254000*%
%ADD38C,0.756400*%
%ADD39C,1.016000*%
%ADD40C,0.508000*%
%ADD41C,2.540000*%
%ADD42C,3.810000*%

G36*
X177820Y10164D02*
X177820Y10164D01*
X177839Y10162D01*
X177941Y10184D01*
X178043Y10200D01*
X178060Y10210D01*
X178080Y10214D01*
X178169Y10267D01*
X178260Y10316D01*
X178274Y10330D01*
X178291Y10340D01*
X178358Y10419D01*
X178430Y10494D01*
X178438Y10512D01*
X178451Y10527D01*
X178490Y10623D01*
X178533Y10717D01*
X178535Y10737D01*
X178543Y10755D01*
X178561Y10922D01*
X178561Y304800D01*
X178558Y304820D01*
X178560Y304839D01*
X178538Y304941D01*
X178522Y305043D01*
X178512Y305060D01*
X178508Y305080D01*
X178455Y305169D01*
X178406Y305260D01*
X178392Y305274D01*
X178382Y305291D01*
X178303Y305358D01*
X178228Y305430D01*
X178210Y305438D01*
X178195Y305451D01*
X178099Y305490D01*
X178005Y305533D01*
X177985Y305535D01*
X177967Y305543D01*
X177800Y305561D01*
X26161Y305561D01*
X26161Y431039D01*
X177800Y431039D01*
X177820Y431042D01*
X177839Y431040D01*
X177941Y431062D01*
X178043Y431079D01*
X178060Y431088D01*
X178080Y431092D01*
X178169Y431145D01*
X178260Y431194D01*
X178274Y431208D01*
X178291Y431218D01*
X178358Y431297D01*
X178430Y431372D01*
X178438Y431390D01*
X178451Y431405D01*
X178490Y431501D01*
X178533Y431595D01*
X178535Y431615D01*
X178543Y431633D01*
X178561Y431800D01*
X178561Y508000D01*
X178558Y508020D01*
X178560Y508039D01*
X178538Y508141D01*
X178522Y508243D01*
X178512Y508260D01*
X178508Y508280D01*
X178455Y508369D01*
X178406Y508460D01*
X178392Y508474D01*
X178382Y508491D01*
X178303Y508558D01*
X178228Y508630D01*
X178210Y508638D01*
X178195Y508651D01*
X178099Y508690D01*
X178005Y508733D01*
X177985Y508735D01*
X177967Y508743D01*
X177800Y508761D01*
X64261Y508761D01*
X64261Y850139D01*
X101600Y850139D01*
X101620Y850142D01*
X101639Y850140D01*
X101741Y850162D01*
X101843Y850179D01*
X101860Y850188D01*
X101880Y850192D01*
X101969Y850245D01*
X102060Y850294D01*
X102074Y850308D01*
X102091Y850318D01*
X102158Y850397D01*
X102230Y850472D01*
X102238Y850490D01*
X102251Y850505D01*
X102290Y850601D01*
X102333Y850695D01*
X102335Y850715D01*
X102343Y850733D01*
X102361Y850900D01*
X102361Y1054100D01*
X102358Y1054120D01*
X102360Y1054139D01*
X102338Y1054241D01*
X102322Y1054343D01*
X102312Y1054360D01*
X102308Y1054380D01*
X102255Y1054469D01*
X102206Y1054560D01*
X102192Y1054574D01*
X102182Y1054591D01*
X102103Y1054658D01*
X102028Y1054730D01*
X102010Y1054738D01*
X101995Y1054751D01*
X101899Y1054790D01*
X101805Y1054833D01*
X101785Y1054835D01*
X101767Y1054843D01*
X101600Y1054861D01*
X-370078Y1054861D01*
X-370098Y1054858D01*
X-370117Y1054860D01*
X-370219Y1054838D01*
X-370321Y1054822D01*
X-370338Y1054812D01*
X-370358Y1054808D01*
X-370447Y1054755D01*
X-370538Y1054706D01*
X-370552Y1054692D01*
X-370569Y1054682D01*
X-370636Y1054603D01*
X-370708Y1054528D01*
X-370716Y1054510D01*
X-370729Y1054495D01*
X-370768Y1054399D01*
X-370811Y1054305D01*
X-370813Y1054285D01*
X-370821Y1054267D01*
X-370839Y1054100D01*
X-370839Y10922D01*
X-370836Y10902D01*
X-370838Y10883D01*
X-370816Y10781D01*
X-370800Y10679D01*
X-370790Y10662D01*
X-370786Y10642D01*
X-370733Y10553D01*
X-370684Y10462D01*
X-370670Y10448D01*
X-370660Y10431D01*
X-370581Y10364D01*
X-370506Y10292D01*
X-370488Y10284D01*
X-370473Y10271D01*
X-370377Y10232D01*
X-370283Y10189D01*
X-370263Y10187D01*
X-370245Y10179D01*
X-370078Y10161D01*
X177800Y10161D01*
X177820Y10164D01*
G37*
G36*
X711290Y532654D02*
X711290Y532654D01*
X711381Y532661D01*
X711411Y532673D01*
X711443Y532679D01*
X711523Y532721D01*
X711607Y532757D01*
X711639Y532783D01*
X711660Y532794D01*
X711682Y532817D01*
X711738Y532862D01*
X737138Y558262D01*
X737191Y558336D01*
X737251Y558405D01*
X737263Y558435D01*
X737282Y558461D01*
X737309Y558548D01*
X737343Y558633D01*
X737347Y558674D01*
X737354Y558697D01*
X737353Y558729D01*
X737361Y558800D01*
X737361Y647700D01*
X737347Y647790D01*
X737339Y647881D01*
X737327Y647911D01*
X737322Y647943D01*
X737279Y648023D01*
X737243Y648107D01*
X737217Y648139D01*
X737206Y648160D01*
X737183Y648182D01*
X737138Y648238D01*
X673861Y711515D01*
X673861Y837439D01*
X1016000Y837439D01*
X1016090Y837454D01*
X1016181Y837461D01*
X1016211Y837473D01*
X1016243Y837479D01*
X1016323Y837521D01*
X1016407Y837557D01*
X1016439Y837583D01*
X1016460Y837594D01*
X1016482Y837617D01*
X1016538Y837662D01*
X1181638Y1002762D01*
X1181691Y1002836D01*
X1181751Y1002905D01*
X1181763Y1002935D01*
X1181782Y1002961D01*
X1181809Y1003048D01*
X1181843Y1003133D01*
X1181847Y1003174D01*
X1181854Y1003197D01*
X1181853Y1003229D01*
X1181861Y1003300D01*
X1181861Y1168400D01*
X1181847Y1168490D01*
X1181839Y1168581D01*
X1181827Y1168611D01*
X1181822Y1168643D01*
X1181779Y1168723D01*
X1181743Y1168807D01*
X1181717Y1168839D01*
X1181706Y1168860D01*
X1181683Y1168882D01*
X1181638Y1168938D01*
X1092738Y1257838D01*
X1092664Y1257891D01*
X1092595Y1257951D01*
X1092565Y1257963D01*
X1092539Y1257982D01*
X1092452Y1258009D01*
X1092367Y1258043D01*
X1092326Y1258047D01*
X1092303Y1258054D01*
X1092271Y1258053D01*
X1092200Y1258061D01*
X800861Y1258061D01*
X800861Y1282700D01*
X800858Y1282720D01*
X800860Y1282739D01*
X800838Y1282841D01*
X800822Y1282943D01*
X800812Y1282960D01*
X800808Y1282980D01*
X800755Y1283069D01*
X800706Y1283160D01*
X800692Y1283174D01*
X800682Y1283191D01*
X800603Y1283258D01*
X800528Y1283330D01*
X800510Y1283338D01*
X800495Y1283351D01*
X800399Y1283390D01*
X800305Y1283433D01*
X800285Y1283435D01*
X800267Y1283443D01*
X800100Y1283461D01*
X749300Y1283461D01*
X749280Y1283458D01*
X749261Y1283460D01*
X749159Y1283438D01*
X749057Y1283422D01*
X749040Y1283412D01*
X749020Y1283408D01*
X748931Y1283355D01*
X748840Y1283306D01*
X748826Y1283292D01*
X748809Y1283282D01*
X748742Y1283203D01*
X748671Y1283128D01*
X748662Y1283110D01*
X748649Y1283095D01*
X748610Y1282999D01*
X748567Y1282905D01*
X748565Y1282885D01*
X748557Y1282867D01*
X748539Y1282700D01*
X748539Y1130300D01*
X748542Y1130280D01*
X748540Y1130261D01*
X748562Y1130159D01*
X748579Y1130057D01*
X748588Y1130040D01*
X748592Y1130020D01*
X748645Y1129931D01*
X748694Y1129840D01*
X748708Y1129826D01*
X748718Y1129809D01*
X748797Y1129742D01*
X748872Y1129671D01*
X748890Y1129662D01*
X748905Y1129649D01*
X749001Y1129610D01*
X749095Y1129567D01*
X749115Y1129565D01*
X749133Y1129557D01*
X749300Y1129539D01*
X951739Y1129539D01*
X951739Y1004061D01*
X431800Y1004061D01*
X431780Y1004058D01*
X431761Y1004060D01*
X431659Y1004038D01*
X431557Y1004022D01*
X431540Y1004012D01*
X431520Y1004008D01*
X431431Y1003955D01*
X431340Y1003906D01*
X431326Y1003892D01*
X431309Y1003882D01*
X431242Y1003803D01*
X431171Y1003728D01*
X431162Y1003710D01*
X431149Y1003695D01*
X431110Y1003599D01*
X431067Y1003505D01*
X431065Y1003485D01*
X431057Y1003467D01*
X431039Y1003300D01*
X431039Y838515D01*
X405862Y813338D01*
X405809Y813264D01*
X405749Y813195D01*
X405737Y813165D01*
X405718Y813139D01*
X405691Y813052D01*
X405657Y812967D01*
X405653Y812926D01*
X405646Y812903D01*
X405647Y812871D01*
X405639Y812800D01*
X405639Y622300D01*
X405654Y622210D01*
X405661Y622119D01*
X405673Y622089D01*
X405679Y622057D01*
X405721Y621977D01*
X405757Y621893D01*
X405783Y621861D01*
X405794Y621840D01*
X405817Y621818D01*
X405862Y621762D01*
X494762Y532862D01*
X494836Y532809D01*
X494905Y532749D01*
X494935Y532737D01*
X494961Y532718D01*
X495048Y532691D01*
X495133Y532657D01*
X495174Y532653D01*
X495197Y532646D01*
X495229Y532647D01*
X495300Y532639D01*
X711200Y532639D01*
X711290Y532654D01*
G37*
G36*
X38120Y1066042D02*
X38120Y1066042D01*
X38139Y1066040D01*
X38241Y1066062D01*
X38343Y1066079D01*
X38360Y1066088D01*
X38380Y1066092D01*
X38469Y1066145D01*
X38560Y1066194D01*
X38574Y1066208D01*
X38591Y1066218D01*
X38658Y1066297D01*
X38730Y1066372D01*
X38738Y1066390D01*
X38751Y1066405D01*
X38790Y1066501D01*
X38833Y1066595D01*
X38835Y1066615D01*
X38843Y1066633D01*
X38861Y1066800D01*
X38861Y1509778D01*
X38858Y1509798D01*
X38860Y1509817D01*
X38838Y1509919D01*
X38821Y1510021D01*
X38812Y1510038D01*
X38808Y1510058D01*
X38755Y1510147D01*
X38706Y1510238D01*
X38692Y1510252D01*
X38682Y1510269D01*
X38603Y1510336D01*
X38528Y1510408D01*
X38510Y1510416D01*
X38495Y1510429D01*
X38399Y1510468D01*
X38305Y1510511D01*
X38285Y1510513D01*
X38267Y1510521D01*
X38100Y1510539D01*
X-370078Y1510539D01*
X-370098Y1510536D01*
X-370117Y1510538D01*
X-370219Y1510516D01*
X-370321Y1510500D01*
X-370338Y1510490D01*
X-370358Y1510486D01*
X-370447Y1510433D01*
X-370538Y1510384D01*
X-370552Y1510370D01*
X-370569Y1510360D01*
X-370636Y1510281D01*
X-370708Y1510206D01*
X-370716Y1510188D01*
X-370729Y1510173D01*
X-370768Y1510077D01*
X-370811Y1509983D01*
X-370813Y1509963D01*
X-370821Y1509945D01*
X-370839Y1509778D01*
X-370839Y1066800D01*
X-370836Y1066780D01*
X-370838Y1066761D01*
X-370816Y1066659D01*
X-370800Y1066557D01*
X-370790Y1066540D01*
X-370786Y1066520D01*
X-370733Y1066431D01*
X-370684Y1066340D01*
X-370670Y1066326D01*
X-370660Y1066309D01*
X-370581Y1066242D01*
X-370506Y1066171D01*
X-370488Y1066162D01*
X-370473Y1066149D01*
X-370377Y1066110D01*
X-370283Y1066067D01*
X-370263Y1066065D01*
X-370245Y1066057D01*
X-370078Y1066039D01*
X38100Y1066039D01*
X38120Y1066042D01*
G37*
G36*
X1295420Y1294642D02*
X1295420Y1294642D01*
X1295439Y1294640D01*
X1295541Y1294662D01*
X1295643Y1294679D01*
X1295660Y1294688D01*
X1295680Y1294692D01*
X1295769Y1294745D01*
X1295860Y1294794D01*
X1295874Y1294808D01*
X1295891Y1294818D01*
X1295958Y1294897D01*
X1296030Y1294972D01*
X1296038Y1294990D01*
X1296051Y1295005D01*
X1296090Y1295101D01*
X1296133Y1295195D01*
X1296135Y1295215D01*
X1296143Y1295233D01*
X1296161Y1295400D01*
X1296161Y1509778D01*
X1296158Y1509798D01*
X1296160Y1509817D01*
X1296138Y1509919D01*
X1296121Y1510021D01*
X1296112Y1510038D01*
X1296108Y1510058D01*
X1296055Y1510147D01*
X1296006Y1510238D01*
X1295992Y1510252D01*
X1295982Y1510269D01*
X1295903Y1510336D01*
X1295828Y1510408D01*
X1295810Y1510416D01*
X1295795Y1510429D01*
X1295699Y1510468D01*
X1295605Y1510511D01*
X1295585Y1510513D01*
X1295567Y1510521D01*
X1295400Y1510539D01*
X622300Y1510539D01*
X622280Y1510536D01*
X622261Y1510538D01*
X622159Y1510516D01*
X622057Y1510500D01*
X622040Y1510490D01*
X622020Y1510486D01*
X621931Y1510433D01*
X621840Y1510384D01*
X621826Y1510370D01*
X621809Y1510360D01*
X621742Y1510281D01*
X621671Y1510206D01*
X621662Y1510188D01*
X621649Y1510173D01*
X621610Y1510077D01*
X621567Y1509983D01*
X621565Y1509963D01*
X621557Y1509945D01*
X621539Y1509778D01*
X621539Y1295400D01*
X621542Y1295380D01*
X621540Y1295361D01*
X621562Y1295259D01*
X621579Y1295157D01*
X621588Y1295140D01*
X621592Y1295120D01*
X621645Y1295031D01*
X621694Y1294940D01*
X621708Y1294926D01*
X621718Y1294909D01*
X621797Y1294842D01*
X621872Y1294771D01*
X621890Y1294762D01*
X621905Y1294749D01*
X622001Y1294710D01*
X622095Y1294667D01*
X622115Y1294665D01*
X622133Y1294657D01*
X622300Y1294639D01*
X1295400Y1294639D01*
X1295420Y1294642D01*
G37*
G36*
X309607Y1281954D02*
X309607Y1281954D01*
X309698Y1281961D01*
X309728Y1281973D01*
X309760Y1281979D01*
X309841Y1282021D01*
X309924Y1282057D01*
X309957Y1282083D01*
X309977Y1282094D01*
X309999Y1282117D01*
X310055Y1282162D01*
X310518Y1282625D01*
X375282Y1282625D01*
X375745Y1282162D01*
X375819Y1282109D01*
X375888Y1282049D01*
X375918Y1282037D01*
X375944Y1282018D01*
X376031Y1281991D01*
X376116Y1281957D01*
X376157Y1281953D01*
X376179Y1281946D01*
X376212Y1281947D01*
X376283Y1281939D01*
X571500Y1281939D01*
X571520Y1281942D01*
X571539Y1281940D01*
X571641Y1281962D01*
X571743Y1281979D01*
X571760Y1281988D01*
X571780Y1281992D01*
X571869Y1282045D01*
X571960Y1282094D01*
X571974Y1282108D01*
X571991Y1282118D01*
X572058Y1282197D01*
X572130Y1282272D01*
X572138Y1282290D01*
X572151Y1282305D01*
X572190Y1282401D01*
X572233Y1282495D01*
X572235Y1282515D01*
X572243Y1282533D01*
X572261Y1282700D01*
X572261Y1447800D01*
X572258Y1447820D01*
X572260Y1447839D01*
X572238Y1447941D01*
X572222Y1448043D01*
X572212Y1448060D01*
X572208Y1448080D01*
X572155Y1448169D01*
X572106Y1448260D01*
X572092Y1448274D01*
X572082Y1448291D01*
X572003Y1448358D01*
X571928Y1448430D01*
X571910Y1448438D01*
X571895Y1448451D01*
X571799Y1448490D01*
X571705Y1448533D01*
X571685Y1448535D01*
X571667Y1448543D01*
X571500Y1448561D01*
X63500Y1448561D01*
X63480Y1448558D01*
X63461Y1448560D01*
X63359Y1448538D01*
X63257Y1448522D01*
X63240Y1448512D01*
X63220Y1448508D01*
X63131Y1448455D01*
X63040Y1448406D01*
X63026Y1448392D01*
X63009Y1448382D01*
X62942Y1448303D01*
X62871Y1448228D01*
X62862Y1448210D01*
X62849Y1448195D01*
X62810Y1448099D01*
X62767Y1448005D01*
X62765Y1447985D01*
X62757Y1447967D01*
X62739Y1447800D01*
X62739Y1282700D01*
X62742Y1282680D01*
X62740Y1282661D01*
X62762Y1282559D01*
X62779Y1282457D01*
X62788Y1282440D01*
X62792Y1282420D01*
X62845Y1282331D01*
X62894Y1282240D01*
X62908Y1282226D01*
X62918Y1282209D01*
X62997Y1282142D01*
X63072Y1282071D01*
X63090Y1282062D01*
X63105Y1282049D01*
X63201Y1282010D01*
X63295Y1281967D01*
X63315Y1281965D01*
X63333Y1281957D01*
X63500Y1281939D01*
X309517Y1281939D01*
X309607Y1281954D01*
G37*
G36*
X622320Y1015242D02*
X622320Y1015242D01*
X622339Y1015240D01*
X622441Y1015262D01*
X622543Y1015279D01*
X622560Y1015288D01*
X622580Y1015292D01*
X622669Y1015345D01*
X622760Y1015394D01*
X622774Y1015408D01*
X622791Y1015418D01*
X622858Y1015497D01*
X622930Y1015572D01*
X622938Y1015590D01*
X622951Y1015605D01*
X622990Y1015701D01*
X623033Y1015795D01*
X623035Y1015815D01*
X623043Y1015833D01*
X623061Y1016000D01*
X623061Y1154939D01*
X711200Y1154939D01*
X711220Y1154942D01*
X711239Y1154940D01*
X711341Y1154962D01*
X711443Y1154979D01*
X711460Y1154988D01*
X711480Y1154992D01*
X711569Y1155045D01*
X711660Y1155094D01*
X711674Y1155108D01*
X711691Y1155118D01*
X711758Y1155197D01*
X711830Y1155272D01*
X711838Y1155290D01*
X711851Y1155305D01*
X711890Y1155401D01*
X711933Y1155495D01*
X711935Y1155515D01*
X711943Y1155533D01*
X711961Y1155700D01*
X711961Y1257300D01*
X711958Y1257320D01*
X711960Y1257339D01*
X711938Y1257441D01*
X711922Y1257543D01*
X711912Y1257560D01*
X711908Y1257580D01*
X711855Y1257669D01*
X711806Y1257760D01*
X711792Y1257774D01*
X711782Y1257791D01*
X711703Y1257858D01*
X711628Y1257930D01*
X711610Y1257938D01*
X711595Y1257951D01*
X711499Y1257990D01*
X711405Y1258033D01*
X711385Y1258035D01*
X711367Y1258043D01*
X711200Y1258061D01*
X673861Y1258061D01*
X673861Y1282700D01*
X673858Y1282720D01*
X673860Y1282739D01*
X673838Y1282841D01*
X673822Y1282943D01*
X673812Y1282960D01*
X673808Y1282980D01*
X673755Y1283069D01*
X673706Y1283160D01*
X673692Y1283174D01*
X673682Y1283191D01*
X673603Y1283258D01*
X673528Y1283330D01*
X673510Y1283338D01*
X673495Y1283351D01*
X673399Y1283390D01*
X673305Y1283433D01*
X673285Y1283435D01*
X673267Y1283443D01*
X673100Y1283461D01*
X584200Y1283461D01*
X584180Y1283458D01*
X584161Y1283460D01*
X584059Y1283438D01*
X583957Y1283422D01*
X583940Y1283412D01*
X583920Y1283408D01*
X583831Y1283355D01*
X583740Y1283306D01*
X583726Y1283292D01*
X583709Y1283282D01*
X583642Y1283203D01*
X583571Y1283128D01*
X583562Y1283110D01*
X583549Y1283095D01*
X583510Y1282999D01*
X583467Y1282905D01*
X583465Y1282885D01*
X583457Y1282867D01*
X583439Y1282700D01*
X583439Y1258061D01*
X381000Y1258061D01*
X380980Y1258058D01*
X380961Y1258060D01*
X380859Y1258038D01*
X380757Y1258022D01*
X380740Y1258012D01*
X380720Y1258008D01*
X380631Y1257955D01*
X380540Y1257906D01*
X380526Y1257892D01*
X380509Y1257882D01*
X380442Y1257803D01*
X380371Y1257728D01*
X380362Y1257710D01*
X380349Y1257695D01*
X380310Y1257599D01*
X380267Y1257505D01*
X380265Y1257485D01*
X380257Y1257467D01*
X380239Y1257300D01*
X380239Y1016000D01*
X380242Y1015980D01*
X380240Y1015961D01*
X380262Y1015859D01*
X380279Y1015757D01*
X380288Y1015740D01*
X380292Y1015720D01*
X380345Y1015631D01*
X380394Y1015540D01*
X380408Y1015526D01*
X380418Y1015509D01*
X380497Y1015442D01*
X380572Y1015371D01*
X380590Y1015362D01*
X380605Y1015349D01*
X380701Y1015310D01*
X380795Y1015267D01*
X380815Y1015265D01*
X380833Y1015257D01*
X381000Y1015239D01*
X622300Y1015239D01*
X622320Y1015242D01*
G37*
G36*
X342920Y532642D02*
X342920Y532642D01*
X342939Y532640D01*
X343041Y532662D01*
X343143Y532679D01*
X343160Y532688D01*
X343180Y532692D01*
X343269Y532745D01*
X343360Y532794D01*
X343374Y532808D01*
X343391Y532818D01*
X343458Y532897D01*
X343530Y532972D01*
X343538Y532990D01*
X343551Y533005D01*
X343590Y533101D01*
X343633Y533195D01*
X343635Y533215D01*
X343643Y533233D01*
X343661Y533400D01*
X343661Y698500D01*
X343647Y698590D01*
X343639Y698681D01*
X343627Y698711D01*
X343622Y698743D01*
X343579Y698823D01*
X343543Y698907D01*
X343517Y698939D01*
X343506Y698960D01*
X343483Y698982D01*
X343438Y699038D01*
X216438Y826038D01*
X216364Y826091D01*
X216295Y826151D01*
X216265Y826163D01*
X216239Y826182D01*
X216152Y826209D01*
X216067Y826243D01*
X216026Y826247D01*
X216003Y826254D01*
X215971Y826253D01*
X215900Y826261D01*
X88900Y826261D01*
X88880Y826258D01*
X88861Y826260D01*
X88759Y826238D01*
X88657Y826222D01*
X88640Y826212D01*
X88620Y826208D01*
X88531Y826155D01*
X88440Y826106D01*
X88426Y826092D01*
X88409Y826082D01*
X88342Y826003D01*
X88271Y825928D01*
X88262Y825910D01*
X88249Y825895D01*
X88210Y825799D01*
X88167Y825705D01*
X88165Y825685D01*
X88157Y825667D01*
X88139Y825500D01*
X88139Y533400D01*
X88142Y533380D01*
X88140Y533361D01*
X88162Y533259D01*
X88179Y533157D01*
X88188Y533140D01*
X88192Y533120D01*
X88245Y533031D01*
X88294Y532940D01*
X88308Y532926D01*
X88318Y532909D01*
X88397Y532842D01*
X88472Y532771D01*
X88490Y532762D01*
X88505Y532749D01*
X88601Y532710D01*
X88695Y532667D01*
X88715Y532665D01*
X88733Y532657D01*
X88900Y532639D01*
X342900Y532639D01*
X342920Y532642D01*
G37*
G36*
X177890Y850154D02*
X177890Y850154D01*
X177981Y850161D01*
X178011Y850173D01*
X178043Y850179D01*
X178123Y850221D01*
X178207Y850257D01*
X178239Y850283D01*
X178260Y850294D01*
X178282Y850317D01*
X178338Y850362D01*
X318038Y990062D01*
X318091Y990136D01*
X318151Y990205D01*
X318163Y990235D01*
X318182Y990261D01*
X318209Y990348D01*
X318243Y990433D01*
X318247Y990474D01*
X318254Y990497D01*
X318253Y990529D01*
X318261Y990600D01*
X318261Y1219200D01*
X318258Y1219220D01*
X318260Y1219239D01*
X318238Y1219341D01*
X318222Y1219443D01*
X318212Y1219460D01*
X318208Y1219480D01*
X318155Y1219569D01*
X318106Y1219660D01*
X318092Y1219674D01*
X318082Y1219691D01*
X318003Y1219758D01*
X317928Y1219830D01*
X317910Y1219838D01*
X317895Y1219851D01*
X317799Y1219890D01*
X317705Y1219933D01*
X317685Y1219935D01*
X317667Y1219943D01*
X317500Y1219961D01*
X139700Y1219961D01*
X139680Y1219958D01*
X139661Y1219960D01*
X139559Y1219938D01*
X139457Y1219922D01*
X139440Y1219912D01*
X139420Y1219908D01*
X139331Y1219855D01*
X139240Y1219806D01*
X139226Y1219792D01*
X139209Y1219782D01*
X139142Y1219703D01*
X139071Y1219628D01*
X139062Y1219610D01*
X139049Y1219595D01*
X139010Y1219499D01*
X138967Y1219405D01*
X138965Y1219385D01*
X138957Y1219367D01*
X138939Y1219200D01*
X138939Y850900D01*
X138942Y850880D01*
X138940Y850861D01*
X138962Y850759D01*
X138979Y850657D01*
X138988Y850640D01*
X138992Y850620D01*
X139045Y850531D01*
X139094Y850440D01*
X139108Y850426D01*
X139118Y850409D01*
X139197Y850342D01*
X139272Y850271D01*
X139290Y850262D01*
X139305Y850249D01*
X139401Y850210D01*
X139495Y850167D01*
X139515Y850165D01*
X139533Y850157D01*
X139700Y850139D01*
X177800Y850139D01*
X177890Y850154D01*
G37*
G36*
X939820Y1015242D02*
X939820Y1015242D01*
X939839Y1015240D01*
X939941Y1015262D01*
X940043Y1015279D01*
X940060Y1015288D01*
X940080Y1015292D01*
X940169Y1015345D01*
X940260Y1015394D01*
X940274Y1015408D01*
X940291Y1015418D01*
X940358Y1015497D01*
X940430Y1015572D01*
X940438Y1015590D01*
X940451Y1015605D01*
X940490Y1015701D01*
X940533Y1015795D01*
X940535Y1015815D01*
X940543Y1015833D01*
X940561Y1016000D01*
X940561Y1104900D01*
X940558Y1104920D01*
X940560Y1104939D01*
X940538Y1105041D01*
X940522Y1105143D01*
X940512Y1105160D01*
X940508Y1105180D01*
X940455Y1105269D01*
X940406Y1105360D01*
X940392Y1105374D01*
X940382Y1105391D01*
X940303Y1105458D01*
X940228Y1105530D01*
X940210Y1105538D01*
X940195Y1105551D01*
X940099Y1105590D01*
X940005Y1105633D01*
X939985Y1105635D01*
X939967Y1105643D01*
X939800Y1105661D01*
X788161Y1105661D01*
X788161Y1117600D01*
X788158Y1117620D01*
X788160Y1117639D01*
X788138Y1117741D01*
X788122Y1117843D01*
X788112Y1117860D01*
X788108Y1117880D01*
X788055Y1117969D01*
X788006Y1118060D01*
X787992Y1118074D01*
X787982Y1118091D01*
X787903Y1118158D01*
X787828Y1118230D01*
X787810Y1118238D01*
X787795Y1118251D01*
X787699Y1118290D01*
X787605Y1118333D01*
X787585Y1118335D01*
X787567Y1118343D01*
X787400Y1118361D01*
X673861Y1118361D01*
X673861Y1143000D01*
X673858Y1143020D01*
X673860Y1143039D01*
X673838Y1143141D01*
X673822Y1143243D01*
X673812Y1143260D01*
X673808Y1143280D01*
X673755Y1143369D01*
X673706Y1143460D01*
X673692Y1143474D01*
X673682Y1143491D01*
X673603Y1143558D01*
X673528Y1143630D01*
X673510Y1143638D01*
X673495Y1143651D01*
X673399Y1143690D01*
X673305Y1143733D01*
X673285Y1143735D01*
X673267Y1143743D01*
X673100Y1143761D01*
X635000Y1143761D01*
X634980Y1143758D01*
X634961Y1143760D01*
X634859Y1143738D01*
X634757Y1143722D01*
X634740Y1143712D01*
X634720Y1143708D01*
X634631Y1143655D01*
X634540Y1143606D01*
X634526Y1143592D01*
X634509Y1143582D01*
X634442Y1143503D01*
X634371Y1143428D01*
X634362Y1143410D01*
X634349Y1143395D01*
X634310Y1143299D01*
X634267Y1143205D01*
X634265Y1143185D01*
X634257Y1143167D01*
X634239Y1143000D01*
X634239Y1016000D01*
X634242Y1015980D01*
X634240Y1015961D01*
X634262Y1015859D01*
X634279Y1015757D01*
X634288Y1015740D01*
X634292Y1015720D01*
X634345Y1015631D01*
X634394Y1015540D01*
X634408Y1015526D01*
X634418Y1015509D01*
X634497Y1015442D01*
X634572Y1015371D01*
X634590Y1015362D01*
X634605Y1015349D01*
X634701Y1015310D01*
X634795Y1015267D01*
X634815Y1015265D01*
X634833Y1015257D01*
X635000Y1015239D01*
X939800Y1015239D01*
X939820Y1015242D01*
G37*
G36*
X165120Y316742D02*
X165120Y316742D01*
X165139Y316740D01*
X165241Y316762D01*
X165343Y316779D01*
X165360Y316788D01*
X165380Y316792D01*
X165469Y316845D01*
X165560Y316894D01*
X165574Y316908D01*
X165591Y316918D01*
X165658Y316997D01*
X165730Y317072D01*
X165738Y317090D01*
X165751Y317105D01*
X165790Y317201D01*
X165833Y317295D01*
X165835Y317315D01*
X165843Y317333D01*
X165861Y317500D01*
X165861Y406400D01*
X165858Y406420D01*
X165860Y406439D01*
X165838Y406541D01*
X165822Y406643D01*
X165812Y406660D01*
X165808Y406680D01*
X165755Y406769D01*
X165706Y406860D01*
X165692Y406874D01*
X165682Y406891D01*
X165603Y406958D01*
X165528Y407030D01*
X165510Y407038D01*
X165495Y407051D01*
X165399Y407090D01*
X165305Y407133D01*
X165285Y407135D01*
X165267Y407143D01*
X165100Y407161D01*
X50800Y407161D01*
X50780Y407158D01*
X50761Y407160D01*
X50659Y407138D01*
X50557Y407122D01*
X50540Y407112D01*
X50520Y407108D01*
X50431Y407055D01*
X50340Y407006D01*
X50326Y406992D01*
X50309Y406982D01*
X50242Y406903D01*
X50171Y406828D01*
X50162Y406810D01*
X50149Y406795D01*
X50110Y406699D01*
X50067Y406605D01*
X50065Y406585D01*
X50057Y406567D01*
X50039Y406400D01*
X50039Y317500D01*
X50042Y317480D01*
X50040Y317461D01*
X50062Y317359D01*
X50079Y317257D01*
X50088Y317240D01*
X50092Y317220D01*
X50145Y317131D01*
X50194Y317040D01*
X50208Y317026D01*
X50218Y317009D01*
X50297Y316942D01*
X50372Y316871D01*
X50390Y316862D01*
X50405Y316849D01*
X50501Y316810D01*
X50595Y316767D01*
X50615Y316765D01*
X50633Y316757D01*
X50800Y316739D01*
X165100Y316739D01*
X165120Y316742D01*
G37*
D10*
X558800Y88900D03*
X635000Y88900D03*
D11*
X838200Y292100D03*
X762000Y292100D03*
D12*
X711200Y812800D03*
X711200Y736600D03*
D10*
X939800Y177800D03*
X1016000Y177800D03*
D13*
X1282700Y76200D03*
X1282700Y152400D03*
D10*
X1739900Y482600D03*
X1816100Y482600D03*
X711200Y88900D03*
X787400Y88900D03*
X342900Y1485900D03*
X419100Y1485900D03*
D13*
X939800Y381000D03*
X939800Y457200D03*
X825500Y685800D03*
X825500Y762000D03*
D14*
X63500Y279400D03*
X63500Y330200D03*
X152400Y279400D03*
X152400Y330200D03*
D15*
X152400Y444500D03*
X152400Y393700D03*
X63500Y444500D03*
X63500Y393700D03*
D12*
X825500Y622300D03*
X825500Y546100D03*
X1130300Y215900D03*
X1130300Y139700D03*
X1079500Y215900D03*
X1079500Y139700D03*
D16*
X1955800Y83820D02*
X1955800Y68580D01*
X1930400Y68580D02*
X1930400Y83820D01*
X1905000Y83820D02*
X1905000Y68580D01*
X1879600Y68580D02*
X1879600Y83820D01*
X1854200Y83820D02*
X1854200Y68580D01*
D17*
X768350Y1281303D03*
X781050Y1281303D03*
X793750Y1281303D03*
X806450Y1281303D03*
D18*
X787400Y1318133D03*
D17*
X755650Y1116203D03*
X768350Y1116203D03*
X781050Y1116203D03*
X793750Y1116203D03*
D18*
X774700Y1153033D03*
D17*
X641350Y1141603D03*
X654050Y1141603D03*
X666750Y1141603D03*
X679450Y1141603D03*
D18*
X660400Y1178433D03*
D17*
X641350Y1281303D03*
X654050Y1281303D03*
X666750Y1281303D03*
X679450Y1281303D03*
D18*
X660400Y1318133D03*
D19*
X800100Y139700D03*
X825500Y139700D03*
X825500Y165100D03*
X571500Y139700D03*
X596900Y139700D03*
X596900Y165100D03*
X1447800Y673100D03*
X1574800Y673100D03*
D20*
X1574800Y711200D03*
X1447800Y711200D03*
D14*
X609600Y279400D03*
X609600Y406400D03*
X673100Y279400D03*
X673100Y406400D03*
D15*
X1600200Y444500D03*
X1600200Y317500D03*
X1600200Y622300D03*
X1600200Y495300D03*
X1638300Y444500D03*
X1638300Y317500D03*
X1638300Y622300D03*
X1638300Y495300D03*
X1168400Y939800D03*
X1168400Y812800D03*
X1206500Y939800D03*
X1206500Y812800D03*
D14*
X1485900Y76200D03*
X1485900Y203200D03*
X1435100Y76200D03*
X1435100Y203200D03*
X1536700Y76200D03*
X1536700Y203200D03*
X1587500Y76200D03*
X1587500Y203200D03*
X1638300Y76200D03*
X1638300Y203200D03*
D15*
X1739900Y203200D03*
X1739900Y76200D03*
X1524000Y444500D03*
X1524000Y317500D03*
X1524000Y622300D03*
X1524000Y495300D03*
X1562100Y444500D03*
X1562100Y317500D03*
X1562100Y622300D03*
X1562100Y495300D03*
X1244600Y939800D03*
X1244600Y812800D03*
D14*
X1384300Y76200D03*
X1384300Y203200D03*
D15*
X1689100Y203200D03*
X1689100Y76200D03*
D14*
X838200Y342900D03*
X838200Y469900D03*
X762000Y342900D03*
X762000Y469900D03*
D21*
X1085100Y473456D03*
X1090100Y473456D03*
X1100100Y473456D03*
X1105100Y473456D03*
X1110100Y473456D03*
X1115100Y473456D03*
X1120100Y473456D03*
X1125100Y473456D03*
X1130100Y473456D03*
X1135100Y473456D03*
X1140100Y473456D03*
X1150100Y473456D03*
D22*
X1157097Y480500D03*
X1157097Y485500D03*
X1157097Y490500D03*
X1157097Y500500D03*
X1157097Y505500D03*
X1157097Y510500D03*
X1157097Y515500D03*
X1157097Y520500D03*
X1157097Y525500D03*
X1157097Y530500D03*
X1157097Y535500D03*
D21*
X1150100Y542544D03*
X1145100Y542544D03*
X1135100Y542544D03*
X1130100Y542544D03*
X1125100Y542544D03*
X1120100Y542544D03*
X1110100Y542544D03*
X1105100Y542544D03*
X1095100Y542544D03*
X1085100Y542544D03*
D22*
X1078103Y530500D03*
X1078103Y525500D03*
X1078103Y520500D03*
X1078103Y510500D03*
X1078103Y505500D03*
X1078103Y500500D03*
X1078103Y490500D03*
X1078103Y480500D03*
D23*
X1117600Y508000D03*
D21*
X1145100Y473456D03*
D22*
X1157097Y495500D03*
D21*
X1140100Y542544D03*
X1115100Y542544D03*
X1090100Y542544D03*
D16*
X1130300Y83820D02*
X1130300Y68580D01*
X1155700Y68580D02*
X1155700Y83820D01*
X1181100Y83820D02*
X1181100Y68580D01*
D24*
X1714500Y711200D03*
D25*
X330250Y647700D03*
X431750Y647700D03*
D26*
X381000Y873700D03*
D25*
X292150Y1028700D03*
X393650Y1028700D03*
D26*
X342900Y1254700D03*
D27*
X774700Y670878D02*
X774700Y649923D01*
X774700Y802323D02*
X774700Y823278D01*
X876300Y505778D02*
X876300Y484823D01*
X876300Y637223D02*
X876300Y658178D01*
D28*
X508000Y431600D03*
X508000Y406600D03*
D29*
X20800Y1371600D03*
X72800Y1371600D03*
D30*
X254000Y1447800D03*
X254000Y1463800D03*
D29*
X46200Y647700D03*
X98200Y647700D03*
X144300Y1028700D03*
X92300Y1028700D03*
D28*
X431800Y431600D03*
X431800Y406600D03*
X355600Y431600D03*
X355600Y406600D03*
X279400Y431600D03*
X279400Y406600D03*
D31*
X279400Y292300D03*
X279400Y317300D03*
X355600Y292300D03*
X355600Y317300D03*
X431800Y292300D03*
X431800Y317300D03*
X508000Y292300D03*
X508000Y317300D03*
D32*
X535400Y1397000D03*
X658400Y1397000D03*
D28*
X76200Y1295200D03*
X76200Y1270200D03*
D33*
X-304800Y1371600D03*
X-304800Y647700D03*
D34*
X755650Y1116203D02*
X768350Y1116203D01*
X781050Y1116203D01*
X654050Y1141603D02*
X641350Y1141603D01*
X654050Y1141603D02*
X666750Y1141603D01*
D35*
X1117600Y508000D03*
D34*
X768350Y1073150D02*
X768350Y1116203D01*
X768350Y1073150D02*
X774700Y1066800D01*
D36*
X774700Y1066800D03*
D37*
X1145100Y560900D02*
X1145100Y542544D01*
X1145100Y560900D02*
X1168400Y584200D01*
D38*
X1168400Y584200D03*
D37*
X1157097Y535500D02*
X1183200Y535500D01*
X1193800Y546100D01*
D38*
X1193800Y546100D03*
D34*
X654050Y1111250D02*
X654050Y1141603D01*
X654050Y1111250D02*
X660400Y1104900D01*
D36*
X660400Y1104900D03*
D39*
X295400Y1463800D02*
X254000Y1463800D01*
X295400Y1463800D02*
X317500Y1485900D01*
X342900Y1485900D01*
D37*
X947300Y500500D02*
X1078103Y500500D01*
X947300Y500500D02*
X939800Y508000D01*
D38*
X939800Y508000D03*
D40*
X1447800Y673100D02*
X1447800Y711200D01*
D37*
X1447800Y673100D02*
X1305200Y530500D01*
X1157097Y530500D01*
D40*
X1168400Y939800D02*
X1206500Y939800D01*
X1244600Y939800D01*
X1282700Y76200D02*
X1181100Y76200D01*
X1282700Y76200D02*
X1384300Y76200D01*
X1435100Y76200D01*
X1485900Y76200D01*
X1536700Y76200D01*
X1587500Y76200D01*
X1638300Y76200D01*
X1689100Y76200D01*
X1739900Y76200D01*
D37*
X1135100Y542544D02*
X1135100Y589000D01*
X1231900Y685800D01*
X1244600Y889000D02*
X1244600Y939800D01*
X1244600Y889000D02*
X1231900Y876300D01*
X1231900Y685800D01*
X1145100Y473456D02*
X1145100Y442400D01*
X1384300Y203200D01*
X1417200Y500500D02*
X1157097Y500500D01*
X1417200Y500500D02*
X1587500Y330200D01*
X1587500Y304800D02*
X1689100Y203200D01*
X1587500Y304800D02*
X1587500Y330200D01*
X1676400Y266700D02*
X1739900Y203200D01*
X1676400Y266700D02*
X1676400Y381000D01*
X1638300Y419100D01*
X1524000Y419100D01*
X1437600Y505500D02*
X1157097Y505500D01*
X1437600Y505500D02*
X1524000Y419100D01*
D34*
X781050Y1281303D02*
X768350Y1281303D01*
X781050Y1281303D02*
X793750Y1281303D01*
D37*
X1090100Y599000D02*
X1090100Y542544D01*
X1090100Y599000D02*
X1003300Y685800D01*
D38*
X1003300Y685800D03*
D34*
X793750Y1172083D02*
X793750Y1281303D01*
X793750Y1172083D02*
X774700Y1153033D01*
X781050Y1149350D02*
X781050Y1281303D01*
X768350Y1281303D02*
X768350Y1162050D01*
X781050Y1149350D01*
D37*
X774700Y1153033D02*
X1003300Y1153033D01*
X1003300Y685800D01*
D41*
X330250Y647700D02*
X98200Y647700D01*
D40*
X533400Y482600D02*
X609600Y406400D01*
X533400Y482600D02*
X368300Y482600D01*
X330250Y520650D01*
X330250Y647700D01*
D37*
X1044300Y530500D02*
X1078103Y530500D01*
X1044300Y530500D02*
X952500Y622300D01*
X952500Y800100D01*
X812800Y1116203D02*
X812800Y1117600D01*
X812800Y1116203D02*
X793750Y1116203D01*
D38*
X812800Y1117600D03*
X952500Y800100D03*
D37*
X1125100Y473456D02*
X1125100Y303664D01*
X1024636Y203200D02*
X1003300Y203200D01*
X977900Y177800D01*
X939800Y177800D01*
X1024636Y203200D02*
X1125100Y303664D01*
X1130100Y291900D02*
X1016000Y177800D01*
X1130100Y291900D02*
X1130100Y473456D01*
D40*
X774700Y812800D02*
X711200Y812800D01*
X825500Y812800D02*
X876300Y762000D01*
X825500Y812800D02*
X774700Y812800D01*
X876300Y762000D02*
X876300Y647700D01*
D37*
X965400Y520500D02*
X1078103Y520500D01*
X965400Y520500D02*
X965200Y520700D01*
D38*
X965200Y520700D03*
D37*
X876300Y647700D02*
X850900Y647700D01*
X825500Y622300D01*
D40*
X825500Y762000D02*
X812800Y762000D01*
X774700Y723900D01*
X774700Y660400D01*
D37*
X1085100Y578600D02*
X1085100Y542544D01*
X990600Y749300D02*
X977900Y762000D01*
X990600Y749300D02*
X990600Y673100D01*
D38*
X977900Y762000D03*
D37*
X990600Y673100D02*
X1085100Y578600D01*
X1140100Y225700D02*
X1130300Y215900D01*
X1140100Y225700D02*
X1140100Y473456D01*
X1130100Y542544D02*
X1130300Y542744D01*
X1130300Y596900D01*
X1168400Y635000D01*
D38*
X1168400Y635000D03*
D37*
X1135100Y284200D02*
X1079500Y228600D01*
X1079500Y215900D01*
X1135100Y284200D02*
X1135100Y473456D01*
X1125100Y542544D02*
X1125100Y617100D01*
X1168400Y660400D01*
D38*
X1168400Y660400D03*
D41*
X292150Y1028700D02*
X144300Y1028700D01*
D37*
X800100Y508000D02*
X838200Y469900D01*
X482600Y508000D02*
X368300Y622300D01*
X368300Y711200D01*
X292150Y787350D01*
X292150Y1028700D01*
X482600Y508000D02*
X800100Y508000D01*
X944600Y490500D02*
X1078103Y490500D01*
X944600Y490500D02*
X914400Y520700D01*
X709803Y1141603D02*
X711200Y1143000D01*
X709803Y1141603D02*
X679450Y1141603D01*
D38*
X711200Y1143000D03*
X914400Y774700D03*
D37*
X914400Y520700D01*
D34*
X654050Y1281303D02*
X641350Y1281303D01*
X654050Y1281303D02*
X666750Y1281303D01*
X641350Y1281303D02*
X641350Y1197483D01*
X660400Y1178433D01*
X654050Y1184783D02*
X654050Y1281303D01*
X654050Y1184783D02*
X660400Y1178433D01*
X666750Y1184783D02*
X666750Y1281303D01*
X666750Y1184783D02*
X660400Y1178433D01*
D42*
X543383Y1178433D02*
X393650Y1028700D01*
X543383Y1178433D02*
X660400Y1178433D01*
D37*
X990600Y431800D02*
X939800Y381000D01*
X990600Y431800D02*
X1061053Y431800D01*
X1085100Y455847D02*
X1085100Y473456D01*
X1085100Y455847D02*
X1061053Y431800D01*
X393650Y1028700D02*
X304800Y939850D01*
X381000Y711200D02*
X381000Y622300D01*
X482600Y520700D01*
X876300Y457200D02*
X876300Y419100D01*
X914400Y381000D01*
X939800Y381000D01*
X304800Y787400D02*
X304800Y939850D01*
X304800Y787400D02*
X381000Y711200D01*
X482600Y520700D02*
X812800Y520700D01*
X876300Y457200D01*
X914400Y457200D02*
X939800Y457200D01*
X914400Y457200D02*
X876300Y495300D01*
X1001200Y480500D02*
X1078103Y480500D01*
X1001200Y480500D02*
X977900Y457200D01*
X939800Y457200D01*
X1090100Y455100D02*
X1090100Y473456D01*
X1090100Y455100D02*
X1054100Y419100D01*
X1003300Y419100D01*
D38*
X1003300Y419100D03*
X723900Y1270000D03*
D37*
X709803Y1281303D02*
X679450Y1281303D01*
X709803Y1281303D02*
X721106Y1270000D01*
X723900Y1270000D01*
X1095100Y619400D02*
X1095100Y542544D01*
X1095100Y619400D02*
X1054100Y660400D01*
X1103503Y1281303D02*
X806450Y1281303D01*
X1054100Y850900D02*
X1054100Y660400D01*
X1054100Y850900D02*
X1206500Y1003300D01*
X1206500Y1178306D01*
X1103503Y1281303D01*
D40*
X635000Y88900D02*
X660400Y63500D01*
X635000Y88900D02*
X596900Y127000D01*
X596900Y139700D01*
X787400Y88900D02*
X825500Y127000D01*
X825500Y139700D01*
X266500Y393700D02*
X152400Y393700D01*
X266500Y393700D02*
X279400Y406600D01*
X355600Y406600D01*
X431800Y406600D01*
X508000Y406600D01*
D41*
X152400Y393700D02*
X63500Y393700D01*
X63500Y330200D01*
X152400Y330200D02*
X152400Y393700D01*
D40*
X508000Y317500D02*
X508000Y317300D01*
X508000Y317500D02*
X508000Y406600D01*
X355600Y317300D02*
X279400Y317300D01*
X431800Y317300D02*
X508000Y317300D01*
X266500Y330200D02*
X152400Y330200D01*
X266500Y330200D02*
X279400Y317300D01*
X596900Y177600D02*
X596900Y165100D01*
X596900Y139700D01*
X596900Y177600D02*
X533400Y241100D01*
X533400Y304800D01*
X520700Y317500D01*
X508000Y317500D01*
X825500Y165100D02*
X825500Y139700D01*
X762000Y63500D02*
X660400Y63500D01*
X762000Y63500D02*
X787400Y88900D01*
X1079500Y139700D02*
X1130300Y139700D01*
D37*
X1079500Y139700D02*
X825500Y139700D01*
X1120100Y320000D02*
X1120100Y473456D01*
X1032764Y232664D02*
X893064Y232664D01*
X1032764Y232664D02*
X1120100Y320000D01*
X893064Y232664D02*
X825500Y165100D01*
D40*
X431800Y317300D02*
X355600Y317300D01*
D41*
X46200Y982600D02*
X92300Y1028700D01*
D40*
X152400Y444500D02*
X266500Y444500D01*
X279400Y431600D01*
X355600Y431600D01*
X431800Y431600D01*
X508000Y431600D01*
D41*
X63500Y444500D02*
X46200Y461800D01*
X63500Y444500D02*
X152400Y444500D01*
X152400Y279400D02*
X63500Y279400D01*
D40*
X355600Y292300D02*
X431800Y292300D01*
X508000Y292300D01*
X266700Y279400D02*
X152400Y279400D01*
X508000Y431600D02*
X558600Y381000D01*
X647700Y381000D01*
X673100Y406400D01*
X736600Y469900D01*
X762000Y469900D01*
D37*
X1115100Y473456D02*
X1115100Y327700D01*
X1028700Y241300D01*
X889000Y241300D01*
D38*
X889000Y241300D03*
D37*
X1110100Y542544D02*
X1110100Y655200D01*
X1079500Y685800D01*
D38*
X1079500Y685800D03*
D40*
X279400Y292100D02*
X266700Y279400D01*
X279400Y292100D02*
X279400Y292300D01*
X355600Y292300D01*
D41*
X46200Y647700D02*
X46200Y982600D01*
X46200Y647700D02*
X46200Y461800D01*
D37*
X1100100Y452400D02*
X1100100Y473456D01*
D40*
X838200Y342900D02*
X838200Y292100D01*
D37*
X838200Y342900D02*
X990600Y342900D01*
X1100100Y452400D01*
X1105100Y444700D02*
X1105100Y473456D01*
D40*
X762000Y342900D02*
X762000Y292100D01*
D37*
X939800Y279400D02*
X1105100Y444700D01*
X774700Y279400D02*
X762000Y292100D01*
X774700Y279400D02*
X939800Y279400D01*
X1150100Y450100D02*
X1150100Y473456D01*
X1219200Y381000D02*
X1257300Y381000D01*
X1435100Y203200D01*
X1219200Y381000D02*
X1150100Y450100D01*
D40*
X1435100Y203200D02*
X1536700Y101600D01*
X1828800Y101600D02*
X1854200Y76200D01*
X1828800Y101600D02*
X1536700Y101600D01*
D37*
X1208600Y480500D02*
X1157097Y480500D01*
X1208600Y480500D02*
X1485900Y203200D01*
D40*
X1562100Y127000D01*
X1828800Y127000D02*
X1879600Y76200D01*
X1828800Y127000D02*
X1562100Y127000D01*
D34*
X1600200Y444500D02*
X1600200Y495300D01*
D37*
X1587500Y495300D01*
X1562300Y520500D01*
X1157097Y520500D01*
D34*
X1638300Y495300D02*
X1638300Y444500D01*
D37*
X1638300Y495300D02*
X1608100Y525500D01*
X1157097Y525500D01*
X1157097Y485500D02*
X1254400Y485500D01*
X1536700Y203200D01*
D40*
X1587500Y152400D01*
X1828800Y152400D01*
X1905000Y76200D01*
D37*
X1300200Y490500D02*
X1157097Y490500D01*
X1300200Y490500D02*
X1587500Y203200D01*
X1638300Y203200D02*
X1536700Y304800D01*
X1498600Y304800D01*
X1307900Y495500D02*
X1157097Y495500D01*
X1307900Y495500D02*
X1498600Y304800D01*
D40*
X1600200Y622300D02*
X1638300Y622300D01*
X1739900Y558800D02*
X1739900Y482600D01*
X1562100Y622300D02*
X1524000Y622300D01*
X1562100Y622300D02*
X1600200Y622300D01*
X1638300Y622300D02*
X1676400Y622300D01*
X1739900Y558800D01*
X1714500Y711200D02*
X1574800Y711200D01*
X1524000Y673100D02*
X1524000Y622300D01*
X1524000Y673100D02*
X1562100Y711200D01*
X1574800Y711200D01*
D37*
X1150100Y553200D02*
X1150100Y542544D01*
X1150100Y553200D02*
X1219200Y622300D01*
X1371600Y622300D01*
D38*
X1371600Y622300D03*
D37*
X1155700Y76200D02*
X1219200Y12700D01*
X1955800Y12700D01*
X2006600Y177800D02*
X1739900Y444500D01*
X2006600Y63500D02*
X1955800Y12700D01*
X2006600Y63500D02*
X2006600Y177800D01*
X1739900Y444500D02*
X1739900Y482600D01*
X1168400Y812800D02*
X1115100Y759500D01*
X1115100Y542544D01*
X1120100Y542544D02*
X1120100Y733044D01*
X1199856Y812800D02*
X1206500Y812800D01*
X1199856Y812800D02*
X1120100Y733044D01*
D34*
X1524000Y495300D02*
X1524000Y444500D01*
D37*
X1470700Y510500D02*
X1157097Y510500D01*
X1485900Y495300D02*
X1524000Y495300D01*
X1485900Y495300D02*
X1470700Y510500D01*
D34*
X1562100Y495300D02*
X1562100Y444500D01*
D37*
X1562100Y495300D02*
X1549400Y508000D01*
X1478400Y515500D02*
X1157097Y515500D01*
X1478400Y515500D02*
X1485900Y508000D01*
X1549400Y508000D01*
D39*
X149000Y1447800D02*
X72800Y1371600D01*
X149000Y1447800D02*
X254000Y1447800D01*
D41*
X355600Y1371600D02*
X72800Y1371600D01*
X355600Y1371600D02*
X381000Y1397000D01*
D37*
X955000Y505500D02*
X1078103Y505500D01*
X955000Y505500D02*
X952500Y508000D01*
D38*
X952500Y508000D03*
X533400Y1308100D03*
D41*
X535400Y1397000D02*
X381000Y1397000D01*
D37*
X533400Y1395000D02*
X533400Y1308100D01*
X533400Y1395000D02*
X535400Y1397000D01*
D39*
X76102Y1368298D02*
X76200Y1295200D01*
X76102Y1368298D02*
X72800Y1371600D01*
D42*
X658400Y1397000D02*
X774700Y1397000D01*
X787400Y1384300D01*
X787400Y1318133D01*
D37*
X962700Y510500D02*
X1078103Y510500D01*
X962700Y510500D02*
X927100Y546100D01*
X927100Y787400D01*
X723900Y1318133D02*
X660400Y1318133D01*
X723900Y1318133D02*
X723900Y1282700D01*
D42*
X660400Y1318133D02*
X660400Y1395000D01*
X658400Y1397000D01*
D38*
X723900Y1282700D03*
X927100Y787400D03*
D37*
X1140100Y581300D02*
X1140100Y542544D01*
X1140100Y581300D02*
X1257300Y698500D01*
X1257300Y800100D02*
X1244600Y812800D01*
X1257300Y800100D02*
X1257300Y698500D01*
D40*
X571500Y139700D02*
X571500Y101600D01*
X558800Y88900D01*
D37*
X622300Y25400D01*
X990600Y25400D02*
X1028700Y63500D01*
D38*
X1028700Y63500D03*
X1066800Y673100D03*
D37*
X1105100Y634800D01*
X1105100Y542544D01*
X990600Y25400D02*
X622300Y25400D01*
D40*
X749300Y88900D02*
X800100Y139700D01*
X749300Y88900D02*
X711200Y88900D01*
D37*
X800100Y139700D02*
X800100Y177800D01*
X876300Y254000D02*
X1003300Y254000D01*
X1110100Y360800D01*
X1110100Y473456D01*
X876300Y254000D02*
X800100Y177800D01*
M02*
