G04 EAGLE Gerber RS-274X export*
G75*
%MOMM*%
%FSLAX34Y34*%
%LPD*%
%INBottom Copper*%
%IPPOS*%
%AMOC8*
5,1,8,0,0,1.08239X$1,22.5*%
G01*
%ADD10P,1.539592X8X22.500000*%
%ADD11P,1.539592X8X202.500000*%
%ADD12P,1.539592X8X292.500000*%
%ADD13P,1.539592X8X112.500000*%
%ADD14P,1.429621X8X112.500000*%
%ADD15P,1.429621X8X292.500000*%
%ADD16C,1.524000*%
%ADD17P,1.429621X8X22.500000*%
%ADD18P,1.429621X8X202.500000*%
%ADD19P,2.336880X8X22.500000*%
%ADD20C,2.095500*%
%ADD21P,1.632244X8X292.500000*%
%ADD22P,1.632244X8X112.500000*%
%ADD23P,6.983147X8X22.500000*%
%ADD24C,3.556000*%
%ADD25C,2.667000*%
%ADD26C,0.756400*%
%ADD27C,0.254000*%
%ADD28C,0.508000*%

G36*
X2016715Y10170D02*
X2016715Y10170D01*
X2016870Y10170D01*
X2017032Y10190D01*
X2017196Y10201D01*
X2017348Y10230D01*
X2017502Y10249D01*
X2017661Y10289D01*
X2017822Y10320D01*
X2017969Y10368D01*
X2018119Y10406D01*
X2018272Y10466D01*
X2018428Y10517D01*
X2018568Y10582D01*
X2018712Y10639D01*
X2018856Y10718D01*
X2019004Y10788D01*
X2019135Y10870D01*
X2019271Y10945D01*
X2019404Y11041D01*
X2019543Y11129D01*
X2019662Y11227D01*
X2019788Y11318D01*
X2019907Y11430D01*
X2020034Y11534D01*
X2020140Y11647D01*
X2020253Y11753D01*
X2020358Y11879D01*
X2020470Y11998D01*
X2020562Y12124D01*
X2020661Y12243D01*
X2020749Y12381D01*
X2020845Y12513D01*
X2020920Y12649D01*
X2021004Y12780D01*
X2021074Y12928D01*
X2021153Y13071D01*
X2021210Y13215D01*
X2021277Y13355D01*
X2021328Y13511D01*
X2021388Y13664D01*
X2021427Y13814D01*
X2021476Y13961D01*
X2021507Y14122D01*
X2021548Y14280D01*
X2021567Y14434D01*
X2021597Y14586D01*
X2021607Y14745D01*
X2021629Y14912D01*
X2021629Y15081D01*
X2021639Y15240D01*
X2021639Y1505460D01*
X2021630Y1505615D01*
X2021630Y1505770D01*
X2021610Y1505932D01*
X2021599Y1506096D01*
X2021570Y1506248D01*
X2021551Y1506402D01*
X2021511Y1506561D01*
X2021480Y1506722D01*
X2021432Y1506869D01*
X2021394Y1507019D01*
X2021334Y1507172D01*
X2021283Y1507328D01*
X2021218Y1507468D01*
X2021161Y1507612D01*
X2021082Y1507756D01*
X2021012Y1507904D01*
X2020930Y1508035D01*
X2020855Y1508171D01*
X2020759Y1508304D01*
X2020671Y1508443D01*
X2020573Y1508562D01*
X2020482Y1508688D01*
X2020370Y1508807D01*
X2020266Y1508934D01*
X2020153Y1509040D01*
X2020047Y1509153D01*
X2019921Y1509258D01*
X2019802Y1509370D01*
X2019676Y1509462D01*
X2019557Y1509561D01*
X2019419Y1509649D01*
X2019287Y1509745D01*
X2019151Y1509820D01*
X2019020Y1509904D01*
X2018872Y1509974D01*
X2018729Y1510053D01*
X2018585Y1510110D01*
X2018445Y1510177D01*
X2018289Y1510228D01*
X2018136Y1510288D01*
X2017986Y1510327D01*
X2017839Y1510376D01*
X2017678Y1510407D01*
X2017520Y1510448D01*
X2017366Y1510467D01*
X2017214Y1510497D01*
X2017055Y1510507D01*
X2016888Y1510529D01*
X2016719Y1510529D01*
X2016560Y1510539D01*
X-215900Y1510539D01*
X-216055Y1510530D01*
X-216210Y1510530D01*
X-216372Y1510510D01*
X-216536Y1510499D01*
X-216688Y1510470D01*
X-216842Y1510451D01*
X-217001Y1510411D01*
X-217162Y1510380D01*
X-217309Y1510332D01*
X-217459Y1510294D01*
X-217612Y1510234D01*
X-217768Y1510183D01*
X-217908Y1510118D01*
X-218052Y1510061D01*
X-218196Y1509982D01*
X-218344Y1509912D01*
X-218475Y1509830D01*
X-218611Y1509755D01*
X-218744Y1509659D01*
X-218883Y1509571D01*
X-219002Y1509473D01*
X-219128Y1509382D01*
X-219247Y1509270D01*
X-219374Y1509166D01*
X-219480Y1509053D01*
X-219593Y1508947D01*
X-219698Y1508821D01*
X-219810Y1508702D01*
X-219902Y1508576D01*
X-220001Y1508457D01*
X-220089Y1508319D01*
X-220185Y1508187D01*
X-220260Y1508051D01*
X-220344Y1507920D01*
X-220414Y1507772D01*
X-220493Y1507629D01*
X-220550Y1507485D01*
X-220617Y1507345D01*
X-220668Y1507189D01*
X-220728Y1507036D01*
X-220767Y1506886D01*
X-220816Y1506739D01*
X-220847Y1506578D01*
X-220888Y1506420D01*
X-220907Y1506266D01*
X-220937Y1506114D01*
X-220947Y1505955D01*
X-220969Y1505788D01*
X-220969Y1505619D01*
X-220979Y1505460D01*
X-220979Y15240D01*
X-220970Y15085D01*
X-220970Y14930D01*
X-220950Y14768D01*
X-220939Y14604D01*
X-220910Y14452D01*
X-220891Y14298D01*
X-220851Y14139D01*
X-220820Y13978D01*
X-220772Y13831D01*
X-220734Y13681D01*
X-220674Y13528D01*
X-220623Y13372D01*
X-220558Y13232D01*
X-220501Y13088D01*
X-220422Y12944D01*
X-220352Y12796D01*
X-220270Y12665D01*
X-220195Y12529D01*
X-220099Y12396D01*
X-220011Y12257D01*
X-219913Y12138D01*
X-219822Y12012D01*
X-219710Y11893D01*
X-219606Y11766D01*
X-219493Y11660D01*
X-219387Y11547D01*
X-219261Y11442D01*
X-219142Y11330D01*
X-219016Y11238D01*
X-218897Y11139D01*
X-218759Y11051D01*
X-218627Y10955D01*
X-218491Y10880D01*
X-218360Y10796D01*
X-218212Y10726D01*
X-218069Y10647D01*
X-217925Y10590D01*
X-217785Y10523D01*
X-217629Y10472D01*
X-217476Y10412D01*
X-217326Y10373D01*
X-217179Y10324D01*
X-217018Y10293D01*
X-216860Y10252D01*
X-216706Y10233D01*
X-216554Y10203D01*
X-216395Y10193D01*
X-216228Y10171D01*
X-216059Y10171D01*
X-215900Y10161D01*
X2016560Y10161D01*
X2016715Y10170D01*
G37*
%LPC*%
G36*
X1027644Y58193D02*
X1027644Y58193D01*
X1025694Y59001D01*
X1024201Y60494D01*
X1023393Y62444D01*
X1023393Y64556D01*
X1024201Y66506D01*
X1025694Y67999D01*
X1027644Y68807D01*
X1027951Y68807D01*
X1028023Y68811D01*
X1028096Y68809D01*
X1028341Y68831D01*
X1028586Y68847D01*
X1028658Y68860D01*
X1028731Y68867D01*
X1028971Y68920D01*
X1029212Y68966D01*
X1029282Y68988D01*
X1029353Y69004D01*
X1029584Y69087D01*
X1029818Y69163D01*
X1029884Y69194D01*
X1029953Y69218D01*
X1030172Y69329D01*
X1030395Y69434D01*
X1030457Y69473D01*
X1030522Y69506D01*
X1030725Y69643D01*
X1030933Y69775D01*
X1030989Y69821D01*
X1031050Y69862D01*
X1031224Y70015D01*
X1031424Y70180D01*
X1031482Y70241D01*
X1031542Y70294D01*
X1037118Y75870D01*
X1037166Y75925D01*
X1037219Y75975D01*
X1037376Y76163D01*
X1037539Y76348D01*
X1037580Y76408D01*
X1037627Y76464D01*
X1037759Y76671D01*
X1037897Y76875D01*
X1037930Y76940D01*
X1037970Y77001D01*
X1038075Y77224D01*
X1038187Y77442D01*
X1038211Y77511D01*
X1038243Y77577D01*
X1038319Y77810D01*
X1038403Y78042D01*
X1038419Y78113D01*
X1038442Y78182D01*
X1038488Y78423D01*
X1038542Y78663D01*
X1038549Y78736D01*
X1038563Y78808D01*
X1038578Y79039D01*
X1038603Y79298D01*
X1038600Y79381D01*
X1038605Y79462D01*
X1038605Y648256D01*
X1039031Y649283D01*
X1060006Y670258D01*
X1060054Y670313D01*
X1060107Y670363D01*
X1060265Y670552D01*
X1060427Y670736D01*
X1060468Y670796D01*
X1060515Y670852D01*
X1060647Y671060D01*
X1060785Y671263D01*
X1060818Y671328D01*
X1060858Y671389D01*
X1060963Y671611D01*
X1061075Y671830D01*
X1061099Y671899D01*
X1061131Y671965D01*
X1061207Y672199D01*
X1061291Y672430D01*
X1061307Y672501D01*
X1061330Y672570D01*
X1061376Y672811D01*
X1061430Y673051D01*
X1061437Y673124D01*
X1061451Y673196D01*
X1061466Y673427D01*
X1061491Y673686D01*
X1061488Y673769D01*
X1061493Y673850D01*
X1061493Y674156D01*
X1062250Y675982D01*
X1062313Y676167D01*
X1062386Y676350D01*
X1062416Y676469D01*
X1062456Y676585D01*
X1062496Y676777D01*
X1062545Y676966D01*
X1062561Y677088D01*
X1062586Y677209D01*
X1062601Y677404D01*
X1062626Y677598D01*
X1062626Y677722D01*
X1062636Y677844D01*
X1062627Y678040D01*
X1062627Y678236D01*
X1062612Y678358D01*
X1062606Y678480D01*
X1062573Y678673D01*
X1062548Y678868D01*
X1062518Y678987D01*
X1062497Y679108D01*
X1062440Y679295D01*
X1062391Y679485D01*
X1062346Y679600D01*
X1062310Y679717D01*
X1062230Y679896D01*
X1062158Y680078D01*
X1062099Y680186D01*
X1062049Y680298D01*
X1061947Y680465D01*
X1061852Y680637D01*
X1061780Y680737D01*
X1061716Y680842D01*
X1061594Y680995D01*
X1061479Y681154D01*
X1061395Y681243D01*
X1061318Y681340D01*
X1061178Y681476D01*
X1061044Y681619D01*
X1060950Y681698D01*
X1060862Y681784D01*
X1060705Y681901D01*
X1060555Y682027D01*
X1060451Y682093D01*
X1060353Y682167D01*
X1060183Y682264D01*
X1060018Y682370D01*
X1059906Y682422D01*
X1059800Y682483D01*
X1059619Y682559D01*
X1059442Y682643D01*
X1059325Y682681D01*
X1059211Y682728D01*
X1059022Y682780D01*
X1058837Y682842D01*
X1058716Y682865D01*
X1058597Y682898D01*
X1058403Y682926D01*
X1058211Y682963D01*
X1058091Y682971D01*
X1057967Y682989D01*
X1057754Y682993D01*
X1057557Y683005D01*
X1057362Y683005D01*
X1057289Y683001D01*
X1057216Y683003D01*
X1056971Y682981D01*
X1056726Y682965D01*
X1056654Y682952D01*
X1056581Y682945D01*
X1056341Y682892D01*
X1056100Y682846D01*
X1056030Y682823D01*
X1055959Y682808D01*
X1055728Y682725D01*
X1055494Y682649D01*
X1055428Y682618D01*
X1055359Y682594D01*
X1055140Y682483D01*
X1054917Y682378D01*
X1054855Y682339D01*
X1054790Y682306D01*
X1054587Y682169D01*
X1054379Y682037D01*
X1054323Y681991D01*
X1054262Y681950D01*
X1054089Y681797D01*
X1053888Y681632D01*
X1053830Y681571D01*
X1053770Y681518D01*
X1020282Y648030D01*
X1020234Y647975D01*
X1020181Y647925D01*
X1020023Y647736D01*
X1019861Y647552D01*
X1019820Y647492D01*
X1019773Y647436D01*
X1019641Y647228D01*
X1019503Y647025D01*
X1019470Y646960D01*
X1019430Y646899D01*
X1019325Y646677D01*
X1019213Y646458D01*
X1019189Y646389D01*
X1019157Y646323D01*
X1019081Y646089D01*
X1018997Y645858D01*
X1018981Y645787D01*
X1018958Y645718D01*
X1018912Y645477D01*
X1018858Y645237D01*
X1018851Y645164D01*
X1018837Y645092D01*
X1018822Y644861D01*
X1018797Y644602D01*
X1018800Y644519D01*
X1018795Y644438D01*
X1018795Y304244D01*
X1018369Y303217D01*
X955584Y240431D01*
X955218Y240066D01*
X955062Y239888D01*
X954899Y239716D01*
X954851Y239649D01*
X954797Y239588D01*
X954664Y239392D01*
X954524Y239200D01*
X954484Y239129D01*
X954438Y239061D01*
X954331Y238850D01*
X954216Y238643D01*
X954186Y238566D01*
X954149Y238493D01*
X954069Y238271D01*
X953981Y238050D01*
X953961Y237971D01*
X953933Y237894D01*
X953881Y237663D01*
X953822Y237434D01*
X953811Y237352D01*
X953793Y237272D01*
X953771Y237037D01*
X953741Y236802D01*
X953741Y236719D01*
X953733Y236638D01*
X953740Y236401D01*
X953740Y236164D01*
X953750Y236083D01*
X953752Y236001D01*
X953789Y235767D01*
X953818Y235532D01*
X953839Y235453D01*
X953851Y235372D01*
X953917Y235145D01*
X953975Y234915D01*
X954005Y234839D01*
X954028Y234760D01*
X954122Y234542D01*
X954209Y234322D01*
X954248Y234250D01*
X954280Y234175D01*
X954400Y233971D01*
X954514Y233763D01*
X954562Y233696D01*
X954604Y233626D01*
X954749Y233439D01*
X954888Y233246D01*
X954944Y233186D01*
X954994Y233122D01*
X955161Y232954D01*
X955322Y232781D01*
X955385Y232728D01*
X955443Y232670D01*
X955630Y232525D01*
X955812Y232373D01*
X955881Y232329D01*
X955946Y232279D01*
X956150Y232158D01*
X956349Y232030D01*
X956423Y231995D01*
X956494Y231953D01*
X956711Y231859D01*
X956925Y231757D01*
X957003Y231732D01*
X957078Y231699D01*
X957306Y231632D01*
X957530Y231558D01*
X957610Y231543D01*
X957689Y231520D01*
X957923Y231482D01*
X958156Y231437D01*
X958236Y231432D01*
X958318Y231419D01*
X958578Y231410D01*
X958809Y231395D01*
X965756Y231395D01*
X966783Y230969D01*
X1009828Y187924D01*
X1009883Y187876D01*
X1009933Y187823D01*
X1010122Y187665D01*
X1010306Y187503D01*
X1010366Y187462D01*
X1010422Y187415D01*
X1010630Y187283D01*
X1010833Y187145D01*
X1010898Y187112D01*
X1010959Y187072D01*
X1011181Y186967D01*
X1011400Y186855D01*
X1011469Y186831D01*
X1011535Y186799D01*
X1011769Y186723D01*
X1012000Y186639D01*
X1012071Y186623D01*
X1012140Y186600D01*
X1012381Y186554D01*
X1012621Y186500D01*
X1012694Y186493D01*
X1012766Y186479D01*
X1012997Y186464D01*
X1013256Y186439D01*
X1013339Y186442D01*
X1013420Y186437D01*
X1019577Y186437D01*
X1024637Y181377D01*
X1024637Y174223D01*
X1019577Y169163D01*
X1012423Y169163D01*
X1007363Y174223D01*
X1007363Y180380D01*
X1007359Y180453D01*
X1007361Y180526D01*
X1007339Y180771D01*
X1007323Y181016D01*
X1007310Y181088D01*
X1007303Y181161D01*
X1007250Y181401D01*
X1007204Y181642D01*
X1007181Y181712D01*
X1007166Y181783D01*
X1007084Y182014D01*
X1007007Y182248D01*
X1006976Y182314D01*
X1006952Y182383D01*
X1006841Y182602D01*
X1006736Y182825D01*
X1006697Y182887D01*
X1006664Y182952D01*
X1006527Y183155D01*
X1006395Y183363D01*
X1006349Y183419D01*
X1006308Y183480D01*
X1006155Y183653D01*
X1005990Y183854D01*
X1005929Y183912D01*
X1005876Y183972D01*
X965530Y224318D01*
X965475Y224366D01*
X965425Y224419D01*
X965236Y224577D01*
X965052Y224739D01*
X964992Y224780D01*
X964936Y224827D01*
X964728Y224959D01*
X964525Y225097D01*
X964460Y225130D01*
X964399Y225170D01*
X964177Y225275D01*
X963958Y225387D01*
X963889Y225411D01*
X963823Y225443D01*
X963589Y225519D01*
X963358Y225603D01*
X963287Y225619D01*
X963218Y225642D01*
X962977Y225688D01*
X962737Y225742D01*
X962664Y225749D01*
X962592Y225763D01*
X962361Y225778D01*
X962102Y225803D01*
X962019Y225800D01*
X961938Y225805D01*
X723344Y225805D01*
X722317Y226231D01*
X678764Y269784D01*
X678709Y269832D01*
X678659Y269885D01*
X678470Y270043D01*
X678286Y270205D01*
X678226Y270246D01*
X678170Y270293D01*
X677962Y270425D01*
X677759Y270563D01*
X677694Y270596D01*
X677633Y270636D01*
X677411Y270741D01*
X677192Y270853D01*
X677123Y270877D01*
X677057Y270909D01*
X676823Y270985D01*
X676592Y271069D01*
X676521Y271085D01*
X676452Y271108D01*
X676211Y271154D01*
X675971Y271208D01*
X675898Y271215D01*
X675826Y271229D01*
X675595Y271244D01*
X675336Y271269D01*
X675253Y271266D01*
X675172Y271271D01*
X669733Y271271D01*
X664971Y276033D01*
X664971Y282767D01*
X669733Y287529D01*
X676467Y287529D01*
X681229Y282767D01*
X681229Y277328D01*
X681233Y277255D01*
X681231Y277182D01*
X681253Y276937D01*
X681269Y276692D01*
X681282Y276620D01*
X681289Y276547D01*
X681342Y276307D01*
X681388Y276066D01*
X681411Y275996D01*
X681426Y275925D01*
X681509Y275694D01*
X681585Y275460D01*
X681616Y275394D01*
X681640Y275325D01*
X681751Y275106D01*
X681856Y274883D01*
X681895Y274821D01*
X681928Y274756D01*
X682065Y274553D01*
X682197Y274345D01*
X682243Y274289D01*
X682284Y274228D01*
X682437Y274055D01*
X682602Y273854D01*
X682663Y273796D01*
X682716Y273736D01*
X723570Y232882D01*
X723625Y232834D01*
X723675Y232781D01*
X723864Y232623D01*
X724048Y232461D01*
X724108Y232420D01*
X724164Y232373D01*
X724372Y232241D01*
X724575Y232103D01*
X724640Y232070D01*
X724701Y232030D01*
X724923Y231925D01*
X725142Y231813D01*
X725211Y231789D01*
X725277Y231757D01*
X725511Y231681D01*
X725742Y231597D01*
X725813Y231581D01*
X725882Y231558D01*
X726123Y231512D01*
X726363Y231458D01*
X726436Y231451D01*
X726508Y231437D01*
X726739Y231422D01*
X726998Y231397D01*
X727081Y231400D01*
X727162Y231395D01*
X831891Y231395D01*
X832127Y231410D01*
X832363Y231417D01*
X832445Y231430D01*
X832526Y231435D01*
X832759Y231479D01*
X832993Y231516D01*
X833072Y231539D01*
X833152Y231554D01*
X833377Y231627D01*
X833605Y231693D01*
X833680Y231725D01*
X833758Y231751D01*
X833972Y231851D01*
X834190Y231945D01*
X834261Y231987D01*
X834335Y232022D01*
X834535Y232148D01*
X834739Y232269D01*
X834804Y232319D01*
X834873Y232363D01*
X835056Y232513D01*
X835243Y232658D01*
X835301Y232716D01*
X835364Y232768D01*
X835527Y232941D01*
X835694Y233108D01*
X835745Y233173D01*
X835801Y233232D01*
X835940Y233424D01*
X836086Y233611D01*
X836128Y233681D01*
X836176Y233747D01*
X836290Y233955D01*
X836411Y234158D01*
X836444Y234234D01*
X836484Y234305D01*
X836571Y234525D01*
X836666Y234743D01*
X836689Y234821D01*
X836719Y234898D01*
X836778Y235127D01*
X836845Y235354D01*
X836858Y235435D01*
X836878Y235514D01*
X836908Y235749D01*
X836946Y235983D01*
X836949Y236065D01*
X836959Y236146D01*
X836960Y236383D01*
X836968Y236620D01*
X836960Y236701D01*
X836960Y236784D01*
X836931Y237019D01*
X836910Y237254D01*
X836892Y237334D01*
X836882Y237416D01*
X836823Y237646D01*
X836772Y237876D01*
X836745Y237954D01*
X836725Y238033D01*
X836638Y238254D01*
X836558Y238477D01*
X836521Y238550D01*
X836491Y238626D01*
X836377Y238835D01*
X836271Y239045D01*
X836225Y239113D01*
X836186Y239185D01*
X836047Y239377D01*
X835915Y239573D01*
X835861Y239634D01*
X835812Y239702D01*
X835635Y239892D01*
X835482Y240066D01*
X779308Y296240D01*
X779130Y296396D01*
X778958Y296559D01*
X778891Y296607D01*
X778830Y296661D01*
X778634Y296794D01*
X778442Y296934D01*
X778371Y296974D01*
X778303Y297020D01*
X778092Y297127D01*
X777885Y297242D01*
X777808Y297272D01*
X777735Y297309D01*
X777512Y297390D01*
X777292Y297477D01*
X777213Y297497D01*
X777136Y297525D01*
X776905Y297577D01*
X776676Y297636D01*
X776594Y297647D01*
X776514Y297665D01*
X776279Y297687D01*
X776044Y297717D01*
X775961Y297717D01*
X775880Y297725D01*
X775644Y297718D01*
X775406Y297718D01*
X775325Y297708D01*
X775243Y297706D01*
X775009Y297669D01*
X774774Y297640D01*
X774695Y297619D01*
X774614Y297607D01*
X774386Y297541D01*
X774157Y297483D01*
X774081Y297453D01*
X774002Y297430D01*
X773784Y297336D01*
X773564Y297249D01*
X773492Y297210D01*
X773417Y297177D01*
X773213Y297057D01*
X773005Y296944D01*
X772938Y296896D01*
X772868Y296854D01*
X772680Y296709D01*
X772488Y296570D01*
X772429Y296515D01*
X772364Y296464D01*
X772196Y296297D01*
X772023Y296136D01*
X771970Y296072D01*
X771912Y296015D01*
X771767Y295828D01*
X771615Y295646D01*
X771571Y295577D01*
X771521Y295512D01*
X771400Y295308D01*
X771272Y295109D01*
X771237Y295035D01*
X771195Y294964D01*
X771101Y294747D01*
X770999Y294533D01*
X770974Y294455D01*
X770941Y294380D01*
X770874Y294153D01*
X770800Y293928D01*
X770785Y293847D01*
X770762Y293769D01*
X770724Y293535D01*
X770679Y293302D01*
X770674Y293222D01*
X770661Y293140D01*
X770652Y292880D01*
X770637Y292649D01*
X770637Y288523D01*
X765577Y283463D01*
X758423Y283463D01*
X753363Y288523D01*
X753363Y295677D01*
X758423Y300737D01*
X762549Y300737D01*
X762785Y300752D01*
X763021Y300759D01*
X763103Y300772D01*
X763184Y300777D01*
X763417Y300821D01*
X763651Y300858D01*
X763730Y300881D01*
X763810Y300896D01*
X764035Y300969D01*
X764263Y301035D01*
X764338Y301067D01*
X764416Y301093D01*
X764630Y301193D01*
X764848Y301287D01*
X764919Y301329D01*
X764993Y301364D01*
X765193Y301490D01*
X765397Y301611D01*
X765462Y301661D01*
X765531Y301705D01*
X765714Y301855D01*
X765901Y302000D01*
X765959Y302058D01*
X766022Y302110D01*
X766185Y302283D01*
X766352Y302450D01*
X766403Y302515D01*
X766459Y302574D01*
X766598Y302766D01*
X766744Y302953D01*
X766786Y303023D01*
X766834Y303089D01*
X766948Y303297D01*
X767069Y303500D01*
X767102Y303576D01*
X767142Y303647D01*
X767229Y303867D01*
X767324Y304085D01*
X767347Y304163D01*
X767377Y304240D01*
X767436Y304469D01*
X767503Y304696D01*
X767516Y304777D01*
X767536Y304856D01*
X767566Y305091D01*
X767604Y305325D01*
X767607Y305407D01*
X767617Y305488D01*
X767618Y305725D01*
X767626Y305962D01*
X767618Y306043D01*
X767618Y306126D01*
X767589Y306361D01*
X767568Y306596D01*
X767550Y306676D01*
X767540Y306758D01*
X767481Y306988D01*
X767430Y307218D01*
X767403Y307296D01*
X767383Y307375D01*
X767296Y307596D01*
X767216Y307819D01*
X767179Y307892D01*
X767149Y307968D01*
X767035Y308177D01*
X766929Y308387D01*
X766883Y308455D01*
X766844Y308527D01*
X766705Y308719D01*
X766573Y308915D01*
X766519Y308976D01*
X766470Y309044D01*
X766293Y309234D01*
X766140Y309408D01*
X678764Y396784D01*
X678709Y396832D01*
X678659Y396885D01*
X678470Y397043D01*
X678286Y397205D01*
X678226Y397246D01*
X678170Y397293D01*
X677962Y397425D01*
X677759Y397563D01*
X677694Y397596D01*
X677633Y397636D01*
X677411Y397741D01*
X677192Y397853D01*
X677123Y397877D01*
X677057Y397909D01*
X676823Y397985D01*
X676592Y398069D01*
X676521Y398085D01*
X676452Y398108D01*
X676211Y398154D01*
X675971Y398208D01*
X675898Y398215D01*
X675826Y398229D01*
X675595Y398244D01*
X675336Y398269D01*
X675253Y398266D01*
X675172Y398271D01*
X669733Y398271D01*
X664971Y403033D01*
X664971Y409767D01*
X669733Y414529D01*
X676467Y414529D01*
X681229Y409767D01*
X681229Y404328D01*
X681233Y404255D01*
X681231Y404182D01*
X681253Y403937D01*
X681269Y403692D01*
X681282Y403620D01*
X681289Y403547D01*
X681342Y403307D01*
X681388Y403066D01*
X681411Y402996D01*
X681426Y402925D01*
X681509Y402694D01*
X681585Y402460D01*
X681616Y402394D01*
X681640Y402325D01*
X681751Y402106D01*
X681856Y401883D01*
X681895Y401821D01*
X681928Y401756D01*
X682065Y401553D01*
X682197Y401345D01*
X682243Y401289D01*
X682284Y401228D01*
X682437Y401055D01*
X682602Y400854D01*
X682663Y400796D01*
X682716Y400736D01*
X745200Y338252D01*
X745378Y338096D01*
X745550Y337933D01*
X745617Y337885D01*
X745678Y337831D01*
X745874Y337697D01*
X746066Y337558D01*
X746137Y337518D01*
X746205Y337472D01*
X746417Y337364D01*
X746623Y337250D01*
X746700Y337220D01*
X746773Y337183D01*
X746996Y337102D01*
X747216Y337015D01*
X747295Y336995D01*
X747372Y336967D01*
X747603Y336915D01*
X747832Y336856D01*
X747914Y336845D01*
X747994Y336827D01*
X748229Y336805D01*
X748464Y336775D01*
X748547Y336775D01*
X748628Y336767D01*
X748864Y336774D01*
X749102Y336774D01*
X749183Y336784D01*
X749265Y336786D01*
X749499Y336823D01*
X749734Y336852D01*
X749813Y336873D01*
X749894Y336885D01*
X750122Y336951D01*
X750351Y337009D01*
X750427Y337039D01*
X750506Y337062D01*
X750724Y337156D01*
X750944Y337243D01*
X751016Y337282D01*
X751091Y337315D01*
X751295Y337435D01*
X751503Y337548D01*
X751570Y337596D01*
X751640Y337638D01*
X751828Y337783D01*
X752020Y337922D01*
X752079Y337977D01*
X752144Y338028D01*
X752312Y338195D01*
X752485Y338356D01*
X752538Y338420D01*
X752596Y338477D01*
X752741Y338664D01*
X752893Y338846D01*
X752937Y338915D01*
X752987Y338980D01*
X753108Y339184D01*
X753236Y339383D01*
X753271Y339457D01*
X753313Y339528D01*
X753407Y339745D01*
X753509Y339959D01*
X753534Y340037D01*
X753567Y340112D01*
X753634Y340339D01*
X753708Y340564D01*
X753723Y340645D01*
X753746Y340723D01*
X753784Y340957D01*
X753829Y341190D01*
X753834Y341270D01*
X753847Y341352D01*
X753856Y341612D01*
X753871Y341843D01*
X753871Y346267D01*
X758633Y351029D01*
X765367Y351029D01*
X770129Y346267D01*
X770129Y339533D01*
X765367Y334771D01*
X760943Y334771D01*
X760707Y334756D01*
X760471Y334749D01*
X760389Y334736D01*
X760308Y334731D01*
X760075Y334687D01*
X759841Y334650D01*
X759762Y334627D01*
X759682Y334612D01*
X759457Y334539D01*
X759229Y334473D01*
X759154Y334441D01*
X759076Y334415D01*
X758862Y334315D01*
X758644Y334221D01*
X758573Y334179D01*
X758499Y334144D01*
X758299Y334018D01*
X758095Y333897D01*
X758030Y333847D01*
X757961Y333803D01*
X757778Y333653D01*
X757591Y333508D01*
X757533Y333450D01*
X757470Y333398D01*
X757307Y333225D01*
X757140Y333058D01*
X757089Y332993D01*
X757033Y332934D01*
X756894Y332742D01*
X756748Y332555D01*
X756706Y332485D01*
X756658Y332419D01*
X756544Y332211D01*
X756423Y332008D01*
X756390Y331932D01*
X756350Y331861D01*
X756263Y331641D01*
X756168Y331423D01*
X756145Y331345D01*
X756115Y331268D01*
X756056Y331039D01*
X755989Y330812D01*
X755976Y330731D01*
X755956Y330652D01*
X755926Y330417D01*
X755888Y330183D01*
X755885Y330101D01*
X755875Y330020D01*
X755874Y329783D01*
X755866Y329546D01*
X755874Y329465D01*
X755874Y329382D01*
X755903Y329147D01*
X755924Y328912D01*
X755942Y328832D01*
X755952Y328750D01*
X756011Y328520D01*
X756062Y328290D01*
X756089Y328212D01*
X756109Y328133D01*
X756196Y327912D01*
X756276Y327689D01*
X756313Y327616D01*
X756343Y327540D01*
X756457Y327331D01*
X756563Y327121D01*
X756609Y327053D01*
X756648Y326981D01*
X756787Y326789D01*
X756919Y326593D01*
X756973Y326532D01*
X757022Y326464D01*
X757199Y326274D01*
X757352Y326100D01*
X837870Y245582D01*
X837925Y245534D01*
X837975Y245481D01*
X838164Y245323D01*
X838348Y245161D01*
X838408Y245120D01*
X838464Y245073D01*
X838672Y244941D01*
X838875Y244803D01*
X838940Y244770D01*
X839001Y244730D01*
X839223Y244625D01*
X839442Y244513D01*
X839511Y244489D01*
X839577Y244457D01*
X839811Y244381D01*
X840042Y244297D01*
X840113Y244281D01*
X840182Y244258D01*
X840423Y244212D01*
X840663Y244158D01*
X840736Y244151D01*
X840808Y244137D01*
X841039Y244122D01*
X841298Y244097D01*
X841381Y244100D01*
X841462Y244095D01*
X882186Y244095D01*
X882259Y244099D01*
X882332Y244097D01*
X882577Y244119D01*
X882822Y244135D01*
X882893Y244148D01*
X882966Y244155D01*
X883206Y244208D01*
X883448Y244254D01*
X883517Y244277D01*
X883588Y244292D01*
X883819Y244375D01*
X884054Y244451D01*
X884120Y244482D01*
X884189Y244506D01*
X884408Y244617D01*
X884630Y244722D01*
X884692Y244761D01*
X884757Y244794D01*
X884961Y244931D01*
X885169Y245063D01*
X885225Y245109D01*
X885285Y245150D01*
X885459Y245303D01*
X885660Y245468D01*
X885717Y245529D01*
X885778Y245582D01*
X885994Y245799D01*
X887944Y246607D01*
X890056Y246607D01*
X892006Y245799D01*
X892222Y245582D01*
X892277Y245534D01*
X892327Y245481D01*
X892516Y245324D01*
X892700Y245161D01*
X892761Y245120D01*
X892817Y245073D01*
X893023Y244941D01*
X893227Y244803D01*
X893292Y244770D01*
X893354Y244730D01*
X893576Y244625D01*
X893795Y244513D01*
X893863Y244489D01*
X893929Y244457D01*
X894163Y244381D01*
X894394Y244297D01*
X894465Y244281D01*
X894535Y244258D01*
X894776Y244212D01*
X895016Y244158D01*
X895088Y244151D01*
X895160Y244137D01*
X895392Y244122D01*
X895650Y244097D01*
X895734Y244100D01*
X895814Y244095D01*
X949238Y244095D01*
X949311Y244099D01*
X949384Y244097D01*
X949629Y244119D01*
X949874Y244135D01*
X949946Y244148D01*
X950019Y244155D01*
X950259Y244208D01*
X950500Y244254D01*
X950570Y244277D01*
X950641Y244292D01*
X950872Y244375D01*
X951106Y244451D01*
X951172Y244482D01*
X951241Y244506D01*
X951460Y244617D01*
X951683Y244722D01*
X951745Y244761D01*
X951810Y244794D01*
X952013Y244931D01*
X952221Y245063D01*
X952277Y245109D01*
X952338Y245150D01*
X952511Y245303D01*
X952712Y245468D01*
X952770Y245529D01*
X952830Y245582D01*
X1011718Y304470D01*
X1011766Y304525D01*
X1011819Y304575D01*
X1011977Y304764D01*
X1012139Y304948D01*
X1012180Y305008D01*
X1012227Y305064D01*
X1012359Y305272D01*
X1012497Y305475D01*
X1012530Y305540D01*
X1012570Y305601D01*
X1012675Y305823D01*
X1012787Y306042D01*
X1012811Y306111D01*
X1012843Y306177D01*
X1012919Y306411D01*
X1013003Y306642D01*
X1013019Y306713D01*
X1013042Y306782D01*
X1013088Y307023D01*
X1013142Y307263D01*
X1013149Y307336D01*
X1013163Y307408D01*
X1013178Y307639D01*
X1013203Y307898D01*
X1013200Y307981D01*
X1013205Y308062D01*
X1013205Y409857D01*
X1013193Y410053D01*
X1013190Y410249D01*
X1013173Y410370D01*
X1013165Y410493D01*
X1013129Y410686D01*
X1013101Y410880D01*
X1013069Y410998D01*
X1013046Y411119D01*
X1012986Y411305D01*
X1012934Y411494D01*
X1012887Y411608D01*
X1012849Y411725D01*
X1012766Y411902D01*
X1012691Y412083D01*
X1012631Y412190D01*
X1012578Y412302D01*
X1012473Y412467D01*
X1012377Y412637D01*
X1012303Y412736D01*
X1012237Y412840D01*
X1012113Y412991D01*
X1011995Y413148D01*
X1011910Y413236D01*
X1011832Y413331D01*
X1011689Y413465D01*
X1011553Y413606D01*
X1011457Y413683D01*
X1011368Y413768D01*
X1011209Y413883D01*
X1011057Y414006D01*
X1010952Y414070D01*
X1010853Y414143D01*
X1010681Y414237D01*
X1010514Y414340D01*
X1010402Y414391D01*
X1010295Y414450D01*
X1010113Y414523D01*
X1009934Y414604D01*
X1009817Y414640D01*
X1009702Y414686D01*
X1009513Y414735D01*
X1009326Y414793D01*
X1009205Y414814D01*
X1009086Y414845D01*
X1008891Y414870D01*
X1008698Y414904D01*
X1008576Y414910D01*
X1008454Y414926D01*
X1008257Y414926D01*
X1008062Y414936D01*
X1007940Y414927D01*
X1007816Y414927D01*
X1007622Y414903D01*
X1007427Y414888D01*
X1007306Y414864D01*
X1007184Y414848D01*
X1006994Y414800D01*
X1006803Y414761D01*
X1006689Y414722D01*
X1006567Y414691D01*
X1006368Y414613D01*
X1006182Y414550D01*
X1004356Y413793D01*
X1002244Y413793D01*
X1000294Y414601D01*
X998801Y416094D01*
X997993Y418044D01*
X997993Y420156D01*
X998801Y422106D01*
X999018Y422322D01*
X999066Y422377D01*
X999119Y422427D01*
X999277Y422616D01*
X999439Y422800D01*
X999480Y422861D01*
X999527Y422917D01*
X999659Y423124D01*
X999797Y423327D01*
X999830Y423392D01*
X999870Y423454D01*
X999975Y423676D01*
X1000087Y423895D01*
X1000111Y423963D01*
X1000143Y424029D01*
X1000219Y424263D01*
X1000303Y424494D01*
X1000319Y424565D01*
X1000342Y424635D01*
X1000388Y424876D01*
X1000442Y425116D01*
X1000449Y425189D01*
X1000463Y425260D01*
X1000478Y425491D01*
X1000503Y425750D01*
X1000500Y425834D01*
X1000505Y425914D01*
X1000505Y466638D01*
X1000501Y466711D01*
X1000503Y466784D01*
X1000481Y467029D01*
X1000465Y467274D01*
X1000452Y467346D01*
X1000445Y467419D01*
X1000392Y467659D01*
X1000346Y467900D01*
X1000323Y467970D01*
X1000308Y468041D01*
X1000225Y468272D01*
X1000149Y468506D01*
X1000118Y468572D01*
X1000094Y468641D01*
X999983Y468860D01*
X999878Y469083D01*
X999839Y469145D01*
X999806Y469210D01*
X999669Y469413D01*
X999537Y469621D01*
X999491Y469677D01*
X999450Y469738D01*
X999297Y469911D01*
X999132Y470112D01*
X999071Y470170D01*
X999018Y470230D01*
X964218Y505030D01*
X964102Y505132D01*
X963992Y505242D01*
X963863Y505343D01*
X963740Y505451D01*
X963612Y505538D01*
X963490Y505634D01*
X963349Y505717D01*
X963213Y505809D01*
X963075Y505880D01*
X962942Y505959D01*
X962791Y506024D01*
X962645Y506099D01*
X962500Y506151D01*
X962358Y506213D01*
X962200Y506259D01*
X962046Y506315D01*
X961895Y506349D01*
X961746Y506392D01*
X961585Y506419D01*
X961424Y506454D01*
X961270Y506469D01*
X961117Y506494D01*
X960953Y506499D01*
X960790Y506515D01*
X960635Y506510D01*
X960480Y506515D01*
X960317Y506500D01*
X960153Y506495D01*
X960000Y506471D01*
X959846Y506457D01*
X959686Y506422D01*
X959524Y506396D01*
X959375Y506353D01*
X959224Y506320D01*
X959070Y506265D01*
X958912Y506219D01*
X958769Y506158D01*
X958624Y506106D01*
X958477Y506032D01*
X958327Y505967D01*
X958193Y505889D01*
X958055Y505819D01*
X957919Y505727D01*
X957778Y505644D01*
X957655Y505549D01*
X957527Y505462D01*
X957407Y505357D01*
X957274Y505254D01*
X957154Y505135D01*
X957035Y505030D01*
X955506Y503501D01*
X953556Y502693D01*
X951444Y502693D01*
X949444Y503522D01*
X949387Y503566D01*
X949264Y503675D01*
X949136Y503762D01*
X949013Y503857D01*
X948872Y503941D01*
X948737Y504033D01*
X948599Y504103D01*
X948466Y504183D01*
X948315Y504248D01*
X948169Y504323D01*
X948024Y504375D01*
X947881Y504437D01*
X947724Y504483D01*
X947570Y504539D01*
X947419Y504573D01*
X947270Y504616D01*
X947108Y504642D01*
X946948Y504678D01*
X946794Y504693D01*
X946641Y504717D01*
X946477Y504723D01*
X946314Y504739D01*
X946159Y504734D01*
X946004Y504739D01*
X945841Y504724D01*
X945677Y504719D01*
X945524Y504695D01*
X945370Y504681D01*
X945210Y504646D01*
X945048Y504620D01*
X944899Y504577D01*
X944748Y504544D01*
X944593Y504489D01*
X944436Y504443D01*
X944293Y504382D01*
X944147Y504330D01*
X944001Y504256D01*
X943851Y504191D01*
X943717Y504112D01*
X943579Y504042D01*
X943443Y503951D01*
X943302Y503868D01*
X943179Y503773D01*
X943051Y503686D01*
X942931Y503581D01*
X942853Y503521D01*
X940856Y502693D01*
X938744Y502693D01*
X936794Y503501D01*
X935301Y504994D01*
X934493Y506944D01*
X934493Y507250D01*
X934489Y507323D01*
X934491Y507396D01*
X934469Y507641D01*
X934453Y507886D01*
X934440Y507958D01*
X934433Y508031D01*
X934380Y508271D01*
X934334Y508512D01*
X934311Y508582D01*
X934296Y508653D01*
X934213Y508884D01*
X934137Y509118D01*
X934106Y509184D01*
X934082Y509253D01*
X933971Y509472D01*
X933866Y509695D01*
X933827Y509757D01*
X933794Y509822D01*
X933657Y510025D01*
X933525Y510233D01*
X933479Y510289D01*
X933438Y510350D01*
X933285Y510523D01*
X933120Y510724D01*
X933059Y510782D01*
X933006Y510842D01*
X876630Y567218D01*
X876575Y567266D01*
X876525Y567319D01*
X876336Y567477D01*
X876152Y567639D01*
X876092Y567680D01*
X876036Y567727D01*
X875828Y567859D01*
X875625Y567997D01*
X875560Y568030D01*
X875499Y568070D01*
X875277Y568175D01*
X875058Y568287D01*
X874989Y568311D01*
X874923Y568343D01*
X874689Y568419D01*
X874458Y568503D01*
X874387Y568519D01*
X874318Y568542D01*
X874077Y568588D01*
X873837Y568642D01*
X873764Y568649D01*
X873692Y568663D01*
X873461Y568678D01*
X873202Y568703D01*
X873119Y568700D01*
X873038Y568705D01*
X736044Y568705D01*
X735017Y569131D01*
X340531Y963617D01*
X340105Y964644D01*
X340105Y1474377D01*
X340101Y1474450D01*
X340103Y1474522D01*
X340081Y1474767D01*
X340065Y1475013D01*
X340052Y1475084D01*
X340045Y1475157D01*
X339992Y1475397D01*
X339946Y1475638D01*
X339923Y1475708D01*
X339908Y1475779D01*
X339825Y1476010D01*
X339749Y1476244D01*
X339718Y1476311D01*
X339694Y1476379D01*
X339583Y1476598D01*
X339478Y1476821D01*
X339439Y1476883D01*
X339406Y1476948D01*
X339269Y1477151D01*
X339137Y1477359D01*
X339091Y1477416D01*
X339050Y1477476D01*
X338897Y1477650D01*
X338732Y1477850D01*
X338671Y1477908D01*
X338618Y1477968D01*
X334263Y1482323D01*
X334263Y1489477D01*
X339323Y1494537D01*
X346477Y1494537D01*
X351537Y1489477D01*
X351537Y1482323D01*
X347182Y1477968D01*
X347134Y1477914D01*
X347081Y1477864D01*
X346923Y1477675D01*
X346761Y1477490D01*
X346720Y1477430D01*
X346673Y1477374D01*
X346541Y1477167D01*
X346403Y1476963D01*
X346370Y1476898D01*
X346330Y1476837D01*
X346225Y1476615D01*
X346113Y1476396D01*
X346089Y1476327D01*
X346057Y1476261D01*
X345981Y1476027D01*
X345897Y1475797D01*
X345881Y1475725D01*
X345858Y1475656D01*
X345812Y1475415D01*
X345758Y1475175D01*
X345751Y1475102D01*
X345737Y1475031D01*
X345722Y1474799D01*
X345697Y1474541D01*
X345700Y1474457D01*
X345695Y1474377D01*
X345695Y968462D01*
X345699Y968389D01*
X345697Y968316D01*
X345719Y968071D01*
X345735Y967826D01*
X345748Y967754D01*
X345755Y967681D01*
X345808Y967441D01*
X345854Y967200D01*
X345877Y967130D01*
X345892Y967059D01*
X345975Y966828D01*
X346051Y966594D01*
X346082Y966528D01*
X346106Y966459D01*
X346217Y966240D01*
X346322Y966017D01*
X346361Y965955D01*
X346394Y965890D01*
X346531Y965687D01*
X346663Y965479D01*
X346709Y965423D01*
X346750Y965362D01*
X346903Y965189D01*
X347068Y964988D01*
X347129Y964930D01*
X347182Y964870D01*
X736270Y575782D01*
X736325Y575734D01*
X736375Y575681D01*
X736564Y575523D01*
X736748Y575361D01*
X736808Y575320D01*
X736864Y575273D01*
X737072Y575141D01*
X737275Y575003D01*
X737340Y574970D01*
X737401Y574930D01*
X737623Y574825D01*
X737842Y574713D01*
X737911Y574689D01*
X737977Y574657D01*
X738211Y574581D01*
X738442Y574497D01*
X738513Y574481D01*
X738582Y574458D01*
X738823Y574412D01*
X739063Y574358D01*
X739136Y574351D01*
X739208Y574337D01*
X739439Y574322D01*
X739698Y574297D01*
X739781Y574300D01*
X739862Y574295D01*
X742991Y574295D01*
X743227Y574310D01*
X743463Y574317D01*
X743545Y574330D01*
X743626Y574335D01*
X743859Y574379D01*
X744093Y574416D01*
X744172Y574439D01*
X744252Y574454D01*
X744477Y574527D01*
X744705Y574593D01*
X744780Y574625D01*
X744858Y574651D01*
X745072Y574751D01*
X745290Y574845D01*
X745361Y574887D01*
X745435Y574922D01*
X745635Y575048D01*
X745839Y575169D01*
X745904Y575219D01*
X745973Y575263D01*
X746156Y575413D01*
X746343Y575558D01*
X746401Y575616D01*
X746464Y575668D01*
X746627Y575841D01*
X746794Y576008D01*
X746845Y576073D01*
X746901Y576132D01*
X747040Y576324D01*
X747186Y576511D01*
X747228Y576581D01*
X747276Y576647D01*
X747390Y576855D01*
X747511Y577058D01*
X747544Y577134D01*
X747584Y577205D01*
X747671Y577425D01*
X747766Y577643D01*
X747789Y577721D01*
X747819Y577798D01*
X747878Y578027D01*
X747945Y578254D01*
X747958Y578335D01*
X747978Y578414D01*
X748008Y578649D01*
X748046Y578883D01*
X748049Y578965D01*
X748059Y579046D01*
X748060Y579283D01*
X748068Y579520D01*
X748060Y579601D01*
X748060Y579684D01*
X748031Y579919D01*
X748010Y580154D01*
X747992Y580234D01*
X747982Y580316D01*
X747923Y580546D01*
X747872Y580776D01*
X747845Y580854D01*
X747825Y580933D01*
X747738Y581154D01*
X747658Y581377D01*
X747621Y581450D01*
X747591Y581526D01*
X747477Y581735D01*
X747371Y581945D01*
X747325Y582013D01*
X747286Y582085D01*
X747147Y582277D01*
X747015Y582473D01*
X746961Y582534D01*
X746912Y582602D01*
X746735Y582792D01*
X746582Y582966D01*
X531031Y798517D01*
X530605Y799544D01*
X530605Y1301286D01*
X530601Y1301359D01*
X530603Y1301432D01*
X530581Y1301676D01*
X530565Y1301922D01*
X530552Y1301993D01*
X530545Y1302066D01*
X530492Y1302306D01*
X530446Y1302548D01*
X530423Y1302617D01*
X530408Y1302688D01*
X530325Y1302919D01*
X530249Y1303154D01*
X530218Y1303220D01*
X530194Y1303289D01*
X530083Y1303508D01*
X529978Y1303730D01*
X529939Y1303792D01*
X529906Y1303857D01*
X529769Y1304061D01*
X529637Y1304269D01*
X529591Y1304325D01*
X529550Y1304385D01*
X529397Y1304559D01*
X529232Y1304760D01*
X529171Y1304817D01*
X529118Y1304878D01*
X528901Y1305094D01*
X528093Y1307044D01*
X528093Y1309156D01*
X528901Y1311106D01*
X530394Y1312599D01*
X532344Y1313407D01*
X534456Y1313407D01*
X536406Y1312599D01*
X537899Y1311106D01*
X538707Y1309156D01*
X538707Y1307044D01*
X537899Y1305094D01*
X537682Y1304878D01*
X537634Y1304823D01*
X537581Y1304773D01*
X537423Y1304584D01*
X537261Y1304400D01*
X537220Y1304339D01*
X537173Y1304283D01*
X537041Y1304076D01*
X536903Y1303873D01*
X536870Y1303808D01*
X536830Y1303746D01*
X536725Y1303524D01*
X536613Y1303305D01*
X536589Y1303237D01*
X536557Y1303171D01*
X536481Y1302937D01*
X536397Y1302706D01*
X536381Y1302635D01*
X536358Y1302565D01*
X536312Y1302324D01*
X536258Y1302084D01*
X536251Y1302011D01*
X536237Y1301940D01*
X536222Y1301709D01*
X536197Y1301450D01*
X536200Y1301366D01*
X536195Y1301286D01*
X536195Y803362D01*
X536199Y803289D01*
X536197Y803216D01*
X536219Y802971D01*
X536235Y802726D01*
X536248Y802654D01*
X536255Y802581D01*
X536308Y802341D01*
X536354Y802100D01*
X536376Y802031D01*
X536392Y801959D01*
X536475Y801727D01*
X536551Y801494D01*
X536582Y801428D01*
X536606Y801359D01*
X536717Y801140D01*
X536822Y800917D01*
X536861Y800855D01*
X536894Y800790D01*
X537031Y800587D01*
X537163Y800379D01*
X537209Y800323D01*
X537250Y800262D01*
X537403Y800089D01*
X537568Y799888D01*
X537629Y799830D01*
X537682Y799770D01*
X547334Y790118D01*
X547512Y789962D01*
X547684Y789799D01*
X547751Y789751D01*
X547812Y789697D01*
X548008Y789563D01*
X548200Y789424D01*
X548271Y789384D01*
X548339Y789338D01*
X548550Y789231D01*
X548757Y789116D01*
X548834Y789086D01*
X548907Y789049D01*
X549129Y788969D01*
X549350Y788881D01*
X549429Y788860D01*
X549506Y788833D01*
X549737Y788781D01*
X549966Y788722D01*
X550048Y788711D01*
X550128Y788693D01*
X550363Y788671D01*
X550598Y788641D01*
X550681Y788641D01*
X550762Y788633D01*
X550998Y788640D01*
X551236Y788640D01*
X551317Y788650D01*
X551399Y788652D01*
X551633Y788689D01*
X551868Y788718D01*
X551947Y788739D01*
X552028Y788751D01*
X552256Y788817D01*
X552485Y788875D01*
X552561Y788905D01*
X552640Y788928D01*
X552858Y789022D01*
X553078Y789109D01*
X553150Y789148D01*
X553225Y789181D01*
X553429Y789301D01*
X553637Y789414D01*
X553704Y789462D01*
X553774Y789504D01*
X553962Y789649D01*
X554154Y789788D01*
X554214Y789844D01*
X554278Y789894D01*
X554446Y790061D01*
X554619Y790222D01*
X554672Y790286D01*
X554730Y790343D01*
X554875Y790530D01*
X555027Y790712D01*
X555071Y790781D01*
X555121Y790846D01*
X555242Y791049D01*
X555370Y791249D01*
X555405Y791323D01*
X555447Y791394D01*
X555541Y791611D01*
X555643Y791825D01*
X555668Y791903D01*
X555701Y791978D01*
X555768Y792205D01*
X555842Y792430D01*
X555857Y792511D01*
X555880Y792589D01*
X555918Y792823D01*
X555963Y793056D01*
X555968Y793136D01*
X555981Y793218D01*
X555990Y793478D01*
X556005Y793709D01*
X556005Y1105456D01*
X556431Y1106483D01*
X557931Y1107983D01*
X557931Y1107984D01*
X717106Y1267158D01*
X717154Y1267213D01*
X717207Y1267262D01*
X717365Y1267452D01*
X717527Y1267636D01*
X717568Y1267696D01*
X717615Y1267752D01*
X717747Y1267959D01*
X717885Y1268163D01*
X717918Y1268228D01*
X717958Y1268289D01*
X718063Y1268511D01*
X718175Y1268730D01*
X718199Y1268799D01*
X718231Y1268865D01*
X718307Y1269099D01*
X718391Y1269330D01*
X718407Y1269401D01*
X718430Y1269470D01*
X718476Y1269711D01*
X718530Y1269951D01*
X718537Y1270024D01*
X718551Y1270096D01*
X718566Y1270327D01*
X718591Y1270586D01*
X718588Y1270669D01*
X718593Y1270749D01*
X718593Y1271056D01*
X719422Y1273056D01*
X719466Y1273113D01*
X719575Y1273236D01*
X719662Y1273364D01*
X719757Y1273487D01*
X719841Y1273628D01*
X719933Y1273763D01*
X720003Y1273901D01*
X720083Y1274034D01*
X720148Y1274185D01*
X720223Y1274331D01*
X720275Y1274476D01*
X720337Y1274619D01*
X720383Y1274776D01*
X720439Y1274930D01*
X720473Y1275081D01*
X720516Y1275230D01*
X720542Y1275392D01*
X720578Y1275552D01*
X720593Y1275706D01*
X720617Y1275859D01*
X720623Y1276023D01*
X720639Y1276186D01*
X720634Y1276341D01*
X720639Y1276496D01*
X720624Y1276659D01*
X720619Y1276823D01*
X720595Y1276976D01*
X720581Y1277130D01*
X720546Y1277290D01*
X720520Y1277452D01*
X720477Y1277601D01*
X720444Y1277752D01*
X720389Y1277907D01*
X720343Y1278064D01*
X720282Y1278207D01*
X720230Y1278353D01*
X720156Y1278499D01*
X720091Y1278649D01*
X720012Y1278783D01*
X719942Y1278921D01*
X719851Y1279057D01*
X719768Y1279198D01*
X719673Y1279321D01*
X719586Y1279449D01*
X719481Y1279569D01*
X719421Y1279647D01*
X718593Y1281644D01*
X718593Y1283756D01*
X719401Y1285706D01*
X720894Y1287199D01*
X722844Y1288007D01*
X724956Y1288007D01*
X726906Y1287199D01*
X728399Y1285706D01*
X729207Y1283756D01*
X729207Y1283450D01*
X729211Y1283377D01*
X729209Y1283304D01*
X729231Y1283059D01*
X729247Y1282814D01*
X729260Y1282742D01*
X729267Y1282669D01*
X729320Y1282429D01*
X729366Y1282188D01*
X729389Y1282118D01*
X729404Y1282047D01*
X729487Y1281816D01*
X729563Y1281582D01*
X729594Y1281516D01*
X729618Y1281447D01*
X729729Y1281228D01*
X729834Y1281005D01*
X729873Y1280943D01*
X729906Y1280878D01*
X730043Y1280675D01*
X730175Y1280467D01*
X730221Y1280411D01*
X730262Y1280350D01*
X730415Y1280177D01*
X730580Y1279976D01*
X730641Y1279918D01*
X730694Y1279858D01*
X738969Y1271583D01*
X739395Y1270556D01*
X739395Y981162D01*
X739399Y981089D01*
X739397Y981016D01*
X739419Y980771D01*
X739435Y980526D01*
X739448Y980454D01*
X739455Y980381D01*
X739508Y980141D01*
X739554Y979900D01*
X739577Y979830D01*
X739592Y979759D01*
X739675Y979528D01*
X739751Y979294D01*
X739782Y979228D01*
X739806Y979159D01*
X739917Y978940D01*
X740022Y978717D01*
X740061Y978655D01*
X740094Y978590D01*
X740231Y978387D01*
X740363Y978179D01*
X740409Y978123D01*
X740450Y978062D01*
X740603Y977889D01*
X740768Y977688D01*
X740829Y977630D01*
X740882Y977570D01*
X924258Y794194D01*
X924313Y794146D01*
X924363Y794093D01*
X924552Y793935D01*
X924736Y793773D01*
X924796Y793732D01*
X924852Y793685D01*
X925060Y793553D01*
X925263Y793415D01*
X925328Y793382D01*
X925389Y793342D01*
X925611Y793237D01*
X925830Y793125D01*
X925899Y793101D01*
X925965Y793069D01*
X926199Y792993D01*
X926430Y792909D01*
X926501Y792893D01*
X926570Y792870D01*
X926811Y792824D01*
X927051Y792770D01*
X927124Y792763D01*
X927196Y792749D01*
X927427Y792734D01*
X927686Y792709D01*
X927769Y792712D01*
X927850Y792707D01*
X928156Y792707D01*
X930106Y791899D01*
X931599Y790406D01*
X932407Y788456D01*
X932407Y786344D01*
X931599Y784394D01*
X930106Y782901D01*
X928156Y782093D01*
X925929Y782093D01*
X925719Y782137D01*
X925489Y782192D01*
X925408Y782201D01*
X925328Y782218D01*
X925092Y782236D01*
X924856Y782263D01*
X924774Y782262D01*
X924693Y782268D01*
X924456Y782257D01*
X924219Y782254D01*
X924138Y782242D01*
X924056Y782238D01*
X923822Y782198D01*
X923588Y782165D01*
X923509Y782143D01*
X923428Y782129D01*
X923201Y782060D01*
X922973Y781998D01*
X922898Y781966D01*
X922819Y781942D01*
X922603Y781845D01*
X922384Y781755D01*
X922313Y781714D01*
X922238Y781681D01*
X922037Y781557D01*
X921830Y781440D01*
X921765Y781391D01*
X921695Y781348D01*
X921510Y781201D01*
X921320Y781059D01*
X921261Y781002D01*
X921197Y780951D01*
X921032Y780781D01*
X920862Y780616D01*
X920810Y780552D01*
X920753Y780494D01*
X920611Y780305D01*
X920462Y780120D01*
X920419Y780050D01*
X920370Y779985D01*
X920252Y779780D01*
X920128Y779578D01*
X920094Y779503D01*
X920053Y779432D01*
X919962Y779214D01*
X919864Y778998D01*
X919840Y778919D01*
X919808Y778844D01*
X919745Y778616D01*
X919675Y778389D01*
X919661Y778308D01*
X919639Y778229D01*
X919605Y777995D01*
X919564Y777762D01*
X919560Y777680D01*
X919548Y777599D01*
X919544Y777362D01*
X919532Y777126D01*
X919538Y777044D01*
X919536Y776962D01*
X919562Y776727D01*
X919580Y776490D01*
X919596Y776410D01*
X919605Y776328D01*
X919659Y776099D01*
X919707Y775866D01*
X919707Y773644D01*
X918950Y771818D01*
X918887Y771633D01*
X918814Y771450D01*
X918784Y771331D01*
X918744Y771215D01*
X918704Y771023D01*
X918655Y770834D01*
X918639Y770712D01*
X918614Y770591D01*
X918599Y770396D01*
X918574Y770202D01*
X918574Y770078D01*
X918564Y769956D01*
X918573Y769760D01*
X918573Y769564D01*
X918588Y769442D01*
X918594Y769320D01*
X918627Y769127D01*
X918652Y768932D01*
X918682Y768813D01*
X918703Y768692D01*
X918760Y768505D01*
X918809Y768315D01*
X918854Y768200D01*
X918890Y768083D01*
X918970Y767904D01*
X919042Y767722D01*
X919101Y767614D01*
X919151Y767502D01*
X919253Y767335D01*
X919348Y767163D01*
X919420Y767063D01*
X919484Y766958D01*
X919606Y766805D01*
X919721Y766646D01*
X919805Y766557D01*
X919882Y766460D01*
X920022Y766324D01*
X920156Y766181D01*
X920250Y766102D01*
X920338Y766016D01*
X920495Y765899D01*
X920645Y765773D01*
X920749Y765707D01*
X920847Y765633D01*
X921018Y765536D01*
X921182Y765430D01*
X921294Y765378D01*
X921400Y765317D01*
X921581Y765241D01*
X921758Y765157D01*
X921875Y765119D01*
X921989Y765072D01*
X922178Y765020D01*
X922363Y764958D01*
X922484Y764935D01*
X922603Y764902D01*
X922797Y764874D01*
X922989Y764837D01*
X923109Y764829D01*
X923233Y764811D01*
X923446Y764807D01*
X923643Y764795D01*
X971086Y764795D01*
X971159Y764799D01*
X971232Y764797D01*
X971477Y764819D01*
X971722Y764835D01*
X971793Y764848D01*
X971866Y764855D01*
X972106Y764908D01*
X972348Y764954D01*
X972417Y764977D01*
X972488Y764992D01*
X972719Y765075D01*
X972954Y765151D01*
X973020Y765182D01*
X973089Y765206D01*
X973308Y765317D01*
X973530Y765422D01*
X973592Y765461D01*
X973657Y765494D01*
X973861Y765631D01*
X974069Y765763D01*
X974125Y765809D01*
X974185Y765850D01*
X974359Y766003D01*
X974560Y766168D01*
X974617Y766229D01*
X974678Y766282D01*
X974894Y766499D01*
X976844Y767307D01*
X978956Y767307D01*
X980906Y766499D01*
X982399Y765006D01*
X983207Y763056D01*
X983207Y760944D01*
X982399Y758994D01*
X980906Y757501D01*
X978956Y756693D01*
X976844Y756693D01*
X974894Y757501D01*
X974678Y757718D01*
X974623Y757766D01*
X974573Y757819D01*
X974384Y757977D01*
X974200Y758139D01*
X974139Y758180D01*
X974083Y758227D01*
X973876Y758359D01*
X973673Y758497D01*
X973608Y758530D01*
X973546Y758570D01*
X973324Y758675D01*
X973105Y758787D01*
X973037Y758811D01*
X972971Y758843D01*
X972737Y758919D01*
X972506Y759003D01*
X972435Y759019D01*
X972365Y759042D01*
X972124Y759088D01*
X971884Y759142D01*
X971811Y759149D01*
X971740Y759163D01*
X971509Y759178D01*
X971250Y759203D01*
X971166Y759200D01*
X971086Y759205D01*
X837023Y759205D01*
X836950Y759201D01*
X836878Y759203D01*
X836633Y759181D01*
X836387Y759165D01*
X836316Y759152D01*
X836243Y759145D01*
X836003Y759092D01*
X835762Y759046D01*
X835692Y759024D01*
X835621Y759008D01*
X835389Y758925D01*
X835156Y758849D01*
X835089Y758818D01*
X835021Y758794D01*
X834801Y758683D01*
X834579Y758578D01*
X834517Y758539D01*
X834452Y758506D01*
X834249Y758369D01*
X834041Y758237D01*
X833984Y758191D01*
X833924Y758150D01*
X833750Y757997D01*
X833549Y757832D01*
X833492Y757771D01*
X833432Y757718D01*
X829077Y753363D01*
X821923Y753363D01*
X816863Y758423D01*
X816863Y765577D01*
X821923Y770637D01*
X829077Y770637D01*
X833432Y766282D01*
X833487Y766234D01*
X833536Y766181D01*
X833725Y766024D01*
X833910Y765861D01*
X833970Y765820D01*
X834026Y765773D01*
X834233Y765641D01*
X834436Y765503D01*
X834502Y765470D01*
X834563Y765430D01*
X834785Y765325D01*
X835004Y765213D01*
X835072Y765189D01*
X835139Y765157D01*
X835373Y765080D01*
X835603Y764997D01*
X835675Y764981D01*
X835744Y764958D01*
X835985Y764912D01*
X836225Y764858D01*
X836298Y764851D01*
X836369Y764837D01*
X836601Y764822D01*
X836859Y764797D01*
X836943Y764800D01*
X837023Y764795D01*
X905157Y764795D01*
X905353Y764807D01*
X905549Y764810D01*
X905670Y764827D01*
X905793Y764835D01*
X905986Y764871D01*
X906180Y764899D01*
X906298Y764931D01*
X906419Y764954D01*
X906605Y765014D01*
X906794Y765066D01*
X906908Y765113D01*
X907025Y765151D01*
X907202Y765234D01*
X907383Y765309D01*
X907490Y765369D01*
X907602Y765422D01*
X907767Y765527D01*
X907937Y765623D01*
X908036Y765697D01*
X908140Y765763D01*
X908291Y765887D01*
X908448Y766005D01*
X908536Y766090D01*
X908631Y766168D01*
X908765Y766311D01*
X908906Y766447D01*
X908983Y766543D01*
X909068Y766632D01*
X909183Y766791D01*
X909306Y766943D01*
X909370Y767048D01*
X909443Y767147D01*
X909537Y767319D01*
X909640Y767486D01*
X909691Y767598D01*
X909750Y767705D01*
X909823Y767887D01*
X909904Y768066D01*
X909940Y768183D01*
X909986Y768298D01*
X910035Y768487D01*
X910093Y768674D01*
X910114Y768795D01*
X910145Y768914D01*
X910170Y769109D01*
X910204Y769302D01*
X910210Y769424D01*
X910226Y769546D01*
X910226Y769743D01*
X910236Y769938D01*
X910227Y770060D01*
X910227Y770184D01*
X910203Y770378D01*
X910188Y770573D01*
X910164Y770694D01*
X910148Y770816D01*
X910100Y771006D01*
X910061Y771197D01*
X910022Y771311D01*
X909991Y771433D01*
X909913Y771632D01*
X909850Y771818D01*
X909093Y773644D01*
X909093Y773950D01*
X909089Y774023D01*
X909091Y774096D01*
X909069Y774341D01*
X909053Y774586D01*
X909040Y774658D01*
X909033Y774731D01*
X908980Y774971D01*
X908934Y775212D01*
X908911Y775282D01*
X908896Y775353D01*
X908813Y775584D01*
X908737Y775818D01*
X908706Y775884D01*
X908682Y775953D01*
X908571Y776172D01*
X908466Y776395D01*
X908427Y776457D01*
X908394Y776522D01*
X908257Y776725D01*
X908125Y776933D01*
X908079Y776989D01*
X908038Y777050D01*
X907885Y777223D01*
X907720Y777424D01*
X907659Y777482D01*
X907606Y777542D01*
X708831Y976317D01*
X708405Y977344D01*
X708405Y1136186D01*
X708401Y1136259D01*
X708403Y1136332D01*
X708381Y1136577D01*
X708365Y1136822D01*
X708352Y1136893D01*
X708345Y1136966D01*
X708292Y1137206D01*
X708246Y1137448D01*
X708223Y1137517D01*
X708208Y1137588D01*
X708125Y1137819D01*
X708049Y1138054D01*
X708018Y1138120D01*
X707994Y1138189D01*
X707883Y1138408D01*
X707778Y1138630D01*
X707739Y1138692D01*
X707706Y1138757D01*
X707569Y1138961D01*
X707437Y1139169D01*
X707391Y1139225D01*
X707350Y1139285D01*
X707197Y1139459D01*
X707032Y1139660D01*
X706971Y1139717D01*
X706918Y1139778D01*
X706701Y1139994D01*
X705893Y1141944D01*
X705893Y1144056D01*
X706701Y1146006D01*
X708194Y1147499D01*
X710144Y1148307D01*
X712256Y1148307D01*
X714206Y1147499D01*
X715699Y1146006D01*
X716507Y1144056D01*
X716507Y1141944D01*
X715699Y1139994D01*
X715482Y1139778D01*
X715434Y1139723D01*
X715381Y1139673D01*
X715223Y1139484D01*
X715061Y1139300D01*
X715020Y1139239D01*
X714973Y1139183D01*
X714841Y1138976D01*
X714703Y1138773D01*
X714670Y1138708D01*
X714630Y1138646D01*
X714525Y1138424D01*
X714413Y1138205D01*
X714389Y1138137D01*
X714357Y1138071D01*
X714281Y1137837D01*
X714197Y1137606D01*
X714181Y1137535D01*
X714158Y1137465D01*
X714112Y1137224D01*
X714058Y1136984D01*
X714051Y1136911D01*
X714037Y1136840D01*
X714022Y1136609D01*
X713997Y1136350D01*
X714000Y1136266D01*
X713995Y1136186D01*
X713995Y981162D01*
X713999Y981089D01*
X713997Y981016D01*
X714019Y980771D01*
X714035Y980526D01*
X714048Y980454D01*
X714055Y980381D01*
X714108Y980141D01*
X714154Y979900D01*
X714177Y979830D01*
X714192Y979759D01*
X714275Y979528D01*
X714351Y979294D01*
X714382Y979228D01*
X714406Y979159D01*
X714517Y978940D01*
X714622Y978717D01*
X714661Y978655D01*
X714694Y978590D01*
X714831Y978387D01*
X714963Y978179D01*
X715009Y978123D01*
X715050Y978062D01*
X715203Y977889D01*
X715368Y977688D01*
X715429Y977630D01*
X715482Y977570D01*
X911558Y781494D01*
X911613Y781446D01*
X911663Y781393D01*
X911852Y781235D01*
X912036Y781073D01*
X912096Y781032D01*
X912152Y780985D01*
X912360Y780853D01*
X912563Y780715D01*
X912628Y780682D01*
X912689Y780642D01*
X912911Y780537D01*
X913130Y780425D01*
X913199Y780401D01*
X913265Y780369D01*
X913499Y780293D01*
X913730Y780209D01*
X913801Y780193D01*
X913870Y780170D01*
X914111Y780124D01*
X914351Y780070D01*
X914424Y780063D01*
X914496Y780049D01*
X914727Y780034D01*
X914986Y780009D01*
X915069Y780012D01*
X915150Y780007D01*
X915571Y780007D01*
X915781Y779963D01*
X916011Y779908D01*
X916092Y779899D01*
X916172Y779882D01*
X916408Y779864D01*
X916644Y779837D01*
X916726Y779838D01*
X916807Y779832D01*
X917044Y779843D01*
X917281Y779846D01*
X917362Y779858D01*
X917444Y779862D01*
X917678Y779902D01*
X917912Y779935D01*
X917991Y779957D01*
X918072Y779971D01*
X918299Y780040D01*
X918527Y780102D01*
X918602Y780134D01*
X918681Y780158D01*
X918897Y780255D01*
X919116Y780345D01*
X919187Y780386D01*
X919262Y780419D01*
X919463Y780543D01*
X919670Y780660D01*
X919735Y780709D01*
X919805Y780752D01*
X919990Y780899D01*
X920180Y781041D01*
X920239Y781098D01*
X920303Y781149D01*
X920468Y781319D01*
X920638Y781484D01*
X920690Y781548D01*
X920747Y781606D01*
X920889Y781795D01*
X921038Y781980D01*
X921081Y782050D01*
X921130Y782115D01*
X921248Y782320D01*
X921372Y782522D01*
X921406Y782597D01*
X921447Y782668D01*
X921538Y782886D01*
X921636Y783102D01*
X921660Y783181D01*
X921692Y783256D01*
X921755Y783484D01*
X921825Y783711D01*
X921839Y783792D01*
X921861Y783871D01*
X921895Y784105D01*
X921936Y784338D01*
X921940Y784420D01*
X921952Y784501D01*
X921956Y784738D01*
X921968Y784974D01*
X921962Y785056D01*
X921964Y785138D01*
X921938Y785373D01*
X921920Y785610D01*
X921904Y785690D01*
X921895Y785772D01*
X921841Y786001D01*
X921793Y786234D01*
X921793Y786650D01*
X921789Y786723D01*
X921791Y786796D01*
X921769Y787041D01*
X921753Y787286D01*
X921740Y787358D01*
X921733Y787431D01*
X921680Y787671D01*
X921634Y787912D01*
X921611Y787982D01*
X921596Y788053D01*
X921513Y788284D01*
X921437Y788518D01*
X921406Y788584D01*
X921382Y788653D01*
X921271Y788872D01*
X921166Y789095D01*
X921127Y789157D01*
X921094Y789222D01*
X920957Y789425D01*
X920825Y789633D01*
X920779Y789689D01*
X920738Y789750D01*
X920585Y789923D01*
X920420Y790124D01*
X920359Y790182D01*
X920306Y790242D01*
X734231Y976317D01*
X733805Y977344D01*
X733805Y1260757D01*
X733793Y1260953D01*
X733790Y1261149D01*
X733773Y1261270D01*
X733765Y1261393D01*
X733729Y1261586D01*
X733701Y1261780D01*
X733669Y1261898D01*
X733646Y1262019D01*
X733586Y1262205D01*
X733534Y1262394D01*
X733487Y1262508D01*
X733449Y1262625D01*
X733366Y1262802D01*
X733291Y1262983D01*
X733231Y1263090D01*
X733178Y1263202D01*
X733073Y1263367D01*
X732977Y1263537D01*
X732903Y1263636D01*
X732837Y1263740D01*
X732713Y1263891D01*
X732595Y1264048D01*
X732510Y1264136D01*
X732432Y1264231D01*
X732289Y1264365D01*
X732153Y1264506D01*
X732057Y1264583D01*
X731968Y1264668D01*
X731809Y1264783D01*
X731657Y1264906D01*
X731552Y1264970D01*
X731453Y1265043D01*
X731281Y1265137D01*
X731114Y1265240D01*
X731002Y1265291D01*
X730895Y1265350D01*
X730713Y1265423D01*
X730534Y1265504D01*
X730417Y1265540D01*
X730302Y1265586D01*
X730113Y1265635D01*
X729926Y1265693D01*
X729805Y1265714D01*
X729686Y1265745D01*
X729491Y1265770D01*
X729298Y1265804D01*
X729176Y1265810D01*
X729054Y1265826D01*
X728857Y1265826D01*
X728662Y1265836D01*
X728540Y1265827D01*
X728416Y1265827D01*
X728222Y1265803D01*
X728027Y1265788D01*
X727906Y1265764D01*
X727784Y1265748D01*
X727594Y1265700D01*
X727403Y1265661D01*
X727289Y1265622D01*
X727167Y1265591D01*
X726968Y1265513D01*
X726782Y1265450D01*
X724956Y1264693D01*
X724649Y1264693D01*
X724577Y1264689D01*
X724504Y1264691D01*
X724259Y1264669D01*
X724014Y1264653D01*
X723942Y1264640D01*
X723869Y1264633D01*
X723629Y1264580D01*
X723388Y1264534D01*
X723318Y1264511D01*
X723247Y1264496D01*
X723016Y1264413D01*
X722782Y1264337D01*
X722716Y1264306D01*
X722647Y1264282D01*
X722428Y1264171D01*
X722205Y1264066D01*
X722143Y1264027D01*
X722078Y1263994D01*
X721875Y1263857D01*
X721667Y1263725D01*
X721611Y1263679D01*
X721550Y1263638D01*
X721376Y1263485D01*
X721176Y1263320D01*
X721118Y1263259D01*
X721058Y1263206D01*
X563082Y1105230D01*
X563034Y1105175D01*
X562981Y1105126D01*
X562823Y1104936D01*
X562661Y1104752D01*
X562620Y1104692D01*
X562573Y1104636D01*
X562441Y1104429D01*
X562303Y1104225D01*
X562270Y1104160D01*
X562230Y1104099D01*
X562125Y1103877D01*
X562013Y1103658D01*
X561989Y1103589D01*
X561957Y1103523D01*
X561881Y1103289D01*
X561797Y1103058D01*
X561781Y1102987D01*
X561758Y1102918D01*
X561712Y1102677D01*
X561658Y1102437D01*
X561651Y1102364D01*
X561637Y1102292D01*
X561622Y1102061D01*
X561597Y1101802D01*
X561600Y1101719D01*
X561595Y1101639D01*
X561595Y790662D01*
X561599Y790589D01*
X561597Y790516D01*
X561619Y790271D01*
X561635Y790026D01*
X561648Y789954D01*
X561655Y789881D01*
X561708Y789641D01*
X561754Y789400D01*
X561777Y789330D01*
X561792Y789259D01*
X561875Y789028D01*
X561951Y788794D01*
X561982Y788728D01*
X562006Y788659D01*
X562117Y788440D01*
X562222Y788217D01*
X562261Y788155D01*
X562294Y788090D01*
X562431Y787887D01*
X562563Y787679D01*
X562609Y787623D01*
X562650Y787562D01*
X562803Y787389D01*
X562968Y787188D01*
X563029Y787130D01*
X563082Y787070D01*
X748970Y601182D01*
X749025Y601134D01*
X749075Y601081D01*
X749264Y600923D01*
X749448Y600761D01*
X749508Y600720D01*
X749564Y600673D01*
X749772Y600541D01*
X749975Y600403D01*
X750040Y600370D01*
X750101Y600330D01*
X750323Y600225D01*
X750542Y600113D01*
X750611Y600089D01*
X750677Y600057D01*
X750911Y599981D01*
X751142Y599897D01*
X751213Y599881D01*
X751282Y599858D01*
X751523Y599812D01*
X751763Y599758D01*
X751836Y599751D01*
X751908Y599737D01*
X752139Y599722D01*
X752398Y599697D01*
X752481Y599700D01*
X752562Y599695D01*
X869991Y599695D01*
X870227Y599710D01*
X870464Y599717D01*
X870545Y599730D01*
X870626Y599735D01*
X870859Y599779D01*
X871093Y599816D01*
X871172Y599839D01*
X871252Y599854D01*
X871478Y599927D01*
X871705Y599993D01*
X871780Y600025D01*
X871858Y600051D01*
X872073Y600151D01*
X872290Y600245D01*
X872361Y600287D01*
X872435Y600322D01*
X872635Y600448D01*
X872839Y600569D01*
X872904Y600619D01*
X872973Y600663D01*
X873156Y600814D01*
X873343Y600958D01*
X873401Y601016D01*
X873464Y601068D01*
X873627Y601241D01*
X873794Y601408D01*
X873845Y601473D01*
X873901Y601532D01*
X874040Y601724D01*
X874186Y601911D01*
X874228Y601981D01*
X874276Y602047D01*
X874390Y602255D01*
X874511Y602459D01*
X874544Y602534D01*
X874584Y602605D01*
X874671Y602825D01*
X874766Y603043D01*
X874789Y603121D01*
X874819Y603198D01*
X874878Y603427D01*
X874945Y603654D01*
X874958Y603735D01*
X874978Y603814D01*
X875008Y604049D01*
X875046Y604283D01*
X875049Y604365D01*
X875059Y604446D01*
X875060Y604683D01*
X875068Y604920D01*
X875060Y605002D01*
X875060Y605084D01*
X875031Y605319D01*
X875009Y605554D01*
X874992Y605634D01*
X874982Y605716D01*
X874923Y605945D01*
X874872Y606177D01*
X874845Y606254D01*
X874825Y606333D01*
X874738Y606554D01*
X874658Y606777D01*
X874621Y606850D01*
X874591Y606926D01*
X874477Y607134D01*
X874371Y607345D01*
X874325Y607413D01*
X874286Y607485D01*
X874147Y607677D01*
X874014Y607874D01*
X873968Y607926D01*
X873505Y609044D01*
X873505Y621995D01*
X873498Y622109D01*
X873500Y622223D01*
X873478Y622427D01*
X873465Y622631D01*
X873444Y622743D01*
X873432Y622856D01*
X873384Y623056D01*
X873346Y623257D01*
X873311Y623365D01*
X873285Y623476D01*
X873213Y623668D01*
X873149Y623863D01*
X873101Y623966D01*
X873061Y624073D01*
X872966Y624254D01*
X872878Y624440D01*
X872817Y624536D01*
X872764Y624637D01*
X872647Y624805D01*
X872537Y624978D01*
X872465Y625066D01*
X872399Y625159D01*
X872262Y625311D01*
X872132Y625469D01*
X872049Y625547D01*
X871972Y625632D01*
X871817Y625765D01*
X871668Y625906D01*
X871575Y625973D01*
X871489Y626047D01*
X871318Y626160D01*
X871153Y626281D01*
X871053Y626336D01*
X870958Y626399D01*
X870781Y626486D01*
X870595Y626588D01*
X870478Y626635D01*
X870370Y626688D01*
X869501Y627048D01*
X866125Y630424D01*
X864298Y634835D01*
X864298Y660565D01*
X866125Y664976D01*
X869501Y668352D01*
X873913Y670180D01*
X878687Y670180D01*
X883099Y668352D01*
X886475Y664976D01*
X888302Y660565D01*
X888302Y634835D01*
X886475Y630424D01*
X883099Y627048D01*
X882230Y626688D01*
X882128Y626638D01*
X882022Y626596D01*
X881842Y626498D01*
X881658Y626408D01*
X881563Y626345D01*
X881463Y626290D01*
X881297Y626170D01*
X881126Y626058D01*
X881039Y625984D01*
X880946Y625917D01*
X880797Y625777D01*
X880641Y625644D01*
X880564Y625560D01*
X880481Y625482D01*
X880350Y625325D01*
X880212Y625173D01*
X880146Y625080D01*
X880073Y624992D01*
X879963Y624820D01*
X879845Y624652D01*
X879792Y624551D01*
X879730Y624455D01*
X879643Y624270D01*
X879547Y624089D01*
X879506Y623983D01*
X879457Y623880D01*
X879393Y623685D01*
X879321Y623494D01*
X879294Y623383D01*
X879258Y623274D01*
X879219Y623073D01*
X879171Y622874D01*
X879159Y622761D01*
X879137Y622649D01*
X879124Y622452D01*
X879101Y622241D01*
X879103Y622115D01*
X879095Y621995D01*
X879095Y612862D01*
X879099Y612789D01*
X879097Y612716D01*
X879119Y612471D01*
X879135Y612226D01*
X879148Y612154D01*
X879155Y612081D01*
X879208Y611841D01*
X879254Y611600D01*
X879277Y611530D01*
X879292Y611459D01*
X879375Y611228D01*
X879451Y610994D01*
X879482Y610928D01*
X879506Y610859D01*
X879617Y610640D01*
X879722Y610417D01*
X879761Y610355D01*
X879794Y610290D01*
X879931Y610087D01*
X880063Y609879D01*
X880109Y609823D01*
X880150Y609762D01*
X880303Y609589D01*
X880468Y609388D01*
X880529Y609330D01*
X880582Y609270D01*
X962358Y527494D01*
X962413Y527446D01*
X962463Y527393D01*
X962652Y527235D01*
X962836Y527073D01*
X962896Y527032D01*
X962952Y526985D01*
X963160Y526853D01*
X963363Y526715D01*
X963428Y526682D01*
X963489Y526642D01*
X963711Y526537D01*
X963930Y526425D01*
X963999Y526401D01*
X964065Y526369D01*
X964299Y526293D01*
X964530Y526209D01*
X964601Y526193D01*
X964670Y526170D01*
X964911Y526124D01*
X965151Y526070D01*
X965224Y526063D01*
X965296Y526049D01*
X965527Y526034D01*
X965786Y526009D01*
X965869Y526012D01*
X965950Y526007D01*
X966256Y526007D01*
X968206Y525199D01*
X969699Y523706D01*
X970507Y521756D01*
X970507Y519644D01*
X969699Y517694D01*
X968170Y516165D01*
X968068Y516049D01*
X967958Y515940D01*
X967857Y515811D01*
X967749Y515687D01*
X967662Y515559D01*
X967566Y515437D01*
X967483Y515296D01*
X967391Y515161D01*
X967320Y515023D01*
X967241Y514889D01*
X967176Y514739D01*
X967101Y514593D01*
X967049Y514447D01*
X966987Y514305D01*
X966941Y514148D01*
X966885Y513994D01*
X966851Y513842D01*
X966808Y513694D01*
X966781Y513532D01*
X966746Y513372D01*
X966731Y513218D01*
X966706Y513065D01*
X966701Y512901D01*
X966685Y512738D01*
X966690Y512583D01*
X966685Y512428D01*
X966700Y512265D01*
X966705Y512101D01*
X966729Y511948D01*
X966743Y511793D01*
X966778Y511633D01*
X966804Y511471D01*
X966847Y511322D01*
X966880Y511171D01*
X966935Y511017D01*
X966981Y510859D01*
X967042Y510717D01*
X967094Y510571D01*
X967168Y510425D01*
X967233Y510274D01*
X967311Y510141D01*
X967381Y510003D01*
X967473Y509867D01*
X967556Y509725D01*
X967651Y509603D01*
X967738Y509474D01*
X967843Y509355D01*
X967946Y509221D01*
X968065Y509102D01*
X968170Y508982D01*
X1004534Y472618D01*
X1004712Y472462D01*
X1004884Y472299D01*
X1004951Y472251D01*
X1005012Y472197D01*
X1005208Y472064D01*
X1005400Y471924D01*
X1005471Y471884D01*
X1005539Y471838D01*
X1005750Y471731D01*
X1005957Y471616D01*
X1006034Y471586D01*
X1006107Y471549D01*
X1006330Y471468D01*
X1006550Y471381D01*
X1006629Y471361D01*
X1006706Y471333D01*
X1006937Y471281D01*
X1007166Y471222D01*
X1007248Y471211D01*
X1007328Y471193D01*
X1007563Y471171D01*
X1007798Y471141D01*
X1007881Y471141D01*
X1007962Y471133D01*
X1008198Y471140D01*
X1008436Y471140D01*
X1008517Y471150D01*
X1008599Y471152D01*
X1008833Y471189D01*
X1009068Y471218D01*
X1009147Y471239D01*
X1009228Y471251D01*
X1009456Y471317D01*
X1009685Y471375D01*
X1009761Y471405D01*
X1009840Y471428D01*
X1010058Y471522D01*
X1010278Y471609D01*
X1010350Y471648D01*
X1010425Y471681D01*
X1010629Y471801D01*
X1010837Y471914D01*
X1010904Y471962D01*
X1010974Y472004D01*
X1011162Y472149D01*
X1011354Y472288D01*
X1011413Y472343D01*
X1011478Y472394D01*
X1011646Y472561D01*
X1011819Y472722D01*
X1011872Y472786D01*
X1011930Y472843D01*
X1012075Y473030D01*
X1012227Y473212D01*
X1012271Y473281D01*
X1012321Y473346D01*
X1012442Y473550D01*
X1012570Y473749D01*
X1012605Y473823D01*
X1012647Y473894D01*
X1012741Y474111D01*
X1012843Y474325D01*
X1012868Y474403D01*
X1012901Y474478D01*
X1012968Y474705D01*
X1013042Y474930D01*
X1013057Y475011D01*
X1013080Y475089D01*
X1013118Y475323D01*
X1013163Y475556D01*
X1013168Y475636D01*
X1013181Y475718D01*
X1013190Y475978D01*
X1013205Y476209D01*
X1013205Y648256D01*
X1013631Y649283D01*
X1052517Y688169D01*
X1053544Y688595D01*
X1072686Y688595D01*
X1072759Y688599D01*
X1072832Y688597D01*
X1073077Y688619D01*
X1073322Y688635D01*
X1073393Y688648D01*
X1073466Y688655D01*
X1073706Y688708D01*
X1073948Y688754D01*
X1074017Y688777D01*
X1074088Y688792D01*
X1074319Y688875D01*
X1074554Y688951D01*
X1074620Y688982D01*
X1074689Y689006D01*
X1074908Y689117D01*
X1075130Y689222D01*
X1075192Y689261D01*
X1075257Y689294D01*
X1075461Y689431D01*
X1075669Y689563D01*
X1075725Y689609D01*
X1075785Y689650D01*
X1075959Y689803D01*
X1076160Y689968D01*
X1076217Y690029D01*
X1076278Y690082D01*
X1076494Y690299D01*
X1078444Y691107D01*
X1080556Y691107D01*
X1082506Y690299D01*
X1083999Y688806D01*
X1084807Y686856D01*
X1084807Y684744D01*
X1083999Y682794D01*
X1082506Y681301D01*
X1080556Y680493D01*
X1078329Y680493D01*
X1078119Y680537D01*
X1077889Y680592D01*
X1077808Y680601D01*
X1077728Y680618D01*
X1077492Y680636D01*
X1077256Y680663D01*
X1077174Y680662D01*
X1077093Y680668D01*
X1076856Y680657D01*
X1076619Y680654D01*
X1076538Y680642D01*
X1076456Y680638D01*
X1076222Y680598D01*
X1075988Y680565D01*
X1075909Y680543D01*
X1075828Y680529D01*
X1075601Y680460D01*
X1075373Y680398D01*
X1075298Y680366D01*
X1075219Y680342D01*
X1075003Y680245D01*
X1074784Y680155D01*
X1074713Y680114D01*
X1074638Y680081D01*
X1074437Y679957D01*
X1074230Y679840D01*
X1074165Y679791D01*
X1074095Y679748D01*
X1073910Y679601D01*
X1073720Y679459D01*
X1073661Y679402D01*
X1073597Y679351D01*
X1073432Y679181D01*
X1073262Y679016D01*
X1073210Y678952D01*
X1073153Y678894D01*
X1073011Y678705D01*
X1072862Y678520D01*
X1072819Y678450D01*
X1072770Y678385D01*
X1072652Y678180D01*
X1072528Y677978D01*
X1072494Y677903D01*
X1072453Y677832D01*
X1072362Y677614D01*
X1072264Y677398D01*
X1072240Y677319D01*
X1072208Y677244D01*
X1072145Y677016D01*
X1072075Y676789D01*
X1072061Y676708D01*
X1072039Y676629D01*
X1072005Y676395D01*
X1071964Y676162D01*
X1071960Y676080D01*
X1071948Y675999D01*
X1071944Y675762D01*
X1071932Y675526D01*
X1071938Y675444D01*
X1071936Y675362D01*
X1071962Y675127D01*
X1071980Y674890D01*
X1071996Y674810D01*
X1072005Y674728D01*
X1072059Y674499D01*
X1072107Y674266D01*
X1072107Y672044D01*
X1071299Y670094D01*
X1069806Y668601D01*
X1067856Y667793D01*
X1067550Y667793D01*
X1067477Y667789D01*
X1067404Y667791D01*
X1067159Y667769D01*
X1066914Y667753D01*
X1066842Y667740D01*
X1066769Y667733D01*
X1066529Y667680D01*
X1066288Y667634D01*
X1066218Y667611D01*
X1066147Y667596D01*
X1065916Y667513D01*
X1065682Y667437D01*
X1065616Y667406D01*
X1065547Y667382D01*
X1065328Y667271D01*
X1065105Y667166D01*
X1065043Y667127D01*
X1064978Y667094D01*
X1064775Y666957D01*
X1064567Y666825D01*
X1064511Y666779D01*
X1064450Y666738D01*
X1064277Y666585D01*
X1064076Y666420D01*
X1064018Y666359D01*
X1063958Y666306D01*
X1045682Y648030D01*
X1045634Y647975D01*
X1045581Y647925D01*
X1045423Y647736D01*
X1045261Y647552D01*
X1045220Y647492D01*
X1045173Y647436D01*
X1045041Y647228D01*
X1044903Y647025D01*
X1044870Y646960D01*
X1044830Y646899D01*
X1044725Y646677D01*
X1044613Y646458D01*
X1044589Y646389D01*
X1044557Y646323D01*
X1044481Y646089D01*
X1044397Y645858D01*
X1044381Y645787D01*
X1044358Y645718D01*
X1044312Y645477D01*
X1044258Y645237D01*
X1044251Y645164D01*
X1044237Y645092D01*
X1044222Y644861D01*
X1044197Y644602D01*
X1044200Y644519D01*
X1044195Y644438D01*
X1044195Y75644D01*
X1043769Y74617D01*
X1035494Y66342D01*
X1035446Y66287D01*
X1035393Y66238D01*
X1035236Y66049D01*
X1035073Y65864D01*
X1035032Y65804D01*
X1034985Y65748D01*
X1034853Y65541D01*
X1034715Y65337D01*
X1034682Y65272D01*
X1034642Y65211D01*
X1034537Y64988D01*
X1034425Y64770D01*
X1034401Y64701D01*
X1034369Y64635D01*
X1034292Y64401D01*
X1034209Y64170D01*
X1034193Y64099D01*
X1034170Y64030D01*
X1034124Y63789D01*
X1034070Y63549D01*
X1034063Y63476D01*
X1034049Y63404D01*
X1034034Y63173D01*
X1034009Y62914D01*
X1034012Y62831D01*
X1034007Y62751D01*
X1034007Y62444D01*
X1033199Y60494D01*
X1031706Y59001D01*
X1029756Y58193D01*
X1027644Y58193D01*
G37*
%LPD*%
%LPC*%
G36*
X1736533Y68071D02*
X1736533Y68071D01*
X1731771Y72833D01*
X1731771Y79567D01*
X1736533Y84329D01*
X1740176Y84329D01*
X1740249Y84333D01*
X1740322Y84331D01*
X1740567Y84353D01*
X1740812Y84369D01*
X1740884Y84382D01*
X1740957Y84389D01*
X1741197Y84442D01*
X1741438Y84488D01*
X1741508Y84511D01*
X1741579Y84526D01*
X1741810Y84609D01*
X1742044Y84685D01*
X1742110Y84716D01*
X1742179Y84740D01*
X1742398Y84851D01*
X1742621Y84956D01*
X1742683Y84995D01*
X1742748Y85028D01*
X1742951Y85165D01*
X1743159Y85297D01*
X1743215Y85343D01*
X1743276Y85384D01*
X1743449Y85537D01*
X1743650Y85702D01*
X1743708Y85763D01*
X1743768Y85816D01*
X1848648Y190696D01*
X1848696Y190751D01*
X1848749Y190801D01*
X1848907Y190990D01*
X1849069Y191174D01*
X1849110Y191234D01*
X1849157Y191290D01*
X1849289Y191498D01*
X1849427Y191701D01*
X1849460Y191766D01*
X1849500Y191827D01*
X1849605Y192049D01*
X1849717Y192268D01*
X1849741Y192337D01*
X1849773Y192403D01*
X1849849Y192636D01*
X1849933Y192868D01*
X1849949Y192939D01*
X1849972Y193008D01*
X1850018Y193250D01*
X1850072Y193489D01*
X1850079Y193562D01*
X1850093Y193634D01*
X1850108Y193865D01*
X1850133Y194124D01*
X1850130Y194207D01*
X1850135Y194288D01*
X1850135Y745512D01*
X1850131Y745585D01*
X1850133Y745658D01*
X1850111Y745903D01*
X1850095Y746148D01*
X1850082Y746220D01*
X1850075Y746293D01*
X1850022Y746533D01*
X1849976Y746774D01*
X1849953Y746844D01*
X1849938Y746915D01*
X1849855Y747146D01*
X1849779Y747380D01*
X1849748Y747446D01*
X1849724Y747515D01*
X1849613Y747734D01*
X1849508Y747957D01*
X1849469Y748019D01*
X1849436Y748084D01*
X1849299Y748287D01*
X1849167Y748495D01*
X1849121Y748551D01*
X1849080Y748612D01*
X1848927Y748785D01*
X1848762Y748986D01*
X1848701Y749044D01*
X1848648Y749104D01*
X1663504Y934248D01*
X1663449Y934296D01*
X1663399Y934349D01*
X1663210Y934507D01*
X1663026Y934669D01*
X1662966Y934710D01*
X1662910Y934757D01*
X1662702Y934889D01*
X1662499Y935027D01*
X1662434Y935060D01*
X1662373Y935100D01*
X1662151Y935205D01*
X1661932Y935317D01*
X1661863Y935341D01*
X1661797Y935373D01*
X1661563Y935449D01*
X1661332Y935533D01*
X1661261Y935549D01*
X1661192Y935572D01*
X1660951Y935618D01*
X1660711Y935672D01*
X1660638Y935679D01*
X1660566Y935693D01*
X1660335Y935708D01*
X1660076Y935733D01*
X1659993Y935730D01*
X1659912Y935735D01*
X1254135Y935735D01*
X1254062Y935731D01*
X1253989Y935733D01*
X1253744Y935711D01*
X1253499Y935695D01*
X1253427Y935682D01*
X1253355Y935675D01*
X1253114Y935622D01*
X1252873Y935576D01*
X1252804Y935553D01*
X1252732Y935538D01*
X1252501Y935455D01*
X1252267Y935379D01*
X1252201Y935348D01*
X1252132Y935324D01*
X1251913Y935213D01*
X1251691Y935108D01*
X1251629Y935069D01*
X1251564Y935036D01*
X1251360Y934899D01*
X1251152Y934767D01*
X1251096Y934721D01*
X1251036Y934680D01*
X1250862Y934527D01*
X1250661Y934362D01*
X1250604Y934301D01*
X1250543Y934248D01*
X1247967Y931671D01*
X1241233Y931671D01*
X1236471Y936433D01*
X1236471Y943167D01*
X1241233Y947929D01*
X1247967Y947929D01*
X1250543Y945352D01*
X1250598Y945304D01*
X1250648Y945251D01*
X1250837Y945093D01*
X1251021Y944931D01*
X1251082Y944890D01*
X1251138Y944843D01*
X1251345Y944711D01*
X1251548Y944573D01*
X1251613Y944540D01*
X1251675Y944500D01*
X1251897Y944395D01*
X1252116Y944283D01*
X1252184Y944259D01*
X1252250Y944227D01*
X1252484Y944151D01*
X1252715Y944067D01*
X1252786Y944051D01*
X1252856Y944028D01*
X1253097Y943982D01*
X1253337Y943928D01*
X1253409Y943921D01*
X1253481Y943907D01*
X1253712Y943892D01*
X1253971Y943867D01*
X1254054Y943870D01*
X1254135Y943865D01*
X1664509Y943865D01*
X1666003Y943246D01*
X1667860Y941388D01*
X1857646Y751603D01*
X1858265Y750108D01*
X1858265Y189691D01*
X1857646Y188197D01*
X1749516Y80068D01*
X1749468Y80013D01*
X1749415Y79963D01*
X1749257Y79774D01*
X1749095Y79590D01*
X1749054Y79530D01*
X1749007Y79474D01*
X1748875Y79266D01*
X1748737Y79063D01*
X1748704Y78998D01*
X1748664Y78937D01*
X1748559Y78715D01*
X1748447Y78496D01*
X1748423Y78427D01*
X1748391Y78361D01*
X1748315Y78127D01*
X1748231Y77896D01*
X1748215Y77825D01*
X1748192Y77756D01*
X1748146Y77514D01*
X1748092Y77275D01*
X1748085Y77202D01*
X1748071Y77130D01*
X1748056Y76899D01*
X1748031Y76640D01*
X1748034Y76557D01*
X1748029Y76476D01*
X1748029Y72833D01*
X1743267Y68071D01*
X1736533Y68071D01*
G37*
%LPD*%
%LPC*%
G36*
X1104344Y187705D02*
X1104344Y187705D01*
X1103317Y188131D01*
X1085672Y205776D01*
X1085617Y205824D01*
X1085567Y205877D01*
X1085378Y206035D01*
X1085194Y206197D01*
X1085134Y206238D01*
X1085078Y206285D01*
X1084870Y206417D01*
X1084667Y206555D01*
X1084602Y206588D01*
X1084541Y206628D01*
X1084319Y206733D01*
X1084100Y206845D01*
X1084031Y206869D01*
X1083965Y206901D01*
X1083731Y206977D01*
X1083500Y207061D01*
X1083429Y207077D01*
X1083360Y207100D01*
X1083119Y207146D01*
X1082879Y207200D01*
X1082806Y207207D01*
X1082734Y207221D01*
X1082503Y207236D01*
X1082244Y207261D01*
X1082161Y207258D01*
X1082080Y207263D01*
X1075923Y207263D01*
X1070863Y212323D01*
X1070863Y219477D01*
X1075923Y224537D01*
X1083077Y224537D01*
X1088137Y219477D01*
X1088137Y213320D01*
X1088141Y213247D01*
X1088139Y213174D01*
X1088146Y213092D01*
X1088146Y213021D01*
X1088165Y212870D01*
X1088177Y212684D01*
X1088190Y212612D01*
X1088197Y212539D01*
X1088218Y212445D01*
X1088225Y212389D01*
X1088257Y212263D01*
X1088296Y212058D01*
X1088319Y211988D01*
X1088334Y211917D01*
X1088372Y211812D01*
X1088382Y211772D01*
X1088421Y211672D01*
X1088493Y211452D01*
X1088524Y211386D01*
X1088548Y211317D01*
X1088605Y211205D01*
X1088615Y211179D01*
X1088654Y211108D01*
X1088659Y211098D01*
X1088764Y210875D01*
X1088803Y210813D01*
X1088836Y210748D01*
X1088914Y210633D01*
X1088921Y210620D01*
X1088946Y210585D01*
X1088973Y210545D01*
X1089105Y210337D01*
X1089151Y210281D01*
X1089192Y210220D01*
X1089291Y210108D01*
X1089294Y210103D01*
X1089306Y210090D01*
X1089345Y210047D01*
X1089510Y209846D01*
X1089571Y209788D01*
X1089624Y209728D01*
X1104570Y194782D01*
X1104625Y194734D01*
X1104675Y194681D01*
X1104864Y194523D01*
X1105048Y194361D01*
X1105108Y194320D01*
X1105164Y194273D01*
X1105372Y194141D01*
X1105575Y194003D01*
X1105640Y193970D01*
X1105701Y193930D01*
X1105923Y193825D01*
X1106142Y193713D01*
X1106211Y193689D01*
X1106277Y193657D01*
X1106511Y193581D01*
X1106742Y193497D01*
X1106813Y193481D01*
X1106882Y193458D01*
X1107123Y193412D01*
X1107363Y193358D01*
X1107436Y193351D01*
X1107508Y193337D01*
X1107739Y193322D01*
X1107998Y193297D01*
X1108081Y193300D01*
X1108162Y193295D01*
X1190538Y193295D01*
X1190611Y193299D01*
X1190684Y193297D01*
X1190929Y193319D01*
X1191174Y193335D01*
X1191246Y193348D01*
X1191319Y193355D01*
X1191559Y193408D01*
X1191800Y193454D01*
X1191870Y193477D01*
X1191941Y193492D01*
X1192172Y193575D01*
X1192406Y193651D01*
X1192472Y193682D01*
X1192541Y193706D01*
X1192760Y193817D01*
X1192983Y193922D01*
X1193045Y193961D01*
X1193110Y193994D01*
X1193313Y194131D01*
X1193521Y194263D01*
X1193577Y194309D01*
X1193638Y194350D01*
X1193811Y194503D01*
X1194012Y194668D01*
X1194070Y194729D01*
X1194130Y194782D01*
X1214918Y215570D01*
X1214966Y215625D01*
X1215019Y215675D01*
X1215177Y215864D01*
X1215339Y216048D01*
X1215380Y216108D01*
X1215427Y216164D01*
X1215559Y216372D01*
X1215697Y216575D01*
X1215730Y216640D01*
X1215770Y216701D01*
X1215875Y216923D01*
X1215987Y217142D01*
X1216011Y217211D01*
X1216043Y217277D01*
X1216119Y217510D01*
X1216203Y217742D01*
X1216219Y217813D01*
X1216242Y217882D01*
X1216288Y218123D01*
X1216342Y218363D01*
X1216349Y218436D01*
X1216363Y218508D01*
X1216378Y218739D01*
X1216403Y218998D01*
X1216400Y219081D01*
X1216405Y219162D01*
X1216405Y247691D01*
X1216390Y247927D01*
X1216383Y248163D01*
X1216370Y248245D01*
X1216365Y248326D01*
X1216321Y248559D01*
X1216284Y248793D01*
X1216261Y248872D01*
X1216246Y248952D01*
X1216173Y249177D01*
X1216107Y249405D01*
X1216075Y249480D01*
X1216049Y249558D01*
X1215949Y249772D01*
X1215855Y249990D01*
X1215813Y250061D01*
X1215778Y250135D01*
X1215652Y250335D01*
X1215531Y250539D01*
X1215481Y250604D01*
X1215437Y250673D01*
X1215287Y250856D01*
X1215142Y251043D01*
X1215084Y251101D01*
X1215032Y251164D01*
X1214860Y251326D01*
X1214692Y251494D01*
X1214627Y251545D01*
X1214568Y251601D01*
X1214376Y251740D01*
X1214189Y251886D01*
X1214119Y251928D01*
X1214053Y251976D01*
X1213845Y252090D01*
X1213642Y252211D01*
X1213566Y252244D01*
X1213495Y252284D01*
X1213275Y252371D01*
X1213057Y252466D01*
X1212979Y252489D01*
X1212902Y252519D01*
X1212673Y252578D01*
X1212446Y252645D01*
X1212365Y252658D01*
X1212286Y252678D01*
X1212051Y252708D01*
X1211817Y252746D01*
X1211735Y252749D01*
X1211654Y252759D01*
X1211417Y252760D01*
X1211180Y252768D01*
X1211099Y252760D01*
X1211016Y252760D01*
X1210781Y252731D01*
X1210546Y252710D01*
X1210466Y252692D01*
X1210384Y252682D01*
X1210154Y252623D01*
X1209924Y252572D01*
X1209846Y252545D01*
X1209767Y252525D01*
X1209546Y252438D01*
X1209323Y252358D01*
X1209250Y252321D01*
X1209174Y252291D01*
X1208965Y252177D01*
X1208755Y252071D01*
X1208687Y252025D01*
X1208615Y251986D01*
X1208423Y251847D01*
X1208227Y251715D01*
X1208166Y251661D01*
X1208098Y251612D01*
X1207908Y251435D01*
X1207734Y251282D01*
X1171484Y215031D01*
X1169983Y213531D01*
X1168956Y213105D01*
X1141823Y213105D01*
X1141750Y213101D01*
X1141678Y213103D01*
X1141433Y213081D01*
X1141187Y213065D01*
X1141116Y213052D01*
X1141043Y213045D01*
X1140803Y212992D01*
X1140562Y212946D01*
X1140492Y212924D01*
X1140421Y212908D01*
X1140189Y212825D01*
X1139956Y212749D01*
X1139889Y212718D01*
X1139821Y212694D01*
X1139601Y212583D01*
X1139379Y212478D01*
X1139317Y212439D01*
X1139252Y212406D01*
X1139049Y212269D01*
X1138841Y212137D01*
X1138784Y212091D01*
X1138724Y212050D01*
X1138550Y211897D01*
X1138349Y211732D01*
X1138292Y211671D01*
X1138232Y211618D01*
X1133877Y207263D01*
X1126723Y207263D01*
X1121663Y212323D01*
X1121663Y219477D01*
X1126723Y224537D01*
X1133877Y224537D01*
X1138232Y220182D01*
X1138287Y220134D01*
X1138336Y220081D01*
X1138525Y219924D01*
X1138710Y219761D01*
X1138770Y219720D01*
X1138826Y219673D01*
X1139033Y219541D01*
X1139236Y219403D01*
X1139302Y219370D01*
X1139363Y219330D01*
X1139585Y219225D01*
X1139804Y219113D01*
X1139872Y219089D01*
X1139939Y219057D01*
X1140173Y218980D01*
X1140403Y218897D01*
X1140475Y218881D01*
X1140544Y218858D01*
X1140785Y218812D01*
X1141025Y218758D01*
X1141098Y218751D01*
X1141169Y218737D01*
X1141401Y218722D01*
X1141659Y218697D01*
X1141743Y218700D01*
X1141823Y218695D01*
X1165138Y218695D01*
X1165211Y218699D01*
X1165284Y218697D01*
X1165529Y218719D01*
X1165774Y218735D01*
X1165846Y218748D01*
X1165919Y218755D01*
X1166159Y218808D01*
X1166400Y218854D01*
X1166470Y218877D01*
X1166541Y218892D01*
X1166772Y218975D01*
X1167006Y219051D01*
X1167072Y219082D01*
X1167141Y219106D01*
X1167360Y219217D01*
X1167583Y219322D01*
X1167645Y219361D01*
X1167710Y219394D01*
X1167913Y219531D01*
X1168121Y219663D01*
X1168177Y219709D01*
X1168238Y219750D01*
X1168411Y219903D01*
X1168612Y220068D01*
X1168670Y220129D01*
X1168730Y220182D01*
X1202218Y253670D01*
X1202266Y253725D01*
X1202319Y253775D01*
X1202477Y253964D01*
X1202639Y254148D01*
X1202680Y254208D01*
X1202727Y254264D01*
X1202859Y254472D01*
X1202997Y254675D01*
X1203030Y254740D01*
X1203070Y254801D01*
X1203175Y255023D01*
X1203287Y255242D01*
X1203311Y255311D01*
X1203343Y255377D01*
X1203419Y255611D01*
X1203503Y255842D01*
X1203519Y255913D01*
X1203542Y255982D01*
X1203588Y256223D01*
X1203642Y256463D01*
X1203649Y256536D01*
X1203663Y256608D01*
X1203678Y256839D01*
X1203703Y257098D01*
X1203700Y257181D01*
X1203705Y257262D01*
X1203705Y593638D01*
X1203701Y593711D01*
X1203703Y593784D01*
X1203681Y594029D01*
X1203665Y594274D01*
X1203652Y594346D01*
X1203645Y594419D01*
X1203592Y594659D01*
X1203546Y594900D01*
X1203523Y594970D01*
X1203508Y595041D01*
X1203425Y595272D01*
X1203349Y595506D01*
X1203318Y595572D01*
X1203294Y595641D01*
X1203183Y595860D01*
X1203078Y596083D01*
X1203039Y596145D01*
X1203006Y596210D01*
X1202869Y596413D01*
X1202737Y596621D01*
X1202691Y596677D01*
X1202650Y596738D01*
X1202497Y596911D01*
X1202332Y597112D01*
X1202271Y597170D01*
X1202218Y597230D01*
X1171242Y628206D01*
X1171187Y628254D01*
X1171137Y628307D01*
X1170948Y628465D01*
X1170764Y628627D01*
X1170704Y628668D01*
X1170648Y628715D01*
X1170440Y628847D01*
X1170237Y628985D01*
X1170172Y629018D01*
X1170111Y629058D01*
X1169889Y629163D01*
X1169670Y629275D01*
X1169601Y629299D01*
X1169535Y629331D01*
X1169301Y629407D01*
X1169070Y629491D01*
X1168999Y629507D01*
X1168930Y629530D01*
X1168689Y629576D01*
X1168449Y629630D01*
X1168376Y629637D01*
X1168304Y629651D01*
X1168073Y629666D01*
X1167814Y629691D01*
X1167731Y629688D01*
X1167650Y629693D01*
X1167344Y629693D01*
X1165394Y630501D01*
X1163901Y631994D01*
X1163093Y633944D01*
X1163093Y636056D01*
X1163901Y638006D01*
X1165394Y639499D01*
X1167344Y640307D01*
X1169456Y640307D01*
X1171617Y639412D01*
X1171879Y639322D01*
X1172140Y639227D01*
X1172181Y639218D01*
X1172219Y639205D01*
X1172490Y639149D01*
X1172762Y639088D01*
X1172803Y639084D01*
X1172843Y639076D01*
X1173120Y639054D01*
X1173396Y639028D01*
X1173437Y639029D01*
X1173478Y639026D01*
X1173756Y639039D01*
X1174033Y639047D01*
X1174074Y639053D01*
X1174115Y639055D01*
X1174389Y639103D01*
X1174663Y639146D01*
X1174702Y639157D01*
X1174742Y639165D01*
X1175008Y639246D01*
X1175275Y639323D01*
X1175312Y639339D01*
X1175352Y639351D01*
X1175605Y639465D01*
X1175860Y639575D01*
X1175895Y639596D01*
X1175933Y639613D01*
X1176170Y639758D01*
X1176409Y639899D01*
X1176441Y639924D01*
X1176476Y639945D01*
X1176693Y640118D01*
X1176913Y640289D01*
X1176942Y640318D01*
X1176974Y640343D01*
X1177167Y640542D01*
X1177364Y640738D01*
X1177389Y640771D01*
X1177418Y640800D01*
X1177585Y641022D01*
X1177756Y641241D01*
X1177776Y641276D01*
X1177801Y641309D01*
X1177939Y641550D01*
X1178081Y641789D01*
X1178097Y641826D01*
X1178118Y641862D01*
X1178224Y642118D01*
X1178335Y642373D01*
X1178347Y642412D01*
X1178363Y642450D01*
X1178436Y642718D01*
X1178514Y642984D01*
X1178521Y643025D01*
X1178532Y643064D01*
X1178572Y643339D01*
X1178616Y643613D01*
X1178617Y643654D01*
X1178623Y643695D01*
X1178628Y643972D01*
X1178637Y644250D01*
X1178634Y644291D01*
X1178634Y644332D01*
X1178605Y644608D01*
X1178579Y644885D01*
X1178570Y644925D01*
X1178566Y644965D01*
X1178502Y645236D01*
X1178442Y645507D01*
X1178428Y645545D01*
X1178419Y645585D01*
X1178321Y645846D01*
X1178228Y646107D01*
X1178210Y646143D01*
X1178195Y646182D01*
X1178066Y646428D01*
X1177941Y646675D01*
X1177918Y646710D01*
X1177899Y646746D01*
X1177740Y646973D01*
X1177584Y647204D01*
X1177558Y647234D01*
X1177534Y647268D01*
X1177317Y647507D01*
X1177152Y647696D01*
X1171242Y653606D01*
X1171187Y653654D01*
X1171137Y653707D01*
X1170949Y653864D01*
X1170764Y654027D01*
X1170704Y654068D01*
X1170648Y654115D01*
X1170441Y654247D01*
X1170237Y654385D01*
X1170172Y654418D01*
X1170111Y654458D01*
X1169888Y654563D01*
X1169670Y654675D01*
X1169601Y654699D01*
X1169535Y654731D01*
X1169302Y654807D01*
X1169070Y654891D01*
X1168999Y654907D01*
X1168930Y654930D01*
X1168689Y654976D01*
X1168449Y655030D01*
X1168376Y655037D01*
X1168304Y655051D01*
X1168073Y655066D01*
X1167814Y655091D01*
X1167731Y655088D01*
X1167650Y655093D01*
X1167344Y655093D01*
X1165394Y655901D01*
X1163901Y657394D01*
X1163093Y659344D01*
X1163093Y661456D01*
X1163901Y663406D01*
X1165394Y664899D01*
X1167344Y665707D01*
X1169456Y665707D01*
X1171406Y664899D01*
X1172899Y663406D01*
X1173707Y661456D01*
X1173707Y661150D01*
X1173711Y661077D01*
X1173709Y661004D01*
X1173731Y660759D01*
X1173747Y660514D01*
X1173760Y660442D01*
X1173767Y660369D01*
X1173820Y660129D01*
X1173866Y659888D01*
X1173889Y659818D01*
X1173904Y659747D01*
X1173987Y659516D01*
X1174063Y659282D01*
X1174094Y659216D01*
X1174118Y659147D01*
X1174229Y658928D01*
X1174334Y658705D01*
X1174373Y658643D01*
X1174406Y658578D01*
X1174543Y658375D01*
X1174675Y658167D01*
X1174721Y658111D01*
X1174762Y658050D01*
X1174915Y657877D01*
X1175080Y657676D01*
X1175141Y657618D01*
X1175194Y657558D01*
X1221569Y611183D01*
X1221995Y610156D01*
X1221995Y215344D01*
X1221569Y214317D01*
X1195383Y188131D01*
X1194356Y187705D01*
X1104344Y187705D01*
G37*
%LPD*%
%LPC*%
G36*
X1852381Y59435D02*
X1852381Y59435D01*
X1849020Y60827D01*
X1846447Y63400D01*
X1845055Y66761D01*
X1845055Y85639D01*
X1846447Y89000D01*
X1849020Y91573D01*
X1852381Y92965D01*
X1856019Y92965D01*
X1859380Y91573D01*
X1861953Y89000D01*
X1862207Y88385D01*
X1862312Y88172D01*
X1862409Y87956D01*
X1862452Y87886D01*
X1862488Y87813D01*
X1862617Y87615D01*
X1862741Y87413D01*
X1862793Y87348D01*
X1862837Y87280D01*
X1862991Y87100D01*
X1863139Y86915D01*
X1863198Y86858D01*
X1863251Y86795D01*
X1863426Y86636D01*
X1863596Y86471D01*
X1863661Y86422D01*
X1863722Y86366D01*
X1863916Y86230D01*
X1864105Y86088D01*
X1864176Y86047D01*
X1864243Y86000D01*
X1864453Y85888D01*
X1864658Y85771D01*
X1864733Y85740D01*
X1864806Y85701D01*
X1865028Y85617D01*
X1865246Y85526D01*
X1865325Y85504D01*
X1865402Y85475D01*
X1865632Y85420D01*
X1865860Y85357D01*
X1865941Y85345D01*
X1866021Y85326D01*
X1866257Y85300D01*
X1866491Y85266D01*
X1866573Y85264D01*
X1866654Y85255D01*
X1866891Y85259D01*
X1867128Y85254D01*
X1867209Y85263D01*
X1867291Y85264D01*
X1867525Y85297D01*
X1867761Y85323D01*
X1867841Y85342D01*
X1867922Y85353D01*
X1868150Y85415D01*
X1868381Y85470D01*
X1868458Y85499D01*
X1868537Y85520D01*
X1868756Y85611D01*
X1868978Y85694D01*
X1869050Y85732D01*
X1869126Y85763D01*
X1869332Y85880D01*
X1869542Y85990D01*
X1869609Y86037D01*
X1869680Y86078D01*
X1869870Y86220D01*
X1870064Y86355D01*
X1870125Y86410D01*
X1870190Y86459D01*
X1870361Y86624D01*
X1870537Y86782D01*
X1870590Y86845D01*
X1870649Y86902D01*
X1870798Y87086D01*
X1870952Y87266D01*
X1870997Y87334D01*
X1871049Y87398D01*
X1871172Y87599D01*
X1871303Y87797D01*
X1871339Y87869D01*
X1871383Y87940D01*
X1871490Y88177D01*
X1871593Y88385D01*
X1871848Y89000D01*
X1874420Y91573D01*
X1877781Y92965D01*
X1881419Y92965D01*
X1884780Y91573D01*
X1887353Y89000D01*
X1887607Y88385D01*
X1887712Y88172D01*
X1887809Y87956D01*
X1887852Y87886D01*
X1887888Y87813D01*
X1888017Y87615D01*
X1888141Y87413D01*
X1888193Y87348D01*
X1888237Y87280D01*
X1888391Y87100D01*
X1888539Y86915D01*
X1888598Y86858D01*
X1888651Y86795D01*
X1888826Y86636D01*
X1888996Y86471D01*
X1889061Y86422D01*
X1889122Y86366D01*
X1889316Y86230D01*
X1889505Y86088D01*
X1889576Y86047D01*
X1889643Y86000D01*
X1889853Y85888D01*
X1890058Y85771D01*
X1890133Y85740D01*
X1890206Y85701D01*
X1890428Y85617D01*
X1890646Y85526D01*
X1890725Y85504D01*
X1890802Y85475D01*
X1891032Y85420D01*
X1891260Y85357D01*
X1891341Y85345D01*
X1891421Y85326D01*
X1891657Y85300D01*
X1891891Y85266D01*
X1891973Y85264D01*
X1892054Y85255D01*
X1892291Y85259D01*
X1892528Y85254D01*
X1892609Y85263D01*
X1892691Y85264D01*
X1892925Y85297D01*
X1893161Y85323D01*
X1893241Y85342D01*
X1893322Y85353D01*
X1893550Y85415D01*
X1893781Y85470D01*
X1893858Y85499D01*
X1893937Y85520D01*
X1894156Y85611D01*
X1894378Y85694D01*
X1894450Y85732D01*
X1894526Y85763D01*
X1894732Y85880D01*
X1894942Y85990D01*
X1895009Y86037D01*
X1895080Y86078D01*
X1895270Y86220D01*
X1895464Y86355D01*
X1895525Y86410D01*
X1895590Y86459D01*
X1895761Y86624D01*
X1895937Y86782D01*
X1895990Y86845D01*
X1896049Y86902D01*
X1896198Y87086D01*
X1896352Y87266D01*
X1896397Y87334D01*
X1896449Y87398D01*
X1896572Y87599D01*
X1896703Y87797D01*
X1896739Y87869D01*
X1896783Y87940D01*
X1896890Y88177D01*
X1896993Y88385D01*
X1897248Y89000D01*
X1899820Y91573D01*
X1903181Y92965D01*
X1906819Y92965D01*
X1910180Y91573D01*
X1912753Y89000D01*
X1913007Y88385D01*
X1913112Y88172D01*
X1913209Y87956D01*
X1913252Y87886D01*
X1913288Y87813D01*
X1913417Y87615D01*
X1913541Y87413D01*
X1913593Y87348D01*
X1913637Y87280D01*
X1913791Y87100D01*
X1913939Y86915D01*
X1913998Y86858D01*
X1914051Y86795D01*
X1914226Y86636D01*
X1914396Y86471D01*
X1914461Y86422D01*
X1914522Y86366D01*
X1914716Y86230D01*
X1914905Y86088D01*
X1914976Y86047D01*
X1915043Y86000D01*
X1915253Y85888D01*
X1915458Y85771D01*
X1915533Y85740D01*
X1915606Y85701D01*
X1915828Y85617D01*
X1916046Y85526D01*
X1916125Y85504D01*
X1916202Y85475D01*
X1916432Y85420D01*
X1916660Y85357D01*
X1916741Y85345D01*
X1916821Y85326D01*
X1917057Y85300D01*
X1917291Y85266D01*
X1917373Y85264D01*
X1917454Y85255D01*
X1917691Y85259D01*
X1917928Y85254D01*
X1918009Y85263D01*
X1918091Y85264D01*
X1918325Y85297D01*
X1918561Y85323D01*
X1918641Y85342D01*
X1918722Y85353D01*
X1918950Y85415D01*
X1919181Y85470D01*
X1919258Y85499D01*
X1919337Y85520D01*
X1919556Y85611D01*
X1919778Y85694D01*
X1919850Y85732D01*
X1919926Y85763D01*
X1920132Y85880D01*
X1920342Y85990D01*
X1920409Y86037D01*
X1920480Y86078D01*
X1920670Y86220D01*
X1920864Y86355D01*
X1920925Y86410D01*
X1920990Y86459D01*
X1921161Y86624D01*
X1921337Y86782D01*
X1921390Y86845D01*
X1921449Y86902D01*
X1921598Y87086D01*
X1921752Y87266D01*
X1921797Y87334D01*
X1921849Y87398D01*
X1921972Y87599D01*
X1922103Y87797D01*
X1922139Y87869D01*
X1922183Y87940D01*
X1922290Y88177D01*
X1922393Y88385D01*
X1922648Y89000D01*
X1925220Y91573D01*
X1928581Y92965D01*
X1932219Y92965D01*
X1935580Y91573D01*
X1938153Y89000D01*
X1938407Y88385D01*
X1938512Y88172D01*
X1938609Y87956D01*
X1938652Y87886D01*
X1938688Y87813D01*
X1938817Y87615D01*
X1938941Y87413D01*
X1938993Y87348D01*
X1939037Y87280D01*
X1939191Y87100D01*
X1939339Y86915D01*
X1939398Y86858D01*
X1939451Y86795D01*
X1939626Y86636D01*
X1939796Y86471D01*
X1939861Y86422D01*
X1939922Y86366D01*
X1940116Y86230D01*
X1940305Y86088D01*
X1940376Y86047D01*
X1940443Y86000D01*
X1940653Y85888D01*
X1940858Y85771D01*
X1940933Y85740D01*
X1941006Y85701D01*
X1941228Y85617D01*
X1941446Y85526D01*
X1941525Y85504D01*
X1941602Y85475D01*
X1941832Y85420D01*
X1942060Y85357D01*
X1942141Y85345D01*
X1942221Y85326D01*
X1942457Y85300D01*
X1942691Y85266D01*
X1942773Y85264D01*
X1942854Y85255D01*
X1943091Y85259D01*
X1943328Y85254D01*
X1943409Y85263D01*
X1943491Y85264D01*
X1943725Y85297D01*
X1943961Y85323D01*
X1944041Y85342D01*
X1944122Y85353D01*
X1944350Y85415D01*
X1944581Y85470D01*
X1944658Y85499D01*
X1944737Y85520D01*
X1944956Y85611D01*
X1945178Y85694D01*
X1945250Y85732D01*
X1945326Y85763D01*
X1945532Y85880D01*
X1945742Y85990D01*
X1945809Y86037D01*
X1945880Y86078D01*
X1946070Y86220D01*
X1946264Y86355D01*
X1946325Y86410D01*
X1946390Y86459D01*
X1946561Y86624D01*
X1946737Y86782D01*
X1946790Y86845D01*
X1946849Y86902D01*
X1946998Y87086D01*
X1947152Y87266D01*
X1947197Y87334D01*
X1947249Y87398D01*
X1947372Y87599D01*
X1947503Y87797D01*
X1947539Y87869D01*
X1947583Y87940D01*
X1947690Y88177D01*
X1947793Y88385D01*
X1948048Y89000D01*
X1950620Y91573D01*
X1953981Y92965D01*
X1957619Y92965D01*
X1960980Y91573D01*
X1963553Y89000D01*
X1964945Y85639D01*
X1964945Y66761D01*
X1963553Y63400D01*
X1960980Y60827D01*
X1957619Y59435D01*
X1953981Y59435D01*
X1950620Y60827D01*
X1948048Y63400D01*
X1947793Y64015D01*
X1947688Y64228D01*
X1947591Y64444D01*
X1947548Y64514D01*
X1947512Y64587D01*
X1947382Y64785D01*
X1947259Y64987D01*
X1947208Y65051D01*
X1947163Y65120D01*
X1947009Y65300D01*
X1946861Y65485D01*
X1946802Y65542D01*
X1946749Y65605D01*
X1946574Y65764D01*
X1946404Y65929D01*
X1946339Y65979D01*
X1946278Y66034D01*
X1946085Y66170D01*
X1945895Y66312D01*
X1945824Y66353D01*
X1945757Y66400D01*
X1945548Y66511D01*
X1945342Y66629D01*
X1945267Y66661D01*
X1945194Y66699D01*
X1944973Y66783D01*
X1944754Y66874D01*
X1944675Y66896D01*
X1944598Y66925D01*
X1944368Y66980D01*
X1944140Y67043D01*
X1944059Y67055D01*
X1943979Y67074D01*
X1943744Y67100D01*
X1943509Y67134D01*
X1943427Y67136D01*
X1943346Y67145D01*
X1943110Y67141D01*
X1942872Y67146D01*
X1942791Y67137D01*
X1942709Y67136D01*
X1942475Y67103D01*
X1942239Y67077D01*
X1942159Y67058D01*
X1942078Y67047D01*
X1941849Y66985D01*
X1941619Y66930D01*
X1941542Y66901D01*
X1941463Y66880D01*
X1941244Y66790D01*
X1941022Y66706D01*
X1940950Y66668D01*
X1940874Y66637D01*
X1940668Y66520D01*
X1940458Y66410D01*
X1940391Y66363D01*
X1940320Y66322D01*
X1940130Y66181D01*
X1939936Y66045D01*
X1939875Y65990D01*
X1939810Y65941D01*
X1939639Y65776D01*
X1939464Y65618D01*
X1939410Y65555D01*
X1939351Y65499D01*
X1939203Y65314D01*
X1939048Y65134D01*
X1939003Y65066D01*
X1938952Y65002D01*
X1938827Y64800D01*
X1938697Y64603D01*
X1938661Y64531D01*
X1938617Y64460D01*
X1938510Y64223D01*
X1938407Y64015D01*
X1938153Y63400D01*
X1935580Y60827D01*
X1932219Y59435D01*
X1928581Y59435D01*
X1925220Y60827D01*
X1922648Y63400D01*
X1922393Y64015D01*
X1922288Y64228D01*
X1922191Y64444D01*
X1922148Y64514D01*
X1922112Y64587D01*
X1921982Y64785D01*
X1921859Y64987D01*
X1921808Y65051D01*
X1921763Y65120D01*
X1921609Y65300D01*
X1921461Y65485D01*
X1921402Y65542D01*
X1921349Y65605D01*
X1921174Y65764D01*
X1921004Y65929D01*
X1920939Y65979D01*
X1920878Y66034D01*
X1920685Y66170D01*
X1920495Y66312D01*
X1920424Y66353D01*
X1920357Y66400D01*
X1920148Y66511D01*
X1919942Y66629D01*
X1919867Y66661D01*
X1919794Y66699D01*
X1919573Y66783D01*
X1919354Y66874D01*
X1919275Y66896D01*
X1919198Y66925D01*
X1918968Y66980D01*
X1918740Y67043D01*
X1918659Y67055D01*
X1918579Y67074D01*
X1918344Y67100D01*
X1918109Y67134D01*
X1918027Y67136D01*
X1917946Y67145D01*
X1917710Y67141D01*
X1917472Y67146D01*
X1917391Y67137D01*
X1917309Y67136D01*
X1917075Y67103D01*
X1916839Y67077D01*
X1916759Y67058D01*
X1916678Y67047D01*
X1916449Y66985D01*
X1916219Y66930D01*
X1916142Y66901D01*
X1916063Y66880D01*
X1915844Y66790D01*
X1915622Y66706D01*
X1915550Y66668D01*
X1915474Y66637D01*
X1915268Y66520D01*
X1915058Y66410D01*
X1914991Y66363D01*
X1914920Y66322D01*
X1914730Y66181D01*
X1914536Y66045D01*
X1914475Y65990D01*
X1914410Y65941D01*
X1914239Y65776D01*
X1914064Y65618D01*
X1914010Y65555D01*
X1913951Y65499D01*
X1913803Y65314D01*
X1913648Y65134D01*
X1913603Y65066D01*
X1913552Y65002D01*
X1913427Y64800D01*
X1913297Y64603D01*
X1913261Y64531D01*
X1913217Y64460D01*
X1913110Y64223D01*
X1913007Y64015D01*
X1912753Y63400D01*
X1910180Y60827D01*
X1906819Y59435D01*
X1903181Y59435D01*
X1899820Y60827D01*
X1897248Y63400D01*
X1896993Y64015D01*
X1896888Y64228D01*
X1896791Y64444D01*
X1896748Y64514D01*
X1896712Y64587D01*
X1896582Y64785D01*
X1896459Y64987D01*
X1896408Y65051D01*
X1896363Y65120D01*
X1896209Y65300D01*
X1896061Y65485D01*
X1896002Y65542D01*
X1895949Y65605D01*
X1895774Y65764D01*
X1895604Y65929D01*
X1895539Y65979D01*
X1895478Y66034D01*
X1895285Y66170D01*
X1895095Y66312D01*
X1895024Y66353D01*
X1894957Y66400D01*
X1894748Y66511D01*
X1894542Y66629D01*
X1894467Y66661D01*
X1894394Y66699D01*
X1894173Y66783D01*
X1893954Y66874D01*
X1893875Y66896D01*
X1893798Y66925D01*
X1893568Y66980D01*
X1893340Y67043D01*
X1893259Y67055D01*
X1893179Y67074D01*
X1892944Y67100D01*
X1892709Y67134D01*
X1892627Y67136D01*
X1892546Y67145D01*
X1892310Y67141D01*
X1892072Y67146D01*
X1891991Y67137D01*
X1891909Y67136D01*
X1891675Y67103D01*
X1891439Y67077D01*
X1891359Y67058D01*
X1891278Y67047D01*
X1891049Y66985D01*
X1890819Y66930D01*
X1890742Y66901D01*
X1890663Y66880D01*
X1890444Y66790D01*
X1890222Y66706D01*
X1890150Y66668D01*
X1890074Y66637D01*
X1889868Y66520D01*
X1889658Y66410D01*
X1889591Y66363D01*
X1889520Y66322D01*
X1889330Y66181D01*
X1889136Y66045D01*
X1889075Y65990D01*
X1889010Y65941D01*
X1888839Y65776D01*
X1888664Y65618D01*
X1888610Y65555D01*
X1888551Y65499D01*
X1888403Y65314D01*
X1888248Y65134D01*
X1888203Y65066D01*
X1888152Y65002D01*
X1888027Y64800D01*
X1887897Y64603D01*
X1887861Y64531D01*
X1887817Y64460D01*
X1887710Y64223D01*
X1887607Y64015D01*
X1887353Y63400D01*
X1884780Y60827D01*
X1881419Y59435D01*
X1877781Y59435D01*
X1874420Y60827D01*
X1871848Y63400D01*
X1871593Y64015D01*
X1871488Y64228D01*
X1871391Y64444D01*
X1871348Y64514D01*
X1871312Y64587D01*
X1871182Y64785D01*
X1871059Y64987D01*
X1871008Y65051D01*
X1870963Y65120D01*
X1870809Y65300D01*
X1870661Y65485D01*
X1870602Y65542D01*
X1870549Y65605D01*
X1870374Y65764D01*
X1870204Y65929D01*
X1870139Y65979D01*
X1870078Y66034D01*
X1869885Y66170D01*
X1869695Y66312D01*
X1869624Y66353D01*
X1869557Y66400D01*
X1869348Y66511D01*
X1869142Y66629D01*
X1869067Y66661D01*
X1868994Y66699D01*
X1868773Y66783D01*
X1868554Y66874D01*
X1868475Y66896D01*
X1868398Y66925D01*
X1868168Y66980D01*
X1867940Y67043D01*
X1867859Y67055D01*
X1867779Y67074D01*
X1867544Y67100D01*
X1867309Y67134D01*
X1867227Y67136D01*
X1867146Y67145D01*
X1866910Y67141D01*
X1866672Y67146D01*
X1866591Y67137D01*
X1866509Y67136D01*
X1866275Y67103D01*
X1866039Y67077D01*
X1865959Y67058D01*
X1865878Y67047D01*
X1865649Y66985D01*
X1865419Y66930D01*
X1865342Y66901D01*
X1865263Y66880D01*
X1865044Y66790D01*
X1864822Y66706D01*
X1864750Y66668D01*
X1864674Y66637D01*
X1864468Y66520D01*
X1864258Y66410D01*
X1864191Y66363D01*
X1864120Y66322D01*
X1863930Y66181D01*
X1863736Y66045D01*
X1863675Y65990D01*
X1863610Y65941D01*
X1863439Y65776D01*
X1863264Y65618D01*
X1863210Y65555D01*
X1863151Y65499D01*
X1863003Y65314D01*
X1862848Y65134D01*
X1862803Y65066D01*
X1862752Y65002D01*
X1862627Y64800D01*
X1862497Y64603D01*
X1862461Y64531D01*
X1862417Y64460D01*
X1862310Y64223D01*
X1862207Y64015D01*
X1861953Y63400D01*
X1859380Y60827D01*
X1856019Y59435D01*
X1852381Y59435D01*
G37*
%LPD*%
%LPC*%
G36*
X936223Y169163D02*
X936223Y169163D01*
X931163Y174223D01*
X931163Y180380D01*
X931159Y180453D01*
X931161Y180526D01*
X931139Y180771D01*
X931123Y181016D01*
X931110Y181088D01*
X931103Y181161D01*
X931050Y181401D01*
X931004Y181642D01*
X930981Y181712D01*
X930966Y181783D01*
X930884Y182014D01*
X930807Y182248D01*
X930776Y182314D01*
X930752Y182383D01*
X930641Y182602D01*
X930536Y182825D01*
X930497Y182887D01*
X930464Y182952D01*
X930327Y183155D01*
X930195Y183363D01*
X930149Y183419D01*
X930108Y183480D01*
X929955Y183653D01*
X929790Y183854D01*
X929729Y183912D01*
X929676Y183972D01*
X914730Y198918D01*
X914675Y198966D01*
X914625Y199019D01*
X914436Y199177D01*
X914252Y199339D01*
X914192Y199380D01*
X914136Y199427D01*
X913928Y199559D01*
X913725Y199697D01*
X913660Y199730D01*
X913599Y199770D01*
X913377Y199875D01*
X913158Y199987D01*
X913089Y200011D01*
X913023Y200043D01*
X912789Y200119D01*
X912558Y200203D01*
X912487Y200219D01*
X912418Y200242D01*
X912177Y200288D01*
X911937Y200342D01*
X911864Y200349D01*
X911792Y200363D01*
X911561Y200378D01*
X911302Y200403D01*
X911219Y200400D01*
X911138Y200405D01*
X685244Y200405D01*
X684217Y200831D01*
X615264Y269784D01*
X615209Y269832D01*
X615159Y269885D01*
X614970Y270043D01*
X614786Y270205D01*
X614726Y270246D01*
X614670Y270293D01*
X614462Y270425D01*
X614259Y270563D01*
X614194Y270596D01*
X614133Y270636D01*
X613911Y270741D01*
X613692Y270853D01*
X613623Y270877D01*
X613557Y270909D01*
X613323Y270985D01*
X613092Y271069D01*
X613021Y271085D01*
X612952Y271108D01*
X612711Y271154D01*
X612471Y271208D01*
X612398Y271215D01*
X612326Y271229D01*
X612095Y271244D01*
X611836Y271269D01*
X611753Y271266D01*
X611672Y271271D01*
X606233Y271271D01*
X601471Y276033D01*
X601471Y282767D01*
X606233Y287529D01*
X612967Y287529D01*
X617729Y282767D01*
X617729Y277328D01*
X617733Y277255D01*
X617731Y277182D01*
X617753Y276937D01*
X617769Y276692D01*
X617782Y276620D01*
X617789Y276547D01*
X617842Y276307D01*
X617888Y276066D01*
X617911Y275996D01*
X617926Y275925D01*
X618009Y275694D01*
X618085Y275460D01*
X618116Y275394D01*
X618140Y275325D01*
X618251Y275106D01*
X618356Y274883D01*
X618395Y274821D01*
X618428Y274756D01*
X618565Y274553D01*
X618697Y274345D01*
X618743Y274289D01*
X618784Y274228D01*
X618937Y274055D01*
X619102Y273854D01*
X619163Y273796D01*
X619216Y273736D01*
X685470Y207482D01*
X685525Y207434D01*
X685575Y207381D01*
X685764Y207223D01*
X685948Y207061D01*
X686008Y207020D01*
X686064Y206973D01*
X686272Y206841D01*
X686475Y206703D01*
X686540Y206670D01*
X686601Y206630D01*
X686823Y206525D01*
X687042Y206413D01*
X687111Y206389D01*
X687177Y206357D01*
X687411Y206281D01*
X687642Y206197D01*
X687713Y206181D01*
X687782Y206158D01*
X688023Y206112D01*
X688263Y206058D01*
X688336Y206051D01*
X688408Y206037D01*
X688639Y206022D01*
X688898Y205997D01*
X688981Y206000D01*
X689062Y205995D01*
X914956Y205995D01*
X915983Y205569D01*
X933628Y187924D01*
X933683Y187876D01*
X933733Y187823D01*
X933922Y187665D01*
X934106Y187503D01*
X934166Y187462D01*
X934222Y187415D01*
X934430Y187283D01*
X934633Y187145D01*
X934698Y187112D01*
X934759Y187072D01*
X934981Y186967D01*
X935200Y186855D01*
X935269Y186831D01*
X935335Y186799D01*
X935569Y186723D01*
X935800Y186639D01*
X935871Y186623D01*
X935940Y186600D01*
X936181Y186554D01*
X936421Y186500D01*
X936494Y186493D01*
X936566Y186479D01*
X936797Y186464D01*
X937056Y186439D01*
X937139Y186442D01*
X937220Y186437D01*
X943377Y186437D01*
X948437Y181377D01*
X948437Y174223D01*
X943377Y169163D01*
X936223Y169163D01*
G37*
%LPD*%
%LPC*%
G36*
X504245Y283235D02*
X504245Y283235D01*
X498935Y288545D01*
X498935Y296055D01*
X504089Y301208D01*
X504192Y301325D01*
X504301Y301434D01*
X504364Y301514D01*
X504365Y301516D01*
X504369Y301520D01*
X504402Y301563D01*
X504510Y301686D01*
X504597Y301814D01*
X504693Y301937D01*
X504776Y302078D01*
X504869Y302213D01*
X504939Y302351D01*
X505018Y302484D01*
X505084Y302635D01*
X505158Y302781D01*
X505211Y302926D01*
X505272Y303069D01*
X505319Y303226D01*
X505374Y303380D01*
X505408Y303531D01*
X505452Y303680D01*
X505478Y303842D01*
X505514Y304002D01*
X505528Y304156D01*
X505553Y304309D01*
X505558Y304473D01*
X505574Y304636D01*
X505569Y304791D01*
X505575Y304946D01*
X505560Y305109D01*
X505555Y305273D01*
X505531Y305426D01*
X505516Y305580D01*
X505481Y305740D01*
X505456Y305902D01*
X505413Y306051D01*
X505379Y306202D01*
X505324Y306357D01*
X505279Y306514D01*
X505217Y306657D01*
X505165Y306803D01*
X505091Y306949D01*
X505026Y307099D01*
X504948Y307233D01*
X504878Y307371D01*
X504786Y307507D01*
X504703Y307648D01*
X504608Y307771D01*
X504521Y307899D01*
X504416Y308019D01*
X504313Y308152D01*
X504194Y308272D01*
X504089Y308392D01*
X498935Y313545D01*
X498935Y321055D01*
X504245Y326365D01*
X511556Y326365D01*
X511711Y326374D01*
X511866Y326374D01*
X512028Y326394D01*
X512192Y326405D01*
X512344Y326434D01*
X512498Y326453D01*
X512657Y326493D01*
X512818Y326524D01*
X512965Y326572D01*
X513115Y326610D01*
X513268Y326670D01*
X513424Y326721D01*
X513564Y326786D01*
X513708Y326843D01*
X513852Y326922D01*
X514000Y326992D01*
X514131Y327074D01*
X514267Y327149D01*
X514400Y327245D01*
X514539Y327333D01*
X514658Y327431D01*
X514784Y327522D01*
X514903Y327634D01*
X515030Y327738D01*
X515136Y327851D01*
X515249Y327957D01*
X515354Y328083D01*
X515466Y328202D01*
X515558Y328328D01*
X515657Y328447D01*
X515745Y328585D01*
X515841Y328717D01*
X515916Y328853D01*
X516000Y328984D01*
X516070Y329132D01*
X516149Y329275D01*
X516206Y329419D01*
X516273Y329559D01*
X516324Y329715D01*
X516384Y329868D01*
X516423Y330018D01*
X516472Y330165D01*
X516503Y330326D01*
X516544Y330484D01*
X516563Y330638D01*
X516593Y330790D01*
X516603Y330949D01*
X516625Y331116D01*
X516625Y331285D01*
X516635Y331444D01*
X516635Y392456D01*
X516626Y392611D01*
X516626Y392766D01*
X516606Y392928D01*
X516595Y393092D01*
X516566Y393244D01*
X516547Y393398D01*
X516507Y393557D01*
X516476Y393718D01*
X516428Y393865D01*
X516390Y394015D01*
X516330Y394168D01*
X516279Y394324D01*
X516214Y394464D01*
X516157Y394608D01*
X516078Y394752D01*
X516008Y394900D01*
X515926Y395031D01*
X515851Y395167D01*
X515755Y395300D01*
X515667Y395439D01*
X515569Y395558D01*
X515478Y395684D01*
X515366Y395803D01*
X515262Y395930D01*
X515149Y396036D01*
X515043Y396149D01*
X514917Y396254D01*
X514798Y396366D01*
X514672Y396458D01*
X514553Y396557D01*
X514415Y396645D01*
X514283Y396741D01*
X514147Y396816D01*
X514016Y396900D01*
X513868Y396970D01*
X513725Y397049D01*
X513581Y397106D01*
X513441Y397173D01*
X513285Y397224D01*
X513132Y397284D01*
X512982Y397323D01*
X512835Y397372D01*
X512674Y397403D01*
X512516Y397444D01*
X512362Y397463D01*
X512210Y397493D01*
X512051Y397503D01*
X511884Y397525D01*
X511715Y397525D01*
X511556Y397535D01*
X504245Y397535D01*
X498935Y402845D01*
X498935Y410355D01*
X504089Y415508D01*
X504191Y415624D01*
X504301Y415734D01*
X504402Y415864D01*
X504510Y415986D01*
X504597Y416114D01*
X504693Y416237D01*
X504777Y416378D01*
X504869Y416513D01*
X504939Y416651D01*
X505018Y416784D01*
X505084Y416935D01*
X505158Y417081D01*
X505211Y417227D01*
X505272Y417369D01*
X505319Y417526D01*
X505374Y417680D01*
X505408Y417831D01*
X505452Y417980D01*
X505478Y418142D01*
X505514Y418302D01*
X505528Y418456D01*
X505553Y418609D01*
X505558Y418773D01*
X505574Y418936D01*
X505569Y419091D01*
X505575Y419246D01*
X505560Y419409D01*
X505555Y419573D01*
X505531Y419726D01*
X505516Y419880D01*
X505481Y420040D01*
X505456Y420202D01*
X505413Y420351D01*
X505379Y420502D01*
X505324Y420657D01*
X505279Y420814D01*
X505217Y420957D01*
X505165Y421103D01*
X505091Y421249D01*
X505026Y421399D01*
X504948Y421533D01*
X504878Y421671D01*
X504786Y421807D01*
X504703Y421948D01*
X504608Y422071D01*
X504521Y422199D01*
X504416Y422319D01*
X504313Y422452D01*
X504194Y422572D01*
X504089Y422692D01*
X498935Y427845D01*
X498935Y435355D01*
X504245Y440665D01*
X511755Y440665D01*
X517065Y435355D01*
X517065Y430388D01*
X517069Y430315D01*
X517067Y430242D01*
X517089Y429997D01*
X517105Y429752D01*
X517118Y429680D01*
X517125Y429607D01*
X517178Y429367D01*
X517224Y429126D01*
X517246Y429057D01*
X517262Y428985D01*
X517345Y428754D01*
X517421Y428520D01*
X517452Y428454D01*
X517476Y428385D01*
X517587Y428166D01*
X517692Y427943D01*
X517731Y427882D01*
X517764Y427816D01*
X517901Y427613D01*
X518033Y427405D01*
X518079Y427349D01*
X518120Y427288D01*
X518273Y427114D01*
X518438Y426914D01*
X518499Y426857D01*
X518552Y426796D01*
X521947Y423402D01*
X521971Y423380D01*
X521992Y423357D01*
X522210Y423170D01*
X522425Y422980D01*
X522451Y422962D01*
X522475Y422941D01*
X522715Y422783D01*
X522873Y422675D01*
X524146Y421403D01*
X524765Y419908D01*
X524765Y304191D01*
X524146Y302697D01*
X522288Y300840D01*
X518552Y297104D01*
X518504Y297049D01*
X518451Y296999D01*
X518294Y296811D01*
X518131Y296626D01*
X518090Y296566D01*
X518043Y296510D01*
X517911Y296303D01*
X517773Y296099D01*
X517740Y296034D01*
X517700Y295973D01*
X517595Y295750D01*
X517483Y295532D01*
X517459Y295463D01*
X517427Y295397D01*
X517350Y295163D01*
X517267Y294932D01*
X517251Y294861D01*
X517228Y294792D01*
X517182Y294551D01*
X517128Y294311D01*
X517121Y294238D01*
X517107Y294166D01*
X517092Y293935D01*
X517067Y293676D01*
X517070Y293593D01*
X517065Y293512D01*
X517065Y288545D01*
X511755Y283235D01*
X504245Y283235D01*
G37*
%LPD*%
%LPC*%
G36*
X951444Y794793D02*
X951444Y794793D01*
X949494Y795601D01*
X948001Y797094D01*
X947193Y799044D01*
X947193Y801156D01*
X948001Y803106D01*
X948218Y803322D01*
X948266Y803377D01*
X948319Y803427D01*
X948477Y803616D01*
X948639Y803800D01*
X948680Y803861D01*
X948727Y803917D01*
X948859Y804124D01*
X948997Y804327D01*
X949030Y804392D01*
X949070Y804454D01*
X949175Y804676D01*
X949287Y804895D01*
X949311Y804963D01*
X949343Y805029D01*
X949419Y805263D01*
X949503Y805494D01*
X949519Y805565D01*
X949542Y805635D01*
X949588Y805876D01*
X949642Y806116D01*
X949649Y806189D01*
X949663Y806260D01*
X949678Y806491D01*
X949703Y806750D01*
X949700Y806834D01*
X949705Y806914D01*
X949705Y974638D01*
X949701Y974711D01*
X949703Y974784D01*
X949681Y975029D01*
X949665Y975274D01*
X949652Y975346D01*
X949645Y975419D01*
X949592Y975659D01*
X949546Y975900D01*
X949523Y975970D01*
X949508Y976041D01*
X949425Y976272D01*
X949349Y976506D01*
X949318Y976572D01*
X949294Y976641D01*
X949183Y976860D01*
X949078Y977083D01*
X949039Y977145D01*
X949006Y977210D01*
X948869Y977413D01*
X948737Y977621D01*
X948691Y977677D01*
X948650Y977738D01*
X948497Y977911D01*
X948332Y978112D01*
X948271Y978170D01*
X948218Y978230D01*
X815642Y1110806D01*
X815587Y1110854D01*
X815537Y1110907D01*
X815348Y1111065D01*
X815164Y1111227D01*
X815104Y1111268D01*
X815048Y1111315D01*
X814840Y1111447D01*
X814637Y1111585D01*
X814572Y1111618D01*
X814511Y1111658D01*
X814289Y1111763D01*
X814070Y1111875D01*
X814001Y1111899D01*
X813935Y1111931D01*
X813701Y1112007D01*
X813470Y1112091D01*
X813399Y1112107D01*
X813330Y1112130D01*
X813089Y1112176D01*
X812849Y1112230D01*
X812776Y1112237D01*
X812704Y1112251D01*
X812473Y1112266D01*
X812214Y1112291D01*
X812131Y1112288D01*
X812050Y1112293D01*
X811744Y1112293D01*
X809794Y1113101D01*
X808301Y1114594D01*
X807493Y1116544D01*
X807493Y1118656D01*
X808301Y1120606D01*
X809794Y1122099D01*
X811744Y1122907D01*
X813856Y1122907D01*
X815806Y1122099D01*
X817299Y1120606D01*
X818107Y1118656D01*
X818107Y1118350D01*
X818111Y1118277D01*
X818109Y1118204D01*
X818131Y1117959D01*
X818147Y1117714D01*
X818160Y1117642D01*
X818167Y1117569D01*
X818220Y1117329D01*
X818266Y1117088D01*
X818289Y1117018D01*
X818304Y1116947D01*
X818387Y1116716D01*
X818463Y1116482D01*
X818494Y1116416D01*
X818518Y1116347D01*
X818629Y1116128D01*
X818734Y1115905D01*
X818773Y1115843D01*
X818806Y1115778D01*
X818943Y1115575D01*
X819075Y1115367D01*
X819121Y1115311D01*
X819162Y1115250D01*
X819315Y1115077D01*
X819480Y1114876D01*
X819541Y1114818D01*
X819594Y1114758D01*
X954869Y979483D01*
X955295Y978456D01*
X955295Y806914D01*
X955299Y806841D01*
X955297Y806768D01*
X955319Y806523D01*
X955335Y806278D01*
X955348Y806207D01*
X955355Y806134D01*
X955408Y805894D01*
X955454Y805652D01*
X955477Y805583D01*
X955492Y805512D01*
X955575Y805281D01*
X955651Y805046D01*
X955682Y804980D01*
X955706Y804911D01*
X955817Y804692D01*
X955922Y804470D01*
X955961Y804408D01*
X955994Y804343D01*
X956131Y804139D01*
X956263Y803931D01*
X956309Y803875D01*
X956350Y803815D01*
X956503Y803641D01*
X956668Y803440D01*
X956729Y803383D01*
X956782Y803322D01*
X956999Y803106D01*
X957807Y801156D01*
X957807Y799044D01*
X956999Y797094D01*
X955506Y795601D01*
X953556Y794793D01*
X951444Y794793D01*
G37*
%LPD*%
%LPC*%
G36*
X1153881Y59435D02*
X1153881Y59435D01*
X1150520Y60827D01*
X1147841Y63506D01*
X1147705Y63707D01*
X1147551Y63942D01*
X1147526Y63971D01*
X1147505Y64002D01*
X1147320Y64213D01*
X1147137Y64427D01*
X1147109Y64452D01*
X1147084Y64480D01*
X1146874Y64666D01*
X1146666Y64856D01*
X1146635Y64877D01*
X1146607Y64902D01*
X1146375Y65061D01*
X1146145Y65222D01*
X1146112Y65240D01*
X1146081Y65261D01*
X1145830Y65389D01*
X1145582Y65521D01*
X1145547Y65534D01*
X1145514Y65552D01*
X1145248Y65648D01*
X1144986Y65747D01*
X1144950Y65756D01*
X1144915Y65768D01*
X1144639Y65831D01*
X1144367Y65896D01*
X1144330Y65900D01*
X1144293Y65909D01*
X1144012Y65936D01*
X1143734Y65967D01*
X1143696Y65966D01*
X1143659Y65970D01*
X1143378Y65962D01*
X1143097Y65958D01*
X1143060Y65953D01*
X1143022Y65952D01*
X1142744Y65908D01*
X1142466Y65869D01*
X1142430Y65859D01*
X1142392Y65853D01*
X1142123Y65776D01*
X1141851Y65702D01*
X1141816Y65688D01*
X1141780Y65677D01*
X1141523Y65567D01*
X1141262Y65459D01*
X1141229Y65441D01*
X1141195Y65426D01*
X1140952Y65283D01*
X1140708Y65145D01*
X1140678Y65122D01*
X1140645Y65103D01*
X1140422Y64931D01*
X1140198Y64763D01*
X1140171Y64737D01*
X1140141Y64714D01*
X1139942Y64516D01*
X1139739Y64321D01*
X1139715Y64291D01*
X1139689Y64265D01*
X1139516Y64044D01*
X1139340Y63825D01*
X1139320Y63793D01*
X1139297Y63763D01*
X1139168Y63547D01*
X1139005Y63282D01*
X1138997Y63264D01*
X1138050Y61961D01*
X1136919Y60830D01*
X1135757Y59985D01*
X1135625Y59890D01*
X1135379Y59764D01*
X1135379Y76200D01*
X1135379Y92636D01*
X1135625Y92510D01*
X1136919Y91570D01*
X1138050Y90439D01*
X1138994Y89141D01*
X1138997Y89134D01*
X1139143Y88894D01*
X1139287Y88652D01*
X1139310Y88622D01*
X1139329Y88590D01*
X1139504Y88371D01*
X1139677Y88148D01*
X1139703Y88122D01*
X1139727Y88093D01*
X1139929Y87896D01*
X1140127Y87698D01*
X1140157Y87675D01*
X1140184Y87649D01*
X1140408Y87480D01*
X1140631Y87307D01*
X1140663Y87288D01*
X1140693Y87265D01*
X1140937Y87126D01*
X1141179Y86982D01*
X1141213Y86967D01*
X1141246Y86949D01*
X1141505Y86841D01*
X1141763Y86729D01*
X1141799Y86718D01*
X1141834Y86704D01*
X1142105Y86629D01*
X1142375Y86550D01*
X1142412Y86545D01*
X1142448Y86535D01*
X1142728Y86494D01*
X1143004Y86450D01*
X1143041Y86449D01*
X1143079Y86444D01*
X1143360Y86439D01*
X1143641Y86429D01*
X1143678Y86433D01*
X1143716Y86432D01*
X1143994Y86462D01*
X1144275Y86488D01*
X1144312Y86497D01*
X1144349Y86501D01*
X1144621Y86565D01*
X1144897Y86627D01*
X1144933Y86639D01*
X1144969Y86648D01*
X1145232Y86746D01*
X1145497Y86841D01*
X1145531Y86858D01*
X1145566Y86871D01*
X1145815Y87003D01*
X1146065Y87130D01*
X1146096Y87151D01*
X1146129Y87168D01*
X1146360Y87329D01*
X1146593Y87487D01*
X1146621Y87511D01*
X1146652Y87533D01*
X1146860Y87722D01*
X1147072Y87907D01*
X1147097Y87935D01*
X1147124Y87960D01*
X1147308Y88174D01*
X1147494Y88384D01*
X1147515Y88415D01*
X1147540Y88443D01*
X1147695Y88679D01*
X1147845Y88897D01*
X1150520Y91573D01*
X1153881Y92965D01*
X1157519Y92965D01*
X1160880Y91573D01*
X1163453Y89000D01*
X1163707Y88385D01*
X1163812Y88172D01*
X1163909Y87956D01*
X1163952Y87886D01*
X1163988Y87813D01*
X1164117Y87615D01*
X1164241Y87413D01*
X1164293Y87348D01*
X1164337Y87280D01*
X1164491Y87100D01*
X1164639Y86915D01*
X1164698Y86858D01*
X1164751Y86795D01*
X1164926Y86636D01*
X1165096Y86471D01*
X1165161Y86422D01*
X1165222Y86366D01*
X1165416Y86230D01*
X1165605Y86088D01*
X1165676Y86047D01*
X1165743Y86000D01*
X1165953Y85888D01*
X1166158Y85771D01*
X1166233Y85740D01*
X1166306Y85701D01*
X1166528Y85617D01*
X1166746Y85526D01*
X1166825Y85504D01*
X1166902Y85475D01*
X1167132Y85420D01*
X1167360Y85357D01*
X1167441Y85345D01*
X1167521Y85326D01*
X1167757Y85300D01*
X1167991Y85266D01*
X1168073Y85264D01*
X1168154Y85255D01*
X1168391Y85259D01*
X1168628Y85254D01*
X1168709Y85263D01*
X1168791Y85264D01*
X1169025Y85297D01*
X1169261Y85323D01*
X1169341Y85342D01*
X1169422Y85353D01*
X1169650Y85415D01*
X1169881Y85470D01*
X1169958Y85499D01*
X1170037Y85520D01*
X1170256Y85611D01*
X1170478Y85694D01*
X1170550Y85732D01*
X1170626Y85763D01*
X1170832Y85880D01*
X1171042Y85990D01*
X1171109Y86037D01*
X1171180Y86078D01*
X1171370Y86220D01*
X1171564Y86355D01*
X1171625Y86410D01*
X1171690Y86459D01*
X1171861Y86624D01*
X1172037Y86782D01*
X1172090Y86845D01*
X1172149Y86902D01*
X1172298Y87086D01*
X1172452Y87266D01*
X1172497Y87334D01*
X1172549Y87398D01*
X1172672Y87599D01*
X1172803Y87797D01*
X1172839Y87869D01*
X1172883Y87940D01*
X1172990Y88177D01*
X1173093Y88385D01*
X1173348Y89000D01*
X1175920Y91573D01*
X1179281Y92965D01*
X1182919Y92965D01*
X1186280Y91573D01*
X1188853Y89000D01*
X1190245Y85639D01*
X1190245Y66761D01*
X1188853Y63400D01*
X1186280Y60827D01*
X1182919Y59435D01*
X1179281Y59435D01*
X1175920Y60827D01*
X1173348Y63400D01*
X1173093Y64015D01*
X1172988Y64228D01*
X1172891Y64444D01*
X1172848Y64514D01*
X1172812Y64587D01*
X1172682Y64785D01*
X1172559Y64987D01*
X1172508Y65051D01*
X1172463Y65120D01*
X1172309Y65300D01*
X1172161Y65485D01*
X1172102Y65542D01*
X1172049Y65605D01*
X1171874Y65764D01*
X1171704Y65929D01*
X1171639Y65979D01*
X1171578Y66034D01*
X1171385Y66170D01*
X1171195Y66312D01*
X1171124Y66353D01*
X1171057Y66400D01*
X1170848Y66511D01*
X1170642Y66629D01*
X1170567Y66661D01*
X1170494Y66699D01*
X1170273Y66783D01*
X1170054Y66874D01*
X1169975Y66896D01*
X1169898Y66925D01*
X1169668Y66980D01*
X1169440Y67043D01*
X1169359Y67055D01*
X1169279Y67074D01*
X1169044Y67100D01*
X1168809Y67134D01*
X1168727Y67136D01*
X1168646Y67145D01*
X1168410Y67141D01*
X1168172Y67146D01*
X1168091Y67137D01*
X1168009Y67136D01*
X1167775Y67103D01*
X1167539Y67077D01*
X1167459Y67058D01*
X1167378Y67047D01*
X1167149Y66985D01*
X1166919Y66930D01*
X1166842Y66901D01*
X1166763Y66880D01*
X1166544Y66790D01*
X1166322Y66706D01*
X1166250Y66668D01*
X1166174Y66637D01*
X1165968Y66520D01*
X1165758Y66410D01*
X1165691Y66363D01*
X1165620Y66322D01*
X1165430Y66181D01*
X1165236Y66045D01*
X1165175Y65990D01*
X1165110Y65941D01*
X1164939Y65776D01*
X1164764Y65618D01*
X1164710Y65555D01*
X1164651Y65499D01*
X1164503Y65314D01*
X1164348Y65134D01*
X1164303Y65066D01*
X1164252Y65002D01*
X1164127Y64800D01*
X1163997Y64603D01*
X1163961Y64531D01*
X1163917Y64460D01*
X1163810Y64223D01*
X1163707Y64015D01*
X1163453Y63400D01*
X1160880Y60827D01*
X1157519Y59435D01*
X1153881Y59435D01*
G37*
%LPD*%
%LPC*%
G36*
X821923Y677163D02*
X821923Y677163D01*
X816863Y682223D01*
X816863Y689377D01*
X821923Y694437D01*
X829077Y694437D01*
X833432Y690082D01*
X833487Y690034D01*
X833536Y689981D01*
X833725Y689824D01*
X833910Y689661D01*
X833970Y689620D01*
X834026Y689573D01*
X834233Y689441D01*
X834436Y689303D01*
X834502Y689270D01*
X834563Y689230D01*
X834785Y689125D01*
X835004Y689013D01*
X835072Y688989D01*
X835139Y688957D01*
X835373Y688880D01*
X835603Y688797D01*
X835675Y688781D01*
X835744Y688758D01*
X835985Y688712D01*
X836225Y688658D01*
X836298Y688651D01*
X836369Y688637D01*
X836601Y688622D01*
X836859Y688597D01*
X836943Y688600D01*
X837023Y688595D01*
X996486Y688595D01*
X996559Y688599D01*
X996632Y688597D01*
X996877Y688619D01*
X997122Y688635D01*
X997193Y688648D01*
X997266Y688655D01*
X997506Y688708D01*
X997748Y688754D01*
X997817Y688777D01*
X997888Y688792D01*
X998119Y688875D01*
X998354Y688951D01*
X998420Y688982D01*
X998489Y689006D01*
X998708Y689117D01*
X998930Y689222D01*
X998992Y689261D01*
X999057Y689294D01*
X999261Y689431D01*
X999469Y689563D01*
X999525Y689609D01*
X999585Y689650D01*
X999759Y689803D01*
X999960Y689968D01*
X1000017Y690029D01*
X1000078Y690082D01*
X1000294Y690299D01*
X1002244Y691107D01*
X1004356Y691107D01*
X1006306Y690299D01*
X1007799Y688806D01*
X1008607Y686856D01*
X1008607Y684744D01*
X1007799Y682794D01*
X1006306Y681301D01*
X1004356Y680493D01*
X1002244Y680493D01*
X1000294Y681301D01*
X1000078Y681518D01*
X1000023Y681566D01*
X999973Y681619D01*
X999784Y681777D01*
X999600Y681939D01*
X999539Y681980D01*
X999483Y682027D01*
X999276Y682159D01*
X999073Y682297D01*
X999008Y682330D01*
X998946Y682370D01*
X998724Y682475D01*
X998505Y682587D01*
X998437Y682611D01*
X998371Y682643D01*
X998137Y682719D01*
X997906Y682803D01*
X997835Y682819D01*
X997765Y682842D01*
X997524Y682888D01*
X997284Y682942D01*
X997211Y682949D01*
X997140Y682963D01*
X996909Y682978D01*
X996650Y683003D01*
X996566Y683000D01*
X996486Y683005D01*
X837023Y683005D01*
X836950Y683001D01*
X836878Y683003D01*
X836633Y682981D01*
X836387Y682965D01*
X836316Y682952D01*
X836243Y682945D01*
X836003Y682892D01*
X835762Y682846D01*
X835692Y682824D01*
X835621Y682808D01*
X835389Y682725D01*
X835156Y682649D01*
X835089Y682618D01*
X835021Y682594D01*
X834801Y682483D01*
X834579Y682378D01*
X834517Y682339D01*
X834452Y682306D01*
X834249Y682169D01*
X834041Y682037D01*
X833984Y681991D01*
X833924Y681950D01*
X833750Y681797D01*
X833549Y681632D01*
X833492Y681571D01*
X833432Y681518D01*
X829077Y677163D01*
X821923Y677163D01*
G37*
%LPD*%
%LPC*%
G36*
X1520633Y614171D02*
X1520633Y614171D01*
X1516787Y618018D01*
X1516732Y618066D01*
X1516682Y618119D01*
X1516493Y618276D01*
X1516309Y618439D01*
X1516248Y618480D01*
X1516192Y618527D01*
X1515985Y618659D01*
X1515782Y618797D01*
X1515717Y618830D01*
X1515655Y618870D01*
X1515433Y618975D01*
X1515214Y619087D01*
X1515146Y619111D01*
X1515080Y619143D01*
X1514846Y619220D01*
X1514615Y619303D01*
X1514544Y619319D01*
X1514474Y619342D01*
X1514233Y619388D01*
X1513993Y619442D01*
X1513921Y619449D01*
X1513849Y619463D01*
X1513618Y619478D01*
X1513359Y619503D01*
X1513276Y619500D01*
X1513195Y619505D01*
X1378414Y619505D01*
X1378341Y619501D01*
X1378268Y619503D01*
X1378023Y619481D01*
X1377778Y619465D01*
X1377707Y619452D01*
X1377634Y619445D01*
X1377394Y619392D01*
X1377152Y619346D01*
X1377083Y619323D01*
X1377012Y619308D01*
X1376781Y619225D01*
X1376546Y619149D01*
X1376480Y619118D01*
X1376411Y619094D01*
X1376192Y618983D01*
X1375970Y618878D01*
X1375908Y618839D01*
X1375843Y618806D01*
X1375639Y618669D01*
X1375431Y618537D01*
X1375375Y618491D01*
X1375315Y618450D01*
X1375141Y618297D01*
X1374940Y618132D01*
X1374883Y618071D01*
X1374822Y618018D01*
X1374606Y617801D01*
X1372656Y616993D01*
X1370544Y616993D01*
X1368594Y617801D01*
X1367101Y619294D01*
X1366293Y621244D01*
X1366293Y623356D01*
X1367101Y625306D01*
X1368594Y626799D01*
X1370544Y627607D01*
X1372656Y627607D01*
X1374606Y626799D01*
X1374822Y626582D01*
X1374877Y626534D01*
X1374927Y626481D01*
X1375116Y626323D01*
X1375300Y626161D01*
X1375361Y626120D01*
X1375417Y626073D01*
X1375624Y625941D01*
X1375827Y625803D01*
X1375892Y625770D01*
X1375954Y625730D01*
X1376176Y625625D01*
X1376395Y625513D01*
X1376463Y625489D01*
X1376529Y625457D01*
X1376763Y625381D01*
X1376994Y625297D01*
X1377065Y625281D01*
X1377135Y625258D01*
X1377376Y625212D01*
X1377616Y625158D01*
X1377689Y625151D01*
X1377760Y625137D01*
X1377991Y625122D01*
X1378250Y625097D01*
X1378334Y625100D01*
X1378414Y625095D01*
X1513195Y625095D01*
X1513268Y625099D01*
X1513341Y625097D01*
X1513586Y625119D01*
X1513831Y625135D01*
X1513903Y625148D01*
X1513975Y625155D01*
X1514216Y625208D01*
X1514457Y625254D01*
X1514526Y625276D01*
X1514598Y625292D01*
X1514829Y625375D01*
X1515063Y625451D01*
X1515129Y625482D01*
X1515198Y625506D01*
X1515417Y625617D01*
X1515640Y625722D01*
X1515701Y625761D01*
X1515766Y625794D01*
X1515970Y625931D01*
X1516178Y626063D01*
X1516234Y626109D01*
X1516294Y626150D01*
X1516468Y626303D01*
X1516669Y626468D01*
X1516726Y626529D01*
X1516787Y626582D01*
X1520633Y630429D01*
X1527367Y630429D01*
X1532129Y625667D01*
X1532129Y618933D01*
X1527367Y614171D01*
X1520633Y614171D01*
G37*
%LPD*%
%LPC*%
G36*
X772313Y790320D02*
X772313Y790320D01*
X767901Y792148D01*
X764525Y795524D01*
X762698Y799935D01*
X762698Y825665D01*
X764525Y830076D01*
X767901Y833452D01*
X772313Y835280D01*
X777087Y835280D01*
X781499Y833452D01*
X784875Y830076D01*
X786702Y825665D01*
X786702Y799935D01*
X784875Y795524D01*
X781499Y792148D01*
X777087Y790320D01*
X772313Y790320D01*
G37*
%LPD*%
%LPC*%
G36*
X873913Y472820D02*
X873913Y472820D01*
X869501Y474648D01*
X866125Y478024D01*
X864298Y482435D01*
X864298Y508165D01*
X866125Y512576D01*
X869501Y515952D01*
X873913Y517780D01*
X878687Y517780D01*
X883099Y515952D01*
X886475Y512576D01*
X888302Y508165D01*
X888302Y482435D01*
X886475Y478024D01*
X883099Y474648D01*
X878687Y472820D01*
X873913Y472820D01*
G37*
%LPD*%
%LPC*%
G36*
X772313Y637920D02*
X772313Y637920D01*
X767901Y639748D01*
X764525Y643124D01*
X762698Y647535D01*
X762698Y673265D01*
X764525Y677676D01*
X767901Y681052D01*
X772313Y682880D01*
X777087Y682880D01*
X781499Y681052D01*
X784875Y677676D01*
X786702Y673265D01*
X786702Y647535D01*
X784875Y643124D01*
X781499Y639748D01*
X777087Y637920D01*
X772313Y637920D01*
G37*
%LPD*%
%LPC*%
G36*
X796733Y131571D02*
X796733Y131571D01*
X791971Y136333D01*
X791971Y143067D01*
X796733Y147829D01*
X803467Y147829D01*
X809208Y142087D01*
X809325Y141985D01*
X809434Y141875D01*
X809563Y141774D01*
X809686Y141666D01*
X809815Y141579D01*
X809937Y141484D01*
X810077Y141400D01*
X810213Y141308D01*
X810351Y141237D01*
X810484Y141158D01*
X810635Y141093D01*
X810781Y141018D01*
X810926Y140966D01*
X811069Y140904D01*
X811226Y140858D01*
X811380Y140802D01*
X811531Y140768D01*
X811680Y140725D01*
X811842Y140699D01*
X812002Y140663D01*
X812156Y140648D01*
X812309Y140623D01*
X812473Y140618D01*
X812636Y140602D01*
X812791Y140607D01*
X812946Y140602D01*
X813109Y140617D01*
X813273Y140622D01*
X813426Y140646D01*
X813580Y140660D01*
X813740Y140695D01*
X813902Y140721D01*
X814051Y140764D01*
X814202Y140797D01*
X814357Y140852D01*
X814514Y140898D01*
X814657Y140959D01*
X814803Y141011D01*
X814949Y141085D01*
X815099Y141150D01*
X815233Y141229D01*
X815371Y141298D01*
X815507Y141390D01*
X815648Y141473D01*
X815771Y141568D01*
X815899Y141655D01*
X816019Y141760D01*
X816152Y141863D01*
X816272Y141982D01*
X816392Y142087D01*
X823113Y148808D01*
X823215Y148925D01*
X823325Y149034D01*
X823381Y149106D01*
X823411Y149138D01*
X823448Y149189D01*
X823534Y149286D01*
X823621Y149414D01*
X823716Y149537D01*
X823783Y149648D01*
X823786Y149653D01*
X823795Y149669D01*
X823800Y149678D01*
X823892Y149813D01*
X823963Y149951D01*
X824042Y150084D01*
X824107Y150235D01*
X824182Y150381D01*
X824234Y150526D01*
X824296Y150669D01*
X824342Y150826D01*
X824398Y150980D01*
X824432Y151131D01*
X824475Y151280D01*
X824501Y151442D01*
X824537Y151602D01*
X824552Y151756D01*
X824577Y151909D01*
X824582Y152073D01*
X824598Y152236D01*
X824593Y152391D01*
X824598Y152546D01*
X824583Y152709D01*
X824578Y152873D01*
X824554Y153026D01*
X824540Y153180D01*
X824505Y153340D01*
X824479Y153502D01*
X824436Y153651D01*
X824403Y153802D01*
X824348Y153956D01*
X824302Y154114D01*
X824241Y154257D01*
X824189Y154403D01*
X824115Y154549D01*
X824050Y154699D01*
X823971Y154833D01*
X823901Y154971D01*
X823810Y155107D01*
X823727Y155248D01*
X823632Y155371D01*
X823545Y155499D01*
X823440Y155619D01*
X823337Y155752D01*
X823218Y155872D01*
X823113Y155992D01*
X817371Y161733D01*
X817371Y168467D01*
X822133Y173229D01*
X828867Y173229D01*
X833629Y168467D01*
X833629Y161733D01*
X827887Y155992D01*
X827785Y155876D01*
X827675Y155766D01*
X827574Y155636D01*
X827466Y155514D01*
X827379Y155386D01*
X827284Y155263D01*
X827200Y155122D01*
X827108Y154987D01*
X827037Y154849D01*
X826958Y154716D01*
X826893Y154565D01*
X826818Y154419D01*
X826766Y154273D01*
X826704Y154131D01*
X826658Y153974D01*
X826602Y153820D01*
X826568Y153669D01*
X826525Y153520D01*
X826499Y153358D01*
X826463Y153198D01*
X826448Y153044D01*
X826423Y152891D01*
X826418Y152727D01*
X826402Y152564D01*
X826407Y152409D01*
X826402Y152254D01*
X826417Y152091D01*
X826422Y151927D01*
X826446Y151774D01*
X826460Y151620D01*
X826495Y151460D01*
X826521Y151298D01*
X826564Y151149D01*
X826597Y150998D01*
X826652Y150843D01*
X826698Y150686D01*
X826759Y150543D01*
X826811Y150397D01*
X826885Y150251D01*
X826950Y150101D01*
X827029Y149967D01*
X827099Y149829D01*
X827190Y149693D01*
X827197Y149681D01*
X827204Y149669D01*
X827207Y149665D01*
X827273Y149552D01*
X827368Y149429D01*
X827455Y149301D01*
X827540Y149204D01*
X827577Y149152D01*
X827606Y149121D01*
X827663Y149048D01*
X827782Y148928D01*
X827887Y148808D01*
X833629Y143067D01*
X833629Y136333D01*
X828867Y131571D01*
X822133Y131571D01*
X816392Y137313D01*
X816276Y137415D01*
X816166Y137525D01*
X816036Y137626D01*
X815914Y137734D01*
X815786Y137821D01*
X815663Y137916D01*
X815522Y138000D01*
X815387Y138092D01*
X815249Y138163D01*
X815116Y138242D01*
X814965Y138307D01*
X814819Y138382D01*
X814673Y138434D01*
X814531Y138496D01*
X814374Y138542D01*
X814220Y138598D01*
X814069Y138632D01*
X813920Y138675D01*
X813758Y138701D01*
X813598Y138737D01*
X813444Y138752D01*
X813291Y138777D01*
X813127Y138782D01*
X812964Y138798D01*
X812809Y138793D01*
X812654Y138798D01*
X812491Y138783D01*
X812327Y138778D01*
X812174Y138754D01*
X812020Y138740D01*
X811860Y138705D01*
X811698Y138679D01*
X811549Y138636D01*
X811398Y138603D01*
X811243Y138548D01*
X811086Y138502D01*
X810943Y138441D01*
X810797Y138389D01*
X810651Y138315D01*
X810501Y138250D01*
X810367Y138171D01*
X810229Y138101D01*
X810093Y138010D01*
X809952Y137927D01*
X809829Y137832D01*
X809701Y137745D01*
X809581Y137640D01*
X809448Y137537D01*
X809328Y137418D01*
X809208Y137313D01*
X803467Y131571D01*
X796733Y131571D01*
G37*
%LPD*%
%LPC*%
G36*
X568133Y131571D02*
X568133Y131571D01*
X563371Y136333D01*
X563371Y143067D01*
X568133Y147829D01*
X574867Y147829D01*
X580608Y142087D01*
X580725Y141985D01*
X580834Y141875D01*
X580963Y141774D01*
X581086Y141666D01*
X581215Y141579D01*
X581337Y141484D01*
X581477Y141400D01*
X581613Y141308D01*
X581751Y141237D01*
X581884Y141158D01*
X582035Y141093D01*
X582181Y141018D01*
X582326Y140966D01*
X582469Y140904D01*
X582626Y140858D01*
X582780Y140802D01*
X582931Y140768D01*
X583080Y140725D01*
X583242Y140699D01*
X583402Y140663D01*
X583556Y140648D01*
X583709Y140623D01*
X583873Y140618D01*
X584036Y140602D01*
X584191Y140607D01*
X584346Y140602D01*
X584509Y140617D01*
X584673Y140622D01*
X584826Y140646D01*
X584980Y140660D01*
X585140Y140695D01*
X585302Y140721D01*
X585451Y140764D01*
X585602Y140797D01*
X585757Y140852D01*
X585914Y140898D01*
X586057Y140959D01*
X586203Y141011D01*
X586349Y141085D01*
X586499Y141150D01*
X586633Y141229D01*
X586771Y141298D01*
X586907Y141390D01*
X587048Y141473D01*
X587171Y141568D01*
X587299Y141655D01*
X587419Y141760D01*
X587552Y141863D01*
X587672Y141982D01*
X587792Y142087D01*
X594513Y148808D01*
X594615Y148925D01*
X594725Y149034D01*
X594781Y149106D01*
X594811Y149138D01*
X594848Y149189D01*
X594934Y149286D01*
X595021Y149414D01*
X595116Y149537D01*
X595183Y149648D01*
X595186Y149653D01*
X595195Y149669D01*
X595200Y149678D01*
X595292Y149813D01*
X595363Y149951D01*
X595442Y150084D01*
X595507Y150235D01*
X595582Y150381D01*
X595634Y150526D01*
X595696Y150669D01*
X595742Y150826D01*
X595798Y150980D01*
X595832Y151131D01*
X595875Y151280D01*
X595901Y151442D01*
X595937Y151602D01*
X595952Y151756D01*
X595977Y151909D01*
X595982Y152073D01*
X595998Y152236D01*
X595993Y152391D01*
X595998Y152546D01*
X595983Y152709D01*
X595978Y152873D01*
X595954Y153026D01*
X595940Y153180D01*
X595905Y153340D01*
X595879Y153502D01*
X595836Y153651D01*
X595803Y153802D01*
X595748Y153956D01*
X595702Y154114D01*
X595641Y154257D01*
X595589Y154403D01*
X595515Y154549D01*
X595450Y154699D01*
X595371Y154833D01*
X595301Y154971D01*
X595210Y155107D01*
X595127Y155248D01*
X595032Y155371D01*
X594945Y155499D01*
X594840Y155619D01*
X594737Y155752D01*
X594618Y155872D01*
X594513Y155992D01*
X588771Y161733D01*
X588771Y168467D01*
X593533Y173229D01*
X600267Y173229D01*
X605029Y168467D01*
X605029Y161733D01*
X599287Y155992D01*
X599185Y155876D01*
X599075Y155766D01*
X598974Y155636D01*
X598866Y155514D01*
X598779Y155386D01*
X598684Y155263D01*
X598600Y155122D01*
X598508Y154987D01*
X598437Y154849D01*
X598358Y154716D01*
X598293Y154565D01*
X598218Y154419D01*
X598166Y154273D01*
X598104Y154131D01*
X598058Y153974D01*
X598002Y153820D01*
X597968Y153669D01*
X597925Y153520D01*
X597899Y153358D01*
X597863Y153198D01*
X597848Y153044D01*
X597823Y152891D01*
X597818Y152727D01*
X597802Y152564D01*
X597807Y152409D01*
X597802Y152254D01*
X597817Y152091D01*
X597822Y151927D01*
X597846Y151774D01*
X597860Y151620D01*
X597895Y151460D01*
X597921Y151298D01*
X597964Y151149D01*
X597997Y150998D01*
X598052Y150843D01*
X598098Y150686D01*
X598159Y150543D01*
X598211Y150397D01*
X598285Y150251D01*
X598350Y150101D01*
X598429Y149967D01*
X598499Y149829D01*
X598590Y149693D01*
X598597Y149681D01*
X598604Y149669D01*
X598607Y149665D01*
X598673Y149552D01*
X598768Y149429D01*
X598855Y149301D01*
X598940Y149204D01*
X598977Y149152D01*
X599006Y149121D01*
X599063Y149048D01*
X599182Y148928D01*
X599287Y148808D01*
X605029Y143067D01*
X605029Y136333D01*
X600267Y131571D01*
X593533Y131571D01*
X587792Y137313D01*
X587676Y137415D01*
X587566Y137525D01*
X587436Y137626D01*
X587314Y137734D01*
X587186Y137821D01*
X587063Y137916D01*
X586922Y138000D01*
X586787Y138092D01*
X586649Y138163D01*
X586516Y138242D01*
X586365Y138307D01*
X586219Y138382D01*
X586073Y138434D01*
X585931Y138496D01*
X585774Y138542D01*
X585620Y138598D01*
X585469Y138632D01*
X585320Y138675D01*
X585158Y138701D01*
X584998Y138737D01*
X584844Y138752D01*
X584691Y138777D01*
X584527Y138782D01*
X584364Y138798D01*
X584209Y138793D01*
X584054Y138798D01*
X583891Y138783D01*
X583727Y138778D01*
X583574Y138754D01*
X583420Y138740D01*
X583260Y138705D01*
X583098Y138679D01*
X582949Y138636D01*
X582798Y138603D01*
X582643Y138548D01*
X582486Y138502D01*
X582343Y138441D01*
X582197Y138389D01*
X582051Y138315D01*
X581901Y138250D01*
X581767Y138171D01*
X581629Y138101D01*
X581493Y138010D01*
X581352Y137927D01*
X581229Y137832D01*
X581101Y137745D01*
X580981Y137640D01*
X580848Y137537D01*
X580728Y137418D01*
X580608Y137313D01*
X574867Y131571D01*
X568133Y131571D01*
G37*
%LPD*%
%LPC*%
G36*
X428045Y397535D02*
X428045Y397535D01*
X422735Y402845D01*
X422735Y410355D01*
X427889Y415508D01*
X427991Y415624D01*
X428101Y415734D01*
X428202Y415864D01*
X428310Y415986D01*
X428397Y416114D01*
X428493Y416237D01*
X428577Y416378D01*
X428669Y416513D01*
X428739Y416651D01*
X428818Y416784D01*
X428884Y416935D01*
X428958Y417081D01*
X429011Y417227D01*
X429072Y417369D01*
X429119Y417526D01*
X429174Y417680D01*
X429208Y417831D01*
X429252Y417980D01*
X429278Y418142D01*
X429314Y418302D01*
X429328Y418456D01*
X429353Y418609D01*
X429358Y418773D01*
X429374Y418936D01*
X429369Y419091D01*
X429375Y419246D01*
X429360Y419409D01*
X429355Y419573D01*
X429331Y419726D01*
X429316Y419880D01*
X429281Y420040D01*
X429256Y420202D01*
X429213Y420351D01*
X429179Y420502D01*
X429124Y420657D01*
X429079Y420814D01*
X429017Y420957D01*
X428965Y421103D01*
X428891Y421249D01*
X428826Y421399D01*
X428748Y421533D01*
X428678Y421671D01*
X428586Y421807D01*
X428503Y421948D01*
X428408Y422071D01*
X428321Y422199D01*
X428216Y422319D01*
X428113Y422452D01*
X427994Y422572D01*
X427889Y422692D01*
X422735Y427845D01*
X422735Y435355D01*
X428045Y440665D01*
X435555Y440665D01*
X440865Y435355D01*
X440865Y427845D01*
X435711Y422692D01*
X435608Y422575D01*
X435499Y422466D01*
X435398Y422337D01*
X435290Y422214D01*
X435203Y422086D01*
X435107Y421963D01*
X435024Y421822D01*
X434931Y421687D01*
X434861Y421549D01*
X434782Y421416D01*
X434716Y421265D01*
X434642Y421119D01*
X434589Y420974D01*
X434528Y420831D01*
X434481Y420674D01*
X434426Y420520D01*
X434392Y420369D01*
X434348Y420220D01*
X434322Y420058D01*
X434286Y419898D01*
X434272Y419744D01*
X434247Y419591D01*
X434242Y419427D01*
X434226Y419264D01*
X434231Y419109D01*
X434225Y418954D01*
X434240Y418791D01*
X434245Y418627D01*
X434269Y418474D01*
X434284Y418320D01*
X434319Y418160D01*
X434344Y417998D01*
X434387Y417849D01*
X434421Y417698D01*
X434476Y417543D01*
X434521Y417386D01*
X434583Y417243D01*
X434635Y417097D01*
X434709Y416951D01*
X434774Y416801D01*
X434852Y416667D01*
X434922Y416529D01*
X435014Y416393D01*
X435097Y416252D01*
X435192Y416129D01*
X435279Y416001D01*
X435384Y415881D01*
X435487Y415748D01*
X435606Y415628D01*
X435711Y415508D01*
X440865Y410355D01*
X440865Y402845D01*
X435555Y397535D01*
X428045Y397535D01*
G37*
%LPD*%
%LPC*%
G36*
X275645Y397535D02*
X275645Y397535D01*
X270335Y402845D01*
X270335Y410355D01*
X275489Y415508D01*
X275591Y415624D01*
X275701Y415734D01*
X275802Y415864D01*
X275910Y415986D01*
X275997Y416114D01*
X276093Y416237D01*
X276177Y416378D01*
X276269Y416513D01*
X276339Y416651D01*
X276418Y416784D01*
X276484Y416935D01*
X276558Y417081D01*
X276611Y417227D01*
X276672Y417369D01*
X276719Y417526D01*
X276774Y417680D01*
X276808Y417831D01*
X276852Y417980D01*
X276878Y418142D01*
X276914Y418302D01*
X276928Y418456D01*
X276953Y418609D01*
X276958Y418773D01*
X276974Y418936D01*
X276969Y419091D01*
X276975Y419246D01*
X276960Y419409D01*
X276955Y419573D01*
X276931Y419726D01*
X276916Y419880D01*
X276881Y420040D01*
X276856Y420202D01*
X276813Y420351D01*
X276779Y420502D01*
X276724Y420657D01*
X276679Y420814D01*
X276617Y420957D01*
X276565Y421103D01*
X276491Y421249D01*
X276426Y421399D01*
X276348Y421533D01*
X276278Y421671D01*
X276186Y421807D01*
X276103Y421948D01*
X276008Y422071D01*
X275921Y422199D01*
X275816Y422319D01*
X275713Y422452D01*
X275594Y422572D01*
X275489Y422692D01*
X270335Y427845D01*
X270335Y435355D01*
X275645Y440665D01*
X283155Y440665D01*
X288465Y435355D01*
X288465Y427845D01*
X283311Y422692D01*
X283208Y422575D01*
X283099Y422466D01*
X282998Y422337D01*
X282890Y422214D01*
X282803Y422086D01*
X282707Y421963D01*
X282624Y421822D01*
X282531Y421687D01*
X282461Y421549D01*
X282382Y421416D01*
X282316Y421265D01*
X282242Y421119D01*
X282189Y420974D01*
X282128Y420831D01*
X282081Y420674D01*
X282026Y420520D01*
X281992Y420369D01*
X281948Y420220D01*
X281922Y420058D01*
X281886Y419898D01*
X281872Y419744D01*
X281847Y419591D01*
X281842Y419427D01*
X281826Y419264D01*
X281831Y419109D01*
X281825Y418954D01*
X281840Y418791D01*
X281845Y418627D01*
X281869Y418474D01*
X281884Y418320D01*
X281919Y418160D01*
X281944Y417998D01*
X281987Y417849D01*
X282021Y417698D01*
X282076Y417543D01*
X282121Y417386D01*
X282183Y417243D01*
X282235Y417097D01*
X282309Y416951D01*
X282374Y416801D01*
X282452Y416667D01*
X282522Y416529D01*
X282614Y416393D01*
X282697Y416252D01*
X282792Y416129D01*
X282879Y416001D01*
X282984Y415881D01*
X283087Y415748D01*
X283206Y415628D01*
X283311Y415508D01*
X288465Y410355D01*
X288465Y402845D01*
X283155Y397535D01*
X275645Y397535D01*
G37*
%LPD*%
%LPC*%
G36*
X351845Y397535D02*
X351845Y397535D01*
X346535Y402845D01*
X346535Y410355D01*
X351689Y415508D01*
X351791Y415624D01*
X351901Y415734D01*
X352002Y415864D01*
X352110Y415986D01*
X352197Y416114D01*
X352293Y416237D01*
X352377Y416378D01*
X352469Y416513D01*
X352539Y416651D01*
X352618Y416784D01*
X352684Y416935D01*
X352758Y417081D01*
X352811Y417227D01*
X352872Y417369D01*
X352919Y417526D01*
X352974Y417680D01*
X353008Y417831D01*
X353052Y417980D01*
X353078Y418142D01*
X353114Y418302D01*
X353128Y418456D01*
X353153Y418609D01*
X353158Y418773D01*
X353174Y418936D01*
X353169Y419091D01*
X353175Y419246D01*
X353160Y419409D01*
X353155Y419573D01*
X353131Y419726D01*
X353116Y419880D01*
X353081Y420040D01*
X353056Y420202D01*
X353013Y420351D01*
X352979Y420502D01*
X352924Y420657D01*
X352879Y420814D01*
X352817Y420957D01*
X352765Y421103D01*
X352691Y421249D01*
X352626Y421399D01*
X352548Y421533D01*
X352478Y421671D01*
X352386Y421807D01*
X352303Y421948D01*
X352208Y422071D01*
X352121Y422199D01*
X352016Y422319D01*
X351913Y422452D01*
X351794Y422572D01*
X351689Y422692D01*
X346535Y427845D01*
X346535Y435355D01*
X351845Y440665D01*
X359355Y440665D01*
X364665Y435355D01*
X364665Y427845D01*
X359511Y422692D01*
X359408Y422575D01*
X359299Y422466D01*
X359198Y422337D01*
X359090Y422214D01*
X359003Y422086D01*
X358907Y421963D01*
X358824Y421822D01*
X358731Y421687D01*
X358661Y421549D01*
X358582Y421416D01*
X358516Y421265D01*
X358442Y421119D01*
X358389Y420974D01*
X358328Y420831D01*
X358281Y420674D01*
X358226Y420520D01*
X358192Y420369D01*
X358148Y420220D01*
X358122Y420058D01*
X358086Y419898D01*
X358072Y419744D01*
X358047Y419591D01*
X358042Y419427D01*
X358026Y419264D01*
X358031Y419109D01*
X358025Y418954D01*
X358040Y418791D01*
X358045Y418627D01*
X358069Y418474D01*
X358084Y418320D01*
X358119Y418160D01*
X358144Y417998D01*
X358187Y417849D01*
X358221Y417698D01*
X358276Y417543D01*
X358321Y417386D01*
X358383Y417243D01*
X358435Y417097D01*
X358509Y416951D01*
X358574Y416801D01*
X358652Y416667D01*
X358722Y416529D01*
X358814Y416393D01*
X358897Y416252D01*
X358992Y416129D01*
X359079Y416001D01*
X359184Y415881D01*
X359287Y415748D01*
X359406Y415628D01*
X359511Y415508D01*
X364665Y410355D01*
X364665Y402845D01*
X359355Y397535D01*
X351845Y397535D01*
G37*
%LPD*%
%LPC*%
G36*
X351845Y283235D02*
X351845Y283235D01*
X346535Y288545D01*
X346535Y296055D01*
X351689Y301208D01*
X351792Y301325D01*
X351901Y301434D01*
X351964Y301514D01*
X351965Y301516D01*
X351969Y301520D01*
X352002Y301563D01*
X352110Y301686D01*
X352197Y301814D01*
X352293Y301937D01*
X352376Y302078D01*
X352469Y302213D01*
X352539Y302351D01*
X352618Y302484D01*
X352684Y302635D01*
X352758Y302781D01*
X352811Y302926D01*
X352872Y303069D01*
X352919Y303226D01*
X352974Y303380D01*
X353008Y303531D01*
X353052Y303680D01*
X353078Y303842D01*
X353114Y304002D01*
X353128Y304156D01*
X353153Y304309D01*
X353158Y304473D01*
X353174Y304636D01*
X353169Y304791D01*
X353175Y304946D01*
X353160Y305109D01*
X353155Y305273D01*
X353131Y305426D01*
X353116Y305580D01*
X353081Y305740D01*
X353056Y305902D01*
X353013Y306051D01*
X352979Y306202D01*
X352924Y306357D01*
X352879Y306514D01*
X352817Y306657D01*
X352765Y306803D01*
X352691Y306949D01*
X352626Y307099D01*
X352548Y307233D01*
X352478Y307371D01*
X352386Y307507D01*
X352303Y307648D01*
X352208Y307771D01*
X352121Y307899D01*
X352016Y308019D01*
X351913Y308152D01*
X351794Y308272D01*
X351689Y308392D01*
X346535Y313545D01*
X346535Y321055D01*
X351845Y326365D01*
X359355Y326365D01*
X364665Y321055D01*
X364665Y313545D01*
X359511Y308392D01*
X359409Y308276D01*
X359299Y308166D01*
X359198Y308036D01*
X359090Y307914D01*
X359003Y307786D01*
X358907Y307663D01*
X358823Y307522D01*
X358731Y307387D01*
X358661Y307249D01*
X358582Y307116D01*
X358516Y306965D01*
X358442Y306819D01*
X358389Y306673D01*
X358328Y306531D01*
X358281Y306374D01*
X358226Y306220D01*
X358192Y306069D01*
X358148Y305920D01*
X358122Y305758D01*
X358086Y305598D01*
X358072Y305444D01*
X358047Y305291D01*
X358042Y305127D01*
X358026Y304964D01*
X358031Y304809D01*
X358025Y304654D01*
X358040Y304491D01*
X358045Y304327D01*
X358069Y304174D01*
X358084Y304020D01*
X358119Y303860D01*
X358144Y303698D01*
X358187Y303549D01*
X358221Y303398D01*
X358276Y303243D01*
X358321Y303086D01*
X358383Y302943D01*
X358435Y302797D01*
X358509Y302651D01*
X358574Y302501D01*
X358652Y302367D01*
X358722Y302229D01*
X358814Y302093D01*
X358897Y301952D01*
X358992Y301829D01*
X359079Y301701D01*
X359184Y301581D01*
X359287Y301448D01*
X359406Y301328D01*
X359511Y301208D01*
X364665Y296055D01*
X364665Y288545D01*
X359355Y283235D01*
X351845Y283235D01*
G37*
%LPD*%
%LPC*%
G36*
X428045Y283235D02*
X428045Y283235D01*
X422735Y288545D01*
X422735Y296055D01*
X427889Y301208D01*
X427992Y301325D01*
X428101Y301434D01*
X428164Y301514D01*
X428165Y301516D01*
X428169Y301520D01*
X428202Y301563D01*
X428310Y301686D01*
X428397Y301814D01*
X428493Y301937D01*
X428576Y302078D01*
X428669Y302213D01*
X428739Y302351D01*
X428818Y302484D01*
X428884Y302635D01*
X428958Y302781D01*
X429011Y302926D01*
X429072Y303069D01*
X429119Y303226D01*
X429174Y303380D01*
X429208Y303531D01*
X429252Y303680D01*
X429278Y303842D01*
X429314Y304002D01*
X429328Y304156D01*
X429353Y304309D01*
X429358Y304473D01*
X429374Y304636D01*
X429369Y304791D01*
X429375Y304946D01*
X429360Y305109D01*
X429355Y305273D01*
X429331Y305426D01*
X429316Y305580D01*
X429281Y305740D01*
X429256Y305902D01*
X429213Y306051D01*
X429179Y306202D01*
X429124Y306357D01*
X429079Y306514D01*
X429017Y306657D01*
X428965Y306803D01*
X428891Y306949D01*
X428826Y307099D01*
X428748Y307233D01*
X428678Y307371D01*
X428586Y307507D01*
X428503Y307648D01*
X428408Y307771D01*
X428321Y307899D01*
X428216Y308019D01*
X428113Y308152D01*
X427994Y308272D01*
X427889Y308392D01*
X422735Y313545D01*
X422735Y321055D01*
X428045Y326365D01*
X435555Y326365D01*
X440865Y321055D01*
X440865Y313545D01*
X435711Y308392D01*
X435609Y308276D01*
X435499Y308166D01*
X435398Y308036D01*
X435290Y307914D01*
X435203Y307786D01*
X435107Y307663D01*
X435023Y307522D01*
X434931Y307387D01*
X434861Y307249D01*
X434782Y307116D01*
X434716Y306965D01*
X434642Y306819D01*
X434589Y306673D01*
X434528Y306531D01*
X434481Y306374D01*
X434426Y306220D01*
X434392Y306069D01*
X434348Y305920D01*
X434322Y305758D01*
X434286Y305598D01*
X434272Y305444D01*
X434247Y305291D01*
X434242Y305127D01*
X434226Y304964D01*
X434231Y304809D01*
X434225Y304654D01*
X434240Y304491D01*
X434245Y304327D01*
X434269Y304174D01*
X434284Y304020D01*
X434319Y303860D01*
X434344Y303698D01*
X434387Y303549D01*
X434421Y303398D01*
X434476Y303243D01*
X434521Y303086D01*
X434583Y302943D01*
X434635Y302797D01*
X434709Y302651D01*
X434774Y302501D01*
X434852Y302367D01*
X434922Y302229D01*
X435014Y302093D01*
X435097Y301952D01*
X435192Y301829D01*
X435279Y301701D01*
X435384Y301581D01*
X435487Y301448D01*
X435606Y301328D01*
X435711Y301208D01*
X440865Y296055D01*
X440865Y288545D01*
X435555Y283235D01*
X428045Y283235D01*
G37*
%LPD*%
%LPC*%
G36*
X275645Y283235D02*
X275645Y283235D01*
X270335Y288545D01*
X270335Y296055D01*
X275489Y301208D01*
X275592Y301325D01*
X275701Y301434D01*
X275764Y301514D01*
X275765Y301516D01*
X275769Y301520D01*
X275802Y301563D01*
X275910Y301686D01*
X275997Y301814D01*
X276093Y301937D01*
X276176Y302078D01*
X276269Y302213D01*
X276339Y302351D01*
X276418Y302484D01*
X276484Y302635D01*
X276558Y302781D01*
X276611Y302926D01*
X276672Y303069D01*
X276719Y303226D01*
X276774Y303380D01*
X276808Y303531D01*
X276852Y303680D01*
X276878Y303842D01*
X276914Y304002D01*
X276928Y304156D01*
X276953Y304309D01*
X276958Y304473D01*
X276974Y304636D01*
X276969Y304791D01*
X276975Y304946D01*
X276960Y305109D01*
X276955Y305273D01*
X276931Y305426D01*
X276916Y305580D01*
X276881Y305740D01*
X276856Y305902D01*
X276813Y306051D01*
X276779Y306202D01*
X276724Y306357D01*
X276679Y306514D01*
X276617Y306657D01*
X276565Y306803D01*
X276491Y306949D01*
X276426Y307099D01*
X276348Y307233D01*
X276278Y307371D01*
X276186Y307507D01*
X276103Y307648D01*
X276008Y307771D01*
X275921Y307899D01*
X275816Y308019D01*
X275713Y308152D01*
X275594Y308272D01*
X275489Y308392D01*
X270335Y313545D01*
X270335Y321055D01*
X275645Y326365D01*
X283155Y326365D01*
X288465Y321055D01*
X288465Y313545D01*
X283311Y308392D01*
X283209Y308276D01*
X283099Y308166D01*
X282998Y308036D01*
X282890Y307914D01*
X282803Y307786D01*
X282707Y307663D01*
X282623Y307522D01*
X282531Y307387D01*
X282461Y307249D01*
X282382Y307116D01*
X282316Y306965D01*
X282242Y306819D01*
X282189Y306673D01*
X282128Y306531D01*
X282081Y306374D01*
X282026Y306220D01*
X281992Y306069D01*
X281948Y305920D01*
X281922Y305758D01*
X281886Y305598D01*
X281872Y305444D01*
X281847Y305291D01*
X281842Y305127D01*
X281826Y304964D01*
X281831Y304809D01*
X281825Y304654D01*
X281840Y304491D01*
X281845Y304327D01*
X281869Y304174D01*
X281884Y304020D01*
X281919Y303860D01*
X281944Y303698D01*
X281987Y303549D01*
X282021Y303398D01*
X282076Y303243D01*
X282121Y303086D01*
X282183Y302943D01*
X282235Y302797D01*
X282309Y302651D01*
X282374Y302501D01*
X282452Y302367D01*
X282522Y302229D01*
X282614Y302093D01*
X282697Y301952D01*
X282792Y301829D01*
X282879Y301701D01*
X282984Y301581D01*
X283087Y301448D01*
X283206Y301328D01*
X283311Y301208D01*
X288465Y296055D01*
X288465Y288545D01*
X283155Y283235D01*
X275645Y283235D01*
G37*
%LPD*%
%LPC*%
G36*
X1709397Y698880D02*
X1709397Y698880D01*
X1702180Y706097D01*
X1702180Y716303D01*
X1709397Y723520D01*
X1719603Y723520D01*
X1726820Y716303D01*
X1726820Y706097D01*
X1719603Y698880D01*
X1709397Y698880D01*
G37*
%LPD*%
%LPC*%
G36*
X76200Y1275279D02*
X76200Y1275279D01*
X67023Y1275279D01*
X71571Y1279827D01*
X71673Y1279943D01*
X71783Y1280052D01*
X71884Y1280182D01*
X71992Y1280305D01*
X72079Y1280433D01*
X72174Y1280555D01*
X72258Y1280696D01*
X72350Y1280832D01*
X72421Y1280970D01*
X72500Y1281103D01*
X72565Y1281253D01*
X72640Y1281399D01*
X72692Y1281545D01*
X72754Y1281687D01*
X72800Y1281844D01*
X72856Y1281999D01*
X72890Y1282150D01*
X72933Y1282298D01*
X72959Y1282460D01*
X72995Y1282620D01*
X73010Y1282775D01*
X73034Y1282927D01*
X73040Y1283091D01*
X73056Y1283255D01*
X73051Y1283409D01*
X73056Y1283564D01*
X73041Y1283727D01*
X73036Y1283891D01*
X73012Y1284044D01*
X72998Y1284199D01*
X72963Y1284359D01*
X72937Y1284521D01*
X72894Y1284670D01*
X72861Y1284821D01*
X72806Y1284975D01*
X72760Y1285133D01*
X72699Y1285275D01*
X72647Y1285421D01*
X72573Y1285567D01*
X72508Y1285718D01*
X72429Y1285851D01*
X72359Y1285990D01*
X72268Y1286125D01*
X72184Y1286267D01*
X72090Y1286389D01*
X72003Y1286518D01*
X71898Y1286637D01*
X71795Y1286771D01*
X71676Y1286890D01*
X71571Y1287010D01*
X67135Y1291445D01*
X67135Y1298955D01*
X72445Y1304265D01*
X79955Y1304265D01*
X85265Y1298955D01*
X85265Y1291445D01*
X80829Y1287010D01*
X80727Y1286894D01*
X80617Y1286784D01*
X80516Y1286655D01*
X80408Y1286532D01*
X80321Y1286404D01*
X80226Y1286282D01*
X80142Y1286141D01*
X80050Y1286005D01*
X79979Y1285867D01*
X79900Y1285734D01*
X79835Y1285584D01*
X79760Y1285438D01*
X79708Y1285292D01*
X79646Y1285150D01*
X79600Y1284992D01*
X79544Y1284838D01*
X79510Y1284687D01*
X79467Y1284538D01*
X79441Y1284377D01*
X79405Y1284217D01*
X79390Y1284062D01*
X79366Y1283909D01*
X79360Y1283745D01*
X79344Y1283582D01*
X79349Y1283428D01*
X79344Y1283273D01*
X79359Y1283109D01*
X79364Y1282945D01*
X79388Y1282792D01*
X79402Y1282638D01*
X79437Y1282478D01*
X79463Y1282316D01*
X79506Y1282167D01*
X79539Y1282016D01*
X79594Y1281862D01*
X79640Y1281704D01*
X79701Y1281562D01*
X79753Y1281416D01*
X79827Y1281270D01*
X79892Y1281119D01*
X79971Y1280985D01*
X80041Y1280847D01*
X80132Y1280711D01*
X80216Y1280570D01*
X80310Y1280447D01*
X80397Y1280319D01*
X80502Y1280199D01*
X80605Y1280066D01*
X80724Y1279947D01*
X80829Y1279827D01*
X85377Y1275279D01*
X76200Y1275279D01*
X76200Y1275279D01*
G37*
%LPD*%
%LPC*%
G36*
X834623Y283463D02*
X834623Y283463D01*
X829563Y288523D01*
X829563Y295677D01*
X834623Y300737D01*
X841777Y300737D01*
X846837Y295677D01*
X846837Y288523D01*
X841777Y283463D01*
X834623Y283463D01*
G37*
%LPD*%
%LPC*%
G36*
X1279123Y67563D02*
X1279123Y67563D01*
X1274063Y72623D01*
X1274063Y79777D01*
X1279123Y84837D01*
X1286277Y84837D01*
X1291337Y79777D01*
X1291337Y72623D01*
X1286277Y67563D01*
X1279123Y67563D01*
G37*
%LPD*%
%LPC*%
G36*
X707623Y804163D02*
X707623Y804163D01*
X702563Y809223D01*
X702563Y816377D01*
X707623Y821437D01*
X714777Y821437D01*
X719837Y816377D01*
X719837Y809223D01*
X714777Y804163D01*
X707623Y804163D01*
G37*
%LPD*%
%LPC*%
G36*
X707623Y80263D02*
X707623Y80263D01*
X702563Y85323D01*
X702563Y92477D01*
X707623Y97537D01*
X714777Y97537D01*
X719837Y92477D01*
X719837Y85323D01*
X714777Y80263D01*
X707623Y80263D01*
G37*
%LPD*%
%LPC*%
G36*
X783823Y80263D02*
X783823Y80263D01*
X778763Y85323D01*
X778763Y92477D01*
X783823Y97537D01*
X790977Y97537D01*
X796037Y92477D01*
X796037Y85323D01*
X790977Y80263D01*
X783823Y80263D01*
G37*
%LPD*%
%LPC*%
G36*
X1075923Y131063D02*
X1075923Y131063D01*
X1070863Y136123D01*
X1070863Y143277D01*
X1075923Y148337D01*
X1083077Y148337D01*
X1088137Y143277D01*
X1088137Y136123D01*
X1083077Y131063D01*
X1075923Y131063D01*
G37*
%LPD*%
%LPC*%
G36*
X936223Y448563D02*
X936223Y448563D01*
X931163Y453623D01*
X931163Y460777D01*
X936223Y465837D01*
X943377Y465837D01*
X948437Y460777D01*
X948437Y453623D01*
X943377Y448563D01*
X936223Y448563D01*
G37*
%LPD*%
%LPC*%
G36*
X1736323Y473963D02*
X1736323Y473963D01*
X1731263Y479023D01*
X1731263Y486177D01*
X1736323Y491237D01*
X1743477Y491237D01*
X1748537Y486177D01*
X1748537Y479023D01*
X1743477Y473963D01*
X1736323Y473963D01*
G37*
%LPD*%
%LPC*%
G36*
X1126723Y131063D02*
X1126723Y131063D01*
X1121663Y136123D01*
X1121663Y143277D01*
X1126723Y148337D01*
X1133877Y148337D01*
X1138937Y143277D01*
X1138937Y136123D01*
X1133877Y131063D01*
X1126723Y131063D01*
G37*
%LPD*%
%LPC*%
G36*
X631423Y80263D02*
X631423Y80263D01*
X626363Y85323D01*
X626363Y92477D01*
X631423Y97537D01*
X638577Y97537D01*
X643637Y92477D01*
X643637Y85323D01*
X638577Y80263D01*
X631423Y80263D01*
G37*
%LPD*%
%LPC*%
G36*
X936223Y372363D02*
X936223Y372363D01*
X931163Y377423D01*
X931163Y384577D01*
X936223Y389637D01*
X943377Y389637D01*
X948437Y384577D01*
X948437Y377423D01*
X943377Y372363D01*
X936223Y372363D01*
G37*
%LPD*%
%LPC*%
G36*
X821923Y613663D02*
X821923Y613663D01*
X816863Y618723D01*
X816863Y625877D01*
X821923Y630937D01*
X829077Y630937D01*
X834137Y625877D01*
X834137Y618723D01*
X829077Y613663D01*
X821923Y613663D01*
G37*
%LPD*%
%LPC*%
G36*
X555223Y80263D02*
X555223Y80263D01*
X550163Y85323D01*
X550163Y92477D01*
X555223Y97537D01*
X562377Y97537D01*
X567437Y92477D01*
X567437Y85323D01*
X562377Y80263D01*
X555223Y80263D01*
G37*
%LPD*%
%LPC*%
G36*
X1482533Y68071D02*
X1482533Y68071D01*
X1477771Y72833D01*
X1477771Y79567D01*
X1482533Y84329D01*
X1489267Y84329D01*
X1494029Y79567D01*
X1494029Y72833D01*
X1489267Y68071D01*
X1482533Y68071D01*
G37*
%LPD*%
%LPC*%
G36*
X1431733Y68071D02*
X1431733Y68071D01*
X1426971Y72833D01*
X1426971Y79567D01*
X1431733Y84329D01*
X1438467Y84329D01*
X1443229Y79567D01*
X1443229Y72833D01*
X1438467Y68071D01*
X1431733Y68071D01*
G37*
%LPD*%
%LPC*%
G36*
X1380933Y68071D02*
X1380933Y68071D01*
X1376171Y72833D01*
X1376171Y79567D01*
X1380933Y84329D01*
X1387667Y84329D01*
X1392429Y79567D01*
X1392429Y72833D01*
X1387667Y68071D01*
X1380933Y68071D01*
G37*
%LPD*%
%LPC*%
G36*
X1165033Y931671D02*
X1165033Y931671D01*
X1160271Y936433D01*
X1160271Y943167D01*
X1165033Y947929D01*
X1171767Y947929D01*
X1176529Y943167D01*
X1176529Y936433D01*
X1171767Y931671D01*
X1165033Y931671D01*
G37*
%LPD*%
%LPC*%
G36*
X1203133Y931671D02*
X1203133Y931671D01*
X1198371Y936433D01*
X1198371Y943167D01*
X1203133Y947929D01*
X1209867Y947929D01*
X1214629Y943167D01*
X1214629Y936433D01*
X1209867Y931671D01*
X1203133Y931671D01*
G37*
%LPD*%
%LPC*%
G36*
X1241233Y804671D02*
X1241233Y804671D01*
X1236471Y809433D01*
X1236471Y816167D01*
X1241233Y820929D01*
X1247967Y820929D01*
X1252729Y816167D01*
X1252729Y809433D01*
X1247967Y804671D01*
X1241233Y804671D01*
G37*
%LPD*%
%LPC*%
G36*
X1203133Y804671D02*
X1203133Y804671D01*
X1198371Y809433D01*
X1198371Y816167D01*
X1203133Y820929D01*
X1209867Y820929D01*
X1214629Y816167D01*
X1214629Y809433D01*
X1209867Y804671D01*
X1203133Y804671D01*
G37*
%LPD*%
%LPC*%
G36*
X1165033Y804671D02*
X1165033Y804671D01*
X1160271Y809433D01*
X1160271Y816167D01*
X1165033Y820929D01*
X1171767Y820929D01*
X1176529Y816167D01*
X1176529Y809433D01*
X1171767Y804671D01*
X1165033Y804671D01*
G37*
%LPD*%
%LPC*%
G36*
X1444433Y703071D02*
X1444433Y703071D01*
X1439671Y707833D01*
X1439671Y714567D01*
X1444433Y719329D01*
X1451167Y719329D01*
X1455929Y714567D01*
X1455929Y707833D01*
X1451167Y703071D01*
X1444433Y703071D01*
G37*
%LPD*%
%LPC*%
G36*
X1571433Y703071D02*
X1571433Y703071D01*
X1566671Y707833D01*
X1566671Y714567D01*
X1571433Y719329D01*
X1578167Y719329D01*
X1582929Y714567D01*
X1582929Y707833D01*
X1578167Y703071D01*
X1571433Y703071D01*
G37*
%LPD*%
%LPC*%
G36*
X1444433Y664971D02*
X1444433Y664971D01*
X1439671Y669733D01*
X1439671Y676467D01*
X1444433Y681229D01*
X1451167Y681229D01*
X1455929Y676467D01*
X1455929Y669733D01*
X1451167Y664971D01*
X1444433Y664971D01*
G37*
%LPD*%
%LPC*%
G36*
X1634933Y614171D02*
X1634933Y614171D01*
X1630171Y618933D01*
X1630171Y625667D01*
X1634933Y630429D01*
X1641667Y630429D01*
X1646429Y625667D01*
X1646429Y618933D01*
X1641667Y614171D01*
X1634933Y614171D01*
G37*
%LPD*%
%LPC*%
G36*
X1596833Y614171D02*
X1596833Y614171D01*
X1592071Y618933D01*
X1592071Y625667D01*
X1596833Y630429D01*
X1603567Y630429D01*
X1608329Y625667D01*
X1608329Y618933D01*
X1603567Y614171D01*
X1596833Y614171D01*
G37*
%LPD*%
%LPC*%
G36*
X1558733Y614171D02*
X1558733Y614171D01*
X1553971Y618933D01*
X1553971Y625667D01*
X1558733Y630429D01*
X1565467Y630429D01*
X1570229Y625667D01*
X1570229Y618933D01*
X1565467Y614171D01*
X1558733Y614171D01*
G37*
%LPD*%
%LPC*%
G36*
X1634933Y487171D02*
X1634933Y487171D01*
X1630171Y491933D01*
X1630171Y498667D01*
X1634933Y503429D01*
X1641667Y503429D01*
X1646429Y498667D01*
X1646429Y491933D01*
X1641667Y487171D01*
X1634933Y487171D01*
G37*
%LPD*%
%LPC*%
G36*
X1596833Y487171D02*
X1596833Y487171D01*
X1592071Y491933D01*
X1592071Y498667D01*
X1596833Y503429D01*
X1603567Y503429D01*
X1608329Y498667D01*
X1608329Y491933D01*
X1603567Y487171D01*
X1596833Y487171D01*
G37*
%LPD*%
%LPC*%
G36*
X1558733Y487171D02*
X1558733Y487171D01*
X1553971Y491933D01*
X1553971Y498667D01*
X1558733Y503429D01*
X1565467Y503429D01*
X1570229Y498667D01*
X1570229Y491933D01*
X1565467Y487171D01*
X1558733Y487171D01*
G37*
%LPD*%
%LPC*%
G36*
X1520633Y487171D02*
X1520633Y487171D01*
X1515871Y491933D01*
X1515871Y498667D01*
X1520633Y503429D01*
X1527367Y503429D01*
X1532129Y498667D01*
X1532129Y491933D01*
X1527367Y487171D01*
X1520633Y487171D01*
G37*
%LPD*%
%LPC*%
G36*
X834833Y461771D02*
X834833Y461771D01*
X830071Y466533D01*
X830071Y473267D01*
X834833Y478029D01*
X841567Y478029D01*
X846329Y473267D01*
X846329Y466533D01*
X841567Y461771D01*
X834833Y461771D01*
G37*
%LPD*%
%LPC*%
G36*
X758633Y461771D02*
X758633Y461771D01*
X753871Y466533D01*
X753871Y473267D01*
X758633Y478029D01*
X765367Y478029D01*
X770129Y473267D01*
X770129Y466533D01*
X765367Y461771D01*
X758633Y461771D01*
G37*
%LPD*%
%LPC*%
G36*
X60133Y436371D02*
X60133Y436371D01*
X55371Y441133D01*
X55371Y447867D01*
X60133Y452629D01*
X66867Y452629D01*
X71629Y447867D01*
X71629Y441133D01*
X66867Y436371D01*
X60133Y436371D01*
G37*
%LPD*%
%LPC*%
G36*
X1634933Y436371D02*
X1634933Y436371D01*
X1630171Y441133D01*
X1630171Y447867D01*
X1634933Y452629D01*
X1641667Y452629D01*
X1646429Y447867D01*
X1646429Y441133D01*
X1641667Y436371D01*
X1634933Y436371D01*
G37*
%LPD*%
%LPC*%
G36*
X1596833Y436371D02*
X1596833Y436371D01*
X1592071Y441133D01*
X1592071Y447867D01*
X1596833Y452629D01*
X1603567Y452629D01*
X1608329Y447867D01*
X1608329Y441133D01*
X1603567Y436371D01*
X1596833Y436371D01*
G37*
%LPD*%
%LPC*%
G36*
X149033Y436371D02*
X149033Y436371D01*
X144271Y441133D01*
X144271Y447867D01*
X149033Y452629D01*
X155767Y452629D01*
X160529Y447867D01*
X160529Y441133D01*
X155767Y436371D01*
X149033Y436371D01*
G37*
%LPD*%
%LPC*%
G36*
X1558733Y436371D02*
X1558733Y436371D01*
X1553971Y441133D01*
X1553971Y447867D01*
X1558733Y452629D01*
X1565467Y452629D01*
X1570229Y447867D01*
X1570229Y441133D01*
X1565467Y436371D01*
X1558733Y436371D01*
G37*
%LPD*%
%LPC*%
G36*
X1520633Y436371D02*
X1520633Y436371D01*
X1515871Y441133D01*
X1515871Y447867D01*
X1520633Y452629D01*
X1527367Y452629D01*
X1532129Y447867D01*
X1532129Y441133D01*
X1527367Y436371D01*
X1520633Y436371D01*
G37*
%LPD*%
%LPC*%
G36*
X1736533Y195071D02*
X1736533Y195071D01*
X1731771Y199833D01*
X1731771Y206567D01*
X1736533Y211329D01*
X1743267Y211329D01*
X1748029Y206567D01*
X1748029Y199833D01*
X1743267Y195071D01*
X1736533Y195071D01*
G37*
%LPD*%
%LPC*%
G36*
X606233Y398271D02*
X606233Y398271D01*
X601471Y403033D01*
X601471Y409767D01*
X606233Y414529D01*
X612967Y414529D01*
X617729Y409767D01*
X617729Y403033D01*
X612967Y398271D01*
X606233Y398271D01*
G37*
%LPD*%
%LPC*%
G36*
X149033Y385571D02*
X149033Y385571D01*
X144271Y390333D01*
X144271Y397067D01*
X149033Y401829D01*
X155767Y401829D01*
X160529Y397067D01*
X160529Y390333D01*
X155767Y385571D01*
X149033Y385571D01*
G37*
%LPD*%
%LPC*%
G36*
X60133Y385571D02*
X60133Y385571D01*
X55371Y390333D01*
X55371Y397067D01*
X60133Y401829D01*
X66867Y401829D01*
X71629Y397067D01*
X71629Y390333D01*
X66867Y385571D01*
X60133Y385571D01*
G37*
%LPD*%
%LPC*%
G36*
X834833Y334771D02*
X834833Y334771D01*
X830071Y339533D01*
X830071Y346267D01*
X834833Y351029D01*
X841567Y351029D01*
X846329Y346267D01*
X846329Y339533D01*
X841567Y334771D01*
X834833Y334771D01*
G37*
%LPD*%
%LPC*%
G36*
X149033Y322071D02*
X149033Y322071D01*
X144271Y326833D01*
X144271Y333567D01*
X149033Y338329D01*
X155767Y338329D01*
X160529Y333567D01*
X160529Y326833D01*
X155767Y322071D01*
X149033Y322071D01*
G37*
%LPD*%
%LPC*%
G36*
X60133Y322071D02*
X60133Y322071D01*
X55371Y326833D01*
X55371Y333567D01*
X60133Y338329D01*
X66867Y338329D01*
X71629Y333567D01*
X71629Y326833D01*
X66867Y322071D01*
X60133Y322071D01*
G37*
%LPD*%
%LPC*%
G36*
X149033Y271271D02*
X149033Y271271D01*
X144271Y276033D01*
X144271Y282767D01*
X149033Y287529D01*
X155767Y287529D01*
X160529Y282767D01*
X160529Y276033D01*
X155767Y271271D01*
X149033Y271271D01*
G37*
%LPD*%
%LPC*%
G36*
X60133Y271271D02*
X60133Y271271D01*
X55371Y276033D01*
X55371Y282767D01*
X60133Y287529D01*
X66867Y287529D01*
X71629Y282767D01*
X71629Y276033D01*
X66867Y271271D01*
X60133Y271271D01*
G37*
%LPD*%
%LPC*%
G36*
X1482533Y195071D02*
X1482533Y195071D01*
X1477771Y199833D01*
X1477771Y206567D01*
X1482533Y211329D01*
X1489267Y211329D01*
X1494029Y206567D01*
X1494029Y199833D01*
X1489267Y195071D01*
X1482533Y195071D01*
G37*
%LPD*%
%LPC*%
G36*
X1685733Y195071D02*
X1685733Y195071D01*
X1680971Y199833D01*
X1680971Y206567D01*
X1685733Y211329D01*
X1692467Y211329D01*
X1697229Y206567D01*
X1697229Y199833D01*
X1692467Y195071D01*
X1685733Y195071D01*
G37*
%LPD*%
%LPC*%
G36*
X1634933Y195071D02*
X1634933Y195071D01*
X1630171Y199833D01*
X1630171Y206567D01*
X1634933Y211329D01*
X1641667Y211329D01*
X1646429Y206567D01*
X1646429Y199833D01*
X1641667Y195071D01*
X1634933Y195071D01*
G37*
%LPD*%
%LPC*%
G36*
X1584133Y195071D02*
X1584133Y195071D01*
X1579371Y199833D01*
X1579371Y206567D01*
X1584133Y211329D01*
X1590867Y211329D01*
X1595629Y206567D01*
X1595629Y199833D01*
X1590867Y195071D01*
X1584133Y195071D01*
G37*
%LPD*%
%LPC*%
G36*
X1533333Y195071D02*
X1533333Y195071D01*
X1528571Y199833D01*
X1528571Y206567D01*
X1533333Y211329D01*
X1540067Y211329D01*
X1544829Y206567D01*
X1544829Y199833D01*
X1540067Y195071D01*
X1533333Y195071D01*
G37*
%LPD*%
%LPC*%
G36*
X1431733Y195071D02*
X1431733Y195071D01*
X1426971Y199833D01*
X1426971Y206567D01*
X1431733Y211329D01*
X1438467Y211329D01*
X1443229Y206567D01*
X1443229Y199833D01*
X1438467Y195071D01*
X1431733Y195071D01*
G37*
%LPD*%
%LPC*%
G36*
X1380933Y195071D02*
X1380933Y195071D01*
X1376171Y199833D01*
X1376171Y206567D01*
X1380933Y211329D01*
X1387667Y211329D01*
X1392429Y206567D01*
X1392429Y199833D01*
X1387667Y195071D01*
X1380933Y195071D01*
G37*
%LPD*%
%LPC*%
G36*
X1685733Y68071D02*
X1685733Y68071D01*
X1680971Y72833D01*
X1680971Y79567D01*
X1685733Y84329D01*
X1692467Y84329D01*
X1697229Y79567D01*
X1697229Y72833D01*
X1692467Y68071D01*
X1685733Y68071D01*
G37*
%LPD*%
%LPC*%
G36*
X1634933Y68071D02*
X1634933Y68071D01*
X1630171Y72833D01*
X1630171Y79567D01*
X1634933Y84329D01*
X1641667Y84329D01*
X1646429Y79567D01*
X1646429Y72833D01*
X1641667Y68071D01*
X1634933Y68071D01*
G37*
%LPD*%
%LPC*%
G36*
X1584133Y68071D02*
X1584133Y68071D01*
X1579371Y72833D01*
X1579371Y79567D01*
X1584133Y84329D01*
X1590867Y84329D01*
X1595629Y79567D01*
X1595629Y72833D01*
X1590867Y68071D01*
X1584133Y68071D01*
G37*
%LPD*%
%LPC*%
G36*
X1533333Y68071D02*
X1533333Y68071D01*
X1528571Y72833D01*
X1528571Y79567D01*
X1533333Y84329D01*
X1540067Y84329D01*
X1544829Y79567D01*
X1544829Y72833D01*
X1540067Y68071D01*
X1533333Y68071D01*
G37*
%LPD*%
%LPC*%
G36*
X1120139Y81279D02*
X1120139Y81279D01*
X1120139Y84620D01*
X1120389Y86199D01*
X1120884Y87720D01*
X1121610Y89145D01*
X1122550Y90439D01*
X1123681Y91570D01*
X1124818Y92396D01*
X1124818Y92397D01*
X1124819Y92397D01*
X1124975Y92510D01*
X1125221Y92636D01*
X1125221Y81279D01*
X1120139Y81279D01*
G37*
%LPD*%
%LPC*%
G36*
X1124975Y59890D02*
X1124975Y59890D01*
X1123681Y60830D01*
X1122550Y61961D01*
X1121610Y63255D01*
X1120884Y64680D01*
X1120389Y66201D01*
X1120139Y67780D01*
X1120139Y71121D01*
X1125221Y71121D01*
X1125221Y59764D01*
X1124975Y59890D01*
G37*
%LPD*%
%LPC*%
G36*
X81279Y1265121D02*
X81279Y1265121D01*
X85377Y1265121D01*
X81279Y1261023D01*
X81279Y1265121D01*
G37*
%LPD*%
%LPC*%
G36*
X67023Y1265121D02*
X67023Y1265121D01*
X71121Y1265121D01*
X71121Y1261023D01*
X67023Y1265121D01*
G37*
%LPD*%
%LPC*%
G36*
X424179Y1490979D02*
X424179Y1490979D01*
X424179Y1494472D01*
X427672Y1490979D01*
X424179Y1490979D01*
G37*
%LPD*%
%LPC*%
G36*
X830579Y551179D02*
X830579Y551179D01*
X830579Y554672D01*
X834072Y551179D01*
X830579Y551179D01*
G37*
%LPD*%
%LPC*%
G36*
X1287779Y157479D02*
X1287779Y157479D01*
X1287779Y160972D01*
X1291272Y157479D01*
X1287779Y157479D01*
G37*
%LPD*%
%LPC*%
G36*
X716279Y741679D02*
X716279Y741679D01*
X716279Y745172D01*
X719772Y741679D01*
X716279Y741679D01*
G37*
%LPD*%
%LPC*%
G36*
X1821179Y487679D02*
X1821179Y487679D01*
X1821179Y491172D01*
X1824672Y487679D01*
X1821179Y487679D01*
G37*
%LPD*%
%LPC*%
G36*
X410528Y1490979D02*
X410528Y1490979D01*
X414021Y1494472D01*
X414021Y1490979D01*
X410528Y1490979D01*
G37*
%LPD*%
%LPC*%
G36*
X424179Y1480821D02*
X424179Y1480821D01*
X427672Y1480821D01*
X424179Y1477328D01*
X424179Y1480821D01*
G37*
%LPD*%
%LPC*%
G36*
X716279Y731521D02*
X716279Y731521D01*
X719772Y731521D01*
X716279Y728028D01*
X716279Y731521D01*
G37*
%LPD*%
%LPC*%
G36*
X702628Y741679D02*
X702628Y741679D01*
X706121Y745172D01*
X706121Y741679D01*
X702628Y741679D01*
G37*
%LPD*%
%LPC*%
G36*
X830579Y541021D02*
X830579Y541021D01*
X834072Y541021D01*
X830579Y537528D01*
X830579Y541021D01*
G37*
%LPD*%
%LPC*%
G36*
X1821179Y477521D02*
X1821179Y477521D01*
X1824672Y477521D01*
X1821179Y474028D01*
X1821179Y477521D01*
G37*
%LPD*%
%LPC*%
G36*
X816928Y551179D02*
X816928Y551179D01*
X820421Y554672D01*
X820421Y551179D01*
X816928Y551179D01*
G37*
%LPD*%
%LPC*%
G36*
X1274128Y157479D02*
X1274128Y157479D01*
X1277621Y160972D01*
X1277621Y157479D01*
X1274128Y157479D01*
G37*
%LPD*%
%LPC*%
G36*
X1287779Y147321D02*
X1287779Y147321D01*
X1291272Y147321D01*
X1287779Y143828D01*
X1287779Y147321D01*
G37*
%LPD*%
%LPC*%
G36*
X1807528Y487679D02*
X1807528Y487679D01*
X1811021Y491172D01*
X1811021Y487679D01*
X1807528Y487679D01*
G37*
%LPD*%
%LPC*%
G36*
X1807528Y477521D02*
X1807528Y477521D01*
X1811021Y477521D01*
X1811021Y474028D01*
X1807528Y477521D01*
G37*
%LPD*%
%LPC*%
G36*
X816928Y541021D02*
X816928Y541021D01*
X820421Y541021D01*
X820421Y537528D01*
X816928Y541021D01*
G37*
%LPD*%
%LPC*%
G36*
X702628Y731521D02*
X702628Y731521D01*
X706121Y731521D01*
X706121Y728028D01*
X702628Y731521D01*
G37*
%LPD*%
%LPC*%
G36*
X410528Y1480821D02*
X410528Y1480821D01*
X414021Y1480821D01*
X414021Y1477328D01*
X410528Y1480821D01*
G37*
%LPD*%
%LPC*%
G36*
X1274128Y147321D02*
X1274128Y147321D01*
X1277621Y147321D01*
X1277621Y143828D01*
X1274128Y147321D01*
G37*
%LPD*%
%LPC*%
G36*
X1643379Y322579D02*
X1643379Y322579D01*
X1643379Y325353D01*
X1646153Y322579D01*
X1643379Y322579D01*
G37*
%LPD*%
%LPC*%
G36*
X1579879Y678179D02*
X1579879Y678179D01*
X1579879Y680953D01*
X1582653Y678179D01*
X1579879Y678179D01*
G37*
%LPD*%
%LPC*%
G36*
X1567179Y322579D02*
X1567179Y322579D01*
X1567179Y325353D01*
X1569953Y322579D01*
X1567179Y322579D01*
G37*
%LPD*%
%LPC*%
G36*
X1529079Y322579D02*
X1529079Y322579D01*
X1529079Y325353D01*
X1531853Y322579D01*
X1529079Y322579D01*
G37*
%LPD*%
%LPC*%
G36*
X1605279Y322579D02*
X1605279Y322579D01*
X1605279Y325353D01*
X1608053Y322579D01*
X1605279Y322579D01*
G37*
%LPD*%
%LPC*%
G36*
X1643379Y312421D02*
X1643379Y312421D01*
X1646153Y312421D01*
X1643379Y309647D01*
X1643379Y312421D01*
G37*
%LPD*%
%LPC*%
G36*
X1567179Y312421D02*
X1567179Y312421D01*
X1569953Y312421D01*
X1567179Y309647D01*
X1567179Y312421D01*
G37*
%LPD*%
%LPC*%
G36*
X1566947Y678179D02*
X1566947Y678179D01*
X1569721Y680953D01*
X1569721Y678179D01*
X1566947Y678179D01*
G37*
%LPD*%
%LPC*%
G36*
X1579879Y668021D02*
X1579879Y668021D01*
X1582653Y668021D01*
X1579879Y665247D01*
X1579879Y668021D01*
G37*
%LPD*%
%LPC*%
G36*
X1592347Y322579D02*
X1592347Y322579D01*
X1595121Y325353D01*
X1595121Y322579D01*
X1592347Y322579D01*
G37*
%LPD*%
%LPC*%
G36*
X1554247Y322579D02*
X1554247Y322579D01*
X1557021Y325353D01*
X1557021Y322579D01*
X1554247Y322579D01*
G37*
%LPD*%
%LPC*%
G36*
X1516147Y322579D02*
X1516147Y322579D01*
X1518921Y325353D01*
X1518921Y322579D01*
X1516147Y322579D01*
G37*
%LPD*%
%LPC*%
G36*
X1529079Y312421D02*
X1529079Y312421D01*
X1531853Y312421D01*
X1529079Y309647D01*
X1529079Y312421D01*
G37*
%LPD*%
%LPC*%
G36*
X1605279Y312421D02*
X1605279Y312421D01*
X1608053Y312421D01*
X1605279Y309647D01*
X1605279Y312421D01*
G37*
%LPD*%
%LPC*%
G36*
X1630447Y322579D02*
X1630447Y322579D01*
X1633221Y325353D01*
X1633221Y322579D01*
X1630447Y322579D01*
G37*
%LPD*%
%LPC*%
G36*
X1592347Y312421D02*
X1592347Y312421D01*
X1595121Y312421D01*
X1595121Y309647D01*
X1592347Y312421D01*
G37*
%LPD*%
%LPC*%
G36*
X1630447Y312421D02*
X1630447Y312421D01*
X1633221Y312421D01*
X1633221Y309647D01*
X1630447Y312421D01*
G37*
%LPD*%
%LPC*%
G36*
X1554247Y312421D02*
X1554247Y312421D01*
X1557021Y312421D01*
X1557021Y309647D01*
X1554247Y312421D01*
G37*
%LPD*%
%LPC*%
G36*
X1566947Y668021D02*
X1566947Y668021D01*
X1569721Y668021D01*
X1569721Y665247D01*
X1566947Y668021D01*
G37*
%LPD*%
%LPC*%
G36*
X1516147Y312421D02*
X1516147Y312421D01*
X1518921Y312421D01*
X1518921Y309647D01*
X1516147Y312421D01*
G37*
%LPD*%
D10*
X558800Y88900D03*
X635000Y88900D03*
D11*
X838200Y292100D03*
X762000Y292100D03*
D12*
X711200Y812800D03*
X711200Y736600D03*
D10*
X939800Y177800D03*
X1016000Y177800D03*
D13*
X1282700Y76200D03*
X1282700Y152400D03*
D10*
X1739900Y482600D03*
X1816100Y482600D03*
X711200Y88900D03*
X787400Y88900D03*
X342900Y1485900D03*
X419100Y1485900D03*
D13*
X939800Y381000D03*
X939800Y457200D03*
X825500Y685800D03*
X825500Y762000D03*
D14*
X63500Y279400D03*
X63500Y330200D03*
X152400Y279400D03*
X152400Y330200D03*
D15*
X152400Y444500D03*
X152400Y393700D03*
X63500Y444500D03*
X63500Y393700D03*
D12*
X825500Y622300D03*
X825500Y546100D03*
X1130300Y215900D03*
X1130300Y139700D03*
X1079500Y215900D03*
X1079500Y139700D03*
D16*
X1955800Y83820D02*
X1955800Y68580D01*
X1930400Y68580D02*
X1930400Y83820D01*
X1905000Y83820D02*
X1905000Y68580D01*
X1879600Y68580D02*
X1879600Y83820D01*
X1854200Y83820D02*
X1854200Y68580D01*
D17*
X800100Y139700D03*
X825500Y139700D03*
X825500Y165100D03*
X571500Y139700D03*
X596900Y139700D03*
X596900Y165100D03*
X1447800Y673100D03*
X1574800Y673100D03*
D18*
X1574800Y711200D03*
X1447800Y711200D03*
D14*
X609600Y279400D03*
X609600Y406400D03*
X673100Y279400D03*
X673100Y406400D03*
D15*
X1600200Y444500D03*
X1600200Y317500D03*
X1600200Y622300D03*
X1600200Y495300D03*
X1638300Y444500D03*
X1638300Y317500D03*
X1638300Y622300D03*
X1638300Y495300D03*
X1168400Y939800D03*
X1168400Y812800D03*
X1206500Y939800D03*
X1206500Y812800D03*
D14*
X1485900Y76200D03*
X1485900Y203200D03*
X1435100Y76200D03*
X1435100Y203200D03*
X1536700Y76200D03*
X1536700Y203200D03*
X1587500Y76200D03*
X1587500Y203200D03*
X1638300Y76200D03*
X1638300Y203200D03*
D15*
X1739900Y203200D03*
X1739900Y76200D03*
X1524000Y444500D03*
X1524000Y317500D03*
X1524000Y622300D03*
X1524000Y495300D03*
X1562100Y444500D03*
X1562100Y317500D03*
X1562100Y622300D03*
X1562100Y495300D03*
X1244600Y939800D03*
X1244600Y812800D03*
D14*
X1384300Y76200D03*
X1384300Y203200D03*
D15*
X1689100Y203200D03*
X1689100Y76200D03*
D14*
X838200Y342900D03*
X838200Y469900D03*
X762000Y342900D03*
X762000Y469900D03*
D16*
X1130300Y83820D02*
X1130300Y68580D01*
X1155700Y68580D02*
X1155700Y83820D01*
X1181100Y83820D02*
X1181100Y68580D01*
D19*
X1714500Y711200D03*
D20*
X774700Y670878D02*
X774700Y649923D01*
X774700Y802323D02*
X774700Y823278D01*
X876300Y505778D02*
X876300Y484823D01*
X876300Y637223D02*
X876300Y658178D01*
D21*
X508000Y431600D03*
X508000Y406600D03*
X431800Y431600D03*
X431800Y406600D03*
X355600Y431600D03*
X355600Y406600D03*
X279400Y431600D03*
X279400Y406600D03*
D22*
X279400Y292300D03*
X279400Y317300D03*
X355600Y292300D03*
X355600Y317300D03*
X431800Y292300D03*
X431800Y317300D03*
X508000Y292300D03*
X508000Y317300D03*
D21*
X76200Y1295200D03*
X76200Y1270200D03*
D23*
X-304800Y1371600D03*
X-304800Y647700D03*
D24*
X1117600Y508000D03*
D25*
X774700Y1066800D03*
D26*
X1168400Y584200D03*
X1193800Y546100D03*
D25*
X660400Y1104900D03*
D26*
X939800Y508000D03*
D27*
X876300Y571500D02*
X736600Y571500D01*
X342900Y965200D01*
X342900Y1485900D01*
X876300Y571500D02*
X939800Y508000D01*
D28*
X1739900Y76200D02*
X1854200Y190500D01*
X1854200Y749300D01*
X1663700Y939800D01*
X1244600Y939800D01*
D26*
X1003300Y685800D03*
D27*
X825500Y685800D01*
D26*
X812800Y1117600D03*
D27*
X952500Y977900D02*
X952500Y800100D01*
X952500Y977900D02*
X812800Y1117600D01*
D26*
X952500Y800100D03*
D27*
X914400Y203200D02*
X939800Y177800D01*
X685800Y203200D02*
X609600Y279400D01*
X685800Y203200D02*
X914400Y203200D01*
X723900Y228600D02*
X673100Y279400D01*
X965200Y228600D02*
X1016000Y177800D01*
X965200Y228600D02*
X723900Y228600D01*
D26*
X965200Y520700D03*
D27*
X876300Y609600D01*
X876300Y647700D01*
D26*
X977900Y762000D03*
D27*
X825500Y762000D01*
D26*
X1168400Y635000D03*
D27*
X1206500Y596900D01*
X1206500Y254000D01*
X1168400Y215900D01*
X1130300Y215900D01*
D26*
X1168400Y660400D03*
D27*
X1219200Y609600D01*
X1219200Y215900D01*
X1193800Y190500D01*
X1104900Y190500D01*
X1079500Y215900D01*
D26*
X711200Y1143000D03*
D27*
X711200Y977900D01*
X914400Y774700D01*
D26*
X914400Y774700D03*
X1003300Y419100D03*
D27*
X1003300Y469900D01*
X558800Y1104900D02*
X723900Y1270000D01*
D26*
X723900Y1270000D03*
D27*
X876300Y596900D02*
X1003300Y469900D01*
X558800Y787400D02*
X558800Y1104900D01*
X558800Y787400D02*
X749300Y596900D01*
X876300Y596900D01*
D28*
X520700Y305000D02*
X508000Y292300D01*
X520700Y305000D02*
X520700Y419100D01*
X520500Y419100D01*
X508000Y431600D01*
D26*
X889000Y241300D03*
D27*
X838200Y241300D01*
X673100Y406400D01*
D26*
X1079500Y685800D03*
D27*
X1054100Y685800D01*
X1016000Y647700D01*
X1016000Y304800D01*
X952500Y241300D01*
X889000Y241300D01*
D26*
X1371600Y622300D03*
D27*
X1524000Y622300D01*
D26*
X952500Y508000D03*
D27*
X876300Y584200D01*
X533400Y800100D02*
X533400Y1308100D01*
D26*
X533400Y1308100D03*
D27*
X749300Y584200D02*
X876300Y584200D01*
X749300Y584200D02*
X533400Y800100D01*
D26*
X723900Y1282700D03*
D27*
X736600Y1270000D02*
X736600Y977900D01*
X927100Y787400D01*
X736600Y1270000D02*
X723900Y1282700D01*
D26*
X927100Y787400D03*
X1028700Y63500D03*
D27*
X1041400Y647700D02*
X1066800Y673100D01*
D26*
X1066800Y673100D03*
D27*
X1041400Y647700D02*
X1041400Y76200D01*
X1028700Y63500D01*
M02*
