M48
;GenerationSoftware,Autodesk,EAGLE,9.3.0*%
;CreationDate,2019-10-01T19:10:03Z*%
FMAT,2
ICI,OFF
METRIC,TZ,000.000
T10C0.350
T9C0.813
T8C0.914
T7C1.000
T6C1.016
T5C1.194
T4C1.397
T3C1.778
T2C2.540
T1C3.810
%
G90
M71
T1
X-30480Y64770
X-30480Y137160
T2
X111760Y50800
T3
X77470Y106680
X66040Y110490
T4
X87630Y64770
X87630Y49530
X77470Y81280
X77470Y66040
T5
X171450Y71120
T6
X113030Y7620
X195580Y7620
X193040Y7620
X190500Y7620
X187960Y7620
X185420Y7620
X118110Y7620
X115570Y7620
T7
X27940Y31730
X27940Y29230
X27940Y40660
X50800Y29230
X43180Y31730
X43180Y29230
X35560Y31730
X35560Y29230
X35560Y40660
X35560Y43160
X43180Y40660
X43180Y43160
X50800Y43160
X7620Y127020
X27940Y43160
X7620Y129520
X50800Y31730
X50800Y40660
T8
X34290Y148590
X41910Y148590
X93980Y38100
X93980Y45720
X82550Y68580
X82550Y76200
X82550Y62230
X82550Y54610
X113030Y21590
X113030Y13970
X107950Y21590
X107950Y13970
X173990Y48260
X55880Y8890
X63500Y8890
X83820Y29210
X76200Y29210
X71120Y81280
X71120Y73660
X93980Y17780
X101600Y17780
X128270Y7620
X128270Y15240
X181610Y48260
X71120Y8890
X78740Y8890
T9
X160020Y49530
X82550Y16510
X82550Y13970
X80010Y13970
X6350Y39370
X144780Y71120
X6350Y44450
X15240Y39370
X15240Y44450
X15240Y33020
X152400Y62230
X15240Y27940
X6350Y33020
X60960Y27940
X60960Y40640
X67310Y27940
X67310Y40640
X160020Y44450
X160020Y31750
X160020Y62230
X6350Y27940
X163830Y44450
X163830Y31750
X163830Y62230
X163830Y49530
X116840Y93980
X116840Y81280
X120650Y93980
X120650Y81280
X148590Y7620
X148590Y20320
X143510Y7620
X143510Y20320
X153670Y7620
X153670Y20320
X158750Y7620
X158750Y20320
X163830Y7620
X163830Y20320
X173990Y20320
X173990Y7620
X152400Y44450
X152400Y31750
X124460Y81280
X152400Y49530
X156210Y44450
X156210Y31750
X156210Y62230
X156210Y49530
X124460Y93980
X157480Y71120
X138430Y7620
X138430Y20320
X168910Y20320
X168910Y7620
X83820Y34290
X83820Y46990
X76200Y34290
X76200Y46990
X157480Y67310
X144780Y67310
X59690Y16510
X59690Y13970
X57150Y13970
T10
X119380Y54610
X93980Y50800
X100330Y68580
X81280Y111760
X95250Y80010
X96520Y52070
X97790Y76200
X116840Y63500
X116840Y66040
X91440Y77470
X100330Y41910
X71120Y114300
X116840Y58420
X106680Y67310
X102870Y6350
X92710Y78740
X72390Y128270
X53340Y130810
X95250Y50800
X137160Y62230
X88900Y24130
X72390Y127000
X107950Y68580
M30