M48
;GenerationSoftware,Autodesk,EAGLE,9.3.0*%
;CreationDate,2019-10-03T14:41:57Z*%
FMAT,2
ICI,OFF
METRIC,TZ,000.000
T5C0.350
T4C0.610
T3C0.813
T2C1.016
T1C2.900
%
G90
M71
T1
X10720Y74930
X7620Y70130
X4620Y74930
T2
X160020Y5080
X165100Y52070
X165100Y54610
X165100Y57150
X165100Y59690
X165100Y62230
X165100Y64770
X165100Y67310
X165100Y69850
X165100Y19050
X165100Y21590
X165100Y24130
X165100Y26670
X165100Y29210
X165100Y31750
X165100Y34290
X165100Y36830
X25400Y76200
X22860Y76200
X5080Y60960
X57150Y5080
X54610Y5080
X52070Y5080
X93980Y55880
X49530Y76200
X93980Y58420
X93980Y60960
X93980Y63500
X93980Y22860
X93980Y25400
X93980Y27940
X93980Y30480
X85090Y76200
X87630Y76200
X90170Y76200
X92710Y76200
X60960Y76200
X63500Y76200
X66040Y76200
X68580Y76200
X31750Y76200
X7620Y5080
X10160Y5080
X12700Y5080
X15240Y5080
X17780Y5080
X20320Y76200
X54610Y76200
X34290Y76200
X36830Y76200
X39370Y76200
X52070Y76200
X5080Y26670
X5080Y29210
X5080Y31750
X5080Y34290
X60960Y24130
X58420Y24130
X55880Y24130
X5080Y39370
X5080Y41910
X5080Y44450
X44450Y76200
X46990Y76200
X34290Y5080
X31750Y5080
X29210Y5080
X26670Y5080
X5080Y55880
X5080Y58420
X149860Y5080
X152400Y5080
X154940Y5080
X157480Y5080
T3
X86360Y43180
X20320Y25400
X20320Y27940
X54610Y59690
X57150Y59690
X39370Y25400
X41910Y25400
X85090Y35560
X85090Y38100
X33020Y57150
X33020Y59690
X57150Y16510
X57150Y19050
X45720Y19050
X48260Y19050
X12700Y64770
X15240Y64770
X10160Y46990
X17780Y46990
X80010Y8890
X10160Y50800
X17780Y50800
X10160Y55880
X17780Y55880
X10160Y59690
X17780Y59690
X43180Y13970
X50800Y13970
X43180Y10160
X50800Y10160
X80010Y13970
X87630Y13970
X87630Y8890
X105410Y72390
X105410Y74930
X110490Y72390
X110490Y74930
X118110Y41910
X118110Y44450
X123190Y41910
X123190Y44450
X107950Y41910
X107950Y44450
X113030Y41910
X113030Y44450
X115570Y72390
X115570Y74930
X120650Y72390
X120650Y74930
X154940Y48260
X157480Y48260
X154940Y52070
X157480Y52070
X154940Y55880
X157480Y55880
X154940Y59690
X157480Y59690
X154940Y63500
X157480Y63500
X154940Y67310
X157480Y67310
X154940Y71120
X157480Y71120
X154940Y74930
X157480Y74930
X154940Y13970
X154940Y17780
X157480Y17780
X154940Y21590
X157480Y21590
X154940Y25400
X157480Y25400
X154940Y29210
X157480Y29210
X154940Y33020
X157480Y33020
X154940Y36830
X157480Y36830
X154940Y40640
X157480Y40640
X139700Y13970
X147320Y13970
X139700Y17780
X147320Y17780
X139700Y21590
X147320Y21590
X139700Y25400
X147320Y25400
X139700Y29210
X147320Y29210
X139700Y33020
X147320Y33020
X157480Y13970
X147320Y36830
X139700Y40640
X147320Y40640
X139700Y48260
X147320Y48260
X139700Y52070
X147320Y52070
X139700Y55880
X147320Y55880
X139700Y59690
X147320Y59690
X139700Y63500
X147320Y63500
X139700Y67310
X147320Y67310
X139700Y71120
X147320Y71120
X139700Y74930
X147320Y74930
X83820Y43180
X12700Y43180
X15240Y43180
X86360Y49530
X83820Y49530
X139700Y36830
T4
X74930Y44450
X74930Y39370
T5
X52070Y36830
X36830Y38100
X34290Y33020
X100330Y62230
X100330Y55880
X110490Y31750
X110490Y27940
X110490Y34290
X77470Y30480
X62230Y45720
X38100Y39370
X49530Y39370
X38100Y40640
X24130Y16510
X46990Y36830
X46990Y43180
X24130Y11430
X57150Y29210
X55880Y29210
X113030Y27940
X105410Y54610
X54610Y39370
M30