G04 EAGLE Gerber RS-274X export*
G75*
%MOMM*%
%FSLAX34Y34*%
%LPD*%
%INBottom Copper*%
%IPPOS*%
%AMOC8*
5,1,8,0,0,1.08239X$1,22.5*%
G01*
%ADD10P,1.429621X8X292.500000*%
%ADD11P,1.429621X8X112.500000*%
%ADD12P,1.429621X8X22.500000*%
%ADD13C,1.524000*%
%ADD14P,1.429621X8X202.500000*%
%ADD15C,2.000000*%
%ADD16C,1.117600*%
%ADD17C,0.152400*%
%ADD18C,0.756400*%

G36*
X806778Y-71116D02*
X806778Y-71116D01*
X806797Y-71118D01*
X806899Y-71096D01*
X807001Y-71080D01*
X807018Y-71070D01*
X807038Y-71066D01*
X807127Y-71013D01*
X807218Y-70964D01*
X807232Y-70950D01*
X807249Y-70940D01*
X807316Y-70861D01*
X807388Y-70786D01*
X807396Y-70768D01*
X807409Y-70753D01*
X807448Y-70657D01*
X807491Y-70563D01*
X807493Y-70543D01*
X807501Y-70525D01*
X807519Y-70358D01*
X807519Y562358D01*
X807516Y562378D01*
X807518Y562397D01*
X807496Y562499D01*
X807480Y562601D01*
X807470Y562618D01*
X807466Y562638D01*
X807413Y562727D01*
X807364Y562818D01*
X807350Y562832D01*
X807340Y562849D01*
X807261Y562916D01*
X807186Y562988D01*
X807168Y562996D01*
X807153Y563009D01*
X807057Y563048D01*
X806963Y563091D01*
X806943Y563093D01*
X806925Y563101D01*
X806758Y563119D01*
X5842Y563119D01*
X5822Y563116D01*
X5803Y563118D01*
X5701Y563096D01*
X5599Y563080D01*
X5582Y563070D01*
X5562Y563066D01*
X5473Y563013D01*
X5382Y562964D01*
X5368Y562950D01*
X5351Y562940D01*
X5284Y562861D01*
X5212Y562786D01*
X5204Y562768D01*
X5191Y562753D01*
X5152Y562657D01*
X5109Y562563D01*
X5107Y562543D01*
X5099Y562525D01*
X5081Y562358D01*
X5081Y-70358D01*
X5084Y-70378D01*
X5082Y-70397D01*
X5104Y-70499D01*
X5120Y-70601D01*
X5130Y-70618D01*
X5134Y-70638D01*
X5187Y-70727D01*
X5236Y-70818D01*
X5250Y-70832D01*
X5260Y-70849D01*
X5339Y-70916D01*
X5414Y-70988D01*
X5432Y-70996D01*
X5447Y-71009D01*
X5543Y-71048D01*
X5637Y-71091D01*
X5657Y-71093D01*
X5675Y-71101D01*
X5842Y-71119D01*
X806758Y-71119D01*
X806778Y-71116D01*
G37*
%LPC*%
G36*
X745512Y155955D02*
X745512Y155955D01*
X740155Y161312D01*
X740155Y169060D01*
X740176Y169127D01*
X740175Y169147D01*
X740180Y169167D01*
X740172Y169270D01*
X740170Y169373D01*
X740163Y169392D01*
X740161Y169412D01*
X740121Y169507D01*
X740085Y169604D01*
X740073Y169620D01*
X740065Y169638D01*
X739960Y169769D01*
X735455Y174274D01*
X735381Y174327D01*
X735312Y174387D01*
X735281Y174399D01*
X735255Y174418D01*
X735168Y174445D01*
X735083Y174479D01*
X735042Y174483D01*
X735020Y174490D01*
X734988Y174489D01*
X734917Y174497D01*
X729273Y174497D01*
X729202Y174486D01*
X729131Y174484D01*
X729082Y174466D01*
X729030Y174458D01*
X728967Y174424D01*
X728900Y174399D01*
X728859Y174367D01*
X728813Y174342D01*
X728764Y174290D01*
X728708Y174246D01*
X728679Y174202D01*
X728644Y174164D01*
X728613Y174099D01*
X728575Y174039D01*
X728562Y173988D01*
X728540Y173941D01*
X728532Y173870D01*
X728515Y173800D01*
X728519Y173748D01*
X728513Y173697D01*
X728528Y173626D01*
X728534Y173555D01*
X728554Y173507D01*
X728565Y173456D01*
X728602Y173395D01*
X728630Y173329D01*
X728675Y173273D01*
X728691Y173245D01*
X728709Y173230D01*
X728735Y173198D01*
X733045Y168888D01*
X733045Y166623D01*
X724662Y166623D01*
X724642Y166620D01*
X724623Y166622D01*
X724521Y166600D01*
X724419Y166583D01*
X724402Y166574D01*
X724382Y166570D01*
X724293Y166517D01*
X724202Y166468D01*
X724188Y166454D01*
X724171Y166444D01*
X724104Y166365D01*
X724033Y166290D01*
X724024Y166272D01*
X724011Y166257D01*
X723973Y166161D01*
X723929Y166067D01*
X723927Y166047D01*
X723919Y166029D01*
X723901Y165862D01*
X723901Y165099D01*
X723899Y165099D01*
X723899Y165862D01*
X723896Y165882D01*
X723898Y165901D01*
X723876Y166003D01*
X723859Y166105D01*
X723850Y166122D01*
X723846Y166142D01*
X723793Y166231D01*
X723744Y166322D01*
X723730Y166336D01*
X723720Y166353D01*
X723641Y166420D01*
X723566Y166491D01*
X723548Y166500D01*
X723533Y166513D01*
X723437Y166552D01*
X723343Y166595D01*
X723323Y166597D01*
X723305Y166605D01*
X723138Y166623D01*
X714755Y166623D01*
X714755Y168888D01*
X719065Y173198D01*
X719107Y173256D01*
X719156Y173308D01*
X719178Y173355D01*
X719209Y173397D01*
X719230Y173466D01*
X719260Y173531D01*
X719266Y173583D01*
X719281Y173633D01*
X719279Y173704D01*
X719287Y173775D01*
X719276Y173826D01*
X719275Y173878D01*
X719250Y173946D01*
X719235Y174016D01*
X719208Y174061D01*
X719190Y174109D01*
X719145Y174165D01*
X719109Y174227D01*
X719069Y174261D01*
X719037Y174301D01*
X718976Y174340D01*
X718922Y174387D01*
X718873Y174406D01*
X718830Y174434D01*
X718760Y174452D01*
X718694Y174479D01*
X718622Y174487D01*
X718591Y174495D01*
X718568Y174493D01*
X718527Y174497D01*
X673927Y174497D01*
X673812Y174478D01*
X673696Y174461D01*
X673690Y174459D01*
X673684Y174458D01*
X673582Y174403D01*
X673477Y174350D01*
X673472Y174345D01*
X673467Y174342D01*
X673387Y174258D01*
X673305Y174174D01*
X673301Y174168D01*
X673298Y174164D01*
X673290Y174147D01*
X673224Y174027D01*
X672879Y173195D01*
X670593Y170909D01*
X667605Y169671D01*
X653195Y169671D01*
X650207Y170909D01*
X647921Y173195D01*
X646683Y176183D01*
X646683Y179417D01*
X647921Y182405D01*
X648984Y183468D01*
X648996Y183484D01*
X649012Y183497D01*
X649068Y183584D01*
X649128Y183668D01*
X649134Y183687D01*
X649145Y183704D01*
X649170Y183804D01*
X649200Y183903D01*
X649200Y183923D01*
X649205Y183942D01*
X649197Y184045D01*
X649194Y184149D01*
X649187Y184168D01*
X649186Y184188D01*
X649145Y184282D01*
X649110Y184380D01*
X649097Y184396D01*
X649089Y184414D01*
X648984Y184545D01*
X621155Y212374D01*
X621081Y212427D01*
X621012Y212487D01*
X620981Y212499D01*
X620955Y212518D01*
X620868Y212545D01*
X620783Y212579D01*
X620742Y212583D01*
X620720Y212590D01*
X620688Y212589D01*
X620617Y212597D01*
X532032Y212597D01*
X522575Y222054D01*
X522501Y222107D01*
X522432Y222167D01*
X522401Y222179D01*
X522375Y222198D01*
X522288Y222225D01*
X522203Y222259D01*
X522162Y222263D01*
X522140Y222270D01*
X522108Y222269D01*
X522037Y222277D01*
X519442Y222277D01*
X517118Y223240D01*
X515340Y225018D01*
X514377Y227342D01*
X514377Y229858D01*
X515340Y232182D01*
X517118Y233960D01*
X517810Y234247D01*
X517871Y234284D01*
X517937Y234314D01*
X517975Y234349D01*
X518019Y234376D01*
X518065Y234432D01*
X518118Y234480D01*
X518143Y234526D01*
X518176Y234566D01*
X518202Y234633D01*
X518236Y234696D01*
X518246Y234747D01*
X518264Y234795D01*
X518267Y234867D01*
X518280Y234938D01*
X518273Y234989D01*
X518275Y235041D01*
X518255Y235110D01*
X518244Y235181D01*
X518221Y235227D01*
X518206Y235277D01*
X518165Y235336D01*
X518133Y235400D01*
X518096Y235437D01*
X518066Y235479D01*
X518008Y235522D01*
X517957Y235572D01*
X517894Y235607D01*
X517869Y235626D01*
X517846Y235633D01*
X517810Y235653D01*
X517118Y235940D01*
X515340Y237718D01*
X514377Y240042D01*
X514377Y242558D01*
X515340Y244882D01*
X517118Y246660D01*
X519442Y247623D01*
X521958Y247623D01*
X524282Y246660D01*
X526060Y244882D01*
X527023Y242558D01*
X527023Y239963D01*
X527037Y239873D01*
X527045Y239782D01*
X527057Y239753D01*
X527062Y239721D01*
X527105Y239640D01*
X527141Y239556D01*
X527167Y239524D01*
X527178Y239503D01*
X527201Y239481D01*
X527246Y239425D01*
X534545Y232126D01*
X534619Y232073D01*
X534688Y232013D01*
X534719Y232001D01*
X534745Y231982D01*
X534832Y231955D01*
X534917Y231921D01*
X534958Y231917D01*
X534980Y231910D01*
X535012Y231911D01*
X535083Y231903D01*
X646873Y231903D01*
X646988Y231922D01*
X647104Y231939D01*
X647110Y231941D01*
X647116Y231942D01*
X647218Y231997D01*
X647323Y232050D01*
X647328Y232055D01*
X647333Y232058D01*
X647413Y232142D01*
X647495Y232226D01*
X647499Y232232D01*
X647502Y232236D01*
X647510Y232253D01*
X647576Y232373D01*
X647921Y233205D01*
X650207Y235491D01*
X653195Y236729D01*
X663543Y236729D01*
X663633Y236743D01*
X663724Y236751D01*
X663753Y236763D01*
X663785Y236768D01*
X663866Y236811D01*
X663950Y236847D01*
X663982Y236873D01*
X664003Y236884D01*
X664025Y236907D01*
X664081Y236952D01*
X694974Y267845D01*
X697132Y270003D01*
X737968Y270003D01*
X752603Y255368D01*
X752603Y238506D01*
X752606Y238486D01*
X752604Y238467D01*
X752626Y238365D01*
X752642Y238263D01*
X752652Y238246D01*
X752656Y238226D01*
X752709Y238137D01*
X752758Y238046D01*
X752772Y238032D01*
X752782Y238015D01*
X752861Y237948D01*
X752936Y237876D01*
X752954Y237868D01*
X752969Y237855D01*
X752983Y237850D01*
X758445Y232388D01*
X758445Y224812D01*
X753088Y219455D01*
X745512Y219455D01*
X740155Y224812D01*
X740155Y232388D01*
X745634Y237867D01*
X745696Y237900D01*
X745710Y237914D01*
X745727Y237924D01*
X745794Y238003D01*
X745866Y238078D01*
X745874Y238096D01*
X745887Y238111D01*
X745926Y238207D01*
X745969Y238301D01*
X745971Y238321D01*
X745979Y238339D01*
X745997Y238506D01*
X745997Y252317D01*
X745983Y252407D01*
X745975Y252498D01*
X745963Y252527D01*
X745958Y252559D01*
X745915Y252640D01*
X745879Y252724D01*
X745853Y252756D01*
X745842Y252777D01*
X745819Y252799D01*
X745774Y252855D01*
X735455Y263174D01*
X735381Y263227D01*
X735312Y263287D01*
X735281Y263299D01*
X735255Y263318D01*
X735168Y263345D01*
X735083Y263379D01*
X735042Y263383D01*
X735020Y263390D01*
X734988Y263389D01*
X734917Y263397D01*
X700183Y263397D01*
X700093Y263383D01*
X700002Y263375D01*
X699973Y263363D01*
X699941Y263358D01*
X699860Y263315D01*
X699776Y263279D01*
X699744Y263253D01*
X699723Y263242D01*
X699701Y263219D01*
X699645Y263174D01*
X671816Y235345D01*
X671804Y235329D01*
X671788Y235316D01*
X671732Y235229D01*
X671672Y235145D01*
X671666Y235126D01*
X671655Y235109D01*
X671630Y235009D01*
X671600Y234910D01*
X671600Y234890D01*
X671595Y234871D01*
X671603Y234768D01*
X671606Y234664D01*
X671613Y234645D01*
X671614Y234626D01*
X671655Y234531D01*
X671690Y234433D01*
X671703Y234417D01*
X671711Y234399D01*
X671816Y234268D01*
X672879Y233205D01*
X674117Y230217D01*
X674117Y226983D01*
X672879Y223995D01*
X670593Y221709D01*
X667605Y220471D01*
X653195Y220471D01*
X650207Y221709D01*
X647921Y223995D01*
X647576Y224827D01*
X647515Y224927D01*
X647455Y225027D01*
X647450Y225031D01*
X647447Y225036D01*
X647357Y225111D01*
X647268Y225187D01*
X647262Y225189D01*
X647257Y225193D01*
X647148Y225235D01*
X647040Y225279D01*
X647032Y225280D01*
X647028Y225281D01*
X647009Y225282D01*
X646873Y225297D01*
X532032Y225297D01*
X529874Y227455D01*
X528322Y229007D01*
X528264Y229049D01*
X528212Y229098D01*
X528165Y229120D01*
X528123Y229151D01*
X528054Y229172D01*
X527989Y229202D01*
X527937Y229208D01*
X527887Y229223D01*
X527816Y229221D01*
X527745Y229229D01*
X527694Y229218D01*
X527642Y229217D01*
X527574Y229192D01*
X527504Y229177D01*
X527459Y229150D01*
X527411Y229132D01*
X527355Y229087D01*
X527293Y229050D01*
X527259Y229011D01*
X527219Y228978D01*
X527180Y228918D01*
X527133Y228864D01*
X527114Y228815D01*
X527086Y228771D01*
X527068Y228702D01*
X527041Y228635D01*
X527033Y228564D01*
X527025Y228533D01*
X527027Y228510D01*
X527023Y228469D01*
X527023Y227263D01*
X527024Y227255D01*
X527024Y227251D01*
X527028Y227234D01*
X527037Y227173D01*
X527045Y227082D01*
X527057Y227053D01*
X527062Y227021D01*
X527105Y226940D01*
X527141Y226856D01*
X527167Y226824D01*
X527178Y226803D01*
X527201Y226781D01*
X527246Y226725D01*
X534545Y219426D01*
X534619Y219373D01*
X534688Y219313D01*
X534719Y219301D01*
X534745Y219282D01*
X534832Y219255D01*
X534917Y219221D01*
X534958Y219217D01*
X534980Y219210D01*
X535012Y219211D01*
X535083Y219203D01*
X623668Y219203D01*
X656719Y186152D01*
X656793Y186099D01*
X656862Y186039D01*
X656893Y186027D01*
X656919Y186008D01*
X657006Y185981D01*
X657091Y185947D01*
X657132Y185943D01*
X657154Y185936D01*
X657186Y185937D01*
X657257Y185929D01*
X667605Y185929D01*
X670593Y184691D01*
X672879Y182405D01*
X673224Y181573D01*
X673285Y181473D01*
X673345Y181373D01*
X673350Y181369D01*
X673353Y181364D01*
X673443Y181289D01*
X673532Y181213D01*
X673538Y181211D01*
X673543Y181207D01*
X673652Y181165D01*
X673760Y181121D01*
X673768Y181120D01*
X673772Y181119D01*
X673791Y181118D01*
X673927Y181103D01*
X737968Y181103D01*
X744631Y174440D01*
X744647Y174428D01*
X744660Y174412D01*
X744747Y174357D01*
X744831Y174296D01*
X744850Y174291D01*
X744867Y174280D01*
X744967Y174254D01*
X745066Y174224D01*
X745086Y174225D01*
X745105Y174220D01*
X745208Y174228D01*
X745312Y174230D01*
X745331Y174237D01*
X745351Y174239D01*
X745364Y174245D01*
X753088Y174245D01*
X758445Y168888D01*
X758445Y161312D01*
X753088Y155955D01*
X745512Y155955D01*
G37*
%LPD*%
%LPC*%
G36*
X519442Y260377D02*
X519442Y260377D01*
X517118Y261340D01*
X515340Y263118D01*
X514377Y265442D01*
X514377Y267958D01*
X515340Y270282D01*
X517118Y272060D01*
X517810Y272347D01*
X517871Y272384D01*
X517937Y272414D01*
X517975Y272449D01*
X518019Y272476D01*
X518065Y272532D01*
X518118Y272580D01*
X518143Y272626D01*
X518176Y272666D01*
X518202Y272733D01*
X518236Y272796D01*
X518246Y272847D01*
X518264Y272895D01*
X518267Y272967D01*
X518280Y273038D01*
X518273Y273089D01*
X518275Y273141D01*
X518255Y273210D01*
X518244Y273281D01*
X518221Y273327D01*
X518206Y273377D01*
X518165Y273436D01*
X518133Y273500D01*
X518096Y273537D01*
X518066Y273579D01*
X518009Y273622D01*
X517957Y273672D01*
X517894Y273707D01*
X517869Y273726D01*
X517846Y273733D01*
X517810Y273753D01*
X517118Y274040D01*
X515340Y275818D01*
X514377Y278142D01*
X514377Y280658D01*
X515340Y282982D01*
X517118Y284760D01*
X519442Y285723D01*
X521958Y285723D01*
X524282Y284760D01*
X526116Y282926D01*
X526190Y282873D01*
X526259Y282813D01*
X526290Y282801D01*
X526316Y282782D01*
X526403Y282755D01*
X526488Y282721D01*
X526529Y282717D01*
X526551Y282710D01*
X526583Y282711D01*
X526654Y282703D01*
X582517Y282703D01*
X582607Y282717D01*
X582698Y282725D01*
X582727Y282737D01*
X582759Y282742D01*
X582840Y282785D01*
X582924Y282821D01*
X582956Y282847D01*
X582977Y282858D01*
X582999Y282881D01*
X583055Y282926D01*
X618774Y318645D01*
X618827Y318719D01*
X618887Y318788D01*
X618899Y318819D01*
X618918Y318845D01*
X618945Y318932D01*
X618979Y319017D01*
X618983Y319058D01*
X618990Y319080D01*
X618989Y319112D01*
X618997Y319183D01*
X618997Y417417D01*
X618983Y417507D01*
X618975Y417598D01*
X618963Y417627D01*
X618958Y417659D01*
X618915Y417740D01*
X618879Y417824D01*
X618853Y417856D01*
X618842Y417877D01*
X618819Y417899D01*
X618774Y417955D01*
X601569Y435160D01*
X601553Y435172D01*
X601541Y435187D01*
X601453Y435243D01*
X601369Y435304D01*
X601351Y435309D01*
X601334Y435320D01*
X601233Y435346D01*
X601134Y435376D01*
X601114Y435375D01*
X601095Y435380D01*
X600992Y435372D01*
X600889Y435370D01*
X600870Y435363D01*
X600850Y435361D01*
X600836Y435355D01*
X593112Y435355D01*
X587755Y440712D01*
X587755Y448288D01*
X593112Y453645D01*
X600688Y453645D01*
X606045Y448288D01*
X606045Y440540D01*
X606024Y440473D01*
X606025Y440453D01*
X606020Y440433D01*
X606028Y440330D01*
X606030Y440227D01*
X606037Y440208D01*
X606039Y440188D01*
X606079Y440093D01*
X606115Y439996D01*
X606127Y439980D01*
X606135Y439962D01*
X606240Y439831D01*
X625603Y420468D01*
X625603Y316132D01*
X585568Y276097D01*
X526654Y276097D01*
X526564Y276083D01*
X526473Y276075D01*
X526444Y276063D01*
X526412Y276058D01*
X526331Y276015D01*
X526247Y275979D01*
X526215Y275953D01*
X526194Y275942D01*
X526172Y275919D01*
X526116Y275874D01*
X524282Y274040D01*
X523590Y273753D01*
X523529Y273716D01*
X523463Y273686D01*
X523425Y273651D01*
X523381Y273624D01*
X523335Y273568D01*
X523282Y273520D01*
X523257Y273474D01*
X523224Y273434D01*
X523198Y273367D01*
X523164Y273304D01*
X523154Y273253D01*
X523136Y273205D01*
X523133Y273133D01*
X523120Y273062D01*
X523127Y273011D01*
X523125Y272959D01*
X523145Y272890D01*
X523156Y272819D01*
X523179Y272773D01*
X523194Y272723D01*
X523235Y272664D01*
X523267Y272600D01*
X523304Y272563D01*
X523334Y272521D01*
X523392Y272478D01*
X523443Y272428D01*
X523506Y272393D01*
X523531Y272374D01*
X523554Y272366D01*
X523590Y272347D01*
X524282Y272060D01*
X526116Y270226D01*
X526190Y270173D01*
X526259Y270113D01*
X526290Y270101D01*
X526316Y270082D01*
X526403Y270055D01*
X526488Y270021D01*
X526529Y270017D01*
X526551Y270010D01*
X526583Y270011D01*
X526654Y270003D01*
X595217Y270003D01*
X595307Y270017D01*
X595398Y270025D01*
X595427Y270037D01*
X595459Y270042D01*
X595540Y270085D01*
X595624Y270121D01*
X595656Y270147D01*
X595677Y270158D01*
X595699Y270181D01*
X595755Y270226D01*
X631474Y305945D01*
X631520Y306008D01*
X631543Y306033D01*
X631547Y306042D01*
X631587Y306088D01*
X631599Y306119D01*
X631618Y306145D01*
X631645Y306232D01*
X631679Y306317D01*
X631683Y306358D01*
X631690Y306380D01*
X631689Y306412D01*
X631697Y306483D01*
X631697Y468217D01*
X631683Y468307D01*
X631675Y468398D01*
X631663Y468427D01*
X631658Y468459D01*
X631615Y468540D01*
X631579Y468624D01*
X631553Y468656D01*
X631542Y468677D01*
X631519Y468699D01*
X631474Y468755D01*
X621155Y479074D01*
X621081Y479127D01*
X621012Y479187D01*
X620981Y479199D01*
X620955Y479218D01*
X620868Y479245D01*
X620783Y479279D01*
X620742Y479283D01*
X620720Y479290D01*
X620688Y479289D01*
X620617Y479297D01*
X606806Y479297D01*
X606786Y479294D01*
X606767Y479296D01*
X606665Y479274D01*
X606563Y479258D01*
X606546Y479248D01*
X606526Y479244D01*
X606437Y479191D01*
X606346Y479142D01*
X606332Y479128D01*
X606315Y479118D01*
X606248Y479039D01*
X606176Y478964D01*
X606168Y478946D01*
X606155Y478931D01*
X606150Y478917D01*
X600688Y473455D01*
X593112Y473455D01*
X587755Y478812D01*
X587755Y486388D01*
X593112Y491745D01*
X600688Y491745D01*
X606167Y486266D01*
X606200Y486204D01*
X606214Y486190D01*
X606224Y486173D01*
X606303Y486106D01*
X606378Y486034D01*
X606396Y486026D01*
X606411Y486013D01*
X606507Y485974D01*
X606601Y485931D01*
X606621Y485929D01*
X606639Y485921D01*
X606806Y485903D01*
X623668Y485903D01*
X625826Y483745D01*
X636145Y473426D01*
X638303Y471268D01*
X638303Y303432D01*
X598268Y263397D01*
X526654Y263397D01*
X526564Y263383D01*
X526473Y263375D01*
X526444Y263363D01*
X526412Y263358D01*
X526331Y263315D01*
X526247Y263279D01*
X526215Y263253D01*
X526194Y263242D01*
X526172Y263219D01*
X526116Y263174D01*
X524282Y261340D01*
X521958Y260377D01*
X519442Y260377D01*
G37*
%LPD*%
%LPC*%
G36*
X86879Y-43181D02*
X86879Y-43181D01*
X83144Y-41634D01*
X80286Y-38776D01*
X78739Y-35041D01*
X78739Y-15759D01*
X80286Y-12024D01*
X83144Y-9166D01*
X85127Y-8345D01*
X85227Y-8283D01*
X85327Y-8223D01*
X85331Y-8218D01*
X85336Y-8215D01*
X85411Y-8126D01*
X85487Y-8036D01*
X85489Y-8030D01*
X85493Y-8026D01*
X85535Y-7918D01*
X85579Y-7808D01*
X85580Y-7801D01*
X85581Y-7796D01*
X85582Y-7778D01*
X85597Y-7641D01*
X85597Y26768D01*
X125632Y66803D01*
X138017Y66803D01*
X138107Y66817D01*
X138198Y66825D01*
X138227Y66837D01*
X138259Y66842D01*
X138340Y66885D01*
X138424Y66921D01*
X138456Y66947D01*
X138477Y66958D01*
X138499Y66981D01*
X138555Y67026D01*
X219260Y147731D01*
X219272Y147747D01*
X219287Y147759D01*
X219343Y147847D01*
X219404Y147931D01*
X219409Y147949D01*
X219420Y147966D01*
X219446Y148067D01*
X219476Y148166D01*
X219475Y148186D01*
X219480Y148205D01*
X219472Y148308D01*
X219470Y148412D01*
X219463Y148430D01*
X219461Y148450D01*
X219455Y148464D01*
X219455Y156188D01*
X224812Y161545D01*
X232388Y161545D01*
X237867Y156066D01*
X237900Y156004D01*
X237914Y155990D01*
X237924Y155973D01*
X238003Y155906D01*
X238078Y155834D01*
X238096Y155826D01*
X238111Y155813D01*
X238207Y155774D01*
X238301Y155731D01*
X238321Y155729D01*
X238339Y155721D01*
X238506Y155703D01*
X239617Y155703D01*
X239707Y155717D01*
X239798Y155725D01*
X239827Y155737D01*
X239859Y155742D01*
X239940Y155785D01*
X240024Y155821D01*
X240056Y155847D01*
X240077Y155858D01*
X240099Y155881D01*
X240155Y155926D01*
X285554Y201325D01*
X285607Y201399D01*
X285667Y201468D01*
X285679Y201499D01*
X285698Y201525D01*
X285725Y201612D01*
X285759Y201697D01*
X285763Y201738D01*
X285770Y201760D01*
X285769Y201792D01*
X285777Y201863D01*
X285777Y204458D01*
X286740Y206782D01*
X288518Y208560D01*
X290842Y209523D01*
X293358Y209523D01*
X295682Y208560D01*
X297460Y206782D01*
X298423Y204458D01*
X298423Y201942D01*
X297460Y199618D01*
X295682Y197840D01*
X293358Y196877D01*
X290763Y196877D01*
X290673Y196863D01*
X290582Y196855D01*
X290553Y196843D01*
X290521Y196838D01*
X290440Y196795D01*
X290356Y196759D01*
X290324Y196733D01*
X290303Y196722D01*
X290281Y196699D01*
X290225Y196654D01*
X242668Y149097D01*
X238506Y149097D01*
X238486Y149094D01*
X238467Y149096D01*
X238365Y149074D01*
X238263Y149058D01*
X238246Y149048D01*
X238226Y149044D01*
X238137Y148991D01*
X238046Y148942D01*
X238032Y148928D01*
X238015Y148918D01*
X237948Y148839D01*
X237876Y148764D01*
X237868Y148746D01*
X237855Y148731D01*
X237850Y148717D01*
X232388Y143255D01*
X224640Y143255D01*
X224573Y143276D01*
X224553Y143275D01*
X224533Y143280D01*
X224430Y143272D01*
X224327Y143270D01*
X224308Y143263D01*
X224288Y143261D01*
X224193Y143221D01*
X224096Y143185D01*
X224080Y143173D01*
X224062Y143165D01*
X223931Y143060D01*
X143226Y62355D01*
X141068Y60197D01*
X128683Y60197D01*
X128593Y60183D01*
X128502Y60175D01*
X128473Y60163D01*
X128441Y60158D01*
X128360Y60115D01*
X128276Y60079D01*
X128244Y60053D01*
X128223Y60042D01*
X128201Y60019D01*
X128145Y59974D01*
X92426Y24255D01*
X92373Y24181D01*
X92313Y24112D01*
X92301Y24081D01*
X92282Y24055D01*
X92255Y23968D01*
X92221Y23883D01*
X92217Y23842D01*
X92210Y23820D01*
X92211Y23788D01*
X92203Y23717D01*
X92203Y-7641D01*
X92222Y-7756D01*
X92239Y-7872D01*
X92241Y-7878D01*
X92242Y-7884D01*
X92297Y-7987D01*
X92350Y-8092D01*
X92355Y-8096D01*
X92358Y-8102D01*
X92442Y-8181D01*
X92526Y-8264D01*
X92532Y-8268D01*
X92536Y-8271D01*
X92553Y-8279D01*
X92673Y-8345D01*
X94656Y-9166D01*
X97514Y-12024D01*
X99061Y-15759D01*
X99061Y-35041D01*
X97514Y-38776D01*
X94656Y-41634D01*
X90921Y-43181D01*
X86879Y-43181D01*
G37*
%LPD*%
%LPC*%
G36*
X28459Y205739D02*
X28459Y205739D01*
X24724Y207286D01*
X21866Y210144D01*
X20319Y213879D01*
X20319Y217921D01*
X21866Y221656D01*
X24724Y224514D01*
X28459Y226061D01*
X47741Y226061D01*
X51476Y224514D01*
X54334Y221656D01*
X55155Y219673D01*
X55217Y219573D01*
X55277Y219473D01*
X55281Y219469D01*
X55285Y219464D01*
X55375Y219389D01*
X55464Y219313D01*
X55469Y219311D01*
X55474Y219307D01*
X55583Y219265D01*
X55692Y219221D01*
X55699Y219220D01*
X55704Y219219D01*
X55722Y219218D01*
X55858Y219203D01*
X61817Y219203D01*
X61907Y219217D01*
X61998Y219225D01*
X62027Y219237D01*
X62059Y219242D01*
X62140Y219285D01*
X62224Y219321D01*
X62256Y219347D01*
X62277Y219358D01*
X62299Y219381D01*
X62355Y219426D01*
X85374Y242445D01*
X85427Y242519D01*
X85487Y242588D01*
X85499Y242619D01*
X85518Y242645D01*
X85545Y242732D01*
X85579Y242817D01*
X85583Y242858D01*
X85590Y242880D01*
X85589Y242912D01*
X85597Y242983D01*
X85597Y306168D01*
X123474Y344045D01*
X123527Y344119D01*
X123587Y344188D01*
X123599Y344219D01*
X123618Y344245D01*
X123645Y344332D01*
X123679Y344417D01*
X123683Y344458D01*
X123690Y344480D01*
X123689Y344512D01*
X123697Y344583D01*
X123697Y345694D01*
X123694Y345714D01*
X123696Y345733D01*
X123674Y345835D01*
X123658Y345937D01*
X123648Y345954D01*
X123644Y345974D01*
X123591Y346063D01*
X123542Y346154D01*
X123528Y346168D01*
X123518Y346185D01*
X123439Y346252D01*
X123364Y346324D01*
X123346Y346332D01*
X123331Y346345D01*
X123317Y346350D01*
X117855Y351812D01*
X117855Y359560D01*
X117876Y359627D01*
X117875Y359647D01*
X117880Y359667D01*
X117872Y359770D01*
X117870Y359873D01*
X117863Y359892D01*
X117861Y359912D01*
X117821Y360007D01*
X117785Y360104D01*
X117773Y360120D01*
X117765Y360138D01*
X117692Y360229D01*
X117686Y360239D01*
X117679Y360245D01*
X117660Y360269D01*
X72897Y405032D01*
X72897Y409194D01*
X72894Y409214D01*
X72896Y409233D01*
X72874Y409335D01*
X72858Y409437D01*
X72848Y409454D01*
X72844Y409474D01*
X72791Y409563D01*
X72742Y409654D01*
X72728Y409668D01*
X72718Y409685D01*
X72639Y409752D01*
X72564Y409824D01*
X72546Y409832D01*
X72531Y409845D01*
X72517Y409850D01*
X67055Y415312D01*
X67055Y422888D01*
X72412Y428245D01*
X79988Y428245D01*
X85345Y422888D01*
X85345Y415312D01*
X79866Y409833D01*
X79804Y409800D01*
X79790Y409786D01*
X79773Y409776D01*
X79706Y409697D01*
X79634Y409622D01*
X79626Y409604D01*
X79613Y409589D01*
X79574Y409493D01*
X79531Y409399D01*
X79529Y409379D01*
X79521Y409361D01*
X79503Y409194D01*
X79503Y408083D01*
X79517Y407993D01*
X79525Y407902D01*
X79537Y407873D01*
X79542Y407841D01*
X79585Y407760D01*
X79621Y407676D01*
X79647Y407644D01*
X79658Y407623D01*
X79681Y407601D01*
X79726Y407545D01*
X122331Y364940D01*
X122347Y364928D01*
X122359Y364913D01*
X122447Y364857D01*
X122531Y364796D01*
X122549Y364791D01*
X122566Y364780D01*
X122667Y364754D01*
X122766Y364724D01*
X122786Y364725D01*
X122805Y364720D01*
X122908Y364728D01*
X123011Y364730D01*
X123030Y364737D01*
X123050Y364739D01*
X123064Y364745D01*
X130788Y364745D01*
X136145Y359388D01*
X136145Y351812D01*
X130666Y346333D01*
X130604Y346300D01*
X130590Y346286D01*
X130573Y346276D01*
X130506Y346197D01*
X130434Y346122D01*
X130426Y346104D01*
X130413Y346089D01*
X130374Y345993D01*
X130331Y345899D01*
X130329Y345879D01*
X130321Y345861D01*
X130303Y345694D01*
X130303Y341532D01*
X128145Y339374D01*
X92426Y303655D01*
X92373Y303581D01*
X92313Y303512D01*
X92301Y303481D01*
X92282Y303455D01*
X92255Y303368D01*
X92221Y303283D01*
X92217Y303242D01*
X92210Y303220D01*
X92211Y303188D01*
X92203Y303117D01*
X92203Y239932D01*
X64868Y212597D01*
X55858Y212597D01*
X55744Y212578D01*
X55628Y212561D01*
X55622Y212559D01*
X55616Y212558D01*
X55513Y212503D01*
X55408Y212450D01*
X55404Y212445D01*
X55398Y212442D01*
X55319Y212358D01*
X55236Y212274D01*
X55232Y212268D01*
X55229Y212264D01*
X55221Y212247D01*
X55155Y212127D01*
X54334Y210144D01*
X51476Y207286D01*
X47741Y205739D01*
X28459Y205739D01*
G37*
%LPD*%
%LPC*%
G36*
X61479Y-43181D02*
X61479Y-43181D01*
X57744Y-41634D01*
X54886Y-38776D01*
X53339Y-35041D01*
X53339Y-15759D01*
X54886Y-12024D01*
X57744Y-9166D01*
X59727Y-8345D01*
X59827Y-8283D01*
X59927Y-8223D01*
X59931Y-8219D01*
X59936Y-8215D01*
X60011Y-8125D01*
X60087Y-8036D01*
X60089Y-8031D01*
X60093Y-8026D01*
X60135Y-7917D01*
X60179Y-7808D01*
X60180Y-7801D01*
X60181Y-7796D01*
X60182Y-7778D01*
X60197Y-7642D01*
X60197Y90268D01*
X98074Y128145D01*
X98127Y128219D01*
X98187Y128288D01*
X98199Y128319D01*
X98218Y128345D01*
X98245Y128432D01*
X98279Y128517D01*
X98283Y128558D01*
X98290Y128580D01*
X98289Y128612D01*
X98297Y128683D01*
X98297Y248046D01*
X98283Y248136D01*
X98275Y248227D01*
X98263Y248256D01*
X98258Y248288D01*
X98215Y248369D01*
X98179Y248453D01*
X98153Y248485D01*
X98142Y248506D01*
X98119Y248528D01*
X98074Y248584D01*
X96240Y250418D01*
X95277Y252742D01*
X95277Y255258D01*
X96240Y257582D01*
X98018Y259360D01*
X100342Y260323D01*
X102858Y260323D01*
X105182Y259360D01*
X106960Y257582D01*
X107923Y255258D01*
X107923Y252742D01*
X106960Y250418D01*
X105126Y248584D01*
X105073Y248510D01*
X105013Y248441D01*
X105001Y248410D01*
X104982Y248384D01*
X104955Y248297D01*
X104921Y248212D01*
X104917Y248171D01*
X104910Y248149D01*
X104911Y248117D01*
X104903Y248046D01*
X104903Y125632D01*
X67026Y87755D01*
X66983Y87696D01*
X66939Y87649D01*
X66931Y87632D01*
X66913Y87612D01*
X66901Y87581D01*
X66882Y87555D01*
X66857Y87473D01*
X66835Y87426D01*
X66834Y87414D01*
X66821Y87383D01*
X66817Y87342D01*
X66810Y87320D01*
X66811Y87288D01*
X66803Y87217D01*
X66803Y-7642D01*
X66822Y-7756D01*
X66839Y-7872D01*
X66841Y-7878D01*
X66842Y-7884D01*
X66897Y-7987D01*
X66950Y-8092D01*
X66955Y-8096D01*
X66958Y-8102D01*
X67042Y-8181D01*
X67126Y-8264D01*
X67132Y-8268D01*
X67136Y-8271D01*
X67153Y-8279D01*
X67273Y-8345D01*
X69256Y-9166D01*
X72114Y-12024D01*
X73661Y-15759D01*
X73661Y-35041D01*
X72114Y-38776D01*
X69256Y-41634D01*
X65521Y-43181D01*
X61479Y-43181D01*
G37*
%LPD*%
%LPC*%
G36*
X214642Y311177D02*
X214642Y311177D01*
X212318Y312140D01*
X210540Y313918D01*
X209577Y316242D01*
X209577Y318758D01*
X210540Y321082D01*
X212374Y322916D01*
X212427Y322990D01*
X212487Y323059D01*
X212499Y323089D01*
X212518Y323116D01*
X212545Y323203D01*
X212579Y323288D01*
X212583Y323328D01*
X212590Y323351D01*
X212589Y323383D01*
X212597Y323454D01*
X212597Y341217D01*
X212583Y341307D01*
X212575Y341398D01*
X212563Y341427D01*
X212558Y341459D01*
X212515Y341540D01*
X212479Y341624D01*
X212453Y341656D01*
X212442Y341677D01*
X212419Y341699D01*
X212374Y341755D01*
X187197Y366932D01*
X187197Y396494D01*
X187194Y396514D01*
X187196Y396533D01*
X187174Y396635D01*
X187158Y396737D01*
X187148Y396754D01*
X187144Y396774D01*
X187091Y396863D01*
X187042Y396954D01*
X187028Y396968D01*
X187018Y396985D01*
X186939Y397052D01*
X186864Y397124D01*
X186846Y397132D01*
X186831Y397145D01*
X186817Y397150D01*
X181355Y402612D01*
X181355Y410188D01*
X186834Y415667D01*
X186896Y415700D01*
X186910Y415714D01*
X186927Y415724D01*
X186994Y415803D01*
X187066Y415878D01*
X187074Y415896D01*
X187087Y415911D01*
X187126Y416007D01*
X187169Y416101D01*
X187171Y416121D01*
X187179Y416139D01*
X187197Y416306D01*
X187197Y420468D01*
X263174Y496445D01*
X263227Y496519D01*
X263287Y496588D01*
X263299Y496619D01*
X263318Y496645D01*
X263345Y496732D01*
X263379Y496817D01*
X263383Y496858D01*
X263390Y496880D01*
X263389Y496912D01*
X263397Y496983D01*
X263397Y515641D01*
X263378Y515756D01*
X263361Y515872D01*
X263359Y515878D01*
X263358Y515884D01*
X263303Y515987D01*
X263250Y516092D01*
X263245Y516096D01*
X263242Y516102D01*
X263158Y516181D01*
X263074Y516264D01*
X263068Y516268D01*
X263064Y516271D01*
X263047Y516279D01*
X262927Y516345D01*
X260944Y517166D01*
X258086Y520024D01*
X256539Y523759D01*
X256539Y543041D01*
X258086Y546776D01*
X260944Y549634D01*
X264679Y551181D01*
X268721Y551181D01*
X272456Y549634D01*
X275314Y546776D01*
X276861Y543041D01*
X276861Y523759D01*
X275314Y520024D01*
X272456Y517166D01*
X270473Y516345D01*
X270373Y516283D01*
X270273Y516223D01*
X270269Y516218D01*
X270264Y516215D01*
X270189Y516126D01*
X270113Y516036D01*
X270111Y516030D01*
X270107Y516026D01*
X270065Y515918D01*
X270021Y515808D01*
X270020Y515801D01*
X270019Y515796D01*
X270018Y515778D01*
X270003Y515641D01*
X270003Y493932D01*
X194026Y417955D01*
X193973Y417881D01*
X193913Y417812D01*
X193901Y417781D01*
X193882Y417755D01*
X193855Y417668D01*
X193821Y417583D01*
X193817Y417542D01*
X193810Y417520D01*
X193811Y417488D01*
X193803Y417417D01*
X193803Y416306D01*
X193806Y416286D01*
X193804Y416267D01*
X193826Y416165D01*
X193842Y416063D01*
X193852Y416046D01*
X193856Y416026D01*
X193909Y415937D01*
X193958Y415846D01*
X193972Y415832D01*
X193982Y415815D01*
X194061Y415748D01*
X194136Y415676D01*
X194154Y415668D01*
X194169Y415655D01*
X194183Y415650D01*
X199645Y410188D01*
X199645Y402612D01*
X194166Y397133D01*
X194104Y397100D01*
X194090Y397086D01*
X194073Y397076D01*
X194006Y396997D01*
X193934Y396922D01*
X193926Y396904D01*
X193913Y396889D01*
X193874Y396793D01*
X193831Y396699D01*
X193829Y396679D01*
X193821Y396661D01*
X193803Y396494D01*
X193803Y369983D01*
X193817Y369893D01*
X193825Y369802D01*
X193837Y369773D01*
X193842Y369741D01*
X193885Y369660D01*
X193921Y369576D01*
X193947Y369544D01*
X193958Y369523D01*
X193981Y369501D01*
X194026Y369445D01*
X219203Y344268D01*
X219203Y323454D01*
X219217Y323364D01*
X219225Y323273D01*
X219237Y323243D01*
X219242Y323212D01*
X219285Y323131D01*
X219321Y323047D01*
X219347Y323015D01*
X219358Y322994D01*
X219381Y322972D01*
X219426Y322916D01*
X221260Y321082D01*
X222223Y318758D01*
X222223Y316242D01*
X221260Y313918D01*
X219482Y312140D01*
X217158Y311177D01*
X214642Y311177D01*
G37*
%LPD*%
%LPC*%
G36*
X189242Y311177D02*
X189242Y311177D01*
X186918Y312140D01*
X185140Y313918D01*
X184177Y316242D01*
X184177Y318758D01*
X185140Y321082D01*
X186974Y322916D01*
X187027Y322990D01*
X187087Y323059D01*
X187099Y323090D01*
X187118Y323116D01*
X187145Y323203D01*
X187179Y323288D01*
X187183Y323329D01*
X187190Y323351D01*
X187189Y323383D01*
X187197Y323454D01*
X187197Y341217D01*
X187183Y341307D01*
X187175Y341398D01*
X187163Y341427D01*
X187158Y341459D01*
X187115Y341540D01*
X187079Y341624D01*
X187053Y341656D01*
X187042Y341677D01*
X187019Y341699D01*
X186974Y341755D01*
X161797Y366932D01*
X161797Y433168D01*
X163955Y435326D01*
X181160Y452531D01*
X181172Y452547D01*
X181187Y452559D01*
X181243Y452647D01*
X181304Y452731D01*
X181309Y452749D01*
X181320Y452766D01*
X181346Y452867D01*
X181376Y452966D01*
X181375Y452986D01*
X181380Y453005D01*
X181372Y453108D01*
X181370Y453211D01*
X181363Y453230D01*
X181361Y453250D01*
X181355Y453264D01*
X181355Y460988D01*
X186712Y466345D01*
X194450Y466345D01*
X194458Y466342D01*
X194477Y466340D01*
X194527Y466324D01*
X194547Y466325D01*
X194567Y466320D01*
X194620Y466324D01*
X194625Y466323D01*
X194637Y466323D01*
X194660Y466327D01*
X194670Y466328D01*
X194773Y466330D01*
X194792Y466337D01*
X194812Y466339D01*
X194862Y466360D01*
X194880Y466363D01*
X194919Y466384D01*
X195004Y466415D01*
X195020Y466427D01*
X195038Y466435D01*
X195081Y466470D01*
X195097Y466478D01*
X195115Y466496D01*
X195169Y466540D01*
X237774Y509145D01*
X237827Y509219D01*
X237887Y509288D01*
X237899Y509319D01*
X237918Y509345D01*
X237945Y509432D01*
X237979Y509517D01*
X237983Y509558D01*
X237990Y509580D01*
X237989Y509612D01*
X237997Y509683D01*
X237997Y515641D01*
X237978Y515756D01*
X237961Y515872D01*
X237959Y515878D01*
X237958Y515884D01*
X237903Y515987D01*
X237850Y516092D01*
X237845Y516096D01*
X237842Y516102D01*
X237758Y516181D01*
X237674Y516264D01*
X237668Y516268D01*
X237664Y516271D01*
X237647Y516279D01*
X237527Y516345D01*
X235544Y517166D01*
X232686Y520024D01*
X231139Y523759D01*
X231139Y543041D01*
X232686Y546776D01*
X235544Y549634D01*
X239279Y551181D01*
X243321Y551181D01*
X247056Y549634D01*
X249914Y546776D01*
X251461Y543041D01*
X251461Y523759D01*
X249914Y520024D01*
X247056Y517166D01*
X245073Y516345D01*
X244973Y516283D01*
X244873Y516223D01*
X244869Y516218D01*
X244864Y516215D01*
X244789Y516126D01*
X244713Y516036D01*
X244711Y516030D01*
X244707Y516026D01*
X244665Y515918D01*
X244621Y515808D01*
X244620Y515801D01*
X244619Y515796D01*
X244618Y515778D01*
X244603Y515641D01*
X244603Y506632D01*
X199840Y461869D01*
X199828Y461853D01*
X199813Y461841D01*
X199757Y461753D01*
X199696Y461669D01*
X199691Y461651D01*
X199680Y461634D01*
X199654Y461533D01*
X199624Y461434D01*
X199625Y461414D01*
X199620Y461395D01*
X199628Y461292D01*
X199630Y461189D01*
X199637Y461170D01*
X199639Y461150D01*
X199645Y461136D01*
X199645Y453412D01*
X194288Y448055D01*
X186540Y448055D01*
X186473Y448076D01*
X186453Y448075D01*
X186433Y448080D01*
X186330Y448072D01*
X186227Y448070D01*
X186208Y448063D01*
X186188Y448061D01*
X186093Y448021D01*
X185996Y447985D01*
X185980Y447973D01*
X185962Y447965D01*
X185831Y447860D01*
X168626Y430655D01*
X168573Y430581D01*
X168513Y430512D01*
X168501Y430481D01*
X168482Y430455D01*
X168455Y430368D01*
X168421Y430283D01*
X168417Y430242D01*
X168410Y430220D01*
X168411Y430188D01*
X168403Y430117D01*
X168403Y369983D01*
X168417Y369893D01*
X168425Y369802D01*
X168437Y369773D01*
X168442Y369741D01*
X168485Y369660D01*
X168521Y369576D01*
X168547Y369544D01*
X168558Y369523D01*
X168581Y369501D01*
X168626Y369445D01*
X193803Y344268D01*
X193803Y323454D01*
X193817Y323364D01*
X193825Y323273D01*
X193837Y323244D01*
X193842Y323212D01*
X193885Y323131D01*
X193921Y323047D01*
X193947Y323015D01*
X193958Y322994D01*
X193981Y322972D01*
X194026Y322916D01*
X195860Y321082D01*
X196823Y318758D01*
X196823Y316242D01*
X195860Y313918D01*
X194082Y312140D01*
X191758Y311177D01*
X189242Y311177D01*
G37*
%LPD*%
%LPC*%
G36*
X618512Y16255D02*
X618512Y16255D01*
X613033Y21734D01*
X613000Y21796D01*
X612986Y21810D01*
X612976Y21827D01*
X612897Y21894D01*
X612822Y21966D01*
X612804Y21974D01*
X612789Y21987D01*
X612693Y22026D01*
X612599Y22069D01*
X612579Y22071D01*
X612561Y22079D01*
X612394Y22097D01*
X513954Y22097D01*
X513864Y22083D01*
X513773Y22075D01*
X513744Y22063D01*
X513712Y22058D01*
X513631Y22015D01*
X513547Y21979D01*
X513515Y21953D01*
X513494Y21942D01*
X513472Y21919D01*
X513416Y21874D01*
X511582Y20040D01*
X509258Y19077D01*
X506742Y19077D01*
X504418Y20040D01*
X502584Y21874D01*
X502510Y21927D01*
X502441Y21987D01*
X502410Y21999D01*
X502384Y22018D01*
X502297Y22045D01*
X502212Y22079D01*
X502171Y22083D01*
X502149Y22090D01*
X502117Y22089D01*
X502046Y22097D01*
X481232Y22097D01*
X441197Y62132D01*
X441197Y95646D01*
X441183Y95736D01*
X441175Y95827D01*
X441163Y95856D01*
X441158Y95888D01*
X441115Y95969D01*
X441079Y96053D01*
X441053Y96085D01*
X441042Y96106D01*
X441019Y96128D01*
X440974Y96184D01*
X439140Y98018D01*
X438177Y100342D01*
X438177Y102858D01*
X439140Y105182D01*
X440918Y106960D01*
X443242Y107923D01*
X445758Y107923D01*
X448082Y106960D01*
X449860Y105182D01*
X450823Y102858D01*
X450823Y100342D01*
X449860Y98018D01*
X448026Y96184D01*
X447973Y96110D01*
X447913Y96041D01*
X447901Y96010D01*
X447882Y95984D01*
X447855Y95897D01*
X447821Y95812D01*
X447817Y95771D01*
X447810Y95749D01*
X447811Y95717D01*
X447803Y95646D01*
X447803Y65183D01*
X447817Y65093D01*
X447825Y65002D01*
X447837Y64973D01*
X447842Y64941D01*
X447885Y64860D01*
X447921Y64776D01*
X447947Y64744D01*
X447958Y64723D01*
X447981Y64701D01*
X448026Y64645D01*
X483745Y28926D01*
X483819Y28873D01*
X483888Y28813D01*
X483919Y28801D01*
X483945Y28782D01*
X484032Y28755D01*
X484117Y28721D01*
X484158Y28717D01*
X484180Y28710D01*
X484212Y28711D01*
X484283Y28703D01*
X502046Y28703D01*
X502136Y28717D01*
X502227Y28725D01*
X502256Y28737D01*
X502288Y28742D01*
X502369Y28785D01*
X502453Y28821D01*
X502485Y28847D01*
X502506Y28858D01*
X502528Y28881D01*
X502584Y28926D01*
X504418Y30760D01*
X506742Y31723D01*
X509258Y31723D01*
X511582Y30760D01*
X513416Y28926D01*
X513490Y28873D01*
X513559Y28813D01*
X513590Y28801D01*
X513616Y28782D01*
X513703Y28755D01*
X513788Y28721D01*
X513829Y28717D01*
X513851Y28710D01*
X513883Y28711D01*
X513954Y28703D01*
X612394Y28703D01*
X612414Y28706D01*
X612433Y28704D01*
X612535Y28726D01*
X612637Y28742D01*
X612654Y28752D01*
X612674Y28756D01*
X612763Y28809D01*
X612854Y28858D01*
X612868Y28872D01*
X612885Y28882D01*
X612952Y28961D01*
X613024Y29036D01*
X613032Y29054D01*
X613045Y29069D01*
X613050Y29083D01*
X618512Y34545D01*
X626088Y34545D01*
X631445Y29188D01*
X631445Y21612D01*
X626088Y16255D01*
X618512Y16255D01*
G37*
%LPD*%
%LPC*%
G36*
X250212Y333755D02*
X250212Y333755D01*
X244855Y339112D01*
X244855Y346688D01*
X250212Y352045D01*
X257788Y352045D01*
X263267Y346566D01*
X263300Y346504D01*
X263314Y346490D01*
X263324Y346473D01*
X263403Y346406D01*
X263478Y346334D01*
X263496Y346326D01*
X263511Y346313D01*
X263607Y346274D01*
X263701Y346231D01*
X263721Y346229D01*
X263739Y346221D01*
X263906Y346203D01*
X265017Y346203D01*
X265107Y346217D01*
X265198Y346225D01*
X265227Y346237D01*
X265259Y346242D01*
X265340Y346285D01*
X265424Y346321D01*
X265456Y346347D01*
X265477Y346358D01*
X265499Y346381D01*
X265555Y346426D01*
X288574Y369445D01*
X288627Y369519D01*
X288687Y369588D01*
X288699Y369619D01*
X288718Y369645D01*
X288745Y369732D01*
X288779Y369817D01*
X288783Y369858D01*
X288790Y369880D01*
X288789Y369912D01*
X288797Y369983D01*
X288797Y379317D01*
X288783Y379407D01*
X288775Y379498D01*
X288763Y379527D01*
X288758Y379559D01*
X288715Y379640D01*
X288679Y379724D01*
X288653Y379756D01*
X288642Y379777D01*
X288619Y379799D01*
X288574Y379855D01*
X271369Y397060D01*
X271353Y397072D01*
X271340Y397088D01*
X271253Y397143D01*
X271169Y397204D01*
X271150Y397209D01*
X271133Y397220D01*
X271033Y397246D01*
X270934Y397276D01*
X270914Y397275D01*
X270895Y397280D01*
X270792Y397272D01*
X270688Y397270D01*
X270669Y397263D01*
X270649Y397261D01*
X270636Y397255D01*
X262912Y397255D01*
X257555Y402612D01*
X257555Y410188D01*
X263034Y415667D01*
X263096Y415700D01*
X263110Y415714D01*
X263127Y415724D01*
X263194Y415803D01*
X263266Y415878D01*
X263274Y415896D01*
X263287Y415911D01*
X263326Y416007D01*
X263369Y416101D01*
X263371Y416121D01*
X263379Y416139D01*
X263397Y416306D01*
X263397Y447294D01*
X263394Y447313D01*
X263396Y447331D01*
X263396Y447332D01*
X263396Y447333D01*
X263374Y447435D01*
X263358Y447537D01*
X263348Y447554D01*
X263344Y447574D01*
X263291Y447663D01*
X263242Y447754D01*
X263228Y447768D01*
X263218Y447785D01*
X263139Y447852D01*
X263064Y447924D01*
X263046Y447932D01*
X263031Y447945D01*
X263017Y447950D01*
X257555Y453412D01*
X257555Y460988D01*
X262912Y466345D01*
X270488Y466345D01*
X275845Y460988D01*
X275845Y453412D01*
X270366Y447933D01*
X270304Y447900D01*
X270290Y447886D01*
X270273Y447876D01*
X270206Y447797D01*
X270134Y447722D01*
X270126Y447704D01*
X270113Y447689D01*
X270074Y447593D01*
X270031Y447499D01*
X270029Y447479D01*
X270021Y447461D01*
X270003Y447294D01*
X270003Y416306D01*
X270006Y416286D01*
X270004Y416267D01*
X270026Y416165D01*
X270042Y416063D01*
X270052Y416046D01*
X270056Y416026D01*
X270109Y415937D01*
X270158Y415846D01*
X270172Y415832D01*
X270182Y415815D01*
X270261Y415748D01*
X270336Y415676D01*
X270354Y415668D01*
X270369Y415655D01*
X270383Y415650D01*
X275845Y410188D01*
X275845Y402440D01*
X275824Y402373D01*
X275825Y402353D01*
X275820Y402333D01*
X275828Y402230D01*
X275830Y402127D01*
X275837Y402108D01*
X275839Y402088D01*
X275879Y401993D01*
X275915Y401896D01*
X275927Y401880D01*
X275935Y401862D01*
X276040Y401731D01*
X295403Y382368D01*
X295403Y366932D01*
X268068Y339597D01*
X263906Y339597D01*
X263886Y339594D01*
X263867Y339596D01*
X263765Y339574D01*
X263663Y339558D01*
X263646Y339548D01*
X263626Y339544D01*
X263537Y339491D01*
X263446Y339442D01*
X263432Y339428D01*
X263415Y339418D01*
X263348Y339339D01*
X263276Y339264D01*
X263268Y339246D01*
X263255Y339231D01*
X263250Y339217D01*
X257788Y333755D01*
X250212Y333755D01*
G37*
%LPD*%
%LPC*%
G36*
X354342Y184177D02*
X354342Y184177D01*
X352018Y185140D01*
X350240Y186918D01*
X349277Y189242D01*
X349277Y191837D01*
X349263Y191927D01*
X349255Y192018D01*
X349243Y192047D01*
X349238Y192079D01*
X349195Y192160D01*
X349159Y192244D01*
X349133Y192276D01*
X349122Y192297D01*
X349099Y192319D01*
X349054Y192375D01*
X339597Y201832D01*
X339597Y242668D01*
X349054Y252125D01*
X349107Y252199D01*
X349167Y252268D01*
X349179Y252299D01*
X349198Y252325D01*
X349225Y252412D01*
X349259Y252497D01*
X349263Y252538D01*
X349270Y252560D01*
X349269Y252592D01*
X349277Y252663D01*
X349277Y255258D01*
X350240Y257582D01*
X352018Y259360D01*
X354342Y260323D01*
X356858Y260323D01*
X359182Y259360D01*
X361016Y257526D01*
X361090Y257473D01*
X361159Y257413D01*
X361189Y257401D01*
X361216Y257382D01*
X361303Y257355D01*
X361388Y257321D01*
X361428Y257317D01*
X361451Y257310D01*
X361483Y257311D01*
X361554Y257303D01*
X382368Y257303D01*
X397003Y242668D01*
X397003Y227232D01*
X387546Y217775D01*
X387493Y217701D01*
X387433Y217632D01*
X387421Y217601D01*
X387402Y217575D01*
X387375Y217488D01*
X387341Y217403D01*
X387337Y217362D01*
X387330Y217340D01*
X387331Y217308D01*
X387323Y217237D01*
X387323Y214642D01*
X386360Y212318D01*
X384526Y210484D01*
X384473Y210410D01*
X384413Y210341D01*
X384401Y210311D01*
X384382Y210284D01*
X384355Y210197D01*
X384321Y210112D01*
X384317Y210072D01*
X384310Y210049D01*
X384311Y210017D01*
X384303Y209946D01*
X384303Y204883D01*
X384317Y204793D01*
X384325Y204702D01*
X384337Y204673D01*
X384342Y204641D01*
X384385Y204560D01*
X384421Y204476D01*
X384447Y204444D01*
X384458Y204423D01*
X384481Y204401D01*
X384526Y204345D01*
X394845Y194026D01*
X394919Y193973D01*
X394988Y193913D01*
X395019Y193901D01*
X395045Y193882D01*
X395132Y193855D01*
X395217Y193821D01*
X395258Y193817D01*
X395280Y193810D01*
X395312Y193811D01*
X395383Y193803D01*
X400446Y193803D01*
X400536Y193817D01*
X400627Y193825D01*
X400656Y193837D01*
X400688Y193842D01*
X400769Y193885D01*
X400853Y193921D01*
X400885Y193947D01*
X400906Y193958D01*
X400928Y193981D01*
X400984Y194026D01*
X402818Y195860D01*
X405142Y196823D01*
X407658Y196823D01*
X409982Y195860D01*
X411760Y194082D01*
X412723Y191758D01*
X412723Y189242D01*
X411760Y186918D01*
X409982Y185140D01*
X407658Y184177D01*
X405142Y184177D01*
X402818Y185140D01*
X400984Y186974D01*
X400910Y187027D01*
X400841Y187087D01*
X400810Y187099D01*
X400784Y187118D01*
X400697Y187145D01*
X400612Y187179D01*
X400571Y187183D01*
X400549Y187190D01*
X400517Y187189D01*
X400446Y187197D01*
X392332Y187197D01*
X377697Y201832D01*
X377697Y209946D01*
X377683Y210036D01*
X377675Y210127D01*
X377663Y210157D01*
X377658Y210188D01*
X377615Y210269D01*
X377579Y210353D01*
X377553Y210385D01*
X377542Y210406D01*
X377519Y210428D01*
X377474Y210484D01*
X375640Y212318D01*
X374677Y214642D01*
X374677Y217158D01*
X375640Y219482D01*
X377418Y221260D01*
X379742Y222223D01*
X382337Y222223D01*
X382427Y222237D01*
X382518Y222245D01*
X382547Y222257D01*
X382579Y222262D01*
X382660Y222305D01*
X382744Y222341D01*
X382776Y222367D01*
X382797Y222378D01*
X382819Y222401D01*
X382875Y222446D01*
X390174Y229745D01*
X390227Y229819D01*
X390287Y229888D01*
X390299Y229919D01*
X390318Y229945D01*
X390345Y230032D01*
X390379Y230117D01*
X390383Y230158D01*
X390390Y230180D01*
X390389Y230212D01*
X390397Y230283D01*
X390397Y239617D01*
X390383Y239707D01*
X390375Y239798D01*
X390363Y239827D01*
X390358Y239859D01*
X390315Y239940D01*
X390279Y240024D01*
X390253Y240056D01*
X390242Y240077D01*
X390219Y240099D01*
X390174Y240155D01*
X379855Y250474D01*
X379781Y250527D01*
X379712Y250587D01*
X379681Y250599D01*
X379655Y250618D01*
X379568Y250645D01*
X379483Y250679D01*
X379442Y250683D01*
X379420Y250690D01*
X379388Y250689D01*
X379317Y250697D01*
X361554Y250697D01*
X361464Y250683D01*
X361373Y250675D01*
X361343Y250663D01*
X361312Y250658D01*
X361231Y250615D01*
X361147Y250579D01*
X361115Y250553D01*
X361094Y250542D01*
X361072Y250519D01*
X361016Y250474D01*
X359182Y248640D01*
X356858Y247677D01*
X354263Y247677D01*
X354173Y247663D01*
X354082Y247655D01*
X354053Y247643D01*
X354021Y247638D01*
X353940Y247595D01*
X353856Y247559D01*
X353824Y247533D01*
X353803Y247522D01*
X353781Y247499D01*
X353725Y247454D01*
X346426Y240155D01*
X346373Y240081D01*
X346313Y240012D01*
X346301Y239981D01*
X346282Y239955D01*
X346255Y239868D01*
X346221Y239783D01*
X346217Y239742D01*
X346210Y239720D01*
X346211Y239688D01*
X346203Y239617D01*
X346203Y204883D01*
X346217Y204793D01*
X346225Y204702D01*
X346237Y204673D01*
X346242Y204641D01*
X346285Y204560D01*
X346321Y204476D01*
X346347Y204444D01*
X346358Y204423D01*
X346381Y204401D01*
X346426Y204345D01*
X353725Y197046D01*
X353799Y196993D01*
X353868Y196933D01*
X353899Y196921D01*
X353925Y196902D01*
X354012Y196875D01*
X354097Y196841D01*
X354138Y196837D01*
X354160Y196830D01*
X354192Y196831D01*
X354263Y196823D01*
X356858Y196823D01*
X359182Y195860D01*
X360960Y194082D01*
X361923Y191758D01*
X361923Y189242D01*
X360960Y186918D01*
X359182Y185140D01*
X356858Y184177D01*
X354342Y184177D01*
G37*
%LPD*%
%LPC*%
G36*
X250212Y244855D02*
X250212Y244855D01*
X244855Y250212D01*
X244855Y257788D01*
X250334Y263267D01*
X250396Y263300D01*
X250410Y263314D01*
X250427Y263324D01*
X250494Y263403D01*
X250566Y263478D01*
X250574Y263496D01*
X250587Y263511D01*
X250626Y263607D01*
X250669Y263701D01*
X250671Y263721D01*
X250679Y263739D01*
X250697Y263906D01*
X250697Y265017D01*
X250683Y265107D01*
X250675Y265198D01*
X250663Y265227D01*
X250658Y265259D01*
X250615Y265340D01*
X250579Y265424D01*
X250553Y265456D01*
X250542Y265477D01*
X250519Y265499D01*
X250474Y265555D01*
X240155Y275874D01*
X240081Y275927D01*
X240012Y275987D01*
X239981Y275999D01*
X239955Y276018D01*
X239868Y276045D01*
X239783Y276079D01*
X239742Y276083D01*
X239720Y276090D01*
X239688Y276089D01*
X239617Y276097D01*
X151032Y276097D01*
X131669Y295460D01*
X131653Y295472D01*
X131640Y295488D01*
X131553Y295543D01*
X131469Y295604D01*
X131450Y295609D01*
X131433Y295620D01*
X131333Y295646D01*
X131234Y295676D01*
X131214Y295675D01*
X131195Y295680D01*
X131092Y295672D01*
X130988Y295670D01*
X130969Y295663D01*
X130949Y295661D01*
X130936Y295655D01*
X123212Y295655D01*
X117855Y301012D01*
X117855Y308588D01*
X123212Y313945D01*
X130788Y313945D01*
X136145Y308588D01*
X136145Y300840D01*
X136124Y300773D01*
X136125Y300753D01*
X136120Y300733D01*
X136128Y300630D01*
X136130Y300527D01*
X136137Y300508D01*
X136139Y300488D01*
X136179Y300393D01*
X136215Y300296D01*
X136227Y300280D01*
X136235Y300262D01*
X136340Y300131D01*
X153545Y282926D01*
X153619Y282873D01*
X153688Y282813D01*
X153719Y282801D01*
X153745Y282782D01*
X153832Y282755D01*
X153917Y282721D01*
X153958Y282717D01*
X153980Y282710D01*
X154012Y282711D01*
X154083Y282703D01*
X242668Y282703D01*
X257303Y268068D01*
X257303Y263906D01*
X257306Y263886D01*
X257304Y263867D01*
X257326Y263765D01*
X257342Y263663D01*
X257352Y263646D01*
X257356Y263626D01*
X257409Y263537D01*
X257458Y263446D01*
X257472Y263432D01*
X257482Y263415D01*
X257561Y263348D01*
X257636Y263276D01*
X257654Y263268D01*
X257669Y263255D01*
X257683Y263250D01*
X263145Y257788D01*
X263145Y250212D01*
X257788Y244855D01*
X250212Y244855D01*
G37*
%LPD*%
%LPC*%
G36*
X389912Y409955D02*
X389912Y409955D01*
X384555Y415312D01*
X384555Y422888D01*
X389912Y428245D01*
X397660Y428245D01*
X397727Y428224D01*
X397747Y428225D01*
X397767Y428220D01*
X397870Y428228D01*
X397973Y428230D01*
X397992Y428237D01*
X398012Y428239D01*
X398107Y428279D01*
X398204Y428315D01*
X398220Y428327D01*
X398238Y428335D01*
X398369Y428440D01*
X417732Y447803D01*
X510794Y447803D01*
X510814Y447806D01*
X510833Y447804D01*
X510935Y447826D01*
X511037Y447842D01*
X511054Y447852D01*
X511074Y447856D01*
X511163Y447909D01*
X511254Y447958D01*
X511268Y447972D01*
X511285Y447982D01*
X511352Y448061D01*
X511424Y448136D01*
X511432Y448154D01*
X511445Y448169D01*
X511450Y448183D01*
X516912Y453645D01*
X524488Y453645D01*
X529845Y448288D01*
X529845Y440712D01*
X524488Y435355D01*
X516912Y435355D01*
X511433Y440834D01*
X511400Y440896D01*
X511386Y440910D01*
X511376Y440927D01*
X511297Y440994D01*
X511222Y441066D01*
X511204Y441074D01*
X511189Y441087D01*
X511093Y441126D01*
X510999Y441169D01*
X510979Y441171D01*
X510961Y441179D01*
X510794Y441197D01*
X420783Y441197D01*
X420693Y441183D01*
X420602Y441175D01*
X420573Y441163D01*
X420541Y441158D01*
X420460Y441115D01*
X420376Y441079D01*
X420344Y441053D01*
X420323Y441042D01*
X420301Y441019D01*
X420245Y440974D01*
X403040Y423769D01*
X403028Y423753D01*
X403013Y423741D01*
X402957Y423653D01*
X402896Y423569D01*
X402891Y423551D01*
X402880Y423534D01*
X402854Y423433D01*
X402824Y423334D01*
X402825Y423314D01*
X402820Y423295D01*
X402828Y423192D01*
X402830Y423089D01*
X402837Y423070D01*
X402839Y423050D01*
X402845Y423036D01*
X402845Y415312D01*
X397488Y409955D01*
X389912Y409955D01*
G37*
%LPD*%
%LPC*%
G36*
X567712Y67055D02*
X567712Y67055D01*
X562355Y72412D01*
X562355Y80160D01*
X562376Y80227D01*
X562375Y80247D01*
X562380Y80267D01*
X562372Y80370D01*
X562370Y80473D01*
X562363Y80492D01*
X562361Y80512D01*
X562321Y80607D01*
X562285Y80704D01*
X562273Y80720D01*
X562265Y80738D01*
X562160Y80869D01*
X544955Y98074D01*
X542797Y100232D01*
X542797Y155194D01*
X542794Y155214D01*
X542796Y155233D01*
X542774Y155335D01*
X542758Y155437D01*
X542748Y155454D01*
X542744Y155474D01*
X542691Y155563D01*
X542642Y155654D01*
X542628Y155668D01*
X542618Y155685D01*
X542539Y155752D01*
X542464Y155824D01*
X542446Y155832D01*
X542431Y155845D01*
X542417Y155850D01*
X536955Y161312D01*
X536955Y168888D01*
X542312Y174245D01*
X549888Y174245D01*
X555245Y168888D01*
X555245Y161312D01*
X549766Y155833D01*
X549704Y155800D01*
X549690Y155786D01*
X549673Y155776D01*
X549606Y155697D01*
X549534Y155622D01*
X549526Y155604D01*
X549513Y155589D01*
X549474Y155493D01*
X549431Y155399D01*
X549429Y155379D01*
X549421Y155361D01*
X549403Y155194D01*
X549403Y103283D01*
X549417Y103193D01*
X549425Y103102D01*
X549437Y103073D01*
X549442Y103041D01*
X549485Y102960D01*
X549521Y102876D01*
X549547Y102844D01*
X549558Y102823D01*
X549581Y102801D01*
X549626Y102745D01*
X566831Y85540D01*
X566847Y85528D01*
X566859Y85513D01*
X566947Y85457D01*
X567031Y85396D01*
X567049Y85391D01*
X567066Y85380D01*
X567167Y85354D01*
X567266Y85324D01*
X567286Y85325D01*
X567305Y85320D01*
X567408Y85328D01*
X567511Y85330D01*
X567530Y85337D01*
X567550Y85339D01*
X567564Y85345D01*
X575288Y85345D01*
X580645Y79988D01*
X580645Y72412D01*
X575288Y67055D01*
X567712Y67055D01*
G37*
%LPD*%
%LPC*%
G36*
X694712Y16255D02*
X694712Y16255D01*
X689355Y21612D01*
X689355Y29188D01*
X694834Y34667D01*
X694896Y34700D01*
X694910Y34714D01*
X694927Y34724D01*
X694994Y34803D01*
X695066Y34878D01*
X695074Y34896D01*
X695087Y34911D01*
X695126Y35007D01*
X695169Y35101D01*
X695171Y35121D01*
X695179Y35139D01*
X695197Y35306D01*
X695197Y104394D01*
X695194Y104414D01*
X695196Y104433D01*
X695174Y104535D01*
X695158Y104637D01*
X695148Y104654D01*
X695144Y104674D01*
X695091Y104763D01*
X695042Y104854D01*
X695028Y104868D01*
X695018Y104885D01*
X694939Y104952D01*
X694864Y105024D01*
X694846Y105032D01*
X694831Y105045D01*
X694817Y105050D01*
X689355Y110512D01*
X689355Y118088D01*
X694712Y123445D01*
X702288Y123445D01*
X707645Y118088D01*
X707645Y110512D01*
X702166Y105033D01*
X702104Y105000D01*
X702090Y104986D01*
X702073Y104976D01*
X702006Y104897D01*
X701934Y104822D01*
X701926Y104804D01*
X701913Y104789D01*
X701874Y104693D01*
X701831Y104599D01*
X701829Y104579D01*
X701821Y104561D01*
X701803Y104394D01*
X701803Y35306D01*
X701806Y35286D01*
X701804Y35267D01*
X701826Y35165D01*
X701842Y35063D01*
X701852Y35046D01*
X701856Y35026D01*
X701909Y34937D01*
X701958Y34846D01*
X701972Y34832D01*
X701982Y34815D01*
X702061Y34748D01*
X702136Y34676D01*
X702154Y34668D01*
X702169Y34655D01*
X702183Y34650D01*
X707645Y29188D01*
X707645Y21612D01*
X702288Y16255D01*
X694712Y16255D01*
G37*
%LPD*%
%LPC*%
G36*
X130105Y472759D02*
X130105Y472759D01*
X125496Y474668D01*
X121968Y478196D01*
X120059Y482805D01*
X120059Y507795D01*
X121968Y512404D01*
X125496Y515932D01*
X130105Y517841D01*
X135095Y517841D01*
X139704Y515932D01*
X143232Y512404D01*
X145141Y507795D01*
X145141Y482805D01*
X143232Y478196D01*
X139704Y474668D01*
X135095Y472759D01*
X130105Y472759D01*
G37*
%LPD*%
%LPC*%
G36*
X618512Y105155D02*
X618512Y105155D01*
X613033Y110634D01*
X613000Y110696D01*
X612986Y110710D01*
X612976Y110727D01*
X612897Y110794D01*
X612822Y110866D01*
X612804Y110874D01*
X612789Y110887D01*
X612693Y110926D01*
X612599Y110969D01*
X612579Y110971D01*
X612561Y110979D01*
X612394Y110997D01*
X577454Y110997D01*
X577364Y110983D01*
X577273Y110975D01*
X577244Y110963D01*
X577212Y110958D01*
X577131Y110915D01*
X577047Y110879D01*
X577015Y110853D01*
X576994Y110842D01*
X576972Y110819D01*
X576916Y110774D01*
X575082Y108940D01*
X572758Y107977D01*
X570242Y107977D01*
X567918Y108940D01*
X566140Y110718D01*
X565177Y113042D01*
X565177Y115558D01*
X566140Y117882D01*
X567918Y119660D01*
X570242Y120623D01*
X572758Y120623D01*
X575082Y119660D01*
X576916Y117826D01*
X576990Y117773D01*
X577059Y117713D01*
X577090Y117701D01*
X577116Y117682D01*
X577203Y117655D01*
X577288Y117621D01*
X577329Y117617D01*
X577351Y117610D01*
X577383Y117611D01*
X577454Y117603D01*
X612394Y117603D01*
X612414Y117606D01*
X612433Y117604D01*
X612535Y117626D01*
X612637Y117642D01*
X612654Y117652D01*
X612674Y117656D01*
X612763Y117709D01*
X612854Y117758D01*
X612868Y117772D01*
X612885Y117782D01*
X612952Y117861D01*
X613024Y117936D01*
X613032Y117954D01*
X613045Y117969D01*
X613050Y117983D01*
X618512Y123445D01*
X626088Y123445D01*
X631445Y118088D01*
X631445Y110512D01*
X626088Y105155D01*
X618512Y105155D01*
G37*
%LPD*%
%LPC*%
G36*
X328179Y515619D02*
X328179Y515619D01*
X324444Y517166D01*
X321586Y520024D01*
X320039Y523759D01*
X320039Y543041D01*
X321586Y546776D01*
X324444Y549634D01*
X328179Y551181D01*
X332221Y551181D01*
X335956Y549634D01*
X338814Y546776D01*
X340361Y543041D01*
X340361Y523759D01*
X338814Y520024D01*
X335956Y517166D01*
X332221Y515619D01*
X328179Y515619D01*
G37*
%LPD*%
%LPC*%
G36*
X429779Y515619D02*
X429779Y515619D01*
X426044Y517166D01*
X423186Y520024D01*
X421639Y523759D01*
X421639Y543041D01*
X423186Y546776D01*
X426044Y549634D01*
X429779Y551181D01*
X433821Y551181D01*
X437556Y549634D01*
X440414Y546776D01*
X441961Y543041D01*
X441961Y523759D01*
X440414Y520024D01*
X437556Y517166D01*
X433821Y515619D01*
X429779Y515619D01*
G37*
%LPD*%
%LPC*%
G36*
X404379Y515619D02*
X404379Y515619D01*
X400644Y517166D01*
X397786Y520024D01*
X396239Y523759D01*
X396239Y543041D01*
X397786Y546776D01*
X400644Y549634D01*
X404379Y551181D01*
X408421Y551181D01*
X412156Y549634D01*
X415014Y546776D01*
X416561Y543041D01*
X416561Y523759D01*
X415014Y520024D01*
X412156Y517166D01*
X408421Y515619D01*
X404379Y515619D01*
G37*
%LPD*%
%LPC*%
G36*
X378979Y515619D02*
X378979Y515619D01*
X375244Y517166D01*
X372386Y520024D01*
X370839Y523759D01*
X370839Y543041D01*
X372386Y546776D01*
X375244Y549634D01*
X378979Y551181D01*
X383021Y551181D01*
X386756Y549634D01*
X389614Y546776D01*
X391161Y543041D01*
X391161Y523759D01*
X389614Y520024D01*
X386756Y517166D01*
X383021Y515619D01*
X378979Y515619D01*
G37*
%LPD*%
%LPC*%
G36*
X353579Y515619D02*
X353579Y515619D01*
X349844Y517166D01*
X346986Y520024D01*
X345439Y523759D01*
X345439Y543041D01*
X346986Y546776D01*
X349844Y549634D01*
X353579Y551181D01*
X357621Y551181D01*
X361356Y549634D01*
X364214Y546776D01*
X365761Y543041D01*
X365761Y523759D01*
X364214Y520024D01*
X361356Y517166D01*
X357621Y515619D01*
X353579Y515619D01*
G37*
%LPD*%
%LPC*%
G36*
X213879Y515619D02*
X213879Y515619D01*
X210144Y517166D01*
X207286Y520024D01*
X205739Y523759D01*
X205739Y543041D01*
X207286Y546776D01*
X210144Y549634D01*
X213879Y551181D01*
X217921Y551181D01*
X221656Y549634D01*
X224514Y546776D01*
X226061Y543041D01*
X226061Y523759D01*
X224514Y520024D01*
X221656Y517166D01*
X217921Y515619D01*
X213879Y515619D01*
G37*
%LPD*%
%LPC*%
G36*
X455179Y515619D02*
X455179Y515619D01*
X451444Y517166D01*
X448586Y520024D01*
X447039Y523759D01*
X447039Y543041D01*
X448586Y546776D01*
X451444Y549634D01*
X455179Y551181D01*
X459221Y551181D01*
X462956Y549634D01*
X465814Y546776D01*
X467361Y543041D01*
X467361Y523759D01*
X465814Y520024D01*
X462956Y517166D01*
X459221Y515619D01*
X455179Y515619D01*
G37*
%LPD*%
%LPC*%
G36*
X302779Y-68581D02*
X302779Y-68581D01*
X299044Y-67034D01*
X296186Y-64176D01*
X294639Y-60441D01*
X294639Y-41159D01*
X296186Y-37424D01*
X299044Y-34566D01*
X302779Y-33019D01*
X306821Y-33019D01*
X310556Y-34566D01*
X313414Y-37424D01*
X314961Y-41159D01*
X314961Y-60441D01*
X313414Y-64176D01*
X310556Y-67034D01*
X306821Y-68581D01*
X302779Y-68581D01*
G37*
%LPD*%
%LPC*%
G36*
X28459Y180339D02*
X28459Y180339D01*
X24724Y181886D01*
X21866Y184744D01*
X20319Y188479D01*
X20319Y192521D01*
X21866Y196256D01*
X24724Y199114D01*
X28459Y200661D01*
X47741Y200661D01*
X51476Y199114D01*
X54334Y196256D01*
X55881Y192521D01*
X55881Y188479D01*
X54334Y184744D01*
X51476Y181886D01*
X47741Y180339D01*
X28459Y180339D01*
G37*
%LPD*%
%LPC*%
G36*
X28459Y154939D02*
X28459Y154939D01*
X24724Y156486D01*
X21866Y159344D01*
X20319Y163079D01*
X20319Y167121D01*
X21866Y170856D01*
X24724Y173714D01*
X28459Y175261D01*
X47741Y175261D01*
X51476Y173714D01*
X54334Y170856D01*
X55881Y167121D01*
X55881Y163079D01*
X54334Y159344D01*
X51476Y156486D01*
X47741Y154939D01*
X28459Y154939D01*
G37*
%LPD*%
%LPC*%
G36*
X328179Y-68581D02*
X328179Y-68581D01*
X324444Y-67034D01*
X321586Y-64176D01*
X320039Y-60441D01*
X320039Y-41159D01*
X321586Y-37424D01*
X324444Y-34566D01*
X328179Y-33019D01*
X332221Y-33019D01*
X335956Y-34566D01*
X338814Y-37424D01*
X340361Y-41159D01*
X340361Y-60441D01*
X338814Y-64176D01*
X335956Y-67034D01*
X332221Y-68581D01*
X328179Y-68581D01*
G37*
%LPD*%
%LPC*%
G36*
X353579Y-68581D02*
X353579Y-68581D01*
X349844Y-67034D01*
X346986Y-64176D01*
X345439Y-60441D01*
X345439Y-41159D01*
X346986Y-37424D01*
X349844Y-34566D01*
X353579Y-33019D01*
X357621Y-33019D01*
X361356Y-34566D01*
X364214Y-37424D01*
X365761Y-41159D01*
X365761Y-60441D01*
X364214Y-64176D01*
X361356Y-67034D01*
X357621Y-68581D01*
X353579Y-68581D01*
G37*
%LPD*%
%LPC*%
G36*
X378979Y-68581D02*
X378979Y-68581D01*
X375244Y-67034D01*
X372386Y-64176D01*
X370839Y-60441D01*
X370839Y-41159D01*
X372386Y-37424D01*
X375244Y-34566D01*
X378979Y-33019D01*
X383021Y-33019D01*
X386756Y-34566D01*
X389614Y-37424D01*
X391161Y-41159D01*
X391161Y-60441D01*
X389614Y-64176D01*
X386756Y-67034D01*
X383021Y-68581D01*
X378979Y-68581D01*
G37*
%LPD*%
%LPC*%
G36*
X404379Y-68581D02*
X404379Y-68581D01*
X400644Y-67034D01*
X397786Y-64176D01*
X396239Y-60441D01*
X396239Y-41159D01*
X397786Y-37424D01*
X400644Y-34566D01*
X404379Y-33019D01*
X408421Y-33019D01*
X412156Y-34566D01*
X415014Y-37424D01*
X416561Y-41159D01*
X416561Y-60441D01*
X415014Y-64176D01*
X412156Y-67034D01*
X408421Y-68581D01*
X404379Y-68581D01*
G37*
%LPD*%
%LPC*%
G36*
X518679Y-68581D02*
X518679Y-68581D01*
X514944Y-67034D01*
X512086Y-64176D01*
X510539Y-60441D01*
X510539Y-41159D01*
X512086Y-37424D01*
X514944Y-34566D01*
X518679Y-33019D01*
X522721Y-33019D01*
X526456Y-34566D01*
X529314Y-37424D01*
X530861Y-41159D01*
X530861Y-60441D01*
X529314Y-64176D01*
X526456Y-67034D01*
X522721Y-68581D01*
X518679Y-68581D01*
G37*
%LPD*%
%LPC*%
G36*
X544079Y-68581D02*
X544079Y-68581D01*
X540344Y-67034D01*
X537486Y-64176D01*
X535939Y-60441D01*
X535939Y-41159D01*
X537486Y-37424D01*
X540344Y-34566D01*
X544079Y-33019D01*
X548121Y-33019D01*
X551856Y-34566D01*
X554714Y-37424D01*
X556261Y-41159D01*
X556261Y-60441D01*
X554714Y-64176D01*
X551856Y-67034D01*
X548121Y-68581D01*
X544079Y-68581D01*
G37*
%LPD*%
%LPC*%
G36*
X569479Y-68581D02*
X569479Y-68581D01*
X565744Y-67034D01*
X562886Y-64176D01*
X561339Y-60441D01*
X561339Y-41159D01*
X562886Y-37424D01*
X565744Y-34566D01*
X569479Y-33019D01*
X573521Y-33019D01*
X577256Y-34566D01*
X580114Y-37424D01*
X581661Y-41159D01*
X581661Y-60441D01*
X580114Y-64176D01*
X577256Y-67034D01*
X573521Y-68581D01*
X569479Y-68581D01*
G37*
%LPD*%
%LPC*%
G36*
X163079Y-43181D02*
X163079Y-43181D01*
X159344Y-41634D01*
X156486Y-38776D01*
X154939Y-35041D01*
X154939Y-15759D01*
X156486Y-12024D01*
X159344Y-9166D01*
X163079Y-7619D01*
X167121Y-7619D01*
X170856Y-9166D01*
X173714Y-12024D01*
X175261Y-15759D01*
X175261Y-35041D01*
X173714Y-38776D01*
X170856Y-41634D01*
X167121Y-43181D01*
X163079Y-43181D01*
G37*
%LPD*%
%LPC*%
G36*
X429779Y-68581D02*
X429779Y-68581D01*
X426044Y-67034D01*
X423186Y-64176D01*
X421639Y-60441D01*
X421639Y-41159D01*
X423186Y-37424D01*
X426044Y-34566D01*
X429779Y-33019D01*
X433821Y-33019D01*
X437556Y-34566D01*
X440414Y-37424D01*
X441961Y-41159D01*
X441961Y-60441D01*
X440414Y-64176D01*
X437556Y-67034D01*
X433821Y-68581D01*
X429779Y-68581D01*
G37*
%LPD*%
%LPC*%
G36*
X480579Y515619D02*
X480579Y515619D01*
X476844Y517166D01*
X473986Y520024D01*
X472439Y523759D01*
X472439Y543041D01*
X473986Y546776D01*
X476844Y549634D01*
X480579Y551181D01*
X484621Y551181D01*
X488356Y549634D01*
X491214Y546776D01*
X492761Y543041D01*
X492761Y523759D01*
X491214Y520024D01*
X488356Y517166D01*
X484621Y515619D01*
X480579Y515619D01*
G37*
%LPD*%
%LPC*%
G36*
X531379Y515619D02*
X531379Y515619D01*
X527644Y517166D01*
X524786Y520024D01*
X523239Y523759D01*
X523239Y543041D01*
X524786Y546776D01*
X527644Y549634D01*
X531379Y551181D01*
X535421Y551181D01*
X539156Y549634D01*
X542014Y546776D01*
X543561Y543041D01*
X543561Y523759D01*
X542014Y520024D01*
X539156Y517166D01*
X535421Y515619D01*
X531379Y515619D01*
G37*
%LPD*%
%LPC*%
G36*
X505979Y515619D02*
X505979Y515619D01*
X502244Y517166D01*
X499386Y520024D01*
X497839Y523759D01*
X497839Y543041D01*
X499386Y546776D01*
X502244Y549634D01*
X505979Y551181D01*
X510021Y551181D01*
X513756Y549634D01*
X516614Y546776D01*
X518161Y543041D01*
X518161Y523759D01*
X516614Y520024D01*
X513756Y517166D01*
X510021Y515619D01*
X505979Y515619D01*
G37*
%LPD*%
%LPC*%
G36*
X137679Y-43181D02*
X137679Y-43181D01*
X133944Y-41634D01*
X131086Y-38776D01*
X129539Y-35041D01*
X129539Y-15759D01*
X131086Y-12024D01*
X133944Y-9166D01*
X137679Y-7619D01*
X141721Y-7619D01*
X145456Y-9166D01*
X148314Y-12024D01*
X149861Y-15759D01*
X149861Y-35041D01*
X148314Y-38776D01*
X145456Y-41634D01*
X141721Y-43181D01*
X137679Y-43181D01*
G37*
%LPD*%
%LPC*%
G36*
X519442Y57177D02*
X519442Y57177D01*
X517118Y58140D01*
X515340Y59918D01*
X514377Y62242D01*
X514377Y64758D01*
X515340Y67082D01*
X517174Y68916D01*
X517227Y68990D01*
X517287Y69059D01*
X517299Y69090D01*
X517318Y69116D01*
X517345Y69203D01*
X517379Y69288D01*
X517383Y69329D01*
X517390Y69351D01*
X517389Y69383D01*
X517397Y69454D01*
X517397Y108346D01*
X517383Y108436D01*
X517375Y108527D01*
X517363Y108556D01*
X517358Y108588D01*
X517315Y108669D01*
X517279Y108753D01*
X517253Y108785D01*
X517242Y108806D01*
X517219Y108828D01*
X517174Y108884D01*
X515340Y110718D01*
X514377Y113042D01*
X514377Y115558D01*
X515340Y117882D01*
X517118Y119660D01*
X519442Y120623D01*
X521958Y120623D01*
X524282Y119660D01*
X526060Y117882D01*
X527023Y115558D01*
X527023Y113042D01*
X526060Y110718D01*
X524226Y108884D01*
X524173Y108810D01*
X524113Y108741D01*
X524101Y108710D01*
X524082Y108684D01*
X524055Y108597D01*
X524021Y108512D01*
X524017Y108471D01*
X524010Y108449D01*
X524011Y108417D01*
X524003Y108346D01*
X524003Y69454D01*
X524017Y69364D01*
X524025Y69273D01*
X524037Y69244D01*
X524042Y69212D01*
X524085Y69131D01*
X524121Y69047D01*
X524147Y69015D01*
X524158Y68994D01*
X524181Y68972D01*
X524226Y68916D01*
X526060Y67082D01*
X527023Y64758D01*
X527023Y62242D01*
X526060Y59918D01*
X524282Y58140D01*
X521958Y57177D01*
X519442Y57177D01*
G37*
%LPD*%
%LPC*%
G36*
X516912Y473455D02*
X516912Y473455D01*
X511555Y478812D01*
X511555Y486388D01*
X516912Y491745D01*
X524488Y491745D01*
X529845Y486388D01*
X529845Y478812D01*
X524488Y473455D01*
X516912Y473455D01*
G37*
%LPD*%
%LPC*%
G36*
X491512Y67055D02*
X491512Y67055D01*
X486155Y72412D01*
X486155Y79988D01*
X491512Y85345D01*
X499088Y85345D01*
X504445Y79988D01*
X504445Y72412D01*
X499088Y67055D01*
X491512Y67055D01*
G37*
%LPD*%
%LPC*%
G36*
X339112Y92455D02*
X339112Y92455D01*
X333755Y97812D01*
X333755Y105388D01*
X339112Y110745D01*
X346688Y110745D01*
X352045Y105388D01*
X352045Y97812D01*
X346688Y92455D01*
X339112Y92455D01*
G37*
%LPD*%
%LPC*%
G36*
X47012Y346455D02*
X47012Y346455D01*
X41655Y351812D01*
X41655Y359388D01*
X47012Y364745D01*
X54588Y364745D01*
X59945Y359388D01*
X59945Y351812D01*
X54588Y346455D01*
X47012Y346455D01*
G37*
%LPD*%
%LPC*%
G36*
X47012Y295655D02*
X47012Y295655D01*
X41655Y301012D01*
X41655Y308588D01*
X47012Y313945D01*
X54588Y313945D01*
X59945Y308588D01*
X59945Y301012D01*
X54588Y295655D01*
X47012Y295655D01*
G37*
%LPD*%
%LPC*%
G36*
X103123Y448823D02*
X103123Y448823D01*
X103123Y459841D01*
X112587Y459841D01*
X114537Y459532D01*
X116414Y458922D01*
X118173Y458026D01*
X119770Y456866D01*
X121166Y455470D01*
X122326Y453873D01*
X123222Y452114D01*
X123832Y450237D01*
X124056Y448823D01*
X103123Y448823D01*
G37*
%LPD*%
%LPC*%
G36*
X73123Y496823D02*
X73123Y496823D01*
X73123Y517756D01*
X74537Y517532D01*
X76414Y516922D01*
X78173Y516026D01*
X79770Y514866D01*
X81166Y513470D01*
X82326Y511873D01*
X83222Y510114D01*
X83832Y508237D01*
X84141Y506287D01*
X84141Y496823D01*
X73123Y496823D01*
G37*
%LPD*%
%LPC*%
G36*
X79144Y448823D02*
X79144Y448823D01*
X79368Y450237D01*
X79978Y452114D01*
X80874Y453873D01*
X82034Y455470D01*
X83430Y456866D01*
X85027Y458026D01*
X86786Y458922D01*
X88663Y459532D01*
X90613Y459841D01*
X100077Y459841D01*
X100077Y448823D01*
X79144Y448823D01*
G37*
%LPD*%
%LPC*%
G36*
X73123Y493777D02*
X73123Y493777D01*
X84141Y493777D01*
X84141Y484313D01*
X83832Y482363D01*
X83222Y480486D01*
X82326Y478727D01*
X81166Y477130D01*
X79770Y475734D01*
X78173Y474574D01*
X76414Y473678D01*
X74537Y473068D01*
X73123Y472844D01*
X73123Y493777D01*
G37*
%LPD*%
%LPC*%
G36*
X103123Y434759D02*
X103123Y434759D01*
X103123Y445777D01*
X124056Y445777D01*
X123832Y444363D01*
X123222Y442486D01*
X122326Y440727D01*
X121166Y439130D01*
X119770Y437734D01*
X118173Y436574D01*
X116414Y435678D01*
X114537Y435068D01*
X112587Y434759D01*
X103123Y434759D01*
G37*
%LPD*%
%LPC*%
G36*
X59059Y496823D02*
X59059Y496823D01*
X59059Y506287D01*
X59368Y508237D01*
X59978Y510114D01*
X60874Y511873D01*
X62034Y513470D01*
X63430Y514866D01*
X65027Y516026D01*
X66786Y516922D01*
X68663Y517532D01*
X70077Y517756D01*
X70077Y496823D01*
X59059Y496823D01*
G37*
%LPD*%
%LPC*%
G36*
X68663Y473068D02*
X68663Y473068D01*
X66786Y473678D01*
X65027Y474574D01*
X63430Y475734D01*
X62034Y477130D01*
X60874Y478727D01*
X59978Y480486D01*
X59368Y482363D01*
X59059Y484313D01*
X59059Y493777D01*
X70077Y493777D01*
X70077Y472844D01*
X68663Y473068D01*
G37*
%LPD*%
%LPC*%
G36*
X90613Y434759D02*
X90613Y434759D01*
X88663Y435068D01*
X86786Y435678D01*
X85027Y436574D01*
X83430Y437734D01*
X82034Y439130D01*
X80874Y440727D01*
X79978Y442486D01*
X79368Y444363D01*
X79144Y445777D01*
X100077Y445777D01*
X100077Y434759D01*
X90613Y434759D01*
G37*
%LPD*%
%LPC*%
G36*
X39623Y141223D02*
X39623Y141223D01*
X39623Y149861D01*
X46520Y149861D01*
X48099Y149611D01*
X49620Y149116D01*
X51045Y148390D01*
X52339Y147450D01*
X53470Y146319D01*
X54410Y145025D01*
X55136Y143600D01*
X55631Y142079D01*
X55766Y141223D01*
X39623Y141223D01*
G37*
%LPD*%
%LPC*%
G36*
X115823Y-26923D02*
X115823Y-26923D01*
X124461Y-26923D01*
X124461Y-33820D01*
X124211Y-35399D01*
X123716Y-36920D01*
X122990Y-38345D01*
X122050Y-39639D01*
X120919Y-40770D01*
X119625Y-41710D01*
X118200Y-42436D01*
X116679Y-42931D01*
X115823Y-43066D01*
X115823Y-26923D01*
G37*
%LPD*%
%LPC*%
G36*
X20434Y141223D02*
X20434Y141223D01*
X20569Y142079D01*
X21064Y143600D01*
X21790Y145025D01*
X22730Y146319D01*
X23861Y147450D01*
X25155Y148390D01*
X26580Y149116D01*
X28101Y149611D01*
X29680Y149861D01*
X36577Y149861D01*
X36577Y141223D01*
X20434Y141223D01*
G37*
%LPD*%
%LPC*%
G36*
X115823Y-23877D02*
X115823Y-23877D01*
X115823Y-7734D01*
X116679Y-7869D01*
X118200Y-8364D01*
X119625Y-9090D01*
X120919Y-10030D01*
X122050Y-11161D01*
X122990Y-12455D01*
X123716Y-13880D01*
X124211Y-15401D01*
X124461Y-16980D01*
X124461Y-23877D01*
X115823Y-23877D01*
G37*
%LPD*%
%LPC*%
G36*
X39623Y129539D02*
X39623Y129539D01*
X39623Y138177D01*
X55766Y138177D01*
X55631Y137321D01*
X55136Y135800D01*
X54410Y134375D01*
X53470Y133081D01*
X52339Y131950D01*
X51045Y131010D01*
X49620Y130284D01*
X48099Y129789D01*
X46520Y129539D01*
X39623Y129539D01*
G37*
%LPD*%
%LPC*%
G36*
X111921Y-42931D02*
X111921Y-42931D01*
X110400Y-42436D01*
X108975Y-41710D01*
X107681Y-40770D01*
X106550Y-39639D01*
X105610Y-38345D01*
X104884Y-36920D01*
X104389Y-35399D01*
X104139Y-33820D01*
X104139Y-26923D01*
X112777Y-26923D01*
X112777Y-43066D01*
X111921Y-42931D01*
G37*
%LPD*%
%LPC*%
G36*
X29680Y129539D02*
X29680Y129539D01*
X28101Y129789D01*
X26580Y130284D01*
X25155Y131010D01*
X23861Y131950D01*
X22730Y133081D01*
X21790Y134375D01*
X21064Y135800D01*
X20569Y137321D01*
X20434Y138177D01*
X36577Y138177D01*
X36577Y129539D01*
X29680Y129539D01*
G37*
%LPD*%
%LPC*%
G36*
X104139Y-23877D02*
X104139Y-23877D01*
X104139Y-16980D01*
X104389Y-15401D01*
X104884Y-13880D01*
X105610Y-12455D01*
X106550Y-11161D01*
X107681Y-10030D01*
X108975Y-9090D01*
X110400Y-8364D01*
X111921Y-7869D01*
X112777Y-7734D01*
X112777Y-23877D01*
X104139Y-23877D01*
G37*
%LPD*%
%LPC*%
G36*
X255523Y230123D02*
X255523Y230123D01*
X255523Y237745D01*
X257788Y237745D01*
X263145Y232388D01*
X263145Y230123D01*
X255523Y230123D01*
G37*
%LPD*%
%LPC*%
G36*
X420623Y420623D02*
X420623Y420623D01*
X420623Y428245D01*
X422888Y428245D01*
X428245Y422888D01*
X428245Y420623D01*
X420623Y420623D01*
G37*
%LPD*%
%LPC*%
G36*
X103123Y420623D02*
X103123Y420623D01*
X103123Y428245D01*
X105388Y428245D01*
X110745Y422888D01*
X110745Y420623D01*
X103123Y420623D01*
G37*
%LPD*%
%LPC*%
G36*
X547623Y192023D02*
X547623Y192023D01*
X547623Y199645D01*
X549888Y199645D01*
X555245Y194288D01*
X555245Y192023D01*
X547623Y192023D01*
G37*
%LPD*%
%LPC*%
G36*
X319023Y103123D02*
X319023Y103123D01*
X319023Y110745D01*
X321288Y110745D01*
X326645Y105388D01*
X326645Y103123D01*
X319023Y103123D01*
G37*
%LPD*%
%LPC*%
G36*
X471423Y77723D02*
X471423Y77723D01*
X471423Y85345D01*
X473688Y85345D01*
X479045Y79988D01*
X479045Y77723D01*
X471423Y77723D01*
G37*
%LPD*%
%LPC*%
G36*
X230123Y128523D02*
X230123Y128523D01*
X230123Y136145D01*
X232388Y136145D01*
X237745Y130788D01*
X237745Y128523D01*
X230123Y128523D01*
G37*
%LPD*%
%LPC*%
G36*
X725423Y230123D02*
X725423Y230123D01*
X725423Y237745D01*
X727688Y237745D01*
X733045Y232388D01*
X733045Y230123D01*
X725423Y230123D01*
G37*
%LPD*%
%LPC*%
G36*
X547623Y77723D02*
X547623Y77723D01*
X547623Y85345D01*
X549888Y85345D01*
X555245Y79988D01*
X555245Y77723D01*
X547623Y77723D01*
G37*
%LPD*%
%LPC*%
G36*
X255523Y369823D02*
X255523Y369823D01*
X255523Y377445D01*
X257788Y377445D01*
X263145Y372088D01*
X263145Y369823D01*
X255523Y369823D01*
G37*
%LPD*%
%LPC*%
G36*
X460755Y77723D02*
X460755Y77723D01*
X460755Y79988D01*
X466112Y85345D01*
X468377Y85345D01*
X468377Y77723D01*
X460755Y77723D01*
G37*
%LPD*%
%LPC*%
G36*
X92455Y420623D02*
X92455Y420623D01*
X92455Y422888D01*
X97812Y428245D01*
X100077Y428245D01*
X100077Y420623D01*
X92455Y420623D01*
G37*
%LPD*%
%LPC*%
G36*
X409955Y420623D02*
X409955Y420623D01*
X409955Y422888D01*
X415312Y428245D01*
X417577Y428245D01*
X417577Y420623D01*
X409955Y420623D01*
G37*
%LPD*%
%LPC*%
G36*
X308355Y103123D02*
X308355Y103123D01*
X308355Y105388D01*
X313712Y110745D01*
X315977Y110745D01*
X315977Y103123D01*
X308355Y103123D01*
G37*
%LPD*%
%LPC*%
G36*
X714755Y230123D02*
X714755Y230123D01*
X714755Y232388D01*
X720112Y237745D01*
X722377Y237745D01*
X722377Y230123D01*
X714755Y230123D01*
G37*
%LPD*%
%LPC*%
G36*
X536955Y77723D02*
X536955Y77723D01*
X536955Y79988D01*
X542312Y85345D01*
X544577Y85345D01*
X544577Y77723D01*
X536955Y77723D01*
G37*
%LPD*%
%LPC*%
G36*
X536955Y192023D02*
X536955Y192023D01*
X536955Y194288D01*
X542312Y199645D01*
X544577Y199645D01*
X544577Y192023D01*
X536955Y192023D01*
G37*
%LPD*%
%LPC*%
G36*
X244855Y230123D02*
X244855Y230123D01*
X244855Y232388D01*
X250212Y237745D01*
X252477Y237745D01*
X252477Y230123D01*
X244855Y230123D01*
G37*
%LPD*%
%LPC*%
G36*
X547623Y181355D02*
X547623Y181355D01*
X547623Y188977D01*
X555245Y188977D01*
X555245Y186712D01*
X549888Y181355D01*
X547623Y181355D01*
G37*
%LPD*%
%LPC*%
G36*
X319023Y92455D02*
X319023Y92455D01*
X319023Y100077D01*
X326645Y100077D01*
X326645Y97812D01*
X321288Y92455D01*
X319023Y92455D01*
G37*
%LPD*%
%LPC*%
G36*
X255523Y359155D02*
X255523Y359155D01*
X255523Y366777D01*
X263145Y366777D01*
X263145Y364512D01*
X257788Y359155D01*
X255523Y359155D01*
G37*
%LPD*%
%LPC*%
G36*
X471423Y67055D02*
X471423Y67055D01*
X471423Y74677D01*
X479045Y74677D01*
X479045Y72412D01*
X473688Y67055D01*
X471423Y67055D01*
G37*
%LPD*%
%LPC*%
G36*
X244855Y369823D02*
X244855Y369823D01*
X244855Y372088D01*
X250212Y377445D01*
X252477Y377445D01*
X252477Y369823D01*
X244855Y369823D01*
G37*
%LPD*%
%LPC*%
G36*
X255523Y219455D02*
X255523Y219455D01*
X255523Y227077D01*
X263145Y227077D01*
X263145Y224812D01*
X257788Y219455D01*
X255523Y219455D01*
G37*
%LPD*%
%LPC*%
G36*
X725423Y155955D02*
X725423Y155955D01*
X725423Y163577D01*
X733045Y163577D01*
X733045Y161312D01*
X727688Y155955D01*
X725423Y155955D01*
G37*
%LPD*%
%LPC*%
G36*
X547623Y67055D02*
X547623Y67055D01*
X547623Y74677D01*
X555245Y74677D01*
X555245Y72412D01*
X549888Y67055D01*
X547623Y67055D01*
G37*
%LPD*%
%LPC*%
G36*
X219455Y128523D02*
X219455Y128523D01*
X219455Y130788D01*
X224812Y136145D01*
X227077Y136145D01*
X227077Y128523D01*
X219455Y128523D01*
G37*
%LPD*%
%LPC*%
G36*
X230123Y117855D02*
X230123Y117855D01*
X230123Y125477D01*
X237745Y125477D01*
X237745Y123212D01*
X232388Y117855D01*
X230123Y117855D01*
G37*
%LPD*%
%LPC*%
G36*
X725423Y219455D02*
X725423Y219455D01*
X725423Y227077D01*
X733045Y227077D01*
X733045Y224812D01*
X727688Y219455D01*
X725423Y219455D01*
G37*
%LPD*%
%LPC*%
G36*
X103123Y409955D02*
X103123Y409955D01*
X103123Y417577D01*
X110745Y417577D01*
X110745Y415312D01*
X105388Y409955D01*
X103123Y409955D01*
G37*
%LPD*%
%LPC*%
G36*
X420623Y409955D02*
X420623Y409955D01*
X420623Y417577D01*
X428245Y417577D01*
X428245Y415312D01*
X422888Y409955D01*
X420623Y409955D01*
G37*
%LPD*%
%LPC*%
G36*
X250212Y359155D02*
X250212Y359155D01*
X244855Y364512D01*
X244855Y366777D01*
X252477Y366777D01*
X252477Y359155D01*
X250212Y359155D01*
G37*
%LPD*%
%LPC*%
G36*
X250212Y219455D02*
X250212Y219455D01*
X244855Y224812D01*
X244855Y227077D01*
X252477Y227077D01*
X252477Y219455D01*
X250212Y219455D01*
G37*
%LPD*%
%LPC*%
G36*
X542312Y181355D02*
X542312Y181355D01*
X536955Y186712D01*
X536955Y188977D01*
X544577Y188977D01*
X544577Y181355D01*
X542312Y181355D01*
G37*
%LPD*%
%LPC*%
G36*
X224812Y117855D02*
X224812Y117855D01*
X219455Y123212D01*
X219455Y125477D01*
X227077Y125477D01*
X227077Y117855D01*
X224812Y117855D01*
G37*
%LPD*%
%LPC*%
G36*
X542312Y67055D02*
X542312Y67055D01*
X536955Y72412D01*
X536955Y74677D01*
X544577Y74677D01*
X544577Y67055D01*
X542312Y67055D01*
G37*
%LPD*%
%LPC*%
G36*
X720112Y219455D02*
X720112Y219455D01*
X714755Y224812D01*
X714755Y227077D01*
X722377Y227077D01*
X722377Y219455D01*
X720112Y219455D01*
G37*
%LPD*%
%LPC*%
G36*
X720112Y155955D02*
X720112Y155955D01*
X714755Y161312D01*
X714755Y163577D01*
X722377Y163577D01*
X722377Y155955D01*
X720112Y155955D01*
G37*
%LPD*%
%LPC*%
G36*
X415312Y409955D02*
X415312Y409955D01*
X409955Y415312D01*
X409955Y417577D01*
X417577Y417577D01*
X417577Y409955D01*
X415312Y409955D01*
G37*
%LPD*%
%LPC*%
G36*
X466112Y67055D02*
X466112Y67055D01*
X460755Y72412D01*
X460755Y74677D01*
X468377Y74677D01*
X468377Y67055D01*
X466112Y67055D01*
G37*
%LPD*%
%LPC*%
G36*
X97812Y409955D02*
X97812Y409955D01*
X92455Y415312D01*
X92455Y417577D01*
X100077Y417577D01*
X100077Y409955D01*
X97812Y409955D01*
G37*
%LPD*%
%LPC*%
G36*
X313712Y92455D02*
X313712Y92455D01*
X308355Y97812D01*
X308355Y100077D01*
X315977Y100077D01*
X315977Y92455D01*
X313712Y92455D01*
G37*
%LPD*%
%LPC*%
G36*
X228599Y126999D02*
X228599Y126999D01*
X228599Y127001D01*
X228601Y127001D01*
X228601Y126999D01*
X228599Y126999D01*
G37*
%LPD*%
%LPC*%
G36*
X317499Y101599D02*
X317499Y101599D01*
X317499Y101601D01*
X317501Y101601D01*
X317501Y101599D01*
X317499Y101599D01*
G37*
%LPD*%
%LPC*%
G36*
X114299Y-25401D02*
X114299Y-25401D01*
X114299Y-25399D01*
X114301Y-25399D01*
X114301Y-25401D01*
X114299Y-25401D01*
G37*
%LPD*%
%LPC*%
G36*
X469899Y76199D02*
X469899Y76199D01*
X469899Y76201D01*
X469901Y76201D01*
X469901Y76199D01*
X469899Y76199D01*
G37*
%LPD*%
%LPC*%
G36*
X546099Y76199D02*
X546099Y76199D01*
X546099Y76201D01*
X546101Y76201D01*
X546101Y76199D01*
X546099Y76199D01*
G37*
%LPD*%
%LPC*%
G36*
X71599Y495299D02*
X71599Y495299D01*
X71599Y495301D01*
X71601Y495301D01*
X71601Y495299D01*
X71599Y495299D01*
G37*
%LPD*%
%LPC*%
G36*
X38099Y139699D02*
X38099Y139699D01*
X38099Y139701D01*
X38101Y139701D01*
X38101Y139699D01*
X38099Y139699D01*
G37*
%LPD*%
%LPC*%
G36*
X253999Y228599D02*
X253999Y228599D01*
X253999Y228601D01*
X254001Y228601D01*
X254001Y228599D01*
X253999Y228599D01*
G37*
%LPD*%
%LPC*%
G36*
X546099Y190499D02*
X546099Y190499D01*
X546099Y190501D01*
X546101Y190501D01*
X546101Y190499D01*
X546099Y190499D01*
G37*
%LPD*%
%LPC*%
G36*
X101599Y447299D02*
X101599Y447299D01*
X101599Y447301D01*
X101601Y447301D01*
X101601Y447299D01*
X101599Y447299D01*
G37*
%LPD*%
%LPC*%
G36*
X253999Y368299D02*
X253999Y368299D01*
X253999Y368301D01*
X254001Y368301D01*
X254001Y368299D01*
X253999Y368299D01*
G37*
%LPD*%
%LPC*%
G36*
X101599Y419099D02*
X101599Y419099D01*
X101599Y419101D01*
X101601Y419101D01*
X101601Y419099D01*
X101599Y419099D01*
G37*
%LPD*%
%LPC*%
G36*
X419099Y419099D02*
X419099Y419099D01*
X419099Y419101D01*
X419101Y419101D01*
X419101Y419099D01*
X419099Y419099D01*
G37*
%LPD*%
%LPC*%
G36*
X723899Y228599D02*
X723899Y228599D01*
X723899Y228601D01*
X723901Y228601D01*
X723901Y228599D01*
X723899Y228599D01*
G37*
%LPD*%
D10*
X254000Y254000D03*
X254000Y228600D03*
D11*
X228600Y127000D03*
X228600Y152400D03*
D12*
X393700Y419100D03*
X419100Y419100D03*
X317500Y101600D03*
X342900Y101600D03*
D11*
X546100Y165100D03*
X546100Y190500D03*
X254000Y342900D03*
X254000Y368300D03*
D12*
X546100Y76200D03*
X571500Y76200D03*
X469900Y76200D03*
X495300Y76200D03*
D13*
X63500Y-17780D02*
X63500Y-33020D01*
X88900Y-33020D02*
X88900Y-17780D01*
X114300Y-17780D02*
X114300Y-33020D01*
X139700Y-33020D02*
X139700Y-17780D01*
X165100Y-17780D02*
X165100Y-33020D01*
D14*
X127000Y304800D03*
X50800Y304800D03*
X596900Y482600D03*
X520700Y482600D03*
D12*
X50800Y355600D03*
X127000Y355600D03*
D14*
X596900Y444500D03*
X520700Y444500D03*
D13*
X533400Y525780D02*
X533400Y541020D01*
X508000Y541020D02*
X508000Y525780D01*
X482600Y525780D02*
X482600Y541020D01*
X457200Y541020D02*
X457200Y525780D01*
X431800Y525780D02*
X431800Y541020D01*
X406400Y541020D02*
X406400Y525780D01*
X381000Y525780D02*
X381000Y541020D01*
X355600Y541020D02*
X355600Y525780D01*
X330200Y525780D02*
X330200Y541020D01*
X45720Y139700D02*
X30480Y139700D01*
X30480Y165100D02*
X45720Y165100D01*
X45720Y190500D02*
X30480Y190500D01*
X30480Y215900D02*
X45720Y215900D01*
D15*
X132600Y485300D02*
X132600Y505300D01*
X71600Y505300D02*
X71600Y485300D01*
X91600Y447300D02*
X111600Y447300D01*
D14*
X101600Y419100D03*
X76200Y419100D03*
D16*
X654812Y177800D02*
X665988Y177800D01*
X665988Y228600D02*
X654812Y228600D01*
D12*
X723900Y228600D03*
X749300Y228600D03*
X723900Y165100D03*
X749300Y165100D03*
D13*
X431800Y-43180D02*
X431800Y-58420D01*
X406400Y-58420D02*
X406400Y-43180D01*
X381000Y-43180D02*
X381000Y-58420D01*
X355600Y-58420D02*
X355600Y-43180D01*
X330200Y-43180D02*
X330200Y-58420D01*
X304800Y-58420D02*
X304800Y-43180D01*
D12*
X622300Y114300D03*
X698500Y114300D03*
X622300Y25400D03*
X698500Y25400D03*
X190500Y457200D03*
X266700Y457200D03*
X190500Y406400D03*
X266700Y406400D03*
D13*
X215900Y525780D02*
X215900Y541020D01*
X241300Y541020D02*
X241300Y525780D01*
X266700Y525780D02*
X266700Y541020D01*
X571500Y-43180D02*
X571500Y-58420D01*
X546100Y-58420D02*
X546100Y-43180D01*
X520700Y-43180D02*
X520700Y-58420D01*
D17*
X152400Y279400D02*
X127000Y304800D01*
X152400Y279400D02*
X241300Y279400D01*
X254000Y266700D01*
X254000Y254000D01*
D18*
X101600Y254000D03*
D17*
X63500Y88900D02*
X63500Y-25400D01*
X63500Y88900D02*
X101600Y127000D01*
X101600Y254000D01*
X165100Y50800D02*
X203200Y50800D01*
X114300Y0D02*
X114300Y-25400D01*
D18*
X469900Y165100D03*
X431800Y241300D03*
D17*
X76200Y406400D02*
X76200Y419100D01*
X76200Y406400D02*
X127000Y355600D01*
X546100Y101600D02*
X571500Y76200D01*
X546100Y101600D02*
X546100Y165100D01*
X228600Y152400D02*
X139700Y63500D01*
X127000Y63500D01*
X88900Y25400D01*
X88900Y-25400D01*
D18*
X292100Y203200D03*
D17*
X241300Y152400D01*
X228600Y152400D01*
X419100Y444500D02*
X520700Y444500D01*
X419100Y444500D02*
X393700Y419100D01*
D18*
X355600Y254000D03*
X355600Y190500D03*
X381000Y215900D03*
D17*
X127000Y342900D02*
X127000Y355600D01*
X342900Y203200D02*
X355600Y190500D01*
X342900Y203200D02*
X342900Y241300D01*
X355600Y254000D01*
X381000Y215900D02*
X393700Y228600D01*
X393700Y241300D01*
X381000Y254000D01*
X355600Y254000D01*
X266700Y406400D02*
X266700Y457200D01*
X698500Y114300D02*
X698500Y25400D01*
X292100Y381000D02*
X266700Y406400D01*
X292100Y381000D02*
X292100Y368300D01*
X266700Y342900D01*
X254000Y342900D01*
X381000Y215900D02*
X381000Y203200D01*
X393700Y190500D01*
X406400Y190500D01*
D18*
X406400Y190500D03*
D17*
X63500Y215900D02*
X38100Y215900D01*
X63500Y215900D02*
X88900Y241300D01*
X88900Y304800D01*
X127000Y342900D01*
D18*
X520700Y266700D03*
D17*
X596900Y266700D01*
X635000Y469900D02*
X622300Y482600D01*
X596900Y482600D01*
X635000Y304800D02*
X596900Y266700D01*
X635000Y304800D02*
X635000Y469900D01*
D18*
X520700Y279400D03*
D17*
X584200Y279400D01*
X622300Y317500D01*
X622300Y419100D01*
X596900Y444500D01*
X749300Y254000D02*
X749300Y228600D01*
X749300Y254000D02*
X736600Y266700D01*
X698500Y266700D02*
X660400Y228600D01*
X698500Y266700D02*
X736600Y266700D01*
D18*
X520700Y241300D03*
D17*
X533400Y228600D01*
X660400Y228600D01*
X660400Y177800D02*
X736600Y177800D01*
X749300Y165100D01*
D18*
X520700Y228600D03*
D17*
X533400Y215900D01*
X622300Y215900D02*
X660400Y177800D01*
X622300Y215900D02*
X533400Y215900D01*
D18*
X444500Y101600D03*
D17*
X444500Y63500D01*
X482600Y25400D01*
X508000Y25400D01*
X622300Y25400D01*
D18*
X508000Y25400D03*
X571500Y114300D03*
D17*
X622300Y114300D01*
D18*
X520700Y63500D03*
X520700Y114300D03*
D17*
X520700Y63500D01*
D18*
X215900Y317500D03*
D17*
X190500Y368300D02*
X190500Y406400D01*
X215900Y342900D02*
X215900Y317500D01*
X215900Y342900D02*
X190500Y368300D01*
X266700Y495300D02*
X266700Y533400D01*
X190500Y419100D02*
X190500Y406400D01*
X190500Y419100D02*
X266700Y495300D01*
D18*
X190500Y317500D03*
D17*
X190500Y342900D01*
X165100Y368300D01*
X165100Y431800D02*
X190500Y457200D01*
X165100Y431800D02*
X165100Y368300D01*
X241300Y508000D02*
X241300Y533400D01*
X241300Y508000D02*
X190500Y457200D01*
M02*
