G04 EAGLE Gerber RS-274X export*
G75*
%MOMM*%
%FSLAX34Y34*%
%LPD*%
%INBottom Copper*%
%IPPOS*%
%AMOC8*
5,1,8,0,0,1.08239X$1,22.5*%
G01*
%ADD10P,1.429621X8X22.500000*%
%ADD11P,1.429621X8X202.500000*%
%ADD12P,1.429621X8X112.500000*%
%ADD13C,1.524000*%
%ADD14C,1.117600*%
%ADD15C,4.000000*%
%ADD16C,0.756400*%
%ADD17C,0.152400*%
%ADD18C,0.508000*%

G36*
X61038Y10172D02*
X61038Y10172D01*
X61110Y10174D01*
X61159Y10192D01*
X61210Y10200D01*
X61274Y10234D01*
X61341Y10259D01*
X61382Y10291D01*
X61428Y10316D01*
X61477Y10368D01*
X61533Y10412D01*
X61561Y10456D01*
X61597Y10494D01*
X61627Y10559D01*
X61666Y10619D01*
X61679Y10670D01*
X61701Y10717D01*
X61709Y10788D01*
X61726Y10858D01*
X61722Y10910D01*
X61728Y10961D01*
X61713Y11032D01*
X61707Y11103D01*
X61687Y11151D01*
X61676Y11202D01*
X61639Y11263D01*
X61611Y11329D01*
X61566Y11385D01*
X61549Y11413D01*
X61532Y11428D01*
X61506Y11460D01*
X50076Y22890D01*
X48513Y24453D01*
X48513Y127947D01*
X50076Y129510D01*
X195297Y274731D01*
X195309Y274747D01*
X195324Y274759D01*
X195380Y274847D01*
X195440Y274931D01*
X195446Y274950D01*
X195457Y274966D01*
X195482Y275067D01*
X195513Y275166D01*
X195512Y275186D01*
X195517Y275205D01*
X195509Y275308D01*
X195506Y275412D01*
X195500Y275430D01*
X195498Y275450D01*
X195458Y275545D01*
X195422Y275643D01*
X195409Y275658D01*
X195402Y275676D01*
X195297Y275807D01*
X195071Y276033D01*
X195071Y282767D01*
X199833Y287529D01*
X200152Y287529D01*
X200172Y287532D01*
X200191Y287530D01*
X200293Y287552D01*
X200395Y287568D01*
X200412Y287578D01*
X200432Y287582D01*
X200521Y287635D01*
X200612Y287684D01*
X200626Y287698D01*
X200643Y287708D01*
X200710Y287787D01*
X200782Y287862D01*
X200790Y287880D01*
X200803Y287895D01*
X200842Y287991D01*
X200885Y288085D01*
X200887Y288105D01*
X200895Y288123D01*
X200913Y288290D01*
X200913Y405137D01*
X200899Y405228D01*
X200891Y405318D01*
X200879Y405348D01*
X200874Y405380D01*
X200831Y405461D01*
X200795Y405545D01*
X200769Y405577D01*
X200758Y405598D01*
X200735Y405620D01*
X200690Y405676D01*
X150113Y456253D01*
X150113Y483547D01*
X151676Y485110D01*
X169897Y503331D01*
X169909Y503347D01*
X169924Y503359D01*
X169980Y503447D01*
X170040Y503531D01*
X170046Y503550D01*
X170057Y503566D01*
X170082Y503667D01*
X170113Y503766D01*
X170112Y503786D01*
X170117Y503805D01*
X170109Y503908D01*
X170106Y504011D01*
X170100Y504030D01*
X170098Y504050D01*
X170058Y504145D01*
X170022Y504243D01*
X170009Y504258D01*
X170002Y504276D01*
X169897Y504407D01*
X169671Y504633D01*
X169671Y511367D01*
X174433Y516129D01*
X181167Y516129D01*
X185929Y511367D01*
X185929Y504633D01*
X181167Y499871D01*
X174433Y499871D01*
X174207Y500097D01*
X174191Y500109D01*
X174179Y500124D01*
X174092Y500180D01*
X174008Y500240D01*
X173989Y500246D01*
X173972Y500257D01*
X173871Y500282D01*
X173773Y500313D01*
X173753Y500312D01*
X173733Y500317D01*
X173630Y500309D01*
X173527Y500306D01*
X173508Y500300D01*
X173488Y500298D01*
X173393Y500258D01*
X173296Y500222D01*
X173280Y500209D01*
X173262Y500202D01*
X173131Y500097D01*
X154910Y481876D01*
X154862Y481810D01*
X154855Y481803D01*
X154853Y481798D01*
X154797Y481732D01*
X154785Y481702D01*
X154766Y481676D01*
X154739Y481589D01*
X154705Y481504D01*
X154701Y481463D01*
X154694Y481441D01*
X154695Y481409D01*
X154687Y481337D01*
X154687Y458463D01*
X154701Y458372D01*
X154709Y458282D01*
X154721Y458252D01*
X154726Y458220D01*
X154769Y458139D01*
X154805Y458055D01*
X154831Y458023D01*
X154842Y458002D01*
X154865Y457980D01*
X154910Y457924D01*
X205487Y407347D01*
X205487Y288290D01*
X205490Y288270D01*
X205488Y288251D01*
X205510Y288149D01*
X205526Y288047D01*
X205536Y288030D01*
X205540Y288010D01*
X205593Y287921D01*
X205642Y287830D01*
X205656Y287816D01*
X205666Y287799D01*
X205745Y287732D01*
X205820Y287660D01*
X205838Y287652D01*
X205853Y287639D01*
X205949Y287600D01*
X206043Y287557D01*
X206063Y287555D01*
X206081Y287547D01*
X206248Y287529D01*
X206567Y287529D01*
X211329Y282767D01*
X211329Y276033D01*
X206567Y271271D01*
X199833Y271271D01*
X199607Y271497D01*
X199591Y271509D01*
X199579Y271524D01*
X199492Y271580D01*
X199408Y271640D01*
X199389Y271646D01*
X199372Y271657D01*
X199271Y271682D01*
X199173Y271713D01*
X199153Y271712D01*
X199133Y271717D01*
X199030Y271709D01*
X198927Y271706D01*
X198908Y271700D01*
X198888Y271698D01*
X198793Y271658D01*
X198696Y271622D01*
X198680Y271609D01*
X198662Y271602D01*
X198531Y271497D01*
X53310Y126276D01*
X53257Y126202D01*
X53197Y126132D01*
X53185Y126102D01*
X53166Y126076D01*
X53139Y125989D01*
X53105Y125904D01*
X53101Y125863D01*
X53094Y125841D01*
X53095Y125809D01*
X53087Y125737D01*
X53087Y26663D01*
X53101Y26572D01*
X53109Y26482D01*
X53121Y26452D01*
X53126Y26420D01*
X53169Y26339D01*
X53205Y26255D01*
X53231Y26223D01*
X53242Y26202D01*
X53265Y26180D01*
X53310Y26124D01*
X64224Y15210D01*
X64298Y15157D01*
X64368Y15097D01*
X64398Y15085D01*
X64424Y15066D01*
X64511Y15039D01*
X64596Y15005D01*
X64637Y15001D01*
X64659Y14994D01*
X64691Y14995D01*
X64763Y14987D01*
X87637Y14987D01*
X87728Y15001D01*
X87818Y15009D01*
X87848Y15021D01*
X87880Y15026D01*
X87961Y15069D01*
X88045Y15105D01*
X88077Y15131D01*
X88098Y15142D01*
X88120Y15165D01*
X88176Y15210D01*
X99090Y26124D01*
X99143Y26198D01*
X99203Y26268D01*
X99215Y26298D01*
X99234Y26324D01*
X99261Y26411D01*
X99295Y26496D01*
X99299Y26537D01*
X99306Y26559D01*
X99305Y26591D01*
X99313Y26663D01*
X99313Y33720D01*
X99294Y33835D01*
X99277Y33951D01*
X99275Y33957D01*
X99274Y33963D01*
X99219Y34066D01*
X99166Y34171D01*
X99161Y34175D01*
X99158Y34180D01*
X99074Y34260D01*
X98990Y34343D01*
X98984Y34346D01*
X98980Y34350D01*
X98963Y34358D01*
X98843Y34424D01*
X96420Y35427D01*
X93847Y38000D01*
X92455Y41361D01*
X92455Y60239D01*
X93847Y63600D01*
X96420Y66173D01*
X99781Y67565D01*
X103419Y67565D01*
X106780Y66173D01*
X109353Y63600D01*
X110745Y60239D01*
X110745Y41361D01*
X109353Y38000D01*
X106780Y35427D01*
X104357Y34424D01*
X104257Y34362D01*
X104157Y34302D01*
X104153Y34297D01*
X104148Y34294D01*
X104073Y34204D01*
X103997Y34115D01*
X103995Y34109D01*
X103991Y34105D01*
X103949Y33996D01*
X103905Y33887D01*
X103904Y33880D01*
X103903Y33875D01*
X103902Y33857D01*
X103887Y33720D01*
X103887Y24453D01*
X91410Y11976D01*
X90894Y11460D01*
X90852Y11402D01*
X90803Y11350D01*
X90781Y11303D01*
X90751Y11261D01*
X90730Y11192D01*
X90699Y11127D01*
X90694Y11075D01*
X90678Y11025D01*
X90680Y10954D01*
X90672Y10883D01*
X90683Y10832D01*
X90685Y10780D01*
X90709Y10712D01*
X90724Y10642D01*
X90751Y10597D01*
X90769Y10549D01*
X90814Y10493D01*
X90851Y10431D01*
X90890Y10397D01*
X90923Y10357D01*
X90983Y10318D01*
X91038Y10271D01*
X91086Y10252D01*
X91130Y10224D01*
X91199Y10206D01*
X91266Y10179D01*
X91337Y10171D01*
X91368Y10163D01*
X91392Y10165D01*
X91432Y10161D01*
X1687578Y10161D01*
X1687598Y10164D01*
X1687617Y10162D01*
X1687719Y10184D01*
X1687821Y10200D01*
X1687838Y10210D01*
X1687858Y10214D01*
X1687947Y10267D01*
X1688038Y10316D01*
X1688052Y10330D01*
X1688069Y10340D01*
X1688136Y10419D01*
X1688208Y10494D01*
X1688216Y10512D01*
X1688229Y10527D01*
X1688268Y10623D01*
X1688311Y10717D01*
X1688313Y10737D01*
X1688321Y10755D01*
X1688339Y10922D01*
X1688339Y789078D01*
X1688336Y789098D01*
X1688338Y789117D01*
X1688316Y789219D01*
X1688300Y789321D01*
X1688290Y789338D01*
X1688286Y789358D01*
X1688233Y789447D01*
X1688184Y789538D01*
X1688170Y789552D01*
X1688160Y789569D01*
X1688081Y789636D01*
X1688006Y789708D01*
X1687988Y789716D01*
X1687973Y789729D01*
X1687877Y789768D01*
X1687783Y789811D01*
X1687763Y789813D01*
X1687745Y789821D01*
X1687578Y789839D01*
X10922Y789839D01*
X10902Y789836D01*
X10883Y789838D01*
X10781Y789816D01*
X10679Y789800D01*
X10662Y789790D01*
X10642Y789786D01*
X10553Y789733D01*
X10462Y789684D01*
X10448Y789670D01*
X10431Y789660D01*
X10364Y789581D01*
X10292Y789506D01*
X10284Y789488D01*
X10271Y789473D01*
X10232Y789377D01*
X10189Y789283D01*
X10187Y789263D01*
X10179Y789245D01*
X10161Y789078D01*
X10161Y10922D01*
X10164Y10902D01*
X10162Y10883D01*
X10184Y10781D01*
X10200Y10679D01*
X10210Y10662D01*
X10214Y10642D01*
X10267Y10553D01*
X10316Y10462D01*
X10330Y10448D01*
X10340Y10431D01*
X10419Y10364D01*
X10494Y10292D01*
X10512Y10284D01*
X10527Y10271D01*
X10623Y10232D01*
X10717Y10189D01*
X10737Y10187D01*
X10755Y10179D01*
X10922Y10161D01*
X60968Y10161D01*
X61038Y10172D01*
G37*
%LPC*%
G36*
X1102702Y274093D02*
X1102702Y274093D01*
X1099593Y277202D01*
X1099593Y281157D01*
X1099579Y281248D01*
X1099571Y281338D01*
X1099559Y281368D01*
X1099554Y281400D01*
X1099533Y281438D01*
X1099532Y281446D01*
X1099512Y281478D01*
X1099511Y281481D01*
X1099475Y281565D01*
X1099449Y281597D01*
X1099438Y281618D01*
X1099416Y281639D01*
X1099406Y281657D01*
X1099393Y281667D01*
X1099370Y281696D01*
X1091476Y289590D01*
X1091402Y289643D01*
X1091332Y289703D01*
X1091302Y289715D01*
X1091276Y289734D01*
X1091189Y289761D01*
X1091104Y289795D01*
X1091063Y289799D01*
X1091041Y289806D01*
X1091009Y289805D01*
X1090937Y289813D01*
X989653Y289813D01*
X899413Y380053D01*
X899413Y547047D01*
X927477Y575111D01*
X927504Y575148D01*
X927537Y575179D01*
X927575Y575247D01*
X927620Y575310D01*
X927634Y575354D01*
X927656Y575395D01*
X927670Y575471D01*
X927693Y575545D01*
X927691Y575591D01*
X927700Y575637D01*
X927688Y575714D01*
X927686Y575791D01*
X927671Y575834D01*
X927664Y575880D01*
X927629Y575949D01*
X927602Y576022D01*
X927573Y576058D01*
X927552Y576099D01*
X927497Y576154D01*
X927448Y576214D01*
X927409Y576239D01*
X927377Y576271D01*
X927257Y576337D01*
X927241Y576347D01*
X927236Y576349D01*
X927230Y576352D01*
X927000Y576447D01*
X924427Y579020D01*
X923035Y582381D01*
X923035Y586019D01*
X924427Y589380D01*
X927000Y591953D01*
X930361Y593345D01*
X949239Y593345D01*
X952600Y591953D01*
X955173Y589380D01*
X956565Y586019D01*
X956565Y582381D01*
X955173Y579020D01*
X952600Y576447D01*
X949239Y575055D01*
X934204Y575055D01*
X934114Y575041D01*
X934023Y575033D01*
X933994Y575021D01*
X933962Y575016D01*
X933881Y574973D01*
X933797Y574937D01*
X933765Y574911D01*
X933744Y574900D01*
X933722Y574877D01*
X933666Y574832D01*
X926952Y568118D01*
X926895Y568039D01*
X926833Y567964D01*
X926823Y567939D01*
X926808Y567918D01*
X926780Y567825D01*
X926745Y567734D01*
X926743Y567708D01*
X926736Y567683D01*
X926738Y567586D01*
X926734Y567488D01*
X926741Y567463D01*
X926742Y567437D01*
X926776Y567345D01*
X926803Y567252D01*
X926818Y567231D01*
X926827Y567206D01*
X926887Y567130D01*
X926943Y567050D01*
X926964Y567034D01*
X926980Y567014D01*
X927062Y566961D01*
X927140Y566903D01*
X927165Y566895D01*
X927187Y566881D01*
X927282Y566857D01*
X927374Y566827D01*
X927400Y566827D01*
X927426Y566821D01*
X927523Y566829D01*
X927620Y566829D01*
X927652Y566839D01*
X927671Y566840D01*
X927701Y566853D01*
X927781Y566876D01*
X930361Y567945D01*
X949239Y567945D01*
X952600Y566553D01*
X955173Y563980D01*
X956565Y560619D01*
X956565Y556981D01*
X955173Y553620D01*
X952600Y551047D01*
X949239Y549655D01*
X934204Y549655D01*
X934114Y549641D01*
X934023Y549633D01*
X933994Y549621D01*
X933962Y549616D01*
X933881Y549573D01*
X933797Y549537D01*
X933765Y549511D01*
X933744Y549500D01*
X933722Y549477D01*
X933666Y549432D01*
X916910Y532676D01*
X916857Y532602D01*
X916797Y532532D01*
X916785Y532502D01*
X916766Y532476D01*
X916739Y532389D01*
X916705Y532304D01*
X916701Y532263D01*
X916694Y532241D01*
X916695Y532209D01*
X916687Y532137D01*
X916687Y394963D01*
X916701Y394872D01*
X916709Y394782D01*
X916721Y394752D01*
X916726Y394720D01*
X916769Y394639D01*
X916805Y394555D01*
X916831Y394523D01*
X916842Y394502D01*
X916865Y394480D01*
X916910Y394424D01*
X991324Y320010D01*
X991398Y319957D01*
X991468Y319897D01*
X991498Y319885D01*
X991524Y319866D01*
X991611Y319839D01*
X991696Y319805D01*
X991737Y319801D01*
X991759Y319794D01*
X991791Y319795D01*
X991863Y319787D01*
X1099367Y319787D01*
X1099457Y319801D01*
X1099548Y319809D01*
X1099577Y319821D01*
X1099609Y319826D01*
X1099690Y319869D01*
X1099774Y319905D01*
X1099806Y319931D01*
X1099827Y319942D01*
X1099849Y319965D01*
X1099905Y320010D01*
X1102702Y322807D01*
X1107098Y322807D01*
X1110207Y319698D01*
X1110207Y315302D01*
X1107098Y312193D01*
X1102702Y312193D01*
X1099905Y314990D01*
X1099831Y315043D01*
X1099761Y315103D01*
X1099731Y315115D01*
X1099705Y315134D01*
X1099618Y315161D01*
X1099533Y315195D01*
X1099492Y315199D01*
X1099470Y315206D01*
X1099438Y315205D01*
X1099367Y315213D01*
X989653Y315213D01*
X912113Y392753D01*
X912113Y534347D01*
X913676Y535910D01*
X927477Y549711D01*
X927504Y549748D01*
X927537Y549779D01*
X927575Y549847D01*
X927620Y549910D01*
X927634Y549954D01*
X927656Y549995D01*
X927670Y550071D01*
X927693Y550145D01*
X927691Y550191D01*
X927700Y550237D01*
X927688Y550314D01*
X927686Y550391D01*
X927671Y550434D01*
X927664Y550480D01*
X927629Y550549D01*
X927602Y550622D01*
X927573Y550658D01*
X927552Y550699D01*
X927497Y550754D01*
X927448Y550814D01*
X927409Y550839D01*
X927377Y550871D01*
X927257Y550937D01*
X927241Y550947D01*
X927236Y550949D01*
X927230Y550952D01*
X927000Y551047D01*
X924427Y553620D01*
X923035Y556981D01*
X923035Y560619D01*
X924104Y563199D01*
X924126Y563294D01*
X924155Y563387D01*
X924154Y563413D01*
X924160Y563438D01*
X924151Y563535D01*
X924148Y563632D01*
X924139Y563657D01*
X924137Y563683D01*
X924097Y563772D01*
X924064Y563863D01*
X924048Y563884D01*
X924037Y563908D01*
X923971Y563980D01*
X923910Y564056D01*
X923888Y564070D01*
X923870Y564089D01*
X923785Y564136D01*
X923703Y564189D01*
X923678Y564195D01*
X923655Y564208D01*
X923559Y564225D01*
X923465Y564249D01*
X923439Y564247D01*
X923413Y564251D01*
X923316Y564237D01*
X923220Y564229D01*
X923196Y564219D01*
X923170Y564215D01*
X923083Y564171D01*
X922993Y564133D01*
X922968Y564113D01*
X922950Y564104D01*
X922927Y564080D01*
X922862Y564028D01*
X904210Y545376D01*
X904157Y545302D01*
X904097Y545232D01*
X904085Y545202D01*
X904066Y545176D01*
X904039Y545089D01*
X904005Y545004D01*
X904001Y544963D01*
X903994Y544941D01*
X903995Y544909D01*
X903987Y544837D01*
X903987Y382263D01*
X904001Y382172D01*
X904009Y382082D01*
X904021Y382052D01*
X904026Y382020D01*
X904069Y381939D01*
X904105Y381855D01*
X904131Y381823D01*
X904142Y381802D01*
X904165Y381780D01*
X904210Y381724D01*
X991324Y294610D01*
X991398Y294557D01*
X991468Y294497D01*
X991498Y294485D01*
X991524Y294466D01*
X991611Y294439D01*
X991696Y294405D01*
X991737Y294401D01*
X991759Y294394D01*
X991791Y294395D01*
X991863Y294387D01*
X1093147Y294387D01*
X1102604Y284930D01*
X1102678Y284877D01*
X1102748Y284817D01*
X1102778Y284805D01*
X1102804Y284786D01*
X1102891Y284759D01*
X1102976Y284725D01*
X1103017Y284721D01*
X1103039Y284714D01*
X1103071Y284715D01*
X1103143Y284707D01*
X1107098Y284707D01*
X1110207Y281598D01*
X1110207Y277202D01*
X1107098Y274093D01*
X1102702Y274093D01*
G37*
%LPD*%
%LPC*%
G36*
X74381Y34035D02*
X74381Y34035D01*
X71020Y35427D01*
X68447Y38000D01*
X67055Y41361D01*
X67055Y60239D01*
X68447Y63600D01*
X71020Y66173D01*
X73443Y67176D01*
X73543Y67238D01*
X73643Y67298D01*
X73647Y67303D01*
X73652Y67306D01*
X73727Y67396D01*
X73803Y67485D01*
X73805Y67491D01*
X73809Y67495D01*
X73851Y67604D01*
X73895Y67713D01*
X73896Y67720D01*
X73897Y67725D01*
X73898Y67743D01*
X73913Y67880D01*
X73913Y89847D01*
X362770Y378704D01*
X362823Y378778D01*
X362883Y378848D01*
X362895Y378878D01*
X362914Y378904D01*
X362941Y378991D01*
X362975Y379076D01*
X362979Y379117D01*
X362986Y379139D01*
X362985Y379171D01*
X362993Y379243D01*
X362993Y382758D01*
X362979Y382848D01*
X362971Y382939D01*
X362959Y382968D01*
X362954Y383000D01*
X362911Y383081D01*
X362875Y383165D01*
X362849Y383197D01*
X362838Y383218D01*
X362815Y383240D01*
X362770Y383296D01*
X278676Y467390D01*
X278602Y467443D01*
X278532Y467503D01*
X278502Y467515D01*
X278476Y467534D01*
X278389Y467561D01*
X278304Y467595D01*
X278263Y467599D01*
X278241Y467606D01*
X278209Y467605D01*
X278138Y467613D01*
X186690Y467613D01*
X186670Y467610D01*
X186651Y467612D01*
X186549Y467590D01*
X186447Y467574D01*
X186430Y467564D01*
X186410Y467560D01*
X186321Y467507D01*
X186230Y467458D01*
X186216Y467444D01*
X186199Y467434D01*
X186132Y467355D01*
X186060Y467280D01*
X186052Y467262D01*
X186039Y467247D01*
X186000Y467151D01*
X185957Y467057D01*
X185955Y467037D01*
X185947Y467019D01*
X185929Y466852D01*
X185929Y466533D01*
X181167Y461771D01*
X174433Y461771D01*
X169671Y466533D01*
X169671Y473267D01*
X174433Y478029D01*
X181167Y478029D01*
X185929Y473267D01*
X185929Y472948D01*
X185932Y472928D01*
X185930Y472909D01*
X185952Y472807D01*
X185968Y472705D01*
X185978Y472688D01*
X185982Y472668D01*
X186035Y472579D01*
X186084Y472488D01*
X186098Y472474D01*
X186108Y472457D01*
X186187Y472390D01*
X186262Y472318D01*
X186280Y472310D01*
X186295Y472297D01*
X186391Y472258D01*
X186485Y472215D01*
X186505Y472213D01*
X186523Y472205D01*
X186690Y472187D01*
X280347Y472187D01*
X281910Y470624D01*
X366004Y386530D01*
X366078Y386477D01*
X366148Y386417D01*
X366178Y386405D01*
X366204Y386386D01*
X366291Y386359D01*
X366376Y386325D01*
X366417Y386321D01*
X366439Y386314D01*
X366471Y386315D01*
X366542Y386307D01*
X370498Y386307D01*
X373607Y383198D01*
X373607Y378802D01*
X370498Y375693D01*
X366543Y375693D01*
X366452Y375679D01*
X366362Y375671D01*
X366332Y375659D01*
X366300Y375654D01*
X366219Y375611D01*
X366135Y375575D01*
X366103Y375549D01*
X366082Y375538D01*
X366060Y375515D01*
X366004Y375470D01*
X78710Y88176D01*
X78657Y88102D01*
X78597Y88032D01*
X78585Y88002D01*
X78566Y87976D01*
X78539Y87889D01*
X78505Y87804D01*
X78501Y87763D01*
X78494Y87741D01*
X78495Y87709D01*
X78487Y87637D01*
X78487Y67880D01*
X78506Y67765D01*
X78523Y67649D01*
X78525Y67643D01*
X78526Y67637D01*
X78581Y67534D01*
X78634Y67429D01*
X78639Y67425D01*
X78642Y67420D01*
X78726Y67340D01*
X78810Y67257D01*
X78816Y67254D01*
X78820Y67250D01*
X78837Y67242D01*
X78957Y67176D01*
X81380Y66173D01*
X83953Y63600D01*
X85345Y60239D01*
X85345Y41361D01*
X83953Y38000D01*
X81380Y35427D01*
X78019Y34035D01*
X74381Y34035D01*
G37*
%LPD*%
%LPC*%
G36*
X102918Y727775D02*
X102918Y727775D01*
X95007Y731052D01*
X88952Y737107D01*
X85675Y745018D01*
X85675Y753582D01*
X88952Y761493D01*
X95007Y767548D01*
X102918Y770825D01*
X111482Y770825D01*
X119393Y767548D01*
X120653Y766288D01*
X120727Y766235D01*
X120796Y766175D01*
X120826Y766163D01*
X120853Y766144D01*
X120940Y766117D01*
X121024Y766083D01*
X121065Y766079D01*
X121088Y766072D01*
X121120Y766073D01*
X121191Y766065D01*
X193294Y766065D01*
X193314Y766068D01*
X193333Y766066D01*
X193435Y766088D01*
X193537Y766104D01*
X193554Y766114D01*
X193574Y766118D01*
X193663Y766171D01*
X193754Y766220D01*
X193768Y766234D01*
X193785Y766244D01*
X193852Y766323D01*
X193924Y766398D01*
X193932Y766416D01*
X193945Y766431D01*
X193984Y766527D01*
X194027Y766621D01*
X194029Y766641D01*
X194037Y766659D01*
X194055Y766826D01*
X194055Y771439D01*
X195447Y774800D01*
X198020Y777373D01*
X201381Y778765D01*
X205019Y778765D01*
X208380Y777373D01*
X210953Y774800D01*
X212345Y771439D01*
X212345Y766826D01*
X212347Y766813D01*
X212346Y766804D01*
X212347Y766798D01*
X212346Y766787D01*
X212368Y766685D01*
X212384Y766583D01*
X212394Y766566D01*
X212398Y766546D01*
X212451Y766457D01*
X212500Y766366D01*
X212514Y766352D01*
X212524Y766335D01*
X212603Y766268D01*
X212678Y766196D01*
X212696Y766188D01*
X212711Y766175D01*
X212807Y766136D01*
X212901Y766093D01*
X212921Y766091D01*
X212939Y766083D01*
X213106Y766065D01*
X218694Y766065D01*
X218714Y766068D01*
X218733Y766066D01*
X218835Y766088D01*
X218937Y766104D01*
X218954Y766114D01*
X218974Y766118D01*
X219063Y766171D01*
X219154Y766220D01*
X219168Y766234D01*
X219185Y766244D01*
X219252Y766323D01*
X219324Y766398D01*
X219332Y766416D01*
X219345Y766431D01*
X219384Y766527D01*
X219427Y766621D01*
X219429Y766641D01*
X219437Y766659D01*
X219455Y766826D01*
X219455Y771439D01*
X220847Y774800D01*
X223420Y777373D01*
X226781Y778765D01*
X230419Y778765D01*
X233780Y777373D01*
X236353Y774800D01*
X237745Y771439D01*
X237745Y766826D01*
X237747Y766813D01*
X237746Y766804D01*
X237747Y766798D01*
X237746Y766787D01*
X237768Y766685D01*
X237784Y766583D01*
X237794Y766566D01*
X237798Y766546D01*
X237851Y766457D01*
X237900Y766366D01*
X237914Y766352D01*
X237924Y766335D01*
X238003Y766268D01*
X238078Y766196D01*
X238096Y766188D01*
X238111Y766175D01*
X238207Y766136D01*
X238301Y766093D01*
X238321Y766091D01*
X238339Y766083D01*
X238506Y766065D01*
X244094Y766065D01*
X244114Y766068D01*
X244133Y766066D01*
X244235Y766088D01*
X244337Y766104D01*
X244354Y766114D01*
X244374Y766118D01*
X244463Y766171D01*
X244554Y766220D01*
X244568Y766234D01*
X244585Y766244D01*
X244652Y766323D01*
X244724Y766398D01*
X244732Y766416D01*
X244745Y766431D01*
X244784Y766527D01*
X244827Y766621D01*
X244829Y766641D01*
X244837Y766659D01*
X244855Y766826D01*
X244855Y771439D01*
X246247Y774800D01*
X248820Y777373D01*
X252181Y778765D01*
X255819Y778765D01*
X259180Y777373D01*
X261753Y774800D01*
X263145Y771439D01*
X263145Y752561D01*
X261753Y749200D01*
X259180Y746627D01*
X255819Y745235D01*
X252181Y745235D01*
X248820Y746627D01*
X246247Y749200D01*
X244855Y752561D01*
X244855Y757174D01*
X244852Y757194D01*
X244854Y757213D01*
X244832Y757315D01*
X244816Y757417D01*
X244806Y757434D01*
X244802Y757454D01*
X244749Y757543D01*
X244700Y757634D01*
X244686Y757648D01*
X244676Y757665D01*
X244597Y757732D01*
X244522Y757804D01*
X244504Y757812D01*
X244489Y757825D01*
X244393Y757864D01*
X244299Y757907D01*
X244279Y757909D01*
X244261Y757917D01*
X244094Y757935D01*
X238506Y757935D01*
X238486Y757932D01*
X238467Y757934D01*
X238365Y757912D01*
X238263Y757896D01*
X238246Y757886D01*
X238226Y757882D01*
X238137Y757829D01*
X238046Y757780D01*
X238032Y757766D01*
X238015Y757756D01*
X237948Y757677D01*
X237876Y757602D01*
X237868Y757584D01*
X237855Y757569D01*
X237816Y757473D01*
X237773Y757379D01*
X237771Y757359D01*
X237763Y757341D01*
X237745Y757174D01*
X237745Y752561D01*
X236353Y749200D01*
X233780Y746627D01*
X230419Y745235D01*
X226781Y745235D01*
X223420Y746627D01*
X220847Y749200D01*
X219455Y752561D01*
X219455Y757174D01*
X219452Y757194D01*
X219454Y757213D01*
X219432Y757315D01*
X219416Y757417D01*
X219406Y757434D01*
X219402Y757454D01*
X219349Y757543D01*
X219300Y757634D01*
X219286Y757648D01*
X219276Y757665D01*
X219197Y757732D01*
X219122Y757804D01*
X219104Y757812D01*
X219089Y757825D01*
X218993Y757864D01*
X218899Y757907D01*
X218879Y757909D01*
X218861Y757917D01*
X218694Y757935D01*
X213106Y757935D01*
X213086Y757932D01*
X213067Y757934D01*
X212965Y757912D01*
X212863Y757896D01*
X212846Y757886D01*
X212826Y757882D01*
X212737Y757829D01*
X212646Y757780D01*
X212632Y757766D01*
X212615Y757756D01*
X212548Y757677D01*
X212476Y757602D01*
X212468Y757584D01*
X212455Y757569D01*
X212416Y757473D01*
X212373Y757379D01*
X212371Y757359D01*
X212363Y757341D01*
X212345Y757174D01*
X212345Y752561D01*
X210953Y749200D01*
X208380Y746627D01*
X205019Y745235D01*
X201381Y745235D01*
X198020Y746627D01*
X195447Y749200D01*
X194055Y752561D01*
X194055Y757174D01*
X194052Y757194D01*
X194054Y757213D01*
X194032Y757315D01*
X194016Y757417D01*
X194006Y757434D01*
X194002Y757454D01*
X193949Y757543D01*
X193900Y757634D01*
X193886Y757648D01*
X193876Y757665D01*
X193797Y757732D01*
X193722Y757804D01*
X193704Y757812D01*
X193689Y757825D01*
X193593Y757864D01*
X193499Y757907D01*
X193479Y757909D01*
X193461Y757917D01*
X193294Y757935D01*
X128061Y757935D01*
X128015Y757928D01*
X127969Y757930D01*
X127895Y757908D01*
X127818Y757896D01*
X127777Y757874D01*
X127733Y757861D01*
X127669Y757817D01*
X127601Y757780D01*
X127569Y757747D01*
X127531Y757721D01*
X127485Y757658D01*
X127431Y757602D01*
X127412Y757560D01*
X127384Y757524D01*
X127360Y757450D01*
X127328Y757379D01*
X127322Y757333D01*
X127308Y757290D01*
X127309Y757212D01*
X127300Y757135D01*
X127310Y757090D01*
X127311Y757044D01*
X127349Y756912D01*
X127353Y756894D01*
X127355Y756890D01*
X127357Y756883D01*
X128725Y753582D01*
X128725Y745018D01*
X125448Y737107D01*
X119393Y731052D01*
X111482Y727775D01*
X102918Y727775D01*
G37*
%LPD*%
%LPC*%
G36*
X378802Y388393D02*
X378802Y388393D01*
X375693Y391502D01*
X375693Y395457D01*
X375679Y395548D01*
X375671Y395638D01*
X375659Y395668D01*
X375654Y395700D01*
X375611Y395781D01*
X375575Y395865D01*
X375549Y395897D01*
X375538Y395918D01*
X375515Y395940D01*
X375470Y395996D01*
X253276Y518190D01*
X253202Y518243D01*
X253132Y518303D01*
X253102Y518315D01*
X253076Y518334D01*
X252989Y518361D01*
X252904Y518395D01*
X252863Y518399D01*
X252841Y518406D01*
X252809Y518405D01*
X252737Y518413D01*
X138753Y518413D01*
X137190Y519976D01*
X106269Y550897D01*
X106253Y550909D01*
X106241Y550924D01*
X106153Y550980D01*
X106069Y551040D01*
X106050Y551046D01*
X106034Y551057D01*
X105933Y551082D01*
X105834Y551113D01*
X105814Y551112D01*
X105795Y551117D01*
X105692Y551109D01*
X105588Y551106D01*
X105570Y551100D01*
X105550Y551098D01*
X105455Y551058D01*
X105357Y551022D01*
X105342Y551009D01*
X105324Y551002D01*
X105193Y550897D01*
X104967Y550671D01*
X98233Y550671D01*
X93471Y555433D01*
X93471Y562167D01*
X98233Y566929D01*
X104967Y566929D01*
X109729Y562167D01*
X109729Y555433D01*
X109503Y555207D01*
X109491Y555191D01*
X109476Y555179D01*
X109420Y555092D01*
X109360Y555008D01*
X109354Y554989D01*
X109343Y554972D01*
X109318Y554871D01*
X109287Y554773D01*
X109288Y554753D01*
X109283Y554733D01*
X109291Y554630D01*
X109294Y554527D01*
X109300Y554508D01*
X109302Y554488D01*
X109342Y554393D01*
X109378Y554296D01*
X109391Y554280D01*
X109398Y554262D01*
X109503Y554131D01*
X140424Y523210D01*
X140498Y523157D01*
X140568Y523097D01*
X140598Y523085D01*
X140624Y523066D01*
X140711Y523039D01*
X140796Y523005D01*
X140837Y523001D01*
X140859Y522994D01*
X140891Y522995D01*
X140962Y522987D01*
X254947Y522987D01*
X374394Y403540D01*
X374452Y403498D01*
X374504Y403449D01*
X374551Y403427D01*
X374593Y403397D01*
X374662Y403376D01*
X374727Y403345D01*
X374779Y403340D01*
X374829Y403324D01*
X374900Y403326D01*
X374971Y403318D01*
X375022Y403329D01*
X375074Y403331D01*
X375142Y403355D01*
X375212Y403370D01*
X375256Y403397D01*
X375305Y403415D01*
X375361Y403460D01*
X375423Y403497D01*
X375457Y403536D01*
X375497Y403569D01*
X375536Y403629D01*
X375583Y403684D01*
X375602Y403732D01*
X375630Y403776D01*
X375648Y403845D01*
X375675Y403912D01*
X375683Y403983D01*
X375691Y404014D01*
X375689Y404038D01*
X375693Y404078D01*
X375693Y408157D01*
X375679Y408248D01*
X375671Y408338D01*
X375659Y408368D01*
X375654Y408400D01*
X375611Y408481D01*
X375575Y408565D01*
X375549Y408597D01*
X375538Y408618D01*
X375515Y408640D01*
X375470Y408696D01*
X253276Y530890D01*
X253202Y530943D01*
X253132Y531003D01*
X253102Y531015D01*
X253076Y531034D01*
X252989Y531061D01*
X252904Y531095D01*
X252863Y531099D01*
X252841Y531106D01*
X252809Y531105D01*
X252737Y531113D01*
X164153Y531113D01*
X162590Y532676D01*
X106269Y588997D01*
X106253Y589009D01*
X106241Y589024D01*
X106153Y589080D01*
X106069Y589140D01*
X106050Y589146D01*
X106034Y589157D01*
X105933Y589182D01*
X105834Y589213D01*
X105814Y589212D01*
X105795Y589217D01*
X105692Y589209D01*
X105589Y589206D01*
X105570Y589200D01*
X105550Y589198D01*
X105455Y589158D01*
X105357Y589122D01*
X105342Y589109D01*
X105324Y589102D01*
X105193Y588997D01*
X104967Y588771D01*
X98233Y588771D01*
X93471Y593533D01*
X93471Y600267D01*
X98233Y605029D01*
X104967Y605029D01*
X109729Y600267D01*
X109729Y593533D01*
X109503Y593307D01*
X109491Y593291D01*
X109476Y593279D01*
X109420Y593192D01*
X109360Y593108D01*
X109354Y593089D01*
X109343Y593072D01*
X109318Y592971D01*
X109287Y592873D01*
X109288Y592853D01*
X109283Y592833D01*
X109291Y592730D01*
X109294Y592627D01*
X109300Y592608D01*
X109302Y592588D01*
X109342Y592493D01*
X109378Y592396D01*
X109391Y592380D01*
X109398Y592362D01*
X109503Y592231D01*
X165824Y535910D01*
X165898Y535857D01*
X165968Y535797D01*
X165998Y535785D01*
X166024Y535766D01*
X166111Y535739D01*
X166196Y535705D01*
X166237Y535701D01*
X166259Y535694D01*
X166291Y535695D01*
X166363Y535687D01*
X254947Y535687D01*
X378704Y411930D01*
X378778Y411877D01*
X378848Y411817D01*
X378878Y411805D01*
X378904Y411786D01*
X378991Y411759D01*
X379076Y411725D01*
X379117Y411721D01*
X379139Y411714D01*
X379171Y411715D01*
X379243Y411707D01*
X383198Y411707D01*
X386307Y408598D01*
X386307Y404202D01*
X383198Y401093D01*
X378678Y401093D01*
X378608Y401082D01*
X378536Y401080D01*
X378487Y401062D01*
X378436Y401054D01*
X378372Y401020D01*
X378305Y400995D01*
X378264Y400963D01*
X378218Y400938D01*
X378169Y400886D01*
X378113Y400842D01*
X378085Y400798D01*
X378049Y400760D01*
X378019Y400695D01*
X377980Y400635D01*
X377967Y400584D01*
X377945Y400537D01*
X377937Y400466D01*
X377920Y400396D01*
X377924Y400344D01*
X377918Y400293D01*
X377933Y400222D01*
X377939Y400151D01*
X377959Y400103D01*
X377970Y400052D01*
X378007Y399991D01*
X378035Y399925D01*
X378080Y399869D01*
X378097Y399841D01*
X378114Y399826D01*
X378140Y399794D01*
X378704Y399230D01*
X378778Y399176D01*
X378848Y399117D01*
X378878Y399105D01*
X378904Y399086D01*
X378991Y399059D01*
X379076Y399025D01*
X379117Y399021D01*
X379139Y399014D01*
X379171Y399015D01*
X379243Y399007D01*
X383198Y399007D01*
X386307Y395898D01*
X386307Y391502D01*
X383198Y388393D01*
X378802Y388393D01*
G37*
%LPD*%
%LPC*%
G36*
X796733Y80771D02*
X796733Y80771D01*
X791971Y85533D01*
X791971Y92267D01*
X792197Y92493D01*
X792209Y92509D01*
X792224Y92521D01*
X792280Y92608D01*
X792340Y92692D01*
X792346Y92711D01*
X792357Y92728D01*
X792382Y92829D01*
X792413Y92927D01*
X792412Y92947D01*
X792417Y92967D01*
X792409Y93070D01*
X792406Y93173D01*
X792400Y93192D01*
X792398Y93212D01*
X792358Y93307D01*
X792322Y93404D01*
X792309Y93420D01*
X792302Y93438D01*
X792197Y93569D01*
X786676Y99090D01*
X785113Y100653D01*
X785113Y138437D01*
X785099Y138528D01*
X785091Y138618D01*
X785079Y138648D01*
X785074Y138680D01*
X785031Y138761D01*
X784995Y138845D01*
X784969Y138877D01*
X784958Y138898D01*
X784935Y138920D01*
X784890Y138976D01*
X646976Y276890D01*
X646902Y276943D01*
X646832Y277003D01*
X646802Y277015D01*
X646776Y277034D01*
X646689Y277061D01*
X646604Y277095D01*
X646563Y277099D01*
X646541Y277106D01*
X646509Y277105D01*
X646437Y277113D01*
X570553Y277113D01*
X561096Y286570D01*
X561022Y286623D01*
X560952Y286683D01*
X560922Y286695D01*
X560896Y286714D01*
X560809Y286741D01*
X560724Y286775D01*
X560683Y286779D01*
X560661Y286786D01*
X560629Y286785D01*
X560557Y286793D01*
X556602Y286793D01*
X553493Y289902D01*
X553493Y294298D01*
X556602Y297407D01*
X560998Y297407D01*
X564107Y294298D01*
X564107Y290343D01*
X564121Y290253D01*
X564129Y290162D01*
X564141Y290132D01*
X564146Y290100D01*
X564189Y290019D01*
X564225Y289935D01*
X564251Y289903D01*
X564262Y289882D01*
X564285Y289860D01*
X564330Y289804D01*
X564894Y289240D01*
X564952Y289198D01*
X565004Y289149D01*
X565051Y289127D01*
X565093Y289097D01*
X565162Y289076D01*
X565227Y289045D01*
X565279Y289040D01*
X565329Y289024D01*
X565400Y289026D01*
X565471Y289018D01*
X565522Y289029D01*
X565574Y289031D01*
X565642Y289055D01*
X565712Y289070D01*
X565757Y289097D01*
X565805Y289115D01*
X565861Y289160D01*
X565923Y289197D01*
X565957Y289236D01*
X565997Y289269D01*
X566036Y289329D01*
X566083Y289384D01*
X566102Y289432D01*
X566130Y289476D01*
X566148Y289545D01*
X566175Y289612D01*
X566183Y289683D01*
X566191Y289714D01*
X566189Y289738D01*
X566193Y289778D01*
X566193Y294298D01*
X569302Y297407D01*
X573698Y297407D01*
X576495Y294610D01*
X576569Y294557D01*
X576639Y294497D01*
X576669Y294485D01*
X576695Y294466D01*
X576782Y294439D01*
X576867Y294405D01*
X576908Y294401D01*
X576930Y294394D01*
X576962Y294395D01*
X577033Y294387D01*
X648647Y294387D01*
X795431Y147603D01*
X795447Y147591D01*
X795459Y147576D01*
X795547Y147520D01*
X795631Y147460D01*
X795650Y147454D01*
X795666Y147443D01*
X795767Y147418D01*
X795866Y147387D01*
X795886Y147388D01*
X795905Y147383D01*
X796008Y147391D01*
X796112Y147394D01*
X796130Y147400D01*
X796150Y147402D01*
X796245Y147442D01*
X796343Y147478D01*
X796358Y147491D01*
X796376Y147498D01*
X796507Y147603D01*
X796733Y147829D01*
X803467Y147829D01*
X808229Y143067D01*
X808229Y136333D01*
X803467Y131571D01*
X796733Y131571D01*
X791971Y136333D01*
X791971Y143067D01*
X792197Y143293D01*
X792209Y143309D01*
X792224Y143321D01*
X792280Y143408D01*
X792340Y143492D01*
X792346Y143511D01*
X792357Y143528D01*
X792382Y143629D01*
X792413Y143727D01*
X792412Y143747D01*
X792417Y143767D01*
X792409Y143870D01*
X792406Y143973D01*
X792400Y143992D01*
X792398Y144012D01*
X792358Y144107D01*
X792322Y144204D01*
X792309Y144220D01*
X792302Y144238D01*
X792197Y144369D01*
X646976Y289590D01*
X646902Y289643D01*
X646832Y289703D01*
X646802Y289715D01*
X646776Y289734D01*
X646689Y289761D01*
X646604Y289795D01*
X646563Y289799D01*
X646541Y289806D01*
X646509Y289805D01*
X646437Y289813D01*
X577033Y289813D01*
X576943Y289799D01*
X576852Y289791D01*
X576823Y289779D01*
X576791Y289774D01*
X576710Y289731D01*
X576626Y289695D01*
X576594Y289669D01*
X576573Y289658D01*
X576551Y289635D01*
X576495Y289590D01*
X573698Y286793D01*
X569178Y286793D01*
X569108Y286782D01*
X569036Y286780D01*
X568987Y286762D01*
X568936Y286754D01*
X568872Y286720D01*
X568805Y286695D01*
X568764Y286663D01*
X568718Y286638D01*
X568669Y286586D01*
X568613Y286542D01*
X568585Y286498D01*
X568549Y286460D01*
X568519Y286395D01*
X568480Y286335D01*
X568467Y286284D01*
X568445Y286237D01*
X568437Y286166D01*
X568420Y286096D01*
X568424Y286044D01*
X568418Y285993D01*
X568433Y285922D01*
X568439Y285851D01*
X568459Y285803D01*
X568470Y285752D01*
X568507Y285691D01*
X568535Y285625D01*
X568580Y285569D01*
X568597Y285541D01*
X568614Y285526D01*
X568640Y285494D01*
X572224Y281910D01*
X572298Y281857D01*
X572368Y281797D01*
X572398Y281785D01*
X572424Y281766D01*
X572511Y281739D01*
X572596Y281705D01*
X572637Y281701D01*
X572659Y281694D01*
X572691Y281695D01*
X572763Y281687D01*
X648647Y281687D01*
X789687Y140647D01*
X789687Y102863D01*
X789701Y102772D01*
X789709Y102682D01*
X789721Y102652D01*
X789726Y102620D01*
X789769Y102539D01*
X789805Y102455D01*
X789831Y102423D01*
X789842Y102402D01*
X789865Y102380D01*
X789910Y102324D01*
X795431Y96803D01*
X795447Y96791D01*
X795459Y96776D01*
X795547Y96720D01*
X795631Y96660D01*
X795650Y96654D01*
X795666Y96643D01*
X795767Y96618D01*
X795866Y96587D01*
X795886Y96588D01*
X795905Y96583D01*
X796008Y96591D01*
X796111Y96594D01*
X796130Y96600D01*
X796150Y96602D01*
X796245Y96642D01*
X796343Y96678D01*
X796358Y96691D01*
X796376Y96698D01*
X796507Y96803D01*
X796733Y97029D01*
X803467Y97029D01*
X808229Y92267D01*
X808229Y85533D01*
X803467Y80771D01*
X796733Y80771D01*
G37*
%LPD*%
%LPC*%
G36*
X1102702Y337593D02*
X1102702Y337593D01*
X1099905Y340390D01*
X1099831Y340443D01*
X1099761Y340503D01*
X1099731Y340515D01*
X1099705Y340534D01*
X1099618Y340561D01*
X1099533Y340595D01*
X1099492Y340599D01*
X1099470Y340606D01*
X1099438Y340605D01*
X1099367Y340613D01*
X989653Y340613D01*
X962913Y367353D01*
X962913Y621037D01*
X962899Y621128D01*
X962891Y621218D01*
X962879Y621248D01*
X962874Y621280D01*
X962831Y621361D01*
X962795Y621445D01*
X962769Y621477D01*
X962758Y621498D01*
X962735Y621520D01*
X962690Y621576D01*
X955348Y628918D01*
X955331Y628930D01*
X955319Y628946D01*
X955232Y629002D01*
X955148Y629062D01*
X955129Y629068D01*
X955112Y629079D01*
X955012Y629104D01*
X954913Y629134D01*
X954893Y629134D01*
X954874Y629139D01*
X954771Y629131D01*
X954667Y629128D01*
X954648Y629121D01*
X954628Y629120D01*
X954533Y629079D01*
X954436Y629044D01*
X954420Y629031D01*
X954402Y629023D01*
X954271Y628918D01*
X952600Y627247D01*
X949239Y625855D01*
X930361Y625855D01*
X927000Y627247D01*
X924427Y629820D01*
X923035Y633181D01*
X923035Y636819D01*
X924427Y640180D01*
X927000Y642753D01*
X930361Y644145D01*
X949239Y644145D01*
X952600Y642753D01*
X955173Y640180D01*
X956565Y636819D01*
X956565Y634485D01*
X956579Y634394D01*
X956587Y634304D01*
X956599Y634274D01*
X956604Y634242D01*
X956647Y634161D01*
X956683Y634077D01*
X956709Y634045D01*
X956720Y634024D01*
X956743Y634002D01*
X956788Y633946D01*
X967487Y623247D01*
X967487Y369563D01*
X967501Y369472D01*
X967509Y369382D01*
X967521Y369352D01*
X967526Y369320D01*
X967569Y369239D01*
X967605Y369155D01*
X967631Y369123D01*
X967642Y369102D01*
X967665Y369080D01*
X967710Y369024D01*
X991324Y345410D01*
X991398Y345357D01*
X991468Y345297D01*
X991498Y345285D01*
X991524Y345266D01*
X991611Y345239D01*
X991696Y345205D01*
X991737Y345201D01*
X991759Y345194D01*
X991791Y345195D01*
X991863Y345187D01*
X1099367Y345187D01*
X1099457Y345201D01*
X1099548Y345209D01*
X1099577Y345221D01*
X1099609Y345226D01*
X1099690Y345269D01*
X1099774Y345305D01*
X1099806Y345331D01*
X1099827Y345342D01*
X1099849Y345365D01*
X1099905Y345410D01*
X1102702Y348207D01*
X1107098Y348207D01*
X1110207Y345098D01*
X1110207Y340702D01*
X1107098Y337593D01*
X1102702Y337593D01*
G37*
%LPD*%
%LPC*%
G36*
X1076133Y410971D02*
X1076133Y410971D01*
X1071371Y415733D01*
X1071371Y422467D01*
X1071597Y422693D01*
X1071609Y422709D01*
X1071624Y422721D01*
X1071680Y422808D01*
X1071740Y422892D01*
X1071746Y422911D01*
X1071757Y422928D01*
X1071782Y423029D01*
X1071813Y423127D01*
X1071812Y423147D01*
X1071817Y423167D01*
X1071809Y423270D01*
X1071806Y423373D01*
X1071800Y423392D01*
X1071798Y423412D01*
X1071758Y423507D01*
X1071722Y423604D01*
X1071709Y423620D01*
X1071702Y423638D01*
X1071597Y423769D01*
X1051813Y443553D01*
X1051813Y540567D01*
X1051799Y540657D01*
X1051791Y540748D01*
X1051779Y540777D01*
X1051774Y540809D01*
X1051731Y540890D01*
X1051695Y540974D01*
X1051669Y541006D01*
X1051658Y541027D01*
X1051635Y541049D01*
X1051590Y541105D01*
X1048793Y543902D01*
X1048793Y547857D01*
X1048779Y547948D01*
X1048771Y548038D01*
X1048759Y548068D01*
X1048754Y548100D01*
X1048711Y548181D01*
X1048675Y548265D01*
X1048649Y548297D01*
X1048638Y548318D01*
X1048615Y548340D01*
X1048570Y548396D01*
X1013713Y583253D01*
X1013713Y686747D01*
X1046197Y719231D01*
X1046209Y719247D01*
X1046224Y719259D01*
X1046280Y719347D01*
X1046340Y719431D01*
X1046346Y719450D01*
X1046357Y719466D01*
X1046382Y719567D01*
X1046413Y719666D01*
X1046412Y719686D01*
X1046417Y719705D01*
X1046409Y719808D01*
X1046406Y719911D01*
X1046400Y719930D01*
X1046398Y719950D01*
X1046358Y720045D01*
X1046322Y720143D01*
X1046309Y720158D01*
X1046302Y720176D01*
X1046197Y720307D01*
X1045971Y720533D01*
X1045971Y727267D01*
X1050733Y732029D01*
X1057467Y732029D01*
X1062229Y727267D01*
X1062229Y720533D01*
X1057467Y715771D01*
X1050733Y715771D01*
X1050507Y715997D01*
X1050491Y716009D01*
X1050479Y716024D01*
X1050392Y716080D01*
X1050308Y716140D01*
X1050289Y716146D01*
X1050272Y716157D01*
X1050171Y716182D01*
X1050073Y716213D01*
X1050053Y716212D01*
X1050033Y716217D01*
X1049930Y716209D01*
X1049827Y716206D01*
X1049808Y716200D01*
X1049788Y716198D01*
X1049693Y716158D01*
X1049596Y716122D01*
X1049580Y716109D01*
X1049562Y716102D01*
X1049431Y715997D01*
X1018510Y685076D01*
X1018457Y685002D01*
X1018397Y684932D01*
X1018385Y684902D01*
X1018366Y684876D01*
X1018339Y684789D01*
X1018305Y684704D01*
X1018301Y684663D01*
X1018294Y684641D01*
X1018295Y684609D01*
X1018287Y684537D01*
X1018287Y585463D01*
X1018301Y585372D01*
X1018309Y585282D01*
X1018321Y585252D01*
X1018326Y585220D01*
X1018369Y585139D01*
X1018405Y585055D01*
X1018431Y585023D01*
X1018442Y585002D01*
X1018465Y584980D01*
X1018510Y584924D01*
X1051804Y551630D01*
X1051878Y551577D01*
X1051948Y551517D01*
X1051978Y551505D01*
X1052004Y551486D01*
X1052091Y551459D01*
X1052176Y551425D01*
X1052217Y551421D01*
X1052239Y551414D01*
X1052271Y551415D01*
X1052343Y551407D01*
X1056298Y551407D01*
X1059407Y548298D01*
X1059407Y543902D01*
X1056610Y541105D01*
X1056557Y541031D01*
X1056497Y540961D01*
X1056485Y540931D01*
X1056466Y540905D01*
X1056439Y540818D01*
X1056405Y540733D01*
X1056401Y540692D01*
X1056394Y540670D01*
X1056395Y540638D01*
X1056387Y540567D01*
X1056387Y445763D01*
X1056401Y445672D01*
X1056409Y445582D01*
X1056421Y445552D01*
X1056426Y445520D01*
X1056469Y445439D01*
X1056505Y445355D01*
X1056531Y445323D01*
X1056542Y445302D01*
X1056565Y445280D01*
X1056610Y445224D01*
X1074831Y427003D01*
X1074847Y426991D01*
X1074859Y426976D01*
X1074947Y426920D01*
X1075031Y426860D01*
X1075050Y426854D01*
X1075066Y426843D01*
X1075167Y426818D01*
X1075266Y426787D01*
X1075286Y426788D01*
X1075305Y426783D01*
X1075408Y426791D01*
X1075511Y426794D01*
X1075530Y426800D01*
X1075550Y426802D01*
X1075645Y426842D01*
X1075743Y426878D01*
X1075758Y426891D01*
X1075776Y426898D01*
X1075907Y427003D01*
X1076133Y427229D01*
X1082867Y427229D01*
X1087629Y422467D01*
X1087629Y415733D01*
X1082867Y410971D01*
X1076133Y410971D01*
G37*
%LPD*%
%LPC*%
G36*
X264881Y34035D02*
X264881Y34035D01*
X261520Y35427D01*
X258947Y38000D01*
X257555Y41361D01*
X257555Y60239D01*
X258947Y63600D01*
X261520Y66173D01*
X263943Y67176D01*
X264043Y67238D01*
X264143Y67298D01*
X264147Y67303D01*
X264152Y67306D01*
X264227Y67396D01*
X264303Y67485D01*
X264305Y67491D01*
X264309Y67495D01*
X264351Y67604D01*
X264395Y67713D01*
X264396Y67720D01*
X264397Y67725D01*
X264398Y67743D01*
X264413Y67880D01*
X264413Y254947D01*
X337370Y327904D01*
X337423Y327978D01*
X337483Y328048D01*
X337495Y328078D01*
X337514Y328104D01*
X337541Y328191D01*
X337575Y328276D01*
X337579Y328317D01*
X337586Y328339D01*
X337585Y328371D01*
X337593Y328443D01*
X337593Y332398D01*
X340702Y335507D01*
X345098Y335507D01*
X348207Y332398D01*
X348207Y328002D01*
X345098Y324893D01*
X341143Y324893D01*
X341052Y324879D01*
X340962Y324871D01*
X340932Y324859D01*
X340900Y324854D01*
X340819Y324811D01*
X340735Y324775D01*
X340703Y324749D01*
X340682Y324738D01*
X340660Y324715D01*
X340604Y324670D01*
X269210Y253276D01*
X269157Y253202D01*
X269097Y253132D01*
X269085Y253102D01*
X269066Y253076D01*
X269039Y252989D01*
X269005Y252904D01*
X269001Y252863D01*
X268994Y252841D01*
X268995Y252809D01*
X268987Y252737D01*
X268987Y67880D01*
X269006Y67765D01*
X269023Y67649D01*
X269025Y67643D01*
X269026Y67637D01*
X269081Y67534D01*
X269134Y67429D01*
X269139Y67425D01*
X269142Y67420D01*
X269226Y67340D01*
X269310Y67257D01*
X269316Y67254D01*
X269320Y67250D01*
X269337Y67242D01*
X269457Y67176D01*
X271880Y66173D01*
X274453Y63600D01*
X275845Y60239D01*
X275845Y41361D01*
X274453Y38000D01*
X271880Y35427D01*
X268519Y34035D01*
X264881Y34035D01*
G37*
%LPD*%
%LPC*%
G36*
X872933Y80771D02*
X872933Y80771D01*
X868171Y85533D01*
X868171Y92267D01*
X872933Y97029D01*
X873252Y97029D01*
X873272Y97032D01*
X873291Y97030D01*
X873393Y97052D01*
X873495Y97068D01*
X873512Y97078D01*
X873532Y97082D01*
X873621Y97135D01*
X873712Y97184D01*
X873726Y97198D01*
X873743Y97208D01*
X873810Y97287D01*
X873882Y97362D01*
X873890Y97380D01*
X873903Y97395D01*
X873942Y97491D01*
X873985Y97585D01*
X873987Y97605D01*
X873995Y97623D01*
X874013Y97790D01*
X874013Y130810D01*
X874010Y130830D01*
X874012Y130849D01*
X873990Y130951D01*
X873974Y131053D01*
X873964Y131070D01*
X873960Y131090D01*
X873907Y131179D01*
X873858Y131270D01*
X873844Y131284D01*
X873834Y131301D01*
X873755Y131368D01*
X873680Y131440D01*
X873662Y131448D01*
X873647Y131461D01*
X873551Y131500D01*
X873457Y131543D01*
X873437Y131545D01*
X873419Y131553D01*
X873252Y131571D01*
X872933Y131571D01*
X868171Y136333D01*
X868171Y143067D01*
X872933Y147829D01*
X873252Y147829D01*
X873272Y147832D01*
X873291Y147830D01*
X873393Y147852D01*
X873495Y147868D01*
X873512Y147878D01*
X873532Y147882D01*
X873621Y147935D01*
X873712Y147984D01*
X873726Y147998D01*
X873743Y148008D01*
X873810Y148087D01*
X873882Y148162D01*
X873890Y148180D01*
X873903Y148195D01*
X873942Y148291D01*
X873985Y148385D01*
X873987Y148405D01*
X873995Y148423D01*
X874013Y148590D01*
X874013Y163837D01*
X873999Y163928D01*
X873991Y164018D01*
X873979Y164048D01*
X873974Y164080D01*
X873931Y164161D01*
X873895Y164245D01*
X873869Y164277D01*
X873858Y164298D01*
X873835Y164320D01*
X873790Y164376D01*
X848613Y189553D01*
X848613Y346710D01*
X848610Y346730D01*
X848612Y346749D01*
X848590Y346851D01*
X848574Y346953D01*
X848564Y346970D01*
X848560Y346990D01*
X848507Y347079D01*
X848458Y347170D01*
X848444Y347184D01*
X848434Y347201D01*
X848355Y347268D01*
X848280Y347340D01*
X848262Y347348D01*
X848247Y347361D01*
X848151Y347400D01*
X848057Y347443D01*
X848037Y347445D01*
X848019Y347453D01*
X847852Y347471D01*
X847533Y347471D01*
X842771Y352233D01*
X842771Y358967D01*
X847533Y363729D01*
X854267Y363729D01*
X859029Y358967D01*
X859029Y352233D01*
X854267Y347471D01*
X853948Y347471D01*
X853928Y347468D01*
X853909Y347470D01*
X853807Y347448D01*
X853705Y347432D01*
X853688Y347422D01*
X853668Y347418D01*
X853579Y347365D01*
X853488Y347316D01*
X853474Y347302D01*
X853457Y347292D01*
X853390Y347213D01*
X853318Y347138D01*
X853310Y347120D01*
X853297Y347105D01*
X853258Y347009D01*
X853215Y346915D01*
X853213Y346895D01*
X853205Y346877D01*
X853187Y346710D01*
X853187Y191763D01*
X853201Y191672D01*
X853209Y191582D01*
X853221Y191552D01*
X853226Y191520D01*
X853269Y191439D01*
X853305Y191355D01*
X853331Y191323D01*
X853342Y191302D01*
X853365Y191280D01*
X853410Y191224D01*
X878587Y166047D01*
X878587Y148590D01*
X878590Y148570D01*
X878588Y148551D01*
X878610Y148449D01*
X878626Y148347D01*
X878636Y148330D01*
X878640Y148310D01*
X878693Y148221D01*
X878742Y148130D01*
X878756Y148116D01*
X878766Y148099D01*
X878845Y148032D01*
X878920Y147960D01*
X878938Y147952D01*
X878953Y147939D01*
X879049Y147900D01*
X879143Y147857D01*
X879163Y147855D01*
X879181Y147847D01*
X879348Y147829D01*
X879667Y147829D01*
X884429Y143067D01*
X884429Y136333D01*
X879667Y131571D01*
X879348Y131571D01*
X879328Y131568D01*
X879309Y131570D01*
X879207Y131548D01*
X879105Y131532D01*
X879088Y131522D01*
X879068Y131518D01*
X878979Y131465D01*
X878888Y131416D01*
X878874Y131402D01*
X878857Y131392D01*
X878790Y131313D01*
X878718Y131238D01*
X878710Y131220D01*
X878697Y131205D01*
X878658Y131109D01*
X878615Y131015D01*
X878613Y130995D01*
X878605Y130977D01*
X878587Y130810D01*
X878587Y97790D01*
X878590Y97770D01*
X878588Y97751D01*
X878610Y97649D01*
X878626Y97547D01*
X878636Y97530D01*
X878640Y97510D01*
X878693Y97421D01*
X878742Y97330D01*
X878756Y97316D01*
X878766Y97299D01*
X878845Y97232D01*
X878920Y97160D01*
X878938Y97152D01*
X878953Y97139D01*
X879049Y97100D01*
X879143Y97057D01*
X879163Y97055D01*
X879181Y97047D01*
X879348Y97029D01*
X879667Y97029D01*
X884429Y92267D01*
X884429Y85533D01*
X879667Y80771D01*
X872933Y80771D01*
G37*
%LPD*%
%LPC*%
G36*
X479233Y182371D02*
X479233Y182371D01*
X474471Y187133D01*
X474471Y193867D01*
X474697Y194093D01*
X474709Y194109D01*
X474724Y194121D01*
X474780Y194208D01*
X474840Y194292D01*
X474846Y194311D01*
X474857Y194328D01*
X474882Y194429D01*
X474913Y194527D01*
X474912Y194547D01*
X474917Y194567D01*
X474909Y194670D01*
X474906Y194773D01*
X474900Y194792D01*
X474898Y194812D01*
X474858Y194907D01*
X474822Y195004D01*
X474809Y195020D01*
X474802Y195038D01*
X474697Y195169D01*
X423769Y246097D01*
X423753Y246109D01*
X423741Y246124D01*
X423653Y246180D01*
X423569Y246240D01*
X423550Y246246D01*
X423534Y246257D01*
X423433Y246282D01*
X423334Y246313D01*
X423314Y246312D01*
X423295Y246317D01*
X423192Y246309D01*
X423088Y246306D01*
X423070Y246300D01*
X423050Y246298D01*
X422955Y246258D01*
X422857Y246222D01*
X422842Y246209D01*
X422824Y246202D01*
X422693Y246097D01*
X422467Y245871D01*
X415733Y245871D01*
X410971Y250633D01*
X410971Y257367D01*
X415733Y262129D01*
X422467Y262129D01*
X427229Y257367D01*
X427229Y250633D01*
X427003Y250407D01*
X426991Y250391D01*
X426976Y250379D01*
X426920Y250292D01*
X426860Y250208D01*
X426854Y250189D01*
X426843Y250172D01*
X426818Y250071D01*
X426787Y249973D01*
X426788Y249953D01*
X426783Y249933D01*
X426791Y249830D01*
X426794Y249727D01*
X426800Y249708D01*
X426802Y249688D01*
X426842Y249593D01*
X426878Y249496D01*
X426891Y249480D01*
X426898Y249462D01*
X427003Y249331D01*
X477931Y198403D01*
X477947Y198391D01*
X477959Y198376D01*
X478026Y198333D01*
X478065Y198300D01*
X478087Y198291D01*
X478131Y198260D01*
X478150Y198254D01*
X478166Y198243D01*
X478267Y198218D01*
X478276Y198215D01*
X478293Y198208D01*
X478301Y198207D01*
X478366Y198187D01*
X478386Y198188D01*
X478405Y198183D01*
X478508Y198191D01*
X478612Y198194D01*
X478630Y198200D01*
X478650Y198202D01*
X478710Y198227D01*
X478721Y198229D01*
X478748Y198244D01*
X478843Y198278D01*
X478858Y198291D01*
X478876Y198298D01*
X478925Y198337D01*
X478939Y198344D01*
X478953Y198360D01*
X479007Y198403D01*
X479233Y198629D01*
X485967Y198629D01*
X490729Y193867D01*
X490729Y193548D01*
X490732Y193528D01*
X490730Y193509D01*
X490752Y193407D01*
X490768Y193305D01*
X490778Y193288D01*
X490782Y193268D01*
X490835Y193179D01*
X490884Y193088D01*
X490898Y193074D01*
X490908Y193057D01*
X490987Y192990D01*
X491062Y192918D01*
X491080Y192910D01*
X491095Y192897D01*
X491191Y192858D01*
X491285Y192815D01*
X491305Y192813D01*
X491323Y192805D01*
X491490Y192787D01*
X562610Y192787D01*
X562630Y192790D01*
X562649Y192788D01*
X562751Y192810D01*
X562853Y192826D01*
X562870Y192836D01*
X562890Y192840D01*
X562979Y192893D01*
X563070Y192942D01*
X563084Y192956D01*
X563101Y192966D01*
X563168Y193045D01*
X563240Y193120D01*
X563248Y193138D01*
X563261Y193153D01*
X563300Y193249D01*
X563343Y193343D01*
X563345Y193363D01*
X563353Y193381D01*
X563371Y193548D01*
X563371Y193867D01*
X568133Y198629D01*
X574867Y198629D01*
X579629Y193867D01*
X579629Y187133D01*
X574867Y182371D01*
X568133Y182371D01*
X563371Y187133D01*
X563371Y187452D01*
X563368Y187472D01*
X563370Y187491D01*
X563348Y187593D01*
X563332Y187695D01*
X563322Y187712D01*
X563318Y187732D01*
X563265Y187821D01*
X563216Y187912D01*
X563202Y187926D01*
X563192Y187943D01*
X563113Y188010D01*
X563038Y188082D01*
X563020Y188090D01*
X563005Y188103D01*
X562909Y188142D01*
X562815Y188185D01*
X562795Y188187D01*
X562777Y188195D01*
X562610Y188213D01*
X491490Y188213D01*
X491470Y188210D01*
X491451Y188212D01*
X491349Y188190D01*
X491247Y188174D01*
X491230Y188164D01*
X491210Y188160D01*
X491121Y188107D01*
X491030Y188058D01*
X491016Y188044D01*
X490999Y188034D01*
X490932Y187955D01*
X490860Y187880D01*
X490852Y187862D01*
X490839Y187847D01*
X490800Y187751D01*
X490757Y187657D01*
X490755Y187637D01*
X490747Y187619D01*
X490729Y187452D01*
X490729Y187133D01*
X485967Y182371D01*
X479233Y182371D01*
G37*
%LPD*%
%LPC*%
G36*
X467702Y362993D02*
X467702Y362993D01*
X464593Y366102D01*
X464593Y370057D01*
X464579Y370148D01*
X464571Y370238D01*
X464559Y370268D01*
X464554Y370300D01*
X464511Y370381D01*
X464475Y370465D01*
X464449Y370497D01*
X464438Y370518D01*
X464415Y370540D01*
X464370Y370596D01*
X454913Y380053D01*
X454913Y420047D01*
X464370Y429504D01*
X464423Y429578D01*
X464483Y429648D01*
X464495Y429678D01*
X464514Y429704D01*
X464541Y429791D01*
X464575Y429876D01*
X464579Y429917D01*
X464586Y429939D01*
X464585Y429971D01*
X464593Y430043D01*
X464593Y433998D01*
X467702Y437107D01*
X472098Y437107D01*
X474895Y434310D01*
X474969Y434257D01*
X475039Y434197D01*
X475069Y434185D01*
X475095Y434166D01*
X475182Y434139D01*
X475267Y434105D01*
X475308Y434101D01*
X475330Y434094D01*
X475362Y434095D01*
X475433Y434087D01*
X496247Y434087D01*
X510287Y420047D01*
X510287Y405453D01*
X500830Y395996D01*
X500777Y395922D01*
X500717Y395852D01*
X500705Y395822D01*
X500686Y395796D01*
X500659Y395709D01*
X500625Y395624D01*
X500621Y395583D01*
X500614Y395561D01*
X500615Y395529D01*
X500607Y395457D01*
X500607Y391502D01*
X497810Y388705D01*
X497757Y388631D01*
X497697Y388561D01*
X497685Y388531D01*
X497666Y388505D01*
X497639Y388418D01*
X497605Y388333D01*
X497601Y388292D01*
X497594Y388270D01*
X497595Y388238D01*
X497587Y388167D01*
X497587Y382263D01*
X497601Y382172D01*
X497609Y382082D01*
X497621Y382052D01*
X497626Y382020D01*
X497669Y381939D01*
X497705Y381855D01*
X497731Y381823D01*
X497742Y381802D01*
X497765Y381780D01*
X497810Y381724D01*
X508724Y370810D01*
X508798Y370757D01*
X508868Y370697D01*
X508898Y370685D01*
X508924Y370666D01*
X509011Y370639D01*
X509096Y370605D01*
X509137Y370601D01*
X509159Y370594D01*
X509191Y370595D01*
X509263Y370587D01*
X515167Y370587D01*
X515257Y370601D01*
X515348Y370609D01*
X515377Y370621D01*
X515409Y370626D01*
X515490Y370669D01*
X515574Y370705D01*
X515606Y370731D01*
X515627Y370742D01*
X515649Y370765D01*
X515705Y370810D01*
X518502Y373607D01*
X522458Y373607D01*
X522548Y373621D01*
X522639Y373629D01*
X522668Y373641D01*
X522700Y373646D01*
X522781Y373689D01*
X522865Y373725D01*
X522897Y373751D01*
X522918Y373762D01*
X522940Y373785D01*
X522996Y373830D01*
X540570Y391404D01*
X540623Y391478D01*
X540683Y391548D01*
X540695Y391578D01*
X540714Y391604D01*
X540741Y391691D01*
X540775Y391776D01*
X540779Y391817D01*
X540786Y391839D01*
X540785Y391871D01*
X540793Y391942D01*
X540793Y395898D01*
X543902Y399007D01*
X548298Y399007D01*
X551407Y395898D01*
X551407Y391502D01*
X548298Y388393D01*
X544342Y388393D01*
X544252Y388379D01*
X544161Y388371D01*
X544132Y388359D01*
X544100Y388354D01*
X544019Y388311D01*
X543935Y388275D01*
X543903Y388249D01*
X543882Y388238D01*
X543860Y388215D01*
X543804Y388170D01*
X526230Y370596D01*
X526177Y370522D01*
X526117Y370452D01*
X526105Y370422D01*
X526086Y370396D01*
X526059Y370309D01*
X526025Y370224D01*
X526021Y370183D01*
X526014Y370161D01*
X526015Y370129D01*
X526007Y370058D01*
X526007Y366102D01*
X522898Y362993D01*
X518502Y362993D01*
X515705Y365790D01*
X515631Y365843D01*
X515561Y365903D01*
X515531Y365915D01*
X515505Y365934D01*
X515418Y365961D01*
X515333Y365995D01*
X515292Y365999D01*
X515270Y366006D01*
X515238Y366005D01*
X515167Y366013D01*
X507053Y366013D01*
X493013Y380053D01*
X493013Y388167D01*
X492999Y388257D01*
X492991Y388348D01*
X492979Y388377D01*
X492974Y388409D01*
X492931Y388490D01*
X492895Y388574D01*
X492869Y388606D01*
X492858Y388627D01*
X492835Y388649D01*
X492790Y388705D01*
X489993Y391502D01*
X489993Y395898D01*
X493102Y399007D01*
X497057Y399007D01*
X497148Y399021D01*
X497238Y399029D01*
X497268Y399041D01*
X497300Y399046D01*
X497381Y399089D01*
X497465Y399125D01*
X497497Y399151D01*
X497518Y399162D01*
X497540Y399185D01*
X497596Y399230D01*
X505490Y407124D01*
X505543Y407198D01*
X505603Y407268D01*
X505615Y407298D01*
X505634Y407324D01*
X505661Y407411D01*
X505695Y407496D01*
X505699Y407537D01*
X505706Y407559D01*
X505705Y407591D01*
X505713Y407663D01*
X505713Y417837D01*
X505699Y417928D01*
X505691Y418018D01*
X505679Y418048D01*
X505674Y418080D01*
X505631Y418161D01*
X505595Y418245D01*
X505569Y418277D01*
X505558Y418298D01*
X505535Y418320D01*
X505490Y418376D01*
X494576Y429290D01*
X494502Y429343D01*
X494432Y429403D01*
X494402Y429415D01*
X494376Y429434D01*
X494289Y429461D01*
X494204Y429495D01*
X494163Y429499D01*
X494141Y429506D01*
X494109Y429505D01*
X494037Y429513D01*
X475433Y429513D01*
X475343Y429499D01*
X475252Y429491D01*
X475223Y429479D01*
X475191Y429474D01*
X475110Y429431D01*
X475026Y429395D01*
X474994Y429369D01*
X474973Y429358D01*
X474951Y429335D01*
X474895Y429290D01*
X472098Y426493D01*
X468143Y426493D01*
X468052Y426479D01*
X467962Y426471D01*
X467932Y426459D01*
X467900Y426454D01*
X467819Y426411D01*
X467735Y426375D01*
X467703Y426349D01*
X467682Y426338D01*
X467660Y426315D01*
X467604Y426270D01*
X459710Y418376D01*
X459657Y418302D01*
X459597Y418232D01*
X459585Y418202D01*
X459566Y418176D01*
X459539Y418089D01*
X459505Y418004D01*
X459501Y417963D01*
X459494Y417941D01*
X459495Y417909D01*
X459487Y417837D01*
X459487Y382263D01*
X459501Y382172D01*
X459509Y382082D01*
X459521Y382052D01*
X459526Y382020D01*
X459569Y381939D01*
X459605Y381855D01*
X459631Y381823D01*
X459642Y381802D01*
X459665Y381780D01*
X459710Y381724D01*
X467604Y373830D01*
X467678Y373777D01*
X467748Y373717D01*
X467778Y373705D01*
X467804Y373686D01*
X467891Y373659D01*
X467976Y373625D01*
X468017Y373621D01*
X468039Y373614D01*
X468071Y373615D01*
X468143Y373607D01*
X472098Y373607D01*
X475207Y370498D01*
X475207Y366102D01*
X472098Y362993D01*
X467702Y362993D01*
G37*
%LPD*%
%LPC*%
G36*
X544281Y34035D02*
X544281Y34035D01*
X540920Y35427D01*
X538347Y38000D01*
X536955Y41361D01*
X536955Y60239D01*
X538347Y63600D01*
X540920Y66173D01*
X543343Y67176D01*
X543443Y67238D01*
X543543Y67298D01*
X543547Y67303D01*
X543552Y67306D01*
X543627Y67396D01*
X543703Y67485D01*
X543705Y67491D01*
X543709Y67495D01*
X543751Y67604D01*
X543795Y67713D01*
X543796Y67720D01*
X543797Y67725D01*
X543798Y67743D01*
X543813Y67880D01*
X543813Y100337D01*
X543799Y100428D01*
X543791Y100518D01*
X543779Y100548D01*
X543774Y100580D01*
X543731Y100661D01*
X543695Y100745D01*
X543669Y100777D01*
X543658Y100798D01*
X543635Y100820D01*
X543590Y100876D01*
X512669Y131797D01*
X512653Y131809D01*
X512641Y131824D01*
X512553Y131880D01*
X512469Y131940D01*
X512450Y131946D01*
X512434Y131957D01*
X512333Y131982D01*
X512234Y132013D01*
X512214Y132012D01*
X512195Y132017D01*
X512092Y132009D01*
X511989Y132006D01*
X511970Y132000D01*
X511950Y131998D01*
X511855Y131958D01*
X511757Y131922D01*
X511742Y131909D01*
X511724Y131902D01*
X511593Y131797D01*
X511367Y131571D01*
X504633Y131571D01*
X499871Y136333D01*
X499871Y143067D01*
X504633Y147829D01*
X511367Y147829D01*
X516129Y143067D01*
X516129Y136333D01*
X515903Y136107D01*
X515891Y136091D01*
X515876Y136079D01*
X515820Y135992D01*
X515760Y135908D01*
X515754Y135889D01*
X515743Y135872D01*
X515718Y135771D01*
X515687Y135673D01*
X515688Y135653D01*
X515683Y135633D01*
X515691Y135530D01*
X515694Y135427D01*
X515700Y135408D01*
X515702Y135388D01*
X515742Y135293D01*
X515778Y135196D01*
X515791Y135180D01*
X515798Y135162D01*
X515903Y135031D01*
X546824Y104110D01*
X548387Y102547D01*
X548387Y67880D01*
X548406Y67765D01*
X548423Y67649D01*
X548425Y67643D01*
X548426Y67637D01*
X548481Y67534D01*
X548534Y67429D01*
X548539Y67425D01*
X548542Y67420D01*
X548626Y67340D01*
X548710Y67257D01*
X548716Y67254D01*
X548720Y67250D01*
X548737Y67242D01*
X548857Y67176D01*
X551280Y66173D01*
X553853Y63600D01*
X555245Y60239D01*
X555245Y41361D01*
X553853Y38000D01*
X551280Y35427D01*
X547919Y34035D01*
X544281Y34035D01*
G37*
%LPD*%
%LPC*%
G36*
X772502Y299493D02*
X772502Y299493D01*
X769393Y302602D01*
X769393Y306557D01*
X769379Y306648D01*
X769371Y306738D01*
X769359Y306768D01*
X769354Y306800D01*
X769311Y306881D01*
X769275Y306965D01*
X769249Y306997D01*
X769238Y307018D01*
X769215Y307040D01*
X769170Y307096D01*
X624596Y451670D01*
X624522Y451723D01*
X624452Y451783D01*
X624422Y451795D01*
X624396Y451814D01*
X624309Y451841D01*
X624224Y451875D01*
X624183Y451879D01*
X624161Y451886D01*
X624129Y451885D01*
X624057Y451893D01*
X620102Y451893D01*
X616993Y455002D01*
X616993Y459398D01*
X620102Y462507D01*
X624498Y462507D01*
X627607Y459398D01*
X627607Y455443D01*
X627621Y455352D01*
X627629Y455262D01*
X627641Y455232D01*
X627646Y455200D01*
X627689Y455119D01*
X627725Y455035D01*
X627751Y455003D01*
X627762Y454982D01*
X627785Y454960D01*
X627830Y454904D01*
X772404Y310330D01*
X772478Y310277D01*
X772548Y310217D01*
X772578Y310205D01*
X772604Y310186D01*
X772691Y310159D01*
X772776Y310125D01*
X772817Y310121D01*
X772839Y310114D01*
X772871Y310115D01*
X772943Y310107D01*
X776898Y310107D01*
X780007Y306998D01*
X780007Y302602D01*
X776898Y299493D01*
X772502Y299493D01*
G37*
%LPD*%
%LPC*%
G36*
X174433Y550671D02*
X174433Y550671D01*
X169671Y555433D01*
X169671Y562167D01*
X174433Y566929D01*
X181167Y566929D01*
X185929Y562167D01*
X185929Y561848D01*
X185932Y561828D01*
X185930Y561809D01*
X185952Y561707D01*
X185968Y561605D01*
X185978Y561588D01*
X185982Y561568D01*
X186035Y561479D01*
X186084Y561388D01*
X186098Y561374D01*
X186108Y561357D01*
X186187Y561290D01*
X186262Y561218D01*
X186280Y561210D01*
X186295Y561197D01*
X186391Y561158D01*
X186485Y561115D01*
X186505Y561113D01*
X186523Y561105D01*
X186690Y561087D01*
X214637Y561087D01*
X214728Y561101D01*
X214818Y561109D01*
X214848Y561121D01*
X214880Y561126D01*
X214961Y561169D01*
X215045Y561205D01*
X215077Y561231D01*
X215098Y561242D01*
X215120Y561265D01*
X215176Y561310D01*
X227653Y573787D01*
X321310Y573787D01*
X321330Y573790D01*
X321349Y573788D01*
X321451Y573810D01*
X321553Y573826D01*
X321570Y573836D01*
X321590Y573840D01*
X321679Y573893D01*
X321770Y573942D01*
X321784Y573956D01*
X321801Y573966D01*
X321868Y574045D01*
X321940Y574120D01*
X321948Y574138D01*
X321961Y574153D01*
X322000Y574249D01*
X322043Y574343D01*
X322045Y574363D01*
X322053Y574381D01*
X322071Y574548D01*
X322071Y574867D01*
X326833Y579629D01*
X333567Y579629D01*
X338329Y574867D01*
X338329Y568133D01*
X333567Y563371D01*
X326833Y563371D01*
X322071Y568133D01*
X322071Y568452D01*
X322068Y568472D01*
X322070Y568491D01*
X322048Y568593D01*
X322032Y568695D01*
X322022Y568712D01*
X322018Y568732D01*
X321965Y568821D01*
X321916Y568912D01*
X321902Y568926D01*
X321892Y568943D01*
X321813Y569010D01*
X321738Y569082D01*
X321720Y569090D01*
X321705Y569103D01*
X321609Y569142D01*
X321515Y569185D01*
X321495Y569187D01*
X321477Y569195D01*
X321310Y569213D01*
X229863Y569213D01*
X229772Y569199D01*
X229682Y569191D01*
X229652Y569179D01*
X229620Y569174D01*
X229539Y569131D01*
X229455Y569095D01*
X229423Y569069D01*
X229402Y569058D01*
X229380Y569035D01*
X229324Y568990D01*
X216847Y556513D01*
X186690Y556513D01*
X186670Y556510D01*
X186651Y556512D01*
X186549Y556490D01*
X186447Y556474D01*
X186430Y556464D01*
X186410Y556460D01*
X186321Y556407D01*
X186230Y556358D01*
X186216Y556344D01*
X186199Y556334D01*
X186132Y556255D01*
X186060Y556180D01*
X186052Y556162D01*
X186039Y556147D01*
X186000Y556051D01*
X185957Y555957D01*
X185955Y555937D01*
X185947Y555919D01*
X185929Y555752D01*
X185929Y555433D01*
X181167Y550671D01*
X174433Y550671D01*
G37*
%LPD*%
%LPC*%
G36*
X1128102Y274093D02*
X1128102Y274093D01*
X1124993Y277202D01*
X1124993Y281598D01*
X1127790Y284395D01*
X1127843Y284469D01*
X1127903Y284539D01*
X1127915Y284569D01*
X1127934Y284595D01*
X1127961Y284682D01*
X1127995Y284767D01*
X1127999Y284808D01*
X1128006Y284830D01*
X1128005Y284862D01*
X1128013Y284933D01*
X1128013Y369247D01*
X1173197Y414431D01*
X1173209Y414447D01*
X1173224Y414459D01*
X1173280Y414547D01*
X1173340Y414631D01*
X1173346Y414650D01*
X1173357Y414666D01*
X1173382Y414767D01*
X1173413Y414866D01*
X1173412Y414886D01*
X1173417Y414905D01*
X1173409Y415008D01*
X1173406Y415111D01*
X1173400Y415130D01*
X1173398Y415150D01*
X1173358Y415245D01*
X1173322Y415343D01*
X1173309Y415358D01*
X1173302Y415376D01*
X1173197Y415507D01*
X1172971Y415733D01*
X1172971Y422467D01*
X1177733Y427229D01*
X1184467Y427229D01*
X1189229Y422467D01*
X1189229Y415733D01*
X1184467Y410971D01*
X1177733Y410971D01*
X1177507Y411197D01*
X1177491Y411209D01*
X1177479Y411224D01*
X1177392Y411280D01*
X1177308Y411340D01*
X1177289Y411346D01*
X1177272Y411357D01*
X1177171Y411382D01*
X1177073Y411413D01*
X1177053Y411412D01*
X1177033Y411417D01*
X1176930Y411409D01*
X1176827Y411406D01*
X1176808Y411400D01*
X1176788Y411398D01*
X1176693Y411358D01*
X1176596Y411322D01*
X1176580Y411309D01*
X1176562Y411302D01*
X1176431Y411197D01*
X1132810Y367576D01*
X1132757Y367502D01*
X1132697Y367432D01*
X1132685Y367402D01*
X1132666Y367376D01*
X1132639Y367289D01*
X1132605Y367204D01*
X1132601Y367163D01*
X1132594Y367141D01*
X1132595Y367109D01*
X1132587Y367037D01*
X1132587Y284933D01*
X1132601Y284843D01*
X1132609Y284752D01*
X1132621Y284723D01*
X1132626Y284691D01*
X1132669Y284610D01*
X1132705Y284526D01*
X1132731Y284494D01*
X1132742Y284473D01*
X1132765Y284451D01*
X1132810Y284395D01*
X1135607Y281598D01*
X1135607Y277202D01*
X1132498Y274093D01*
X1128102Y274093D01*
G37*
%LPD*%
%LPC*%
G36*
X518881Y34035D02*
X518881Y34035D01*
X515520Y35427D01*
X512947Y38000D01*
X511555Y41361D01*
X511555Y60239D01*
X512947Y63600D01*
X515520Y66173D01*
X517943Y67176D01*
X518043Y67238D01*
X518143Y67298D01*
X518147Y67303D01*
X518152Y67306D01*
X518227Y67396D01*
X518303Y67485D01*
X518305Y67491D01*
X518309Y67495D01*
X518351Y67604D01*
X518395Y67713D01*
X518396Y67720D01*
X518397Y67725D01*
X518398Y67743D01*
X518413Y67880D01*
X518413Y87637D01*
X518399Y87728D01*
X518391Y87818D01*
X518379Y87848D01*
X518374Y87880D01*
X518331Y87961D01*
X518295Y88045D01*
X518269Y88077D01*
X518258Y88098D01*
X518235Y88120D01*
X518190Y88176D01*
X512669Y93697D01*
X512653Y93709D01*
X512641Y93724D01*
X512565Y93772D01*
X512547Y93788D01*
X512537Y93792D01*
X512469Y93840D01*
X512450Y93846D01*
X512434Y93857D01*
X512333Y93882D01*
X512234Y93913D01*
X512214Y93912D01*
X512195Y93917D01*
X512092Y93909D01*
X511989Y93906D01*
X511970Y93900D01*
X511950Y93898D01*
X511855Y93858D01*
X511757Y93822D01*
X511742Y93809D01*
X511724Y93802D01*
X511654Y93746D01*
X511649Y93743D01*
X511644Y93738D01*
X511593Y93697D01*
X511367Y93471D01*
X504633Y93471D01*
X499871Y98233D01*
X499871Y104967D01*
X504633Y109729D01*
X511367Y109729D01*
X516129Y104967D01*
X516129Y98233D01*
X515903Y98007D01*
X515891Y97991D01*
X515876Y97979D01*
X515820Y97892D01*
X515760Y97808D01*
X515754Y97789D01*
X515743Y97772D01*
X515718Y97671D01*
X515687Y97573D01*
X515688Y97553D01*
X515683Y97533D01*
X515691Y97430D01*
X515694Y97327D01*
X515700Y97308D01*
X515702Y97288D01*
X515742Y97193D01*
X515778Y97096D01*
X515791Y97080D01*
X515798Y97062D01*
X515903Y96931D01*
X521424Y91410D01*
X522987Y89847D01*
X522987Y67880D01*
X523006Y67765D01*
X523023Y67649D01*
X523025Y67643D01*
X523026Y67637D01*
X523081Y67534D01*
X523134Y67429D01*
X523139Y67425D01*
X523142Y67420D01*
X523226Y67340D01*
X523310Y67257D01*
X523316Y67254D01*
X523320Y67250D01*
X523337Y67242D01*
X523457Y67176D01*
X525880Y66173D01*
X528453Y63600D01*
X529845Y60239D01*
X529845Y41361D01*
X528453Y38000D01*
X525880Y35427D01*
X522519Y34035D01*
X518881Y34035D01*
G37*
%LPD*%
%LPC*%
G36*
X174433Y588771D02*
X174433Y588771D01*
X169671Y593533D01*
X169671Y600267D01*
X174433Y605029D01*
X174752Y605029D01*
X174772Y605032D01*
X174791Y605030D01*
X174893Y605052D01*
X174995Y605068D01*
X175012Y605078D01*
X175032Y605082D01*
X175121Y605135D01*
X175212Y605184D01*
X175226Y605198D01*
X175243Y605208D01*
X175310Y605287D01*
X175382Y605362D01*
X175390Y605380D01*
X175403Y605395D01*
X175442Y605491D01*
X175485Y605585D01*
X175487Y605605D01*
X175495Y605623D01*
X175513Y605790D01*
X175513Y621037D01*
X175499Y621128D01*
X175491Y621218D01*
X175479Y621248D01*
X175474Y621280D01*
X175431Y621361D01*
X175395Y621445D01*
X175369Y621477D01*
X175358Y621498D01*
X175335Y621520D01*
X175290Y621576D01*
X157069Y639797D01*
X157053Y639809D01*
X157041Y639824D01*
X156953Y639880D01*
X156869Y639940D01*
X156850Y639946D01*
X156834Y639957D01*
X156733Y639982D01*
X156634Y640013D01*
X156614Y640012D01*
X156595Y640017D01*
X156492Y640009D01*
X156389Y640006D01*
X156370Y640000D01*
X156350Y639998D01*
X156255Y639958D01*
X156157Y639922D01*
X156142Y639909D01*
X156124Y639902D01*
X155993Y639797D01*
X155767Y639571D01*
X149033Y639571D01*
X144271Y644333D01*
X144271Y651067D01*
X149033Y655829D01*
X155767Y655829D01*
X160529Y651067D01*
X160529Y644333D01*
X160303Y644107D01*
X160291Y644091D01*
X160276Y644079D01*
X160220Y643992D01*
X160160Y643908D01*
X160154Y643889D01*
X160143Y643872D01*
X160118Y643771D01*
X160087Y643673D01*
X160088Y643653D01*
X160083Y643633D01*
X160091Y643530D01*
X160094Y643427D01*
X160100Y643408D01*
X160102Y643388D01*
X160142Y643293D01*
X160178Y643196D01*
X160191Y643180D01*
X160198Y643162D01*
X160303Y643031D01*
X178524Y624810D01*
X180087Y623247D01*
X180087Y605790D01*
X180090Y605770D01*
X180088Y605751D01*
X180110Y605649D01*
X180126Y605547D01*
X180136Y605530D01*
X180140Y605510D01*
X180193Y605421D01*
X180242Y605330D01*
X180256Y605316D01*
X180266Y605299D01*
X180345Y605232D01*
X180420Y605160D01*
X180438Y605152D01*
X180453Y605139D01*
X180549Y605100D01*
X180643Y605057D01*
X180663Y605055D01*
X180681Y605047D01*
X180848Y605029D01*
X181167Y605029D01*
X185929Y600267D01*
X185929Y593533D01*
X181167Y588771D01*
X174433Y588771D01*
G37*
%LPD*%
%LPC*%
G36*
X1641561Y308355D02*
X1641561Y308355D01*
X1638200Y309747D01*
X1635627Y312320D01*
X1634235Y315681D01*
X1634235Y319319D01*
X1635627Y322680D01*
X1638200Y325253D01*
X1641561Y326645D01*
X1660439Y326645D01*
X1663800Y325253D01*
X1666373Y322680D01*
X1667765Y319319D01*
X1667765Y315681D01*
X1666373Y312320D01*
X1663800Y309747D01*
X1660439Y308355D01*
X1641561Y308355D01*
G37*
%LPD*%
%LPC*%
G36*
X41361Y308355D02*
X41361Y308355D01*
X38000Y309747D01*
X35427Y312320D01*
X34035Y315681D01*
X34035Y319319D01*
X35427Y322680D01*
X38000Y325253D01*
X41361Y326645D01*
X60239Y326645D01*
X63600Y325253D01*
X66173Y322680D01*
X67565Y319319D01*
X67565Y315681D01*
X66173Y312320D01*
X63600Y309747D01*
X60239Y308355D01*
X41361Y308355D01*
G37*
%LPD*%
%LPC*%
G36*
X341081Y34035D02*
X341081Y34035D01*
X337720Y35427D01*
X335147Y38000D01*
X333755Y41361D01*
X333755Y60239D01*
X335147Y63600D01*
X337720Y66173D01*
X341081Y67565D01*
X344719Y67565D01*
X348080Y66173D01*
X350653Y63600D01*
X352045Y60239D01*
X352045Y41361D01*
X350653Y38000D01*
X348080Y35427D01*
X344719Y34035D01*
X341081Y34035D01*
G37*
%LPD*%
%LPC*%
G36*
X315681Y34035D02*
X315681Y34035D01*
X312320Y35427D01*
X309747Y38000D01*
X308355Y41361D01*
X308355Y60239D01*
X309747Y63600D01*
X312320Y66173D01*
X315681Y67565D01*
X319319Y67565D01*
X322680Y66173D01*
X325253Y63600D01*
X326645Y60239D01*
X326645Y41361D01*
X325253Y38000D01*
X322680Y35427D01*
X319319Y34035D01*
X315681Y34035D01*
G37*
%LPD*%
%LPC*%
G36*
X290281Y34035D02*
X290281Y34035D01*
X286920Y35427D01*
X284347Y38000D01*
X282955Y41361D01*
X282955Y60239D01*
X284347Y63600D01*
X286920Y66173D01*
X290281Y67565D01*
X293919Y67565D01*
X297280Y66173D01*
X299853Y63600D01*
X301245Y60239D01*
X301245Y41361D01*
X299853Y38000D01*
X297280Y35427D01*
X293919Y34035D01*
X290281Y34035D01*
G37*
%LPD*%
%LPC*%
G36*
X41361Y384555D02*
X41361Y384555D01*
X38000Y385947D01*
X35427Y388520D01*
X34035Y391881D01*
X34035Y395519D01*
X35427Y398880D01*
X38000Y401453D01*
X41361Y402845D01*
X60239Y402845D01*
X63600Y401453D01*
X66173Y398880D01*
X67565Y395519D01*
X67565Y391881D01*
X66173Y388520D01*
X63600Y385947D01*
X60239Y384555D01*
X41361Y384555D01*
G37*
%LPD*%
%LPC*%
G36*
X175981Y34035D02*
X175981Y34035D01*
X172620Y35427D01*
X170047Y38000D01*
X168655Y41361D01*
X168655Y60239D01*
X170047Y63600D01*
X172620Y66173D01*
X175981Y67565D01*
X179619Y67565D01*
X182980Y66173D01*
X185553Y63600D01*
X186945Y60239D01*
X186945Y41361D01*
X185553Y38000D01*
X182980Y35427D01*
X179619Y34035D01*
X175981Y34035D01*
G37*
%LPD*%
%LPC*%
G36*
X41361Y333755D02*
X41361Y333755D01*
X38000Y335147D01*
X35427Y337720D01*
X34035Y341081D01*
X34035Y344719D01*
X35427Y348080D01*
X38000Y350653D01*
X41361Y352045D01*
X60239Y352045D01*
X63600Y350653D01*
X66173Y348080D01*
X67565Y344719D01*
X67565Y341081D01*
X66173Y337720D01*
X63600Y335147D01*
X60239Y333755D01*
X41361Y333755D01*
G37*
%LPD*%
%LPC*%
G36*
X1641561Y333755D02*
X1641561Y333755D01*
X1638200Y335147D01*
X1635627Y337720D01*
X1634235Y341081D01*
X1634235Y344719D01*
X1635627Y348080D01*
X1638200Y350653D01*
X1641561Y352045D01*
X1660439Y352045D01*
X1663800Y350653D01*
X1666373Y348080D01*
X1667765Y344719D01*
X1667765Y341081D01*
X1666373Y337720D01*
X1663800Y335147D01*
X1660439Y333755D01*
X1641561Y333755D01*
G37*
%LPD*%
%LPC*%
G36*
X150581Y34035D02*
X150581Y34035D01*
X147220Y35427D01*
X144647Y38000D01*
X143255Y41361D01*
X143255Y60239D01*
X144647Y63600D01*
X147220Y66173D01*
X150581Y67565D01*
X154219Y67565D01*
X157580Y66173D01*
X160153Y63600D01*
X161545Y60239D01*
X161545Y41361D01*
X160153Y38000D01*
X157580Y35427D01*
X154219Y34035D01*
X150581Y34035D01*
G37*
%LPD*%
%LPC*%
G36*
X874481Y745235D02*
X874481Y745235D01*
X871120Y746627D01*
X868547Y749200D01*
X867155Y752561D01*
X867155Y771439D01*
X868547Y774800D01*
X871120Y777373D01*
X874481Y778765D01*
X878119Y778765D01*
X881480Y777373D01*
X884053Y774800D01*
X885445Y771439D01*
X885445Y752561D01*
X884053Y749200D01*
X881480Y746627D01*
X878119Y745235D01*
X874481Y745235D01*
G37*
%LPD*%
%LPC*%
G36*
X849081Y745235D02*
X849081Y745235D01*
X845720Y746627D01*
X843147Y749200D01*
X841755Y752561D01*
X841755Y771439D01*
X843147Y774800D01*
X845720Y777373D01*
X849081Y778765D01*
X852719Y778765D01*
X856080Y777373D01*
X858653Y774800D01*
X860045Y771439D01*
X860045Y752561D01*
X858653Y749200D01*
X856080Y746627D01*
X852719Y745235D01*
X849081Y745235D01*
G37*
%LPD*%
%LPC*%
G36*
X683981Y745235D02*
X683981Y745235D01*
X680620Y746627D01*
X678047Y749200D01*
X676655Y752561D01*
X676655Y771439D01*
X678047Y774800D01*
X680620Y777373D01*
X683981Y778765D01*
X687619Y778765D01*
X690980Y777373D01*
X693553Y774800D01*
X694945Y771439D01*
X694945Y752561D01*
X693553Y749200D01*
X690980Y746627D01*
X687619Y745235D01*
X683981Y745235D01*
G37*
%LPD*%
%LPC*%
G36*
X658581Y745235D02*
X658581Y745235D01*
X655220Y746627D01*
X652647Y749200D01*
X651255Y752561D01*
X651255Y771439D01*
X652647Y774800D01*
X655220Y777373D01*
X658581Y778765D01*
X662219Y778765D01*
X665580Y777373D01*
X668153Y774800D01*
X669545Y771439D01*
X669545Y752561D01*
X668153Y749200D01*
X665580Y746627D01*
X662219Y745235D01*
X658581Y745235D01*
G37*
%LPD*%
%LPC*%
G36*
X607781Y745235D02*
X607781Y745235D01*
X604420Y746627D01*
X601847Y749200D01*
X600455Y752561D01*
X600455Y771439D01*
X601847Y774800D01*
X604420Y777373D01*
X607781Y778765D01*
X611419Y778765D01*
X614780Y777373D01*
X617353Y774800D01*
X618745Y771439D01*
X618745Y752561D01*
X617353Y749200D01*
X614780Y746627D01*
X611419Y745235D01*
X607781Y745235D01*
G37*
%LPD*%
%LPC*%
G36*
X391881Y745235D02*
X391881Y745235D01*
X388520Y746627D01*
X385947Y749200D01*
X384555Y752561D01*
X384555Y771439D01*
X385947Y774800D01*
X388520Y777373D01*
X391881Y778765D01*
X395519Y778765D01*
X398880Y777373D01*
X401453Y774800D01*
X402845Y771439D01*
X402845Y752561D01*
X401453Y749200D01*
X398880Y746627D01*
X395519Y745235D01*
X391881Y745235D01*
G37*
%LPD*%
%LPC*%
G36*
X366481Y745235D02*
X366481Y745235D01*
X363120Y746627D01*
X360547Y749200D01*
X359155Y752561D01*
X359155Y771439D01*
X360547Y774800D01*
X363120Y777373D01*
X366481Y778765D01*
X370119Y778765D01*
X373480Y777373D01*
X376053Y774800D01*
X377445Y771439D01*
X377445Y752561D01*
X376053Y749200D01*
X373480Y746627D01*
X370119Y745235D01*
X366481Y745235D01*
G37*
%LPD*%
%LPC*%
G36*
X341081Y745235D02*
X341081Y745235D01*
X337720Y746627D01*
X335147Y749200D01*
X333755Y752561D01*
X333755Y771439D01*
X335147Y774800D01*
X337720Y777373D01*
X341081Y778765D01*
X344719Y778765D01*
X348080Y777373D01*
X350653Y774800D01*
X352045Y771439D01*
X352045Y752561D01*
X350653Y749200D01*
X348080Y746627D01*
X344719Y745235D01*
X341081Y745235D01*
G37*
%LPD*%
%LPC*%
G36*
X315681Y745235D02*
X315681Y745235D01*
X312320Y746627D01*
X309747Y749200D01*
X308355Y752561D01*
X308355Y771439D01*
X309747Y774800D01*
X312320Y777373D01*
X315681Y778765D01*
X319319Y778765D01*
X322680Y777373D01*
X325253Y774800D01*
X326645Y771439D01*
X326645Y752561D01*
X325253Y749200D01*
X322680Y746627D01*
X319319Y745235D01*
X315681Y745235D01*
G37*
%LPD*%
%LPC*%
G36*
X633181Y745235D02*
X633181Y745235D01*
X629820Y746627D01*
X627247Y749200D01*
X625855Y752561D01*
X625855Y771439D01*
X627247Y774800D01*
X629820Y777373D01*
X633181Y778765D01*
X636819Y778765D01*
X640180Y777373D01*
X642753Y774800D01*
X644145Y771439D01*
X644145Y752561D01*
X642753Y749200D01*
X640180Y746627D01*
X636819Y745235D01*
X633181Y745235D01*
G37*
%LPD*%
%LPC*%
G36*
X925281Y745235D02*
X925281Y745235D01*
X921920Y746627D01*
X919347Y749200D01*
X917955Y752561D01*
X917955Y771439D01*
X919347Y774800D01*
X921920Y777373D01*
X925281Y778765D01*
X928919Y778765D01*
X932280Y777373D01*
X934853Y774800D01*
X936245Y771439D01*
X936245Y752561D01*
X934853Y749200D01*
X932280Y746627D01*
X928919Y745235D01*
X925281Y745235D01*
G37*
%LPD*%
%LPC*%
G36*
X899881Y745235D02*
X899881Y745235D01*
X896520Y746627D01*
X893947Y749200D01*
X892555Y752561D01*
X892555Y771439D01*
X893947Y774800D01*
X896520Y777373D01*
X899881Y778765D01*
X903519Y778765D01*
X906880Y777373D01*
X909453Y774800D01*
X910845Y771439D01*
X910845Y752561D01*
X909453Y749200D01*
X906880Y746627D01*
X903519Y745235D01*
X899881Y745235D01*
G37*
%LPD*%
%LPC*%
G36*
X1641561Y638555D02*
X1641561Y638555D01*
X1638200Y639947D01*
X1635627Y642520D01*
X1634235Y645881D01*
X1634235Y649519D01*
X1635627Y652880D01*
X1638200Y655453D01*
X1641561Y656845D01*
X1660439Y656845D01*
X1663800Y655453D01*
X1666373Y652880D01*
X1667765Y649519D01*
X1667765Y645881D01*
X1666373Y642520D01*
X1663800Y639947D01*
X1660439Y638555D01*
X1641561Y638555D01*
G37*
%LPD*%
%LPC*%
G36*
X1641561Y562355D02*
X1641561Y562355D01*
X1638200Y563747D01*
X1635627Y566320D01*
X1634235Y569681D01*
X1634235Y573319D01*
X1635627Y576680D01*
X1638200Y579253D01*
X1641561Y580645D01*
X1660439Y580645D01*
X1663800Y579253D01*
X1666373Y576680D01*
X1667765Y573319D01*
X1667765Y569681D01*
X1666373Y566320D01*
X1663800Y563747D01*
X1660439Y562355D01*
X1641561Y562355D01*
G37*
%LPD*%
%LPC*%
G36*
X1641561Y613155D02*
X1641561Y613155D01*
X1638200Y614547D01*
X1635627Y617120D01*
X1634235Y620481D01*
X1634235Y624119D01*
X1635627Y627480D01*
X1638200Y630053D01*
X1641561Y631445D01*
X1660439Y631445D01*
X1663800Y630053D01*
X1666373Y627480D01*
X1667765Y624119D01*
X1667765Y620481D01*
X1666373Y617120D01*
X1663800Y614547D01*
X1660439Y613155D01*
X1641561Y613155D01*
G37*
%LPD*%
%LPC*%
G36*
X930361Y600455D02*
X930361Y600455D01*
X927000Y601847D01*
X924427Y604420D01*
X923035Y607781D01*
X923035Y611419D01*
X924427Y614780D01*
X927000Y617353D01*
X930361Y618745D01*
X949239Y618745D01*
X952600Y617353D01*
X955173Y614780D01*
X956565Y611419D01*
X956565Y607781D01*
X955173Y604420D01*
X952600Y601847D01*
X949239Y600455D01*
X930361Y600455D01*
G37*
%LPD*%
%LPC*%
G36*
X41361Y282955D02*
X41361Y282955D01*
X38000Y284347D01*
X35427Y286920D01*
X34035Y290281D01*
X34035Y293919D01*
X35427Y297280D01*
X38000Y299853D01*
X41361Y301245D01*
X60239Y301245D01*
X63600Y299853D01*
X66173Y297280D01*
X67565Y293919D01*
X67565Y290281D01*
X66173Y286920D01*
X63600Y284347D01*
X60239Y282955D01*
X41361Y282955D01*
G37*
%LPD*%
%LPC*%
G36*
X1641561Y282955D02*
X1641561Y282955D01*
X1638200Y284347D01*
X1635627Y286920D01*
X1634235Y290281D01*
X1634235Y293919D01*
X1635627Y297280D01*
X1638200Y299853D01*
X1641561Y301245D01*
X1660439Y301245D01*
X1663800Y299853D01*
X1666373Y297280D01*
X1667765Y293919D01*
X1667765Y290281D01*
X1666373Y286920D01*
X1663800Y284347D01*
X1660439Y282955D01*
X1641561Y282955D01*
G37*
%LPD*%
%LPC*%
G36*
X41361Y600455D02*
X41361Y600455D01*
X38000Y601847D01*
X35427Y604420D01*
X34035Y607781D01*
X34035Y611419D01*
X35427Y614780D01*
X38000Y617353D01*
X41361Y618745D01*
X60239Y618745D01*
X63600Y617353D01*
X66173Y614780D01*
X67565Y611419D01*
X67565Y607781D01*
X66173Y604420D01*
X63600Y601847D01*
X60239Y600455D01*
X41361Y600455D01*
G37*
%LPD*%
%LPC*%
G36*
X1641561Y587755D02*
X1641561Y587755D01*
X1638200Y589147D01*
X1635627Y591720D01*
X1634235Y595081D01*
X1634235Y598719D01*
X1635627Y602080D01*
X1638200Y604653D01*
X1641561Y606045D01*
X1660439Y606045D01*
X1663800Y604653D01*
X1666373Y602080D01*
X1667765Y598719D01*
X1667765Y595081D01*
X1666373Y591720D01*
X1663800Y589147D01*
X1660439Y587755D01*
X1641561Y587755D01*
G37*
%LPD*%
%LPC*%
G36*
X41361Y409955D02*
X41361Y409955D01*
X38000Y411347D01*
X35427Y413920D01*
X34035Y417281D01*
X34035Y420919D01*
X35427Y424280D01*
X38000Y426853D01*
X41361Y428245D01*
X60239Y428245D01*
X63600Y426853D01*
X66173Y424280D01*
X67565Y420919D01*
X67565Y417281D01*
X66173Y413920D01*
X63600Y411347D01*
X60239Y409955D01*
X41361Y409955D01*
G37*
%LPD*%
%LPC*%
G36*
X41361Y435355D02*
X41361Y435355D01*
X38000Y436747D01*
X35427Y439320D01*
X34035Y442681D01*
X34035Y446319D01*
X35427Y449680D01*
X38000Y452253D01*
X41361Y453645D01*
X60239Y453645D01*
X63600Y452253D01*
X66173Y449680D01*
X67565Y446319D01*
X67565Y442681D01*
X66173Y439320D01*
X63600Y436747D01*
X60239Y435355D01*
X41361Y435355D01*
G37*
%LPD*%
%LPC*%
G36*
X41361Y575055D02*
X41361Y575055D01*
X38000Y576447D01*
X35427Y579020D01*
X34035Y582381D01*
X34035Y586019D01*
X35427Y589380D01*
X38000Y591953D01*
X41361Y593345D01*
X60239Y593345D01*
X63600Y591953D01*
X66173Y589380D01*
X67565Y586019D01*
X67565Y582381D01*
X66173Y579020D01*
X63600Y576447D01*
X60239Y575055D01*
X41361Y575055D01*
G37*
%LPD*%
%LPC*%
G36*
X41361Y549655D02*
X41361Y549655D01*
X38000Y551047D01*
X35427Y553620D01*
X34035Y556981D01*
X34035Y560619D01*
X35427Y563980D01*
X38000Y566553D01*
X41361Y567945D01*
X60239Y567945D01*
X63600Y566553D01*
X66173Y563980D01*
X67565Y560619D01*
X67565Y556981D01*
X66173Y553620D01*
X63600Y551047D01*
X60239Y549655D01*
X41361Y549655D01*
G37*
%LPD*%
%LPC*%
G36*
X1641561Y536955D02*
X1641561Y536955D01*
X1638200Y538347D01*
X1635627Y540920D01*
X1634235Y544281D01*
X1634235Y547919D01*
X1635627Y551280D01*
X1638200Y553853D01*
X1641561Y555245D01*
X1660439Y555245D01*
X1663800Y553853D01*
X1666373Y551280D01*
X1667765Y547919D01*
X1667765Y544281D01*
X1666373Y540920D01*
X1663800Y538347D01*
X1660439Y536955D01*
X1641561Y536955D01*
G37*
%LPD*%
%LPC*%
G36*
X1641561Y511555D02*
X1641561Y511555D01*
X1638200Y512947D01*
X1635627Y515520D01*
X1634235Y518881D01*
X1634235Y522519D01*
X1635627Y525880D01*
X1638200Y528453D01*
X1641561Y529845D01*
X1660439Y529845D01*
X1663800Y528453D01*
X1666373Y525880D01*
X1667765Y522519D01*
X1667765Y518881D01*
X1666373Y515520D01*
X1663800Y512947D01*
X1660439Y511555D01*
X1641561Y511555D01*
G37*
%LPD*%
%LPC*%
G36*
X930361Y270255D02*
X930361Y270255D01*
X927000Y271647D01*
X924427Y274220D01*
X923035Y277581D01*
X923035Y281219D01*
X924427Y284580D01*
X927000Y287153D01*
X930361Y288545D01*
X949239Y288545D01*
X952600Y287153D01*
X955173Y284580D01*
X956565Y281219D01*
X956565Y277581D01*
X955173Y274220D01*
X952600Y271647D01*
X949239Y270255D01*
X930361Y270255D01*
G37*
%LPD*%
%LPC*%
G36*
X1641561Y257555D02*
X1641561Y257555D01*
X1638200Y258947D01*
X1635627Y261520D01*
X1634235Y264881D01*
X1634235Y268519D01*
X1635627Y271880D01*
X1638200Y274453D01*
X1641561Y275845D01*
X1660439Y275845D01*
X1663800Y274453D01*
X1666373Y271880D01*
X1667765Y268519D01*
X1667765Y264881D01*
X1666373Y261520D01*
X1663800Y258947D01*
X1660439Y257555D01*
X1641561Y257555D01*
G37*
%LPD*%
%LPC*%
G36*
X41361Y257555D02*
X41361Y257555D01*
X38000Y258947D01*
X35427Y261520D01*
X34035Y264881D01*
X34035Y268519D01*
X35427Y271880D01*
X38000Y274453D01*
X41361Y275845D01*
X60239Y275845D01*
X63600Y274453D01*
X66173Y271880D01*
X67565Y268519D01*
X67565Y264881D01*
X66173Y261520D01*
X63600Y258947D01*
X60239Y257555D01*
X41361Y257555D01*
G37*
%LPD*%
%LPC*%
G36*
X1641561Y359155D02*
X1641561Y359155D01*
X1638200Y360547D01*
X1635627Y363120D01*
X1634235Y366481D01*
X1634235Y370119D01*
X1635627Y373480D01*
X1638200Y376053D01*
X1641561Y377445D01*
X1660439Y377445D01*
X1663800Y376053D01*
X1666373Y373480D01*
X1667765Y370119D01*
X1667765Y366481D01*
X1666373Y363120D01*
X1663800Y360547D01*
X1660439Y359155D01*
X1641561Y359155D01*
G37*
%LPD*%
%LPC*%
G36*
X930361Y244855D02*
X930361Y244855D01*
X927000Y246247D01*
X924427Y248820D01*
X923035Y252181D01*
X923035Y255819D01*
X924427Y259180D01*
X927000Y261753D01*
X930361Y263145D01*
X949239Y263145D01*
X952600Y261753D01*
X955173Y259180D01*
X956565Y255819D01*
X956565Y252181D01*
X955173Y248820D01*
X952600Y246247D01*
X949239Y244855D01*
X930361Y244855D01*
G37*
%LPD*%
%LPC*%
G36*
X607781Y224535D02*
X607781Y224535D01*
X604420Y225927D01*
X601847Y228500D01*
X600455Y231861D01*
X600455Y250739D01*
X601847Y254100D01*
X604420Y256673D01*
X607781Y258065D01*
X611419Y258065D01*
X614780Y256673D01*
X617353Y254100D01*
X618745Y250739D01*
X618745Y231861D01*
X617353Y228500D01*
X614780Y225927D01*
X611419Y224535D01*
X607781Y224535D01*
G37*
%LPD*%
%LPC*%
G36*
X1641561Y689355D02*
X1641561Y689355D01*
X1638200Y690747D01*
X1635627Y693320D01*
X1634235Y696681D01*
X1634235Y700319D01*
X1635627Y703680D01*
X1638200Y706253D01*
X1641561Y707645D01*
X1660439Y707645D01*
X1663800Y706253D01*
X1666373Y703680D01*
X1667765Y700319D01*
X1667765Y696681D01*
X1666373Y693320D01*
X1663800Y690747D01*
X1660439Y689355D01*
X1641561Y689355D01*
G37*
%LPD*%
%LPC*%
G36*
X582381Y224535D02*
X582381Y224535D01*
X579020Y225927D01*
X576447Y228500D01*
X575055Y231861D01*
X575055Y250739D01*
X576447Y254100D01*
X579020Y256673D01*
X582381Y258065D01*
X586019Y258065D01*
X589380Y256673D01*
X591953Y254100D01*
X593345Y250739D01*
X593345Y231861D01*
X591953Y228500D01*
X589380Y225927D01*
X586019Y224535D01*
X582381Y224535D01*
G37*
%LPD*%
%LPC*%
G36*
X556981Y224535D02*
X556981Y224535D01*
X553620Y225927D01*
X551047Y228500D01*
X549655Y231861D01*
X549655Y250739D01*
X551047Y254100D01*
X553620Y256673D01*
X556981Y258065D01*
X560619Y258065D01*
X563980Y256673D01*
X566553Y254100D01*
X567945Y250739D01*
X567945Y231861D01*
X566553Y228500D01*
X563980Y225927D01*
X560619Y224535D01*
X556981Y224535D01*
G37*
%LPD*%
%LPC*%
G36*
X1641561Y232155D02*
X1641561Y232155D01*
X1638200Y233547D01*
X1635627Y236120D01*
X1634235Y239481D01*
X1634235Y243119D01*
X1635627Y246480D01*
X1638200Y249053D01*
X1641561Y250445D01*
X1660439Y250445D01*
X1663800Y249053D01*
X1666373Y246480D01*
X1667765Y243119D01*
X1667765Y239481D01*
X1666373Y236120D01*
X1663800Y233547D01*
X1660439Y232155D01*
X1641561Y232155D01*
G37*
%LPD*%
%LPC*%
G36*
X1641561Y663955D02*
X1641561Y663955D01*
X1638200Y665347D01*
X1635627Y667920D01*
X1634235Y671281D01*
X1634235Y674919D01*
X1635627Y678280D01*
X1638200Y680853D01*
X1641561Y682245D01*
X1660439Y682245D01*
X1663800Y680853D01*
X1666373Y678280D01*
X1667765Y674919D01*
X1667765Y671281D01*
X1666373Y667920D01*
X1663800Y665347D01*
X1660439Y663955D01*
X1641561Y663955D01*
G37*
%LPD*%
%LPC*%
G36*
X930361Y219455D02*
X930361Y219455D01*
X927000Y220847D01*
X924427Y223420D01*
X923035Y226781D01*
X923035Y230419D01*
X924427Y233780D01*
X927000Y236353D01*
X930361Y237745D01*
X949239Y237745D01*
X952600Y236353D01*
X955173Y233780D01*
X956565Y230419D01*
X956565Y226781D01*
X955173Y223420D01*
X952600Y220847D01*
X949239Y219455D01*
X930361Y219455D01*
G37*
%LPD*%
%LPC*%
G36*
X1641561Y206755D02*
X1641561Y206755D01*
X1638200Y208147D01*
X1635627Y210720D01*
X1634235Y214081D01*
X1634235Y217719D01*
X1635627Y221080D01*
X1638200Y223653D01*
X1641561Y225045D01*
X1660439Y225045D01*
X1663800Y223653D01*
X1666373Y221080D01*
X1667765Y217719D01*
X1667765Y214081D01*
X1666373Y210720D01*
X1663800Y208147D01*
X1660439Y206755D01*
X1641561Y206755D01*
G37*
%LPD*%
%LPC*%
G36*
X1641561Y181355D02*
X1641561Y181355D01*
X1638200Y182747D01*
X1635627Y185320D01*
X1634235Y188681D01*
X1634235Y192319D01*
X1635627Y195680D01*
X1638200Y198253D01*
X1641561Y199645D01*
X1660439Y199645D01*
X1663800Y198253D01*
X1666373Y195680D01*
X1667765Y192319D01*
X1667765Y188681D01*
X1666373Y185320D01*
X1663800Y182747D01*
X1660439Y181355D01*
X1641561Y181355D01*
G37*
%LPD*%
%LPC*%
G36*
X569681Y34035D02*
X569681Y34035D01*
X566320Y35427D01*
X563747Y38000D01*
X562355Y41361D01*
X562355Y60239D01*
X563747Y63600D01*
X566320Y66173D01*
X569681Y67565D01*
X573319Y67565D01*
X576680Y66173D01*
X579253Y63600D01*
X580645Y60239D01*
X580645Y41361D01*
X579253Y38000D01*
X576680Y35427D01*
X573319Y34035D01*
X569681Y34035D01*
G37*
%LPD*%
%LPC*%
G36*
X930361Y295655D02*
X930361Y295655D01*
X927000Y297047D01*
X924427Y299620D01*
X923035Y302981D01*
X923035Y306619D01*
X924427Y309980D01*
X927000Y312553D01*
X930361Y313945D01*
X949239Y313945D01*
X952600Y312553D01*
X955173Y309980D01*
X956565Y306619D01*
X956565Y302981D01*
X955173Y299620D01*
X952600Y297047D01*
X949239Y295655D01*
X930361Y295655D01*
G37*
%LPD*%
%LPC*%
G36*
X428433Y93471D02*
X428433Y93471D01*
X423671Y98233D01*
X423671Y104967D01*
X428433Y109729D01*
X428752Y109729D01*
X428772Y109732D01*
X428791Y109730D01*
X428893Y109752D01*
X428995Y109768D01*
X429012Y109778D01*
X429032Y109782D01*
X429121Y109835D01*
X429212Y109884D01*
X429226Y109898D01*
X429243Y109908D01*
X429310Y109987D01*
X429382Y110062D01*
X429390Y110080D01*
X429403Y110095D01*
X429442Y110191D01*
X429485Y110285D01*
X429487Y110305D01*
X429495Y110323D01*
X429513Y110490D01*
X429513Y130810D01*
X429510Y130830D01*
X429512Y130849D01*
X429490Y130951D01*
X429474Y131053D01*
X429464Y131070D01*
X429460Y131090D01*
X429407Y131179D01*
X429358Y131270D01*
X429344Y131284D01*
X429334Y131301D01*
X429255Y131368D01*
X429180Y131440D01*
X429162Y131448D01*
X429147Y131461D01*
X429051Y131500D01*
X428957Y131543D01*
X428937Y131545D01*
X428919Y131553D01*
X428752Y131571D01*
X428433Y131571D01*
X423671Y136333D01*
X423671Y143067D01*
X428433Y147829D01*
X435167Y147829D01*
X439929Y143067D01*
X439929Y136333D01*
X435167Y131571D01*
X434848Y131571D01*
X434828Y131568D01*
X434809Y131570D01*
X434707Y131548D01*
X434605Y131532D01*
X434588Y131522D01*
X434568Y131518D01*
X434479Y131465D01*
X434388Y131416D01*
X434374Y131402D01*
X434357Y131392D01*
X434290Y131313D01*
X434218Y131238D01*
X434210Y131220D01*
X434197Y131205D01*
X434158Y131109D01*
X434115Y131015D01*
X434113Y130995D01*
X434105Y130977D01*
X434087Y130810D01*
X434087Y110490D01*
X434090Y110470D01*
X434088Y110451D01*
X434110Y110349D01*
X434126Y110247D01*
X434136Y110230D01*
X434140Y110210D01*
X434193Y110121D01*
X434242Y110030D01*
X434256Y110016D01*
X434266Y109999D01*
X434345Y109932D01*
X434420Y109860D01*
X434438Y109852D01*
X434453Y109839D01*
X434549Y109800D01*
X434643Y109757D01*
X434663Y109755D01*
X434681Y109747D01*
X434848Y109729D01*
X435167Y109729D01*
X439929Y104967D01*
X439929Y98233D01*
X435167Y93471D01*
X428433Y93471D01*
G37*
%LPD*%
%LPC*%
G36*
X1001102Y553493D02*
X1001102Y553493D01*
X997993Y556602D01*
X997993Y560998D01*
X1000790Y563795D01*
X1000843Y563869D01*
X1000903Y563939D01*
X1000915Y563969D01*
X1000934Y563995D01*
X1000961Y564082D01*
X1000995Y564167D01*
X1000999Y564208D01*
X1001006Y564230D01*
X1001005Y564262D01*
X1001013Y564333D01*
X1001013Y616767D01*
X1000999Y616857D01*
X1000991Y616948D01*
X1000979Y616977D01*
X1000974Y617009D01*
X1000931Y617090D01*
X1000895Y617174D01*
X1000869Y617206D01*
X1000858Y617227D01*
X1000835Y617249D01*
X1000790Y617305D01*
X997993Y620102D01*
X997993Y624498D01*
X1001102Y627607D01*
X1005498Y627607D01*
X1008607Y624498D01*
X1008607Y620102D01*
X1005810Y617305D01*
X1005757Y617231D01*
X1005697Y617161D01*
X1005685Y617131D01*
X1005666Y617105D01*
X1005639Y617018D01*
X1005605Y616933D01*
X1005601Y616892D01*
X1005594Y616870D01*
X1005595Y616838D01*
X1005587Y616767D01*
X1005587Y564333D01*
X1005589Y564321D01*
X1005588Y564311D01*
X1005598Y564263D01*
X1005601Y564243D01*
X1005609Y564152D01*
X1005621Y564123D01*
X1005626Y564091D01*
X1005669Y564010D01*
X1005705Y563926D01*
X1005731Y563894D01*
X1005742Y563873D01*
X1005765Y563851D01*
X1005810Y563795D01*
X1008607Y560998D01*
X1008607Y556602D01*
X1005498Y553493D01*
X1001102Y553493D01*
G37*
%LPD*%
%LPC*%
G36*
X239102Y108993D02*
X239102Y108993D01*
X235993Y112102D01*
X235993Y116498D01*
X238790Y119295D01*
X238843Y119369D01*
X238903Y119439D01*
X238915Y119469D01*
X238934Y119495D01*
X238961Y119582D01*
X238995Y119667D01*
X238999Y119708D01*
X239006Y119730D01*
X239005Y119762D01*
X239013Y119833D01*
X239013Y159567D01*
X238999Y159657D01*
X238991Y159748D01*
X238979Y159777D01*
X238974Y159809D01*
X238931Y159890D01*
X238895Y159974D01*
X238869Y160006D01*
X238858Y160027D01*
X238835Y160049D01*
X238790Y160105D01*
X235993Y162902D01*
X235993Y167298D01*
X239102Y170407D01*
X243498Y170407D01*
X246607Y167298D01*
X246607Y162902D01*
X243810Y160105D01*
X243757Y160031D01*
X243697Y159961D01*
X243685Y159931D01*
X243666Y159905D01*
X243639Y159818D01*
X243605Y159733D01*
X243601Y159692D01*
X243594Y159670D01*
X243595Y159638D01*
X243587Y159567D01*
X243587Y119833D01*
X243601Y119743D01*
X243609Y119652D01*
X243621Y119623D01*
X243626Y119591D01*
X243669Y119510D01*
X243705Y119426D01*
X243731Y119394D01*
X243742Y119373D01*
X243765Y119351D01*
X243810Y119295D01*
X246607Y116498D01*
X246607Y112102D01*
X243498Y108993D01*
X239102Y108993D01*
G37*
%LPD*%
%LPC*%
G36*
X47723Y750823D02*
X47723Y750823D01*
X47723Y771835D01*
X50607Y771455D01*
X53461Y770690D01*
X56191Y769560D01*
X58750Y768082D01*
X61094Y766283D01*
X63183Y764194D01*
X64982Y761850D01*
X66460Y759291D01*
X67590Y756561D01*
X68355Y753707D01*
X68735Y750823D01*
X47723Y750823D01*
G37*
%LPD*%
%LPC*%
G36*
X77723Y702823D02*
X77723Y702823D01*
X77723Y723835D01*
X80607Y723455D01*
X83461Y722690D01*
X86191Y721560D01*
X88750Y720082D01*
X91094Y718283D01*
X93183Y716194D01*
X94982Y713850D01*
X96460Y711291D01*
X97590Y708561D01*
X98355Y705707D01*
X98735Y702823D01*
X77723Y702823D01*
G37*
%LPD*%
%LPC*%
G36*
X23665Y750823D02*
X23665Y750823D01*
X24045Y753707D01*
X24810Y756561D01*
X25940Y759291D01*
X27418Y761850D01*
X29217Y764194D01*
X31306Y766283D01*
X33650Y768082D01*
X36209Y769560D01*
X38939Y770690D01*
X41793Y771455D01*
X44677Y771835D01*
X44677Y750823D01*
X23665Y750823D01*
G37*
%LPD*%
%LPC*%
G36*
X47723Y747777D02*
X47723Y747777D01*
X68735Y747777D01*
X68355Y744893D01*
X67590Y742039D01*
X66460Y739309D01*
X64982Y736750D01*
X63183Y734406D01*
X61094Y732317D01*
X58750Y730518D01*
X56191Y729040D01*
X53461Y727910D01*
X50607Y727145D01*
X47723Y726765D01*
X47723Y747777D01*
G37*
%LPD*%
%LPC*%
G36*
X53665Y702823D02*
X53665Y702823D01*
X54045Y705707D01*
X54810Y708561D01*
X55940Y711291D01*
X57418Y713850D01*
X59217Y716194D01*
X61306Y718283D01*
X63650Y720082D01*
X66209Y721560D01*
X68939Y722690D01*
X71793Y723455D01*
X74677Y723835D01*
X74677Y702823D01*
X53665Y702823D01*
G37*
%LPD*%
%LPC*%
G36*
X77723Y699777D02*
X77723Y699777D01*
X98735Y699777D01*
X98355Y696893D01*
X97590Y694039D01*
X96460Y691309D01*
X94982Y688750D01*
X93183Y686406D01*
X91094Y684317D01*
X88750Y682518D01*
X86191Y681040D01*
X83461Y679910D01*
X80607Y679145D01*
X77723Y678765D01*
X77723Y699777D01*
G37*
%LPD*%
%LPC*%
G36*
X41793Y727145D02*
X41793Y727145D01*
X38939Y727910D01*
X36209Y729040D01*
X33650Y730518D01*
X31306Y732317D01*
X29217Y734406D01*
X27418Y736750D01*
X25940Y739309D01*
X24810Y742039D01*
X24045Y744893D01*
X23665Y747777D01*
X44677Y747777D01*
X44677Y726765D01*
X41793Y727145D01*
G37*
%LPD*%
%LPC*%
G36*
X71793Y679145D02*
X71793Y679145D01*
X68939Y679910D01*
X66209Y681040D01*
X63650Y682518D01*
X61306Y684317D01*
X59217Y686406D01*
X57418Y688750D01*
X55940Y691309D01*
X54810Y694039D01*
X54045Y696893D01*
X53665Y699777D01*
X74677Y699777D01*
X74677Y678765D01*
X71793Y679145D01*
G37*
%LPD*%
%LPC*%
G36*
X742297Y386587D02*
X742297Y386587D01*
X739683Y387670D01*
X737682Y389671D01*
X736599Y392285D01*
X736599Y395115D01*
X737682Y397729D01*
X739683Y399730D01*
X742297Y400813D01*
X756303Y400813D01*
X758917Y399730D01*
X760918Y397729D01*
X762001Y395115D01*
X762001Y392285D01*
X760918Y389671D01*
X758917Y387670D01*
X756303Y386587D01*
X742297Y386587D01*
G37*
%LPD*%
%LPC*%
G36*
X742297Y437387D02*
X742297Y437387D01*
X739683Y438470D01*
X737682Y440471D01*
X736599Y443085D01*
X736599Y445915D01*
X737682Y448529D01*
X739683Y450530D01*
X742297Y451613D01*
X756303Y451613D01*
X758917Y450530D01*
X760918Y448529D01*
X762001Y445915D01*
X762001Y443085D01*
X760918Y440471D01*
X758917Y438470D01*
X756303Y437387D01*
X742297Y437387D01*
G37*
%LPD*%
%LPC*%
G36*
X123633Y423671D02*
X123633Y423671D01*
X118871Y428433D01*
X118871Y435167D01*
X123633Y439929D01*
X130367Y439929D01*
X135129Y435167D01*
X135129Y428433D01*
X130367Y423671D01*
X123633Y423671D01*
G37*
%LPD*%
%LPC*%
G36*
X1469833Y283971D02*
X1469833Y283971D01*
X1465071Y288733D01*
X1465071Y295467D01*
X1469833Y300229D01*
X1476567Y300229D01*
X1481329Y295467D01*
X1481329Y288733D01*
X1476567Y283971D01*
X1469833Y283971D01*
G37*
%LPD*%
%LPC*%
G36*
X1546033Y283971D02*
X1546033Y283971D01*
X1541271Y288733D01*
X1541271Y295467D01*
X1546033Y300229D01*
X1552767Y300229D01*
X1557529Y295467D01*
X1557529Y288733D01*
X1552767Y283971D01*
X1546033Y283971D01*
G37*
%LPD*%
%LPC*%
G36*
X1393633Y626871D02*
X1393633Y626871D01*
X1388871Y631633D01*
X1388871Y638367D01*
X1393633Y643129D01*
X1400367Y643129D01*
X1405129Y638367D01*
X1405129Y631633D01*
X1400367Y626871D01*
X1393633Y626871D01*
G37*
%LPD*%
%LPC*%
G36*
X1469833Y398271D02*
X1469833Y398271D01*
X1465071Y403033D01*
X1465071Y409767D01*
X1469833Y414529D01*
X1476567Y414529D01*
X1481329Y409767D01*
X1481329Y403033D01*
X1476567Y398271D01*
X1469833Y398271D01*
G37*
%LPD*%
%LPC*%
G36*
X1393633Y131571D02*
X1393633Y131571D01*
X1388871Y136333D01*
X1388871Y143067D01*
X1393633Y147829D01*
X1400367Y147829D01*
X1405129Y143067D01*
X1405129Y136333D01*
X1400367Y131571D01*
X1393633Y131571D01*
G37*
%LPD*%
%LPC*%
G36*
X1546033Y131571D02*
X1546033Y131571D01*
X1541271Y136333D01*
X1541271Y143067D01*
X1546033Y147829D01*
X1552767Y147829D01*
X1557529Y143067D01*
X1557529Y136333D01*
X1552767Y131571D01*
X1546033Y131571D01*
G37*
%LPD*%
%LPC*%
G36*
X1469833Y550671D02*
X1469833Y550671D01*
X1465071Y555433D01*
X1465071Y562167D01*
X1469833Y566929D01*
X1476567Y566929D01*
X1481329Y562167D01*
X1481329Y555433D01*
X1476567Y550671D01*
X1469833Y550671D01*
G37*
%LPD*%
%LPC*%
G36*
X1469833Y131571D02*
X1469833Y131571D01*
X1465071Y136333D01*
X1465071Y143067D01*
X1469833Y147829D01*
X1476567Y147829D01*
X1481329Y143067D01*
X1481329Y136333D01*
X1476567Y131571D01*
X1469833Y131571D01*
G37*
%LPD*%
%LPC*%
G36*
X1546033Y169671D02*
X1546033Y169671D01*
X1541271Y174433D01*
X1541271Y181167D01*
X1546033Y185929D01*
X1552767Y185929D01*
X1557529Y181167D01*
X1557529Y174433D01*
X1552767Y169671D01*
X1546033Y169671D01*
G37*
%LPD*%
%LPC*%
G36*
X1469833Y169671D02*
X1469833Y169671D01*
X1465071Y174433D01*
X1465071Y181167D01*
X1469833Y185929D01*
X1476567Y185929D01*
X1481329Y181167D01*
X1481329Y174433D01*
X1476567Y169671D01*
X1469833Y169671D01*
G37*
%LPD*%
%LPC*%
G36*
X1393633Y169671D02*
X1393633Y169671D01*
X1388871Y174433D01*
X1388871Y181167D01*
X1393633Y185929D01*
X1400367Y185929D01*
X1405129Y181167D01*
X1405129Y174433D01*
X1400367Y169671D01*
X1393633Y169671D01*
G37*
%LPD*%
%LPC*%
G36*
X1393633Y512571D02*
X1393633Y512571D01*
X1388871Y517333D01*
X1388871Y524067D01*
X1393633Y528829D01*
X1400367Y528829D01*
X1405129Y524067D01*
X1405129Y517333D01*
X1400367Y512571D01*
X1393633Y512571D01*
G37*
%LPD*%
%LPC*%
G36*
X1393633Y207771D02*
X1393633Y207771D01*
X1388871Y212533D01*
X1388871Y219267D01*
X1393633Y224029D01*
X1400367Y224029D01*
X1405129Y219267D01*
X1405129Y212533D01*
X1400367Y207771D01*
X1393633Y207771D01*
G37*
%LPD*%
%LPC*%
G36*
X1469833Y207771D02*
X1469833Y207771D01*
X1465071Y212533D01*
X1465071Y219267D01*
X1469833Y224029D01*
X1476567Y224029D01*
X1481329Y219267D01*
X1481329Y212533D01*
X1476567Y207771D01*
X1469833Y207771D01*
G37*
%LPD*%
%LPC*%
G36*
X1546033Y207771D02*
X1546033Y207771D01*
X1541271Y212533D01*
X1541271Y219267D01*
X1546033Y224029D01*
X1552767Y224029D01*
X1557529Y219267D01*
X1557529Y212533D01*
X1552767Y207771D01*
X1546033Y207771D01*
G37*
%LPD*%
%LPC*%
G36*
X1546033Y474471D02*
X1546033Y474471D01*
X1541271Y479233D01*
X1541271Y485967D01*
X1546033Y490729D01*
X1552767Y490729D01*
X1557529Y485967D01*
X1557529Y479233D01*
X1552767Y474471D01*
X1546033Y474471D01*
G37*
%LPD*%
%LPC*%
G36*
X1126933Y410971D02*
X1126933Y410971D01*
X1122171Y415733D01*
X1122171Y422467D01*
X1126933Y427229D01*
X1133667Y427229D01*
X1138429Y422467D01*
X1138429Y415733D01*
X1133667Y410971D01*
X1126933Y410971D01*
G37*
%LPD*%
%LPC*%
G36*
X1546033Y398271D02*
X1546033Y398271D01*
X1541271Y403033D01*
X1541271Y409767D01*
X1546033Y414529D01*
X1552767Y414529D01*
X1557529Y409767D01*
X1557529Y403033D01*
X1552767Y398271D01*
X1546033Y398271D01*
G37*
%LPD*%
%LPC*%
G36*
X1228533Y410971D02*
X1228533Y410971D01*
X1223771Y415733D01*
X1223771Y422467D01*
X1228533Y427229D01*
X1235267Y427229D01*
X1240029Y422467D01*
X1240029Y415733D01*
X1235267Y410971D01*
X1228533Y410971D01*
G37*
%LPD*%
%LPC*%
G36*
X542733Y588771D02*
X542733Y588771D01*
X537971Y593533D01*
X537971Y600267D01*
X542733Y605029D01*
X549467Y605029D01*
X554229Y600267D01*
X554229Y593533D01*
X549467Y588771D01*
X542733Y588771D01*
G37*
%LPD*%
%LPC*%
G36*
X1546033Y741171D02*
X1546033Y741171D01*
X1541271Y745933D01*
X1541271Y752667D01*
X1546033Y757429D01*
X1552767Y757429D01*
X1557529Y752667D01*
X1557529Y745933D01*
X1552767Y741171D01*
X1546033Y741171D01*
G37*
%LPD*%
%LPC*%
G36*
X1469833Y741171D02*
X1469833Y741171D01*
X1465071Y745933D01*
X1465071Y752667D01*
X1469833Y757429D01*
X1476567Y757429D01*
X1481329Y752667D01*
X1481329Y745933D01*
X1476567Y741171D01*
X1469833Y741171D01*
G37*
%LPD*%
%LPC*%
G36*
X1393633Y741171D02*
X1393633Y741171D01*
X1388871Y745933D01*
X1388871Y752667D01*
X1393633Y757429D01*
X1400367Y757429D01*
X1405129Y752667D01*
X1405129Y745933D01*
X1400367Y741171D01*
X1393633Y741171D01*
G37*
%LPD*%
%LPC*%
G36*
X1393633Y322071D02*
X1393633Y322071D01*
X1388871Y326833D01*
X1388871Y333567D01*
X1393633Y338329D01*
X1400367Y338329D01*
X1405129Y333567D01*
X1405129Y326833D01*
X1400367Y322071D01*
X1393633Y322071D01*
G37*
%LPD*%
%LPC*%
G36*
X1393633Y398271D02*
X1393633Y398271D01*
X1388871Y403033D01*
X1388871Y409767D01*
X1393633Y414529D01*
X1400367Y414529D01*
X1405129Y409767D01*
X1405129Y403033D01*
X1400367Y398271D01*
X1393633Y398271D01*
G37*
%LPD*%
%LPC*%
G36*
X1546033Y322071D02*
X1546033Y322071D01*
X1541271Y326833D01*
X1541271Y333567D01*
X1546033Y338329D01*
X1552767Y338329D01*
X1557529Y333567D01*
X1557529Y326833D01*
X1552767Y322071D01*
X1546033Y322071D01*
G37*
%LPD*%
%LPC*%
G36*
X1393633Y245871D02*
X1393633Y245871D01*
X1388871Y250633D01*
X1388871Y257367D01*
X1393633Y262129D01*
X1400367Y262129D01*
X1405129Y257367D01*
X1405129Y250633D01*
X1400367Y245871D01*
X1393633Y245871D01*
G37*
%LPD*%
%LPC*%
G36*
X98233Y499871D02*
X98233Y499871D01*
X93471Y504633D01*
X93471Y511367D01*
X98233Y516129D01*
X104967Y516129D01*
X109729Y511367D01*
X109729Y504633D01*
X104967Y499871D01*
X98233Y499871D01*
G37*
%LPD*%
%LPC*%
G36*
X1546033Y360171D02*
X1546033Y360171D01*
X1541271Y364933D01*
X1541271Y371667D01*
X1546033Y376429D01*
X1552767Y376429D01*
X1557529Y371667D01*
X1557529Y364933D01*
X1552767Y360171D01*
X1546033Y360171D01*
G37*
%LPD*%
%LPC*%
G36*
X1469833Y360171D02*
X1469833Y360171D01*
X1465071Y364933D01*
X1465071Y371667D01*
X1469833Y376429D01*
X1476567Y376429D01*
X1481329Y371667D01*
X1481329Y364933D01*
X1476567Y360171D01*
X1469833Y360171D01*
G37*
%LPD*%
%LPC*%
G36*
X1469833Y245871D02*
X1469833Y245871D01*
X1465071Y250633D01*
X1465071Y257367D01*
X1469833Y262129D01*
X1476567Y262129D01*
X1481329Y257367D01*
X1481329Y250633D01*
X1476567Y245871D01*
X1469833Y245871D01*
G37*
%LPD*%
%LPC*%
G36*
X1393633Y360171D02*
X1393633Y360171D01*
X1388871Y364933D01*
X1388871Y371667D01*
X1393633Y376429D01*
X1400367Y376429D01*
X1405129Y371667D01*
X1405129Y364933D01*
X1400367Y360171D01*
X1393633Y360171D01*
G37*
%LPD*%
%LPC*%
G36*
X1469833Y322071D02*
X1469833Y322071D01*
X1465071Y326833D01*
X1465071Y333567D01*
X1469833Y338329D01*
X1476567Y338329D01*
X1481329Y333567D01*
X1481329Y326833D01*
X1476567Y322071D01*
X1469833Y322071D01*
G37*
%LPD*%
%LPC*%
G36*
X1546033Y512571D02*
X1546033Y512571D01*
X1541271Y517333D01*
X1541271Y524067D01*
X1546033Y528829D01*
X1552767Y528829D01*
X1557529Y524067D01*
X1557529Y517333D01*
X1552767Y512571D01*
X1546033Y512571D01*
G37*
%LPD*%
%LPC*%
G36*
X1101533Y715771D02*
X1101533Y715771D01*
X1096771Y720533D01*
X1096771Y727267D01*
X1101533Y732029D01*
X1108267Y732029D01*
X1113029Y727267D01*
X1113029Y720533D01*
X1108267Y715771D01*
X1101533Y715771D01*
G37*
%LPD*%
%LPC*%
G36*
X1152333Y715771D02*
X1152333Y715771D01*
X1147571Y720533D01*
X1147571Y727267D01*
X1152333Y732029D01*
X1159067Y732029D01*
X1163829Y727267D01*
X1163829Y720533D01*
X1159067Y715771D01*
X1152333Y715771D01*
G37*
%LPD*%
%LPC*%
G36*
X1203133Y715771D02*
X1203133Y715771D01*
X1198371Y720533D01*
X1198371Y727267D01*
X1203133Y732029D01*
X1209867Y732029D01*
X1214629Y727267D01*
X1214629Y720533D01*
X1209867Y715771D01*
X1203133Y715771D01*
G37*
%LPD*%
%LPC*%
G36*
X1546033Y626871D02*
X1546033Y626871D01*
X1541271Y631633D01*
X1541271Y638367D01*
X1546033Y643129D01*
X1552767Y643129D01*
X1557529Y638367D01*
X1557529Y631633D01*
X1552767Y626871D01*
X1546033Y626871D01*
G37*
%LPD*%
%LPC*%
G36*
X98233Y461771D02*
X98233Y461771D01*
X93471Y466533D01*
X93471Y473267D01*
X98233Y478029D01*
X104967Y478029D01*
X109729Y473267D01*
X109729Y466533D01*
X104967Y461771D01*
X98233Y461771D01*
G37*
%LPD*%
%LPC*%
G36*
X1393633Y474471D02*
X1393633Y474471D01*
X1388871Y479233D01*
X1388871Y485967D01*
X1393633Y490729D01*
X1400367Y490729D01*
X1405129Y485967D01*
X1405129Y479233D01*
X1400367Y474471D01*
X1393633Y474471D01*
G37*
%LPD*%
%LPC*%
G36*
X1393633Y588771D02*
X1393633Y588771D01*
X1388871Y593533D01*
X1388871Y600267D01*
X1393633Y605029D01*
X1400367Y605029D01*
X1405129Y600267D01*
X1405129Y593533D01*
X1400367Y588771D01*
X1393633Y588771D01*
G37*
%LPD*%
%LPC*%
G36*
X1393633Y703071D02*
X1393633Y703071D01*
X1388871Y707833D01*
X1388871Y714567D01*
X1393633Y719329D01*
X1400367Y719329D01*
X1405129Y714567D01*
X1405129Y707833D01*
X1400367Y703071D01*
X1393633Y703071D01*
G37*
%LPD*%
%LPC*%
G36*
X1546033Y703071D02*
X1546033Y703071D01*
X1541271Y707833D01*
X1541271Y714567D01*
X1546033Y719329D01*
X1552767Y719329D01*
X1557529Y714567D01*
X1557529Y707833D01*
X1552767Y703071D01*
X1546033Y703071D01*
G37*
%LPD*%
%LPC*%
G36*
X1469833Y703071D02*
X1469833Y703071D01*
X1465071Y707833D01*
X1465071Y714567D01*
X1469833Y719329D01*
X1476567Y719329D01*
X1481329Y714567D01*
X1481329Y707833D01*
X1476567Y703071D01*
X1469833Y703071D01*
G37*
%LPD*%
%LPC*%
G36*
X834833Y487171D02*
X834833Y487171D01*
X830071Y491933D01*
X830071Y498667D01*
X834833Y503429D01*
X841567Y503429D01*
X846329Y498667D01*
X846329Y491933D01*
X841567Y487171D01*
X834833Y487171D01*
G37*
%LPD*%
%LPC*%
G36*
X1546033Y588771D02*
X1546033Y588771D01*
X1541271Y593533D01*
X1541271Y600267D01*
X1546033Y605029D01*
X1552767Y605029D01*
X1557529Y600267D01*
X1557529Y593533D01*
X1552767Y588771D01*
X1546033Y588771D01*
G37*
%LPD*%
%LPC*%
G36*
X1546033Y550671D02*
X1546033Y550671D01*
X1541271Y555433D01*
X1541271Y562167D01*
X1546033Y566929D01*
X1552767Y566929D01*
X1557529Y562167D01*
X1557529Y555433D01*
X1552767Y550671D01*
X1546033Y550671D01*
G37*
%LPD*%
%LPC*%
G36*
X834833Y423671D02*
X834833Y423671D01*
X830071Y428433D01*
X830071Y435167D01*
X834833Y439929D01*
X841567Y439929D01*
X846329Y435167D01*
X846329Y428433D01*
X841567Y423671D01*
X834833Y423671D01*
G37*
%LPD*%
%LPC*%
G36*
X1546033Y245871D02*
X1546033Y245871D01*
X1541271Y250633D01*
X1541271Y257367D01*
X1546033Y262129D01*
X1552767Y262129D01*
X1557529Y257367D01*
X1557529Y250633D01*
X1552767Y245871D01*
X1546033Y245871D01*
G37*
%LPD*%
%LPC*%
G36*
X1469833Y588771D02*
X1469833Y588771D01*
X1465071Y593533D01*
X1465071Y600267D01*
X1469833Y605029D01*
X1476567Y605029D01*
X1481329Y600267D01*
X1481329Y593533D01*
X1476567Y588771D01*
X1469833Y588771D01*
G37*
%LPD*%
%LPC*%
G36*
X1393633Y550671D02*
X1393633Y550671D01*
X1388871Y555433D01*
X1388871Y562167D01*
X1393633Y566929D01*
X1400367Y566929D01*
X1405129Y562167D01*
X1405129Y555433D01*
X1400367Y550671D01*
X1393633Y550671D01*
G37*
%LPD*%
%LPC*%
G36*
X1546033Y664971D02*
X1546033Y664971D01*
X1541271Y669733D01*
X1541271Y676467D01*
X1546033Y681229D01*
X1552767Y681229D01*
X1557529Y676467D01*
X1557529Y669733D01*
X1552767Y664971D01*
X1546033Y664971D01*
G37*
%LPD*%
%LPC*%
G36*
X1469833Y664971D02*
X1469833Y664971D01*
X1465071Y669733D01*
X1465071Y676467D01*
X1469833Y681229D01*
X1476567Y681229D01*
X1481329Y676467D01*
X1481329Y669733D01*
X1476567Y664971D01*
X1469833Y664971D01*
G37*
%LPD*%
%LPC*%
G36*
X1393633Y664971D02*
X1393633Y664971D01*
X1388871Y669733D01*
X1388871Y676467D01*
X1393633Y681229D01*
X1400367Y681229D01*
X1405129Y676467D01*
X1405129Y669733D01*
X1400367Y664971D01*
X1393633Y664971D01*
G37*
%LPD*%
%LPC*%
G36*
X1469833Y626871D02*
X1469833Y626871D01*
X1465071Y631633D01*
X1465071Y638367D01*
X1469833Y643129D01*
X1476567Y643129D01*
X1481329Y638367D01*
X1481329Y631633D01*
X1476567Y626871D01*
X1469833Y626871D01*
G37*
%LPD*%
%LPC*%
G36*
X1469833Y474471D02*
X1469833Y474471D01*
X1465071Y479233D01*
X1465071Y485967D01*
X1469833Y490729D01*
X1476567Y490729D01*
X1481329Y485967D01*
X1481329Y479233D01*
X1476567Y474471D01*
X1469833Y474471D01*
G37*
%LPD*%
%LPC*%
G36*
X1393633Y283971D02*
X1393633Y283971D01*
X1388871Y288733D01*
X1388871Y295467D01*
X1393633Y300229D01*
X1400367Y300229D01*
X1405129Y295467D01*
X1405129Y288733D01*
X1400367Y283971D01*
X1393633Y283971D01*
G37*
%LPD*%
%LPC*%
G36*
X1469833Y512571D02*
X1469833Y512571D01*
X1465071Y517333D01*
X1465071Y524067D01*
X1469833Y528829D01*
X1476567Y528829D01*
X1481329Y524067D01*
X1481329Y517333D01*
X1476567Y512571D01*
X1469833Y512571D01*
G37*
%LPD*%
%LPC*%
G36*
X446023Y763523D02*
X446023Y763523D01*
X446023Y779666D01*
X446879Y779531D01*
X448400Y779036D01*
X449825Y778310D01*
X451119Y777370D01*
X452250Y776239D01*
X453190Y774945D01*
X453916Y773520D01*
X454411Y771999D01*
X454661Y770420D01*
X454661Y763523D01*
X446023Y763523D01*
G37*
%LPD*%
%LPC*%
G36*
X496823Y763523D02*
X496823Y763523D01*
X496823Y779666D01*
X497679Y779531D01*
X499200Y779036D01*
X500625Y778310D01*
X501919Y777370D01*
X503050Y776239D01*
X503990Y774945D01*
X504716Y773520D01*
X505211Y771999D01*
X505461Y770420D01*
X505461Y763523D01*
X496823Y763523D01*
G37*
%LPD*%
%LPC*%
G36*
X522223Y763523D02*
X522223Y763523D01*
X522223Y779666D01*
X523079Y779531D01*
X524600Y779036D01*
X526025Y778310D01*
X527319Y777370D01*
X528450Y776239D01*
X529390Y774945D01*
X530116Y773520D01*
X530611Y771999D01*
X530861Y770420D01*
X530861Y763523D01*
X522223Y763523D01*
G37*
%LPD*%
%LPC*%
G36*
X547623Y763523D02*
X547623Y763523D01*
X547623Y779666D01*
X548479Y779531D01*
X550000Y779036D01*
X551425Y778310D01*
X552719Y777370D01*
X553850Y776239D01*
X554790Y774945D01*
X555516Y773520D01*
X556011Y771999D01*
X556261Y770420D01*
X556261Y763523D01*
X547623Y763523D01*
G37*
%LPD*%
%LPC*%
G36*
X1550923Y52323D02*
X1550923Y52323D01*
X1550923Y68466D01*
X1551779Y68331D01*
X1553300Y67836D01*
X1554725Y67110D01*
X1556019Y66170D01*
X1557150Y65039D01*
X1558090Y63745D01*
X1558816Y62320D01*
X1559311Y60799D01*
X1559561Y59220D01*
X1559561Y52323D01*
X1550923Y52323D01*
G37*
%LPD*%
%LPC*%
G36*
X1500123Y52323D02*
X1500123Y52323D01*
X1500123Y68466D01*
X1500979Y68331D01*
X1502500Y67836D01*
X1503925Y67110D01*
X1505219Y66170D01*
X1506350Y65039D01*
X1507290Y63745D01*
X1508016Y62320D01*
X1508511Y60799D01*
X1508761Y59220D01*
X1508761Y52323D01*
X1500123Y52323D01*
G37*
%LPD*%
%LPC*%
G36*
X471423Y763523D02*
X471423Y763523D01*
X471423Y779666D01*
X472279Y779531D01*
X473800Y779036D01*
X475225Y778310D01*
X476519Y777370D01*
X477650Y776239D01*
X478590Y774945D01*
X479316Y773520D01*
X479811Y771999D01*
X480061Y770420D01*
X480061Y763523D01*
X471423Y763523D01*
G37*
%LPD*%
%LPC*%
G36*
X1525523Y52323D02*
X1525523Y52323D01*
X1525523Y68466D01*
X1526379Y68331D01*
X1527900Y67836D01*
X1529325Y67110D01*
X1530619Y66170D01*
X1531750Y65039D01*
X1532690Y63745D01*
X1533416Y62320D01*
X1533911Y60799D01*
X1534161Y59220D01*
X1534161Y52323D01*
X1525523Y52323D01*
G37*
%LPD*%
%LPC*%
G36*
X1576323Y52323D02*
X1576323Y52323D01*
X1576323Y68466D01*
X1577179Y68331D01*
X1578700Y67836D01*
X1580125Y67110D01*
X1581419Y66170D01*
X1582550Y65039D01*
X1583490Y63745D01*
X1584216Y62320D01*
X1584711Y60799D01*
X1584961Y59220D01*
X1584961Y52323D01*
X1576323Y52323D01*
G37*
%LPD*%
%LPC*%
G36*
X1601723Y52323D02*
X1601723Y52323D01*
X1601723Y68466D01*
X1602579Y68331D01*
X1604100Y67836D01*
X1605525Y67110D01*
X1606819Y66170D01*
X1607950Y65039D01*
X1608890Y63745D01*
X1609616Y62320D01*
X1610111Y60799D01*
X1610361Y59220D01*
X1610361Y52323D01*
X1601723Y52323D01*
G37*
%LPD*%
%LPC*%
G36*
X128523Y52323D02*
X128523Y52323D01*
X128523Y68466D01*
X129379Y68331D01*
X130900Y67836D01*
X132325Y67110D01*
X133619Y66170D01*
X134750Y65039D01*
X135690Y63745D01*
X136416Y62320D01*
X136911Y60799D01*
X137161Y59220D01*
X137161Y52323D01*
X128523Y52323D01*
G37*
%LPD*%
%LPC*%
G36*
X1601723Y49277D02*
X1601723Y49277D01*
X1610361Y49277D01*
X1610361Y42380D01*
X1610111Y40801D01*
X1609616Y39280D01*
X1608890Y37855D01*
X1607950Y36561D01*
X1606819Y35430D01*
X1605525Y34490D01*
X1604100Y33764D01*
X1602579Y33269D01*
X1601723Y33134D01*
X1601723Y49277D01*
G37*
%LPD*%
%LPC*%
G36*
X1576323Y49277D02*
X1576323Y49277D01*
X1584961Y49277D01*
X1584961Y42380D01*
X1584711Y40801D01*
X1584216Y39280D01*
X1583490Y37855D01*
X1582550Y36561D01*
X1581419Y35430D01*
X1580125Y34490D01*
X1578700Y33764D01*
X1577179Y33269D01*
X1576323Y33134D01*
X1576323Y49277D01*
G37*
%LPD*%
%LPC*%
G36*
X1500123Y49277D02*
X1500123Y49277D01*
X1508761Y49277D01*
X1508761Y42380D01*
X1508511Y40801D01*
X1508016Y39280D01*
X1507290Y37855D01*
X1506350Y36561D01*
X1505219Y35430D01*
X1503925Y34490D01*
X1502500Y33764D01*
X1500979Y33269D01*
X1500123Y33134D01*
X1500123Y49277D01*
G37*
%LPD*%
%LPC*%
G36*
X1525523Y49277D02*
X1525523Y49277D01*
X1534161Y49277D01*
X1534161Y42380D01*
X1533911Y40801D01*
X1533416Y39280D01*
X1532690Y37855D01*
X1531750Y36561D01*
X1530619Y35430D01*
X1529325Y34490D01*
X1527900Y33764D01*
X1526379Y33269D01*
X1525523Y33134D01*
X1525523Y49277D01*
G37*
%LPD*%
%LPC*%
G36*
X1550923Y49277D02*
X1550923Y49277D01*
X1559561Y49277D01*
X1559561Y42380D01*
X1559311Y40801D01*
X1558816Y39280D01*
X1558090Y37855D01*
X1557150Y36561D01*
X1556019Y35430D01*
X1554725Y34490D01*
X1553300Y33764D01*
X1551779Y33269D01*
X1550923Y33134D01*
X1550923Y49277D01*
G37*
%LPD*%
%LPC*%
G36*
X128523Y49277D02*
X128523Y49277D01*
X137161Y49277D01*
X137161Y42380D01*
X136911Y40801D01*
X136416Y39280D01*
X135690Y37855D01*
X134750Y36561D01*
X133619Y35430D01*
X132325Y34490D01*
X130900Y33764D01*
X129379Y33269D01*
X128523Y33134D01*
X128523Y49277D01*
G37*
%LPD*%
%LPC*%
G36*
X471423Y760477D02*
X471423Y760477D01*
X480061Y760477D01*
X480061Y753580D01*
X479811Y752001D01*
X479316Y750480D01*
X478590Y749055D01*
X477650Y747761D01*
X476519Y746630D01*
X475225Y745690D01*
X473800Y744964D01*
X472279Y744469D01*
X471423Y744334D01*
X471423Y760477D01*
G37*
%LPD*%
%LPC*%
G36*
X446023Y760477D02*
X446023Y760477D01*
X454661Y760477D01*
X454661Y753580D01*
X454411Y752001D01*
X453916Y750480D01*
X453190Y749055D01*
X452250Y747761D01*
X451119Y746630D01*
X449825Y745690D01*
X448400Y744964D01*
X446879Y744469D01*
X446023Y744334D01*
X446023Y760477D01*
G37*
%LPD*%
%LPC*%
G36*
X496823Y760477D02*
X496823Y760477D01*
X505461Y760477D01*
X505461Y753580D01*
X505211Y752001D01*
X504716Y750480D01*
X503990Y749055D01*
X503050Y747761D01*
X501919Y746630D01*
X500625Y745690D01*
X499200Y744964D01*
X497679Y744469D01*
X496823Y744334D01*
X496823Y760477D01*
G37*
%LPD*%
%LPC*%
G36*
X547623Y760477D02*
X547623Y760477D01*
X556261Y760477D01*
X556261Y753580D01*
X556011Y752001D01*
X555516Y750480D01*
X554790Y749055D01*
X553850Y747761D01*
X552719Y746630D01*
X551425Y745690D01*
X550000Y744964D01*
X548479Y744469D01*
X547623Y744334D01*
X547623Y760477D01*
G37*
%LPD*%
%LPC*%
G36*
X522223Y760477D02*
X522223Y760477D01*
X530861Y760477D01*
X530861Y753580D01*
X530611Y752001D01*
X530116Y750480D01*
X529390Y749055D01*
X528450Y747761D01*
X527319Y746630D01*
X526025Y745690D01*
X524600Y744964D01*
X523079Y744469D01*
X522223Y744334D01*
X522223Y760477D01*
G37*
%LPD*%
%LPC*%
G36*
X459739Y763523D02*
X459739Y763523D01*
X459739Y770420D01*
X459989Y771999D01*
X460484Y773520D01*
X461210Y774945D01*
X462150Y776239D01*
X463281Y777370D01*
X464575Y778310D01*
X466000Y779036D01*
X467521Y779531D01*
X468377Y779666D01*
X468377Y763523D01*
X459739Y763523D01*
G37*
%LPD*%
%LPC*%
G36*
X1539239Y52323D02*
X1539239Y52323D01*
X1539239Y59220D01*
X1539489Y60799D01*
X1539984Y62320D01*
X1540710Y63745D01*
X1541650Y65039D01*
X1542781Y66170D01*
X1544075Y67110D01*
X1545500Y67836D01*
X1547021Y68331D01*
X1547877Y68466D01*
X1547877Y52323D01*
X1539239Y52323D01*
G37*
%LPD*%
%LPC*%
G36*
X1590039Y52323D02*
X1590039Y52323D01*
X1590039Y59220D01*
X1590289Y60799D01*
X1590784Y62320D01*
X1591510Y63745D01*
X1592450Y65039D01*
X1593581Y66170D01*
X1594875Y67110D01*
X1596300Y67836D01*
X1597821Y68331D01*
X1598677Y68466D01*
X1598677Y52323D01*
X1590039Y52323D01*
G37*
%LPD*%
%LPC*%
G36*
X116839Y52323D02*
X116839Y52323D01*
X116839Y59220D01*
X117089Y60799D01*
X117584Y62320D01*
X118310Y63745D01*
X119250Y65039D01*
X120381Y66170D01*
X121675Y67110D01*
X123100Y67836D01*
X124621Y68331D01*
X125477Y68466D01*
X125477Y52323D01*
X116839Y52323D01*
G37*
%LPD*%
%LPC*%
G36*
X1513839Y52323D02*
X1513839Y52323D01*
X1513839Y59220D01*
X1514089Y60799D01*
X1514584Y62320D01*
X1515310Y63745D01*
X1516250Y65039D01*
X1517381Y66170D01*
X1518675Y67110D01*
X1520100Y67836D01*
X1521621Y68331D01*
X1522477Y68466D01*
X1522477Y52323D01*
X1513839Y52323D01*
G37*
%LPD*%
%LPC*%
G36*
X434339Y763523D02*
X434339Y763523D01*
X434339Y770420D01*
X434589Y771999D01*
X435084Y773520D01*
X435810Y774945D01*
X436750Y776239D01*
X437881Y777370D01*
X439175Y778310D01*
X440600Y779036D01*
X442121Y779531D01*
X442977Y779666D01*
X442977Y763523D01*
X434339Y763523D01*
G37*
%LPD*%
%LPC*%
G36*
X1564639Y52323D02*
X1564639Y52323D01*
X1564639Y59220D01*
X1564889Y60799D01*
X1565384Y62320D01*
X1566110Y63745D01*
X1567050Y65039D01*
X1568181Y66170D01*
X1569475Y67110D01*
X1570900Y67836D01*
X1572421Y68331D01*
X1573277Y68466D01*
X1573277Y52323D01*
X1564639Y52323D01*
G37*
%LPD*%
%LPC*%
G36*
X1488439Y52323D02*
X1488439Y52323D01*
X1488439Y59220D01*
X1488689Y60799D01*
X1489184Y62320D01*
X1489910Y63745D01*
X1490850Y65039D01*
X1491981Y66170D01*
X1493275Y67110D01*
X1494700Y67836D01*
X1496221Y68331D01*
X1497077Y68466D01*
X1497077Y52323D01*
X1488439Y52323D01*
G37*
%LPD*%
%LPC*%
G36*
X535939Y763523D02*
X535939Y763523D01*
X535939Y770420D01*
X536189Y771999D01*
X536684Y773520D01*
X537410Y774945D01*
X538350Y776239D01*
X539481Y777370D01*
X540775Y778310D01*
X542200Y779036D01*
X543721Y779531D01*
X544577Y779666D01*
X544577Y763523D01*
X535939Y763523D01*
G37*
%LPD*%
%LPC*%
G36*
X510539Y763523D02*
X510539Y763523D01*
X510539Y770420D01*
X510789Y771999D01*
X511284Y773520D01*
X512010Y774945D01*
X512950Y776239D01*
X514081Y777370D01*
X515375Y778310D01*
X516800Y779036D01*
X518321Y779531D01*
X519177Y779666D01*
X519177Y763523D01*
X510539Y763523D01*
G37*
%LPD*%
%LPC*%
G36*
X485139Y763523D02*
X485139Y763523D01*
X485139Y770420D01*
X485389Y771999D01*
X485884Y773520D01*
X486610Y774945D01*
X487550Y776239D01*
X488681Y777370D01*
X489975Y778310D01*
X491400Y779036D01*
X492921Y779531D01*
X493777Y779666D01*
X493777Y763523D01*
X485139Y763523D01*
G37*
%LPD*%
%LPC*%
G36*
X543721Y744469D02*
X543721Y744469D01*
X542200Y744964D01*
X540775Y745690D01*
X539481Y746630D01*
X538350Y747761D01*
X537410Y749055D01*
X536684Y750480D01*
X536189Y752001D01*
X535939Y753580D01*
X535939Y760477D01*
X544577Y760477D01*
X544577Y744334D01*
X543721Y744469D01*
G37*
%LPD*%
%LPC*%
G36*
X492921Y744469D02*
X492921Y744469D01*
X491400Y744964D01*
X489975Y745690D01*
X488681Y746630D01*
X487550Y747761D01*
X486610Y749055D01*
X485884Y750480D01*
X485389Y752001D01*
X485139Y753580D01*
X485139Y760477D01*
X493777Y760477D01*
X493777Y744334D01*
X492921Y744469D01*
G37*
%LPD*%
%LPC*%
G36*
X1597821Y33269D02*
X1597821Y33269D01*
X1596300Y33764D01*
X1594875Y34490D01*
X1593581Y35430D01*
X1592450Y36561D01*
X1591510Y37855D01*
X1590784Y39280D01*
X1590289Y40801D01*
X1590039Y42380D01*
X1590039Y49277D01*
X1598677Y49277D01*
X1598677Y33134D01*
X1597821Y33269D01*
G37*
%LPD*%
%LPC*%
G36*
X1572421Y33269D02*
X1572421Y33269D01*
X1570900Y33764D01*
X1569475Y34490D01*
X1568181Y35430D01*
X1567050Y36561D01*
X1566110Y37855D01*
X1565384Y39280D01*
X1564889Y40801D01*
X1564639Y42380D01*
X1564639Y49277D01*
X1573277Y49277D01*
X1573277Y33134D01*
X1572421Y33269D01*
G37*
%LPD*%
%LPC*%
G36*
X124621Y33269D02*
X124621Y33269D01*
X123100Y33764D01*
X121675Y34490D01*
X120381Y35430D01*
X119250Y36561D01*
X118310Y37855D01*
X117584Y39280D01*
X117089Y40801D01*
X116839Y42380D01*
X116839Y49277D01*
X125477Y49277D01*
X125477Y33134D01*
X124621Y33269D01*
G37*
%LPD*%
%LPC*%
G36*
X1547021Y33269D02*
X1547021Y33269D01*
X1545500Y33764D01*
X1544075Y34490D01*
X1542781Y35430D01*
X1541650Y36561D01*
X1540710Y37855D01*
X1539984Y39280D01*
X1539489Y40801D01*
X1539239Y42380D01*
X1539239Y49277D01*
X1547877Y49277D01*
X1547877Y33134D01*
X1547021Y33269D01*
G37*
%LPD*%
%LPC*%
G36*
X467521Y744469D02*
X467521Y744469D01*
X466000Y744964D01*
X464575Y745690D01*
X463281Y746630D01*
X462150Y747761D01*
X461210Y749055D01*
X460484Y750480D01*
X459989Y752001D01*
X459739Y753580D01*
X459739Y760477D01*
X468377Y760477D01*
X468377Y744334D01*
X467521Y744469D01*
G37*
%LPD*%
%LPC*%
G36*
X1521621Y33269D02*
X1521621Y33269D01*
X1520100Y33764D01*
X1518675Y34490D01*
X1517381Y35430D01*
X1516250Y36561D01*
X1515310Y37855D01*
X1514584Y39280D01*
X1514089Y40801D01*
X1513839Y42380D01*
X1513839Y49277D01*
X1522477Y49277D01*
X1522477Y33134D01*
X1521621Y33269D01*
G37*
%LPD*%
%LPC*%
G36*
X518321Y744469D02*
X518321Y744469D01*
X516800Y744964D01*
X515375Y745690D01*
X514081Y746630D01*
X512950Y747761D01*
X512010Y749055D01*
X511284Y750480D01*
X510789Y752001D01*
X510539Y753580D01*
X510539Y760477D01*
X519177Y760477D01*
X519177Y744334D01*
X518321Y744469D01*
G37*
%LPD*%
%LPC*%
G36*
X1496221Y33269D02*
X1496221Y33269D01*
X1494700Y33764D01*
X1493275Y34490D01*
X1491981Y35430D01*
X1490850Y36561D01*
X1489910Y37855D01*
X1489184Y39280D01*
X1488689Y40801D01*
X1488439Y42380D01*
X1488439Y49277D01*
X1497077Y49277D01*
X1497077Y33134D01*
X1496221Y33269D01*
G37*
%LPD*%
%LPC*%
G36*
X442121Y744469D02*
X442121Y744469D01*
X440600Y744964D01*
X439175Y745690D01*
X437881Y746630D01*
X436750Y747761D01*
X435810Y749055D01*
X435084Y750480D01*
X434589Y752001D01*
X434339Y753580D01*
X434339Y760477D01*
X442977Y760477D01*
X442977Y744334D01*
X442121Y744469D01*
G37*
%LPD*%
%LPC*%
G36*
X153923Y433323D02*
X153923Y433323D01*
X153923Y440945D01*
X156188Y440945D01*
X161545Y435588D01*
X161545Y433323D01*
X153923Y433323D01*
G37*
%LPD*%
%LPC*%
G36*
X458723Y192023D02*
X458723Y192023D01*
X458723Y199645D01*
X460988Y199645D01*
X466345Y194288D01*
X466345Y192023D01*
X458723Y192023D01*
G37*
%LPD*%
%LPC*%
G36*
X1576323Y598423D02*
X1576323Y598423D01*
X1576323Y606045D01*
X1578588Y606045D01*
X1583945Y600688D01*
X1583945Y598423D01*
X1576323Y598423D01*
G37*
%LPD*%
%LPC*%
G36*
X1576323Y179323D02*
X1576323Y179323D01*
X1576323Y186945D01*
X1578588Y186945D01*
X1583945Y181588D01*
X1583945Y179323D01*
X1576323Y179323D01*
G37*
%LPD*%
%LPC*%
G36*
X573023Y166623D02*
X573023Y166623D01*
X573023Y174245D01*
X575288Y174245D01*
X580645Y168888D01*
X580645Y166623D01*
X573023Y166623D01*
G37*
%LPD*%
%LPC*%
G36*
X1131823Y446023D02*
X1131823Y446023D01*
X1131823Y453645D01*
X1134088Y453645D01*
X1139445Y448288D01*
X1139445Y446023D01*
X1131823Y446023D01*
G37*
%LPD*%
%LPC*%
G36*
X1233423Y446023D02*
X1233423Y446023D01*
X1233423Y453645D01*
X1235688Y453645D01*
X1241045Y448288D01*
X1241045Y446023D01*
X1233423Y446023D01*
G37*
%LPD*%
%LPC*%
G36*
X1576323Y560323D02*
X1576323Y560323D01*
X1576323Y567945D01*
X1578588Y567945D01*
X1583945Y562588D01*
X1583945Y560323D01*
X1576323Y560323D01*
G37*
%LPD*%
%LPC*%
G36*
X1576323Y407923D02*
X1576323Y407923D01*
X1576323Y415545D01*
X1578588Y415545D01*
X1583945Y410188D01*
X1583945Y407923D01*
X1576323Y407923D01*
G37*
%LPD*%
%LPC*%
G36*
X128523Y649223D02*
X128523Y649223D01*
X128523Y656845D01*
X130788Y656845D01*
X136145Y651488D01*
X136145Y649223D01*
X128523Y649223D01*
G37*
%LPD*%
%LPC*%
G36*
X1576323Y636523D02*
X1576323Y636523D01*
X1576323Y644145D01*
X1578588Y644145D01*
X1583945Y638788D01*
X1583945Y636523D01*
X1576323Y636523D01*
G37*
%LPD*%
%LPC*%
G36*
X1576323Y674623D02*
X1576323Y674623D01*
X1576323Y682245D01*
X1578588Y682245D01*
X1583945Y676888D01*
X1583945Y674623D01*
X1576323Y674623D01*
G37*
%LPD*%
%LPC*%
G36*
X1576323Y369823D02*
X1576323Y369823D01*
X1576323Y377445D01*
X1578588Y377445D01*
X1583945Y372088D01*
X1583945Y369823D01*
X1576323Y369823D01*
G37*
%LPD*%
%LPC*%
G36*
X1182623Y446023D02*
X1182623Y446023D01*
X1182623Y453645D01*
X1184888Y453645D01*
X1190245Y448288D01*
X1190245Y446023D01*
X1182623Y446023D01*
G37*
%LPD*%
%LPC*%
G36*
X331723Y598423D02*
X331723Y598423D01*
X331723Y606045D01*
X333988Y606045D01*
X339345Y600688D01*
X339345Y598423D01*
X331723Y598423D01*
G37*
%LPD*%
%LPC*%
G36*
X852423Y382523D02*
X852423Y382523D01*
X852423Y390145D01*
X854688Y390145D01*
X860045Y384788D01*
X860045Y382523D01*
X852423Y382523D01*
G37*
%LPD*%
%LPC*%
G36*
X204723Y255523D02*
X204723Y255523D01*
X204723Y263145D01*
X206988Y263145D01*
X212345Y257788D01*
X212345Y255523D01*
X204723Y255523D01*
G37*
%LPD*%
%LPC*%
G36*
X1081023Y446023D02*
X1081023Y446023D01*
X1081023Y453645D01*
X1083288Y453645D01*
X1088645Y448288D01*
X1088645Y446023D01*
X1081023Y446023D01*
G37*
%LPD*%
%LPC*%
G36*
X1576323Y293623D02*
X1576323Y293623D01*
X1576323Y301245D01*
X1578588Y301245D01*
X1583945Y295888D01*
X1583945Y293623D01*
X1576323Y293623D01*
G37*
%LPD*%
%LPC*%
G36*
X1576323Y255523D02*
X1576323Y255523D01*
X1576323Y263145D01*
X1578588Y263145D01*
X1583945Y257788D01*
X1583945Y255523D01*
X1576323Y255523D01*
G37*
%LPD*%
%LPC*%
G36*
X1576323Y712723D02*
X1576323Y712723D01*
X1576323Y720345D01*
X1578588Y720345D01*
X1583945Y714988D01*
X1583945Y712723D01*
X1576323Y712723D01*
G37*
%LPD*%
%LPC*%
G36*
X395223Y255523D02*
X395223Y255523D01*
X395223Y263145D01*
X397488Y263145D01*
X402845Y257788D01*
X402845Y255523D01*
X395223Y255523D01*
G37*
%LPD*%
%LPC*%
G36*
X573023Y598423D02*
X573023Y598423D01*
X573023Y606045D01*
X575288Y606045D01*
X580645Y600688D01*
X580645Y598423D01*
X573023Y598423D01*
G37*
%LPD*%
%LPC*%
G36*
X865123Y496823D02*
X865123Y496823D01*
X865123Y504445D01*
X867388Y504445D01*
X872745Y499088D01*
X872745Y496823D01*
X865123Y496823D01*
G37*
%LPD*%
%LPC*%
G36*
X1576323Y331723D02*
X1576323Y331723D01*
X1576323Y339345D01*
X1578588Y339345D01*
X1583945Y333988D01*
X1583945Y331723D01*
X1576323Y331723D01*
G37*
%LPD*%
%LPC*%
G36*
X1576323Y522223D02*
X1576323Y522223D01*
X1576323Y529845D01*
X1578588Y529845D01*
X1583945Y524488D01*
X1583945Y522223D01*
X1576323Y522223D01*
G37*
%LPD*%
%LPC*%
G36*
X1576323Y484123D02*
X1576323Y484123D01*
X1576323Y491745D01*
X1578588Y491745D01*
X1583945Y486388D01*
X1583945Y484123D01*
X1576323Y484123D01*
G37*
%LPD*%
%LPC*%
G36*
X1208023Y750823D02*
X1208023Y750823D01*
X1208023Y758445D01*
X1210288Y758445D01*
X1215645Y753088D01*
X1215645Y750823D01*
X1208023Y750823D01*
G37*
%LPD*%
%LPC*%
G36*
X1157223Y750823D02*
X1157223Y750823D01*
X1157223Y758445D01*
X1159488Y758445D01*
X1164845Y753088D01*
X1164845Y750823D01*
X1157223Y750823D01*
G37*
%LPD*%
%LPC*%
G36*
X1055623Y750823D02*
X1055623Y750823D01*
X1055623Y758445D01*
X1057888Y758445D01*
X1063245Y753088D01*
X1063245Y750823D01*
X1055623Y750823D01*
G37*
%LPD*%
%LPC*%
G36*
X1576323Y750823D02*
X1576323Y750823D01*
X1576323Y758445D01*
X1578588Y758445D01*
X1583945Y753088D01*
X1583945Y750823D01*
X1576323Y750823D01*
G37*
%LPD*%
%LPC*%
G36*
X1576323Y217423D02*
X1576323Y217423D01*
X1576323Y225045D01*
X1578588Y225045D01*
X1583945Y219688D01*
X1583945Y217423D01*
X1576323Y217423D01*
G37*
%LPD*%
%LPC*%
G36*
X1106423Y750823D02*
X1106423Y750823D01*
X1106423Y758445D01*
X1108688Y758445D01*
X1114045Y753088D01*
X1114045Y750823D01*
X1106423Y750823D01*
G37*
%LPD*%
%LPC*%
G36*
X865123Y433323D02*
X865123Y433323D01*
X865123Y440945D01*
X867388Y440945D01*
X872745Y435588D01*
X872745Y433323D01*
X865123Y433323D01*
G37*
%LPD*%
%LPC*%
G36*
X1576323Y141223D02*
X1576323Y141223D01*
X1576323Y148845D01*
X1578588Y148845D01*
X1583945Y143488D01*
X1583945Y141223D01*
X1576323Y141223D01*
G37*
%LPD*%
%LPC*%
G36*
X384555Y255523D02*
X384555Y255523D01*
X384555Y257788D01*
X389912Y263145D01*
X392177Y263145D01*
X392177Y255523D01*
X384555Y255523D01*
G37*
%LPD*%
%LPC*%
G36*
X854455Y433323D02*
X854455Y433323D01*
X854455Y435588D01*
X859812Y440945D01*
X862077Y440945D01*
X862077Y433323D01*
X854455Y433323D01*
G37*
%LPD*%
%LPC*%
G36*
X448055Y192023D02*
X448055Y192023D01*
X448055Y194288D01*
X453412Y199645D01*
X455677Y199645D01*
X455677Y192023D01*
X448055Y192023D01*
G37*
%LPD*%
%LPC*%
G36*
X117855Y649223D02*
X117855Y649223D01*
X117855Y651488D01*
X123212Y656845D01*
X125477Y656845D01*
X125477Y649223D01*
X117855Y649223D01*
G37*
%LPD*%
%LPC*%
G36*
X562355Y598423D02*
X562355Y598423D01*
X562355Y600688D01*
X567712Y606045D01*
X569977Y606045D01*
X569977Y598423D01*
X562355Y598423D01*
G37*
%LPD*%
%LPC*%
G36*
X854455Y496823D02*
X854455Y496823D01*
X854455Y499088D01*
X859812Y504445D01*
X862077Y504445D01*
X862077Y496823D01*
X854455Y496823D01*
G37*
%LPD*%
%LPC*%
G36*
X143255Y433323D02*
X143255Y433323D01*
X143255Y435588D01*
X148612Y440945D01*
X150877Y440945D01*
X150877Y433323D01*
X143255Y433323D01*
G37*
%LPD*%
%LPC*%
G36*
X1576323Y511555D02*
X1576323Y511555D01*
X1576323Y519177D01*
X1583945Y519177D01*
X1583945Y516912D01*
X1578588Y511555D01*
X1576323Y511555D01*
G37*
%LPD*%
%LPC*%
G36*
X865123Y486155D02*
X865123Y486155D01*
X865123Y493777D01*
X872745Y493777D01*
X872745Y491512D01*
X867388Y486155D01*
X865123Y486155D01*
G37*
%LPD*%
%LPC*%
G36*
X1565655Y484123D02*
X1565655Y484123D01*
X1565655Y486388D01*
X1571012Y491745D01*
X1573277Y491745D01*
X1573277Y484123D01*
X1565655Y484123D01*
G37*
%LPD*%
%LPC*%
G36*
X1576323Y206755D02*
X1576323Y206755D01*
X1576323Y214377D01*
X1583945Y214377D01*
X1583945Y212112D01*
X1578588Y206755D01*
X1576323Y206755D01*
G37*
%LPD*%
%LPC*%
G36*
X1576323Y473455D02*
X1576323Y473455D01*
X1576323Y481077D01*
X1583945Y481077D01*
X1583945Y478812D01*
X1578588Y473455D01*
X1576323Y473455D01*
G37*
%LPD*%
%LPC*%
G36*
X1171955Y446023D02*
X1171955Y446023D01*
X1171955Y448288D01*
X1177312Y453645D01*
X1179577Y453645D01*
X1179577Y446023D01*
X1171955Y446023D01*
G37*
%LPD*%
%LPC*%
G36*
X1070355Y446023D02*
X1070355Y446023D01*
X1070355Y448288D01*
X1075712Y453645D01*
X1077977Y453645D01*
X1077977Y446023D01*
X1070355Y446023D01*
G37*
%LPD*%
%LPC*%
G36*
X458723Y181355D02*
X458723Y181355D01*
X458723Y188977D01*
X466345Y188977D01*
X466345Y186712D01*
X460988Y181355D01*
X458723Y181355D01*
G37*
%LPD*%
%LPC*%
G36*
X1565655Y179323D02*
X1565655Y179323D01*
X1565655Y181588D01*
X1571012Y186945D01*
X1573277Y186945D01*
X1573277Y179323D01*
X1565655Y179323D01*
G37*
%LPD*%
%LPC*%
G36*
X1121155Y446023D02*
X1121155Y446023D01*
X1121155Y448288D01*
X1126512Y453645D01*
X1128777Y453645D01*
X1128777Y446023D01*
X1121155Y446023D01*
G37*
%LPD*%
%LPC*%
G36*
X1095755Y750823D02*
X1095755Y750823D01*
X1095755Y753088D01*
X1101112Y758445D01*
X1103377Y758445D01*
X1103377Y750823D01*
X1095755Y750823D01*
G37*
%LPD*%
%LPC*%
G36*
X1081023Y435355D02*
X1081023Y435355D01*
X1081023Y442977D01*
X1088645Y442977D01*
X1088645Y440712D01*
X1083288Y435355D01*
X1081023Y435355D01*
G37*
%LPD*%
%LPC*%
G36*
X865123Y422655D02*
X865123Y422655D01*
X865123Y430277D01*
X872745Y430277D01*
X872745Y428012D01*
X867388Y422655D01*
X865123Y422655D01*
G37*
%LPD*%
%LPC*%
G36*
X1576323Y168655D02*
X1576323Y168655D01*
X1576323Y176277D01*
X1583945Y176277D01*
X1583945Y174012D01*
X1578588Y168655D01*
X1576323Y168655D01*
G37*
%LPD*%
%LPC*%
G36*
X562355Y166623D02*
X562355Y166623D01*
X562355Y168888D01*
X567712Y174245D01*
X569977Y174245D01*
X569977Y166623D01*
X562355Y166623D01*
G37*
%LPD*%
%LPC*%
G36*
X153923Y422655D02*
X153923Y422655D01*
X153923Y430277D01*
X161545Y430277D01*
X161545Y428012D01*
X156188Y422655D01*
X153923Y422655D01*
G37*
%LPD*%
%LPC*%
G36*
X1565655Y407923D02*
X1565655Y407923D01*
X1565655Y410188D01*
X1571012Y415545D01*
X1573277Y415545D01*
X1573277Y407923D01*
X1565655Y407923D01*
G37*
%LPD*%
%LPC*%
G36*
X573023Y155955D02*
X573023Y155955D01*
X573023Y163577D01*
X580645Y163577D01*
X580645Y161312D01*
X575288Y155955D01*
X573023Y155955D01*
G37*
%LPD*%
%LPC*%
G36*
X1222755Y446023D02*
X1222755Y446023D01*
X1222755Y448288D01*
X1228112Y453645D01*
X1230377Y453645D01*
X1230377Y446023D01*
X1222755Y446023D01*
G37*
%LPD*%
%LPC*%
G36*
X1565655Y141223D02*
X1565655Y141223D01*
X1565655Y143488D01*
X1571012Y148845D01*
X1573277Y148845D01*
X1573277Y141223D01*
X1565655Y141223D01*
G37*
%LPD*%
%LPC*%
G36*
X1576323Y397255D02*
X1576323Y397255D01*
X1576323Y404877D01*
X1583945Y404877D01*
X1583945Y402612D01*
X1578588Y397255D01*
X1576323Y397255D01*
G37*
%LPD*%
%LPC*%
G36*
X841755Y382523D02*
X841755Y382523D01*
X841755Y384788D01*
X847112Y390145D01*
X849377Y390145D01*
X849377Y382523D01*
X841755Y382523D01*
G37*
%LPD*%
%LPC*%
G36*
X852423Y371855D02*
X852423Y371855D01*
X852423Y379477D01*
X860045Y379477D01*
X860045Y377212D01*
X854688Y371855D01*
X852423Y371855D01*
G37*
%LPD*%
%LPC*%
G36*
X1565655Y369823D02*
X1565655Y369823D01*
X1565655Y372088D01*
X1571012Y377445D01*
X1573277Y377445D01*
X1573277Y369823D01*
X1565655Y369823D01*
G37*
%LPD*%
%LPC*%
G36*
X1576323Y359155D02*
X1576323Y359155D01*
X1576323Y366777D01*
X1583945Y366777D01*
X1583945Y364512D01*
X1578588Y359155D01*
X1576323Y359155D01*
G37*
%LPD*%
%LPC*%
G36*
X1576323Y130555D02*
X1576323Y130555D01*
X1576323Y138177D01*
X1583945Y138177D01*
X1583945Y135912D01*
X1578588Y130555D01*
X1576323Y130555D01*
G37*
%LPD*%
%LPC*%
G36*
X1565655Y331723D02*
X1565655Y331723D01*
X1565655Y333988D01*
X1571012Y339345D01*
X1573277Y339345D01*
X1573277Y331723D01*
X1565655Y331723D01*
G37*
%LPD*%
%LPC*%
G36*
X1576323Y321055D02*
X1576323Y321055D01*
X1576323Y328677D01*
X1583945Y328677D01*
X1583945Y326412D01*
X1578588Y321055D01*
X1576323Y321055D01*
G37*
%LPD*%
%LPC*%
G36*
X1565655Y293623D02*
X1565655Y293623D01*
X1565655Y295888D01*
X1571012Y301245D01*
X1573277Y301245D01*
X1573277Y293623D01*
X1565655Y293623D01*
G37*
%LPD*%
%LPC*%
G36*
X1044955Y750823D02*
X1044955Y750823D01*
X1044955Y753088D01*
X1050312Y758445D01*
X1052577Y758445D01*
X1052577Y750823D01*
X1044955Y750823D01*
G37*
%LPD*%
%LPC*%
G36*
X1197355Y750823D02*
X1197355Y750823D01*
X1197355Y753088D01*
X1202712Y758445D01*
X1204977Y758445D01*
X1204977Y750823D01*
X1197355Y750823D01*
G37*
%LPD*%
%LPC*%
G36*
X1576323Y282955D02*
X1576323Y282955D01*
X1576323Y290577D01*
X1583945Y290577D01*
X1583945Y288312D01*
X1578588Y282955D01*
X1576323Y282955D01*
G37*
%LPD*%
%LPC*%
G36*
X1146555Y750823D02*
X1146555Y750823D01*
X1146555Y753088D01*
X1151912Y758445D01*
X1154177Y758445D01*
X1154177Y750823D01*
X1146555Y750823D01*
G37*
%LPD*%
%LPC*%
G36*
X1565655Y750823D02*
X1565655Y750823D01*
X1565655Y753088D01*
X1571012Y758445D01*
X1573277Y758445D01*
X1573277Y750823D01*
X1565655Y750823D01*
G37*
%LPD*%
%LPC*%
G36*
X1576323Y740155D02*
X1576323Y740155D01*
X1576323Y747777D01*
X1583945Y747777D01*
X1583945Y745512D01*
X1578588Y740155D01*
X1576323Y740155D01*
G37*
%LPD*%
%LPC*%
G36*
X1055623Y740155D02*
X1055623Y740155D01*
X1055623Y747777D01*
X1063245Y747777D01*
X1063245Y745512D01*
X1057888Y740155D01*
X1055623Y740155D01*
G37*
%LPD*%
%LPC*%
G36*
X194055Y255523D02*
X194055Y255523D01*
X194055Y257788D01*
X199412Y263145D01*
X201677Y263145D01*
X201677Y255523D01*
X194055Y255523D01*
G37*
%LPD*%
%LPC*%
G36*
X1565655Y712723D02*
X1565655Y712723D01*
X1565655Y714988D01*
X1571012Y720345D01*
X1573277Y720345D01*
X1573277Y712723D01*
X1565655Y712723D01*
G37*
%LPD*%
%LPC*%
G36*
X1576323Y702055D02*
X1576323Y702055D01*
X1576323Y709677D01*
X1583945Y709677D01*
X1583945Y707412D01*
X1578588Y702055D01*
X1576323Y702055D01*
G37*
%LPD*%
%LPC*%
G36*
X1565655Y255523D02*
X1565655Y255523D01*
X1565655Y257788D01*
X1571012Y263145D01*
X1573277Y263145D01*
X1573277Y255523D01*
X1565655Y255523D01*
G37*
%LPD*%
%LPC*%
G36*
X1565655Y674623D02*
X1565655Y674623D01*
X1565655Y676888D01*
X1571012Y682245D01*
X1573277Y682245D01*
X1573277Y674623D01*
X1565655Y674623D01*
G37*
%LPD*%
%LPC*%
G36*
X1576323Y663955D02*
X1576323Y663955D01*
X1576323Y671577D01*
X1583945Y671577D01*
X1583945Y669312D01*
X1578588Y663955D01*
X1576323Y663955D01*
G37*
%LPD*%
%LPC*%
G36*
X128523Y638555D02*
X128523Y638555D01*
X128523Y646177D01*
X136145Y646177D01*
X136145Y643912D01*
X130788Y638555D01*
X128523Y638555D01*
G37*
%LPD*%
%LPC*%
G36*
X1565655Y636523D02*
X1565655Y636523D01*
X1565655Y638788D01*
X1571012Y644145D01*
X1573277Y644145D01*
X1573277Y636523D01*
X1565655Y636523D01*
G37*
%LPD*%
%LPC*%
G36*
X1576323Y625855D02*
X1576323Y625855D01*
X1576323Y633477D01*
X1583945Y633477D01*
X1583945Y631212D01*
X1578588Y625855D01*
X1576323Y625855D01*
G37*
%LPD*%
%LPC*%
G36*
X1565655Y598423D02*
X1565655Y598423D01*
X1565655Y600688D01*
X1571012Y606045D01*
X1573277Y606045D01*
X1573277Y598423D01*
X1565655Y598423D01*
G37*
%LPD*%
%LPC*%
G36*
X321055Y598423D02*
X321055Y598423D01*
X321055Y600688D01*
X326412Y606045D01*
X328677Y606045D01*
X328677Y598423D01*
X321055Y598423D01*
G37*
%LPD*%
%LPC*%
G36*
X1576323Y587755D02*
X1576323Y587755D01*
X1576323Y595377D01*
X1583945Y595377D01*
X1583945Y593112D01*
X1578588Y587755D01*
X1576323Y587755D01*
G37*
%LPD*%
%LPC*%
G36*
X331723Y587755D02*
X331723Y587755D01*
X331723Y595377D01*
X339345Y595377D01*
X339345Y593112D01*
X333988Y587755D01*
X331723Y587755D01*
G37*
%LPD*%
%LPC*%
G36*
X1576323Y244855D02*
X1576323Y244855D01*
X1576323Y252477D01*
X1583945Y252477D01*
X1583945Y250212D01*
X1578588Y244855D01*
X1576323Y244855D01*
G37*
%LPD*%
%LPC*%
G36*
X395223Y244855D02*
X395223Y244855D01*
X395223Y252477D01*
X402845Y252477D01*
X402845Y250212D01*
X397488Y244855D01*
X395223Y244855D01*
G37*
%LPD*%
%LPC*%
G36*
X204723Y244855D02*
X204723Y244855D01*
X204723Y252477D01*
X212345Y252477D01*
X212345Y250212D01*
X206988Y244855D01*
X204723Y244855D01*
G37*
%LPD*%
%LPC*%
G36*
X573023Y587755D02*
X573023Y587755D01*
X573023Y595377D01*
X580645Y595377D01*
X580645Y593112D01*
X575288Y587755D01*
X573023Y587755D01*
G37*
%LPD*%
%LPC*%
G36*
X1565655Y560323D02*
X1565655Y560323D01*
X1565655Y562588D01*
X1571012Y567945D01*
X1573277Y567945D01*
X1573277Y560323D01*
X1565655Y560323D01*
G37*
%LPD*%
%LPC*%
G36*
X1576323Y549655D02*
X1576323Y549655D01*
X1576323Y557277D01*
X1583945Y557277D01*
X1583945Y555012D01*
X1578588Y549655D01*
X1576323Y549655D01*
G37*
%LPD*%
%LPC*%
G36*
X1565655Y217423D02*
X1565655Y217423D01*
X1565655Y219688D01*
X1571012Y225045D01*
X1573277Y225045D01*
X1573277Y217423D01*
X1565655Y217423D01*
G37*
%LPD*%
%LPC*%
G36*
X1565655Y522223D02*
X1565655Y522223D01*
X1565655Y524488D01*
X1571012Y529845D01*
X1573277Y529845D01*
X1573277Y522223D01*
X1565655Y522223D01*
G37*
%LPD*%
%LPC*%
G36*
X1208023Y740155D02*
X1208023Y740155D01*
X1208023Y747777D01*
X1215645Y747777D01*
X1215645Y745512D01*
X1210288Y740155D01*
X1208023Y740155D01*
G37*
%LPD*%
%LPC*%
G36*
X1157223Y740155D02*
X1157223Y740155D01*
X1157223Y747777D01*
X1164845Y747777D01*
X1164845Y745512D01*
X1159488Y740155D01*
X1157223Y740155D01*
G37*
%LPD*%
%LPC*%
G36*
X1182623Y435355D02*
X1182623Y435355D01*
X1182623Y442977D01*
X1190245Y442977D01*
X1190245Y440712D01*
X1184888Y435355D01*
X1182623Y435355D01*
G37*
%LPD*%
%LPC*%
G36*
X1106423Y740155D02*
X1106423Y740155D01*
X1106423Y747777D01*
X1114045Y747777D01*
X1114045Y745512D01*
X1108688Y740155D01*
X1106423Y740155D01*
G37*
%LPD*%
%LPC*%
G36*
X1233423Y435355D02*
X1233423Y435355D01*
X1233423Y442977D01*
X1241045Y442977D01*
X1241045Y440712D01*
X1235688Y435355D01*
X1233423Y435355D01*
G37*
%LPD*%
%LPC*%
G36*
X1131823Y435355D02*
X1131823Y435355D01*
X1131823Y442977D01*
X1139445Y442977D01*
X1139445Y440712D01*
X1134088Y435355D01*
X1131823Y435355D01*
G37*
%LPD*%
%LPC*%
G36*
X326412Y587755D02*
X326412Y587755D01*
X321055Y593112D01*
X321055Y595377D01*
X328677Y595377D01*
X328677Y587755D01*
X326412Y587755D01*
G37*
%LPD*%
%LPC*%
G36*
X199412Y244855D02*
X199412Y244855D01*
X194055Y250212D01*
X194055Y252477D01*
X201677Y252477D01*
X201677Y244855D01*
X199412Y244855D01*
G37*
%LPD*%
%LPC*%
G36*
X1228112Y435355D02*
X1228112Y435355D01*
X1222755Y440712D01*
X1222755Y442977D01*
X1230377Y442977D01*
X1230377Y435355D01*
X1228112Y435355D01*
G37*
%LPD*%
%LPC*%
G36*
X1075712Y435355D02*
X1075712Y435355D01*
X1070355Y440712D01*
X1070355Y442977D01*
X1077977Y442977D01*
X1077977Y435355D01*
X1075712Y435355D01*
G37*
%LPD*%
%LPC*%
G36*
X567712Y155955D02*
X567712Y155955D01*
X562355Y161312D01*
X562355Y163577D01*
X569977Y163577D01*
X569977Y155955D01*
X567712Y155955D01*
G37*
%LPD*%
%LPC*%
G36*
X1101112Y740155D02*
X1101112Y740155D01*
X1095755Y745512D01*
X1095755Y747777D01*
X1103377Y747777D01*
X1103377Y740155D01*
X1101112Y740155D01*
G37*
%LPD*%
%LPC*%
G36*
X1050312Y740155D02*
X1050312Y740155D01*
X1044955Y745512D01*
X1044955Y747777D01*
X1052577Y747777D01*
X1052577Y740155D01*
X1050312Y740155D01*
G37*
%LPD*%
%LPC*%
G36*
X1202712Y740155D02*
X1202712Y740155D01*
X1197355Y745512D01*
X1197355Y747777D01*
X1204977Y747777D01*
X1204977Y740155D01*
X1202712Y740155D01*
G37*
%LPD*%
%LPC*%
G36*
X847112Y371855D02*
X847112Y371855D01*
X841755Y377212D01*
X841755Y379477D01*
X849377Y379477D01*
X849377Y371855D01*
X847112Y371855D01*
G37*
%LPD*%
%LPC*%
G36*
X1151912Y740155D02*
X1151912Y740155D01*
X1146555Y745512D01*
X1146555Y747777D01*
X1154177Y747777D01*
X1154177Y740155D01*
X1151912Y740155D01*
G37*
%LPD*%
%LPC*%
G36*
X1177312Y435355D02*
X1177312Y435355D01*
X1171955Y440712D01*
X1171955Y442977D01*
X1179577Y442977D01*
X1179577Y435355D01*
X1177312Y435355D01*
G37*
%LPD*%
%LPC*%
G36*
X1126512Y435355D02*
X1126512Y435355D01*
X1121155Y440712D01*
X1121155Y442977D01*
X1128777Y442977D01*
X1128777Y435355D01*
X1126512Y435355D01*
G37*
%LPD*%
%LPC*%
G36*
X1571012Y168655D02*
X1571012Y168655D01*
X1565655Y174012D01*
X1565655Y176277D01*
X1573277Y176277D01*
X1573277Y168655D01*
X1571012Y168655D01*
G37*
%LPD*%
%LPC*%
G36*
X1571012Y740155D02*
X1571012Y740155D01*
X1565655Y745512D01*
X1565655Y747777D01*
X1573277Y747777D01*
X1573277Y740155D01*
X1571012Y740155D01*
G37*
%LPD*%
%LPC*%
G36*
X123212Y638555D02*
X123212Y638555D01*
X117855Y643912D01*
X117855Y646177D01*
X125477Y646177D01*
X125477Y638555D01*
X123212Y638555D01*
G37*
%LPD*%
%LPC*%
G36*
X1571012Y206755D02*
X1571012Y206755D01*
X1565655Y212112D01*
X1565655Y214377D01*
X1573277Y214377D01*
X1573277Y206755D01*
X1571012Y206755D01*
G37*
%LPD*%
%LPC*%
G36*
X1571012Y702055D02*
X1571012Y702055D01*
X1565655Y707412D01*
X1565655Y709677D01*
X1573277Y709677D01*
X1573277Y702055D01*
X1571012Y702055D01*
G37*
%LPD*%
%LPC*%
G36*
X453412Y181355D02*
X453412Y181355D01*
X448055Y186712D01*
X448055Y188977D01*
X455677Y188977D01*
X455677Y181355D01*
X453412Y181355D01*
G37*
%LPD*%
%LPC*%
G36*
X1571012Y244855D02*
X1571012Y244855D01*
X1565655Y250212D01*
X1565655Y252477D01*
X1573277Y252477D01*
X1573277Y244855D01*
X1571012Y244855D01*
G37*
%LPD*%
%LPC*%
G36*
X1571012Y625855D02*
X1571012Y625855D01*
X1565655Y631212D01*
X1565655Y633477D01*
X1573277Y633477D01*
X1573277Y625855D01*
X1571012Y625855D01*
G37*
%LPD*%
%LPC*%
G36*
X1571012Y130555D02*
X1571012Y130555D01*
X1565655Y135912D01*
X1565655Y138177D01*
X1573277Y138177D01*
X1573277Y130555D01*
X1571012Y130555D01*
G37*
%LPD*%
%LPC*%
G36*
X389912Y244855D02*
X389912Y244855D01*
X384555Y250212D01*
X384555Y252477D01*
X392177Y252477D01*
X392177Y244855D01*
X389912Y244855D01*
G37*
%LPD*%
%LPC*%
G36*
X1571012Y321055D02*
X1571012Y321055D01*
X1565655Y326412D01*
X1565655Y328677D01*
X1573277Y328677D01*
X1573277Y321055D01*
X1571012Y321055D01*
G37*
%LPD*%
%LPC*%
G36*
X1571012Y549655D02*
X1571012Y549655D01*
X1565655Y555012D01*
X1565655Y557277D01*
X1573277Y557277D01*
X1573277Y549655D01*
X1571012Y549655D01*
G37*
%LPD*%
%LPC*%
G36*
X1571012Y397255D02*
X1571012Y397255D01*
X1565655Y402612D01*
X1565655Y404877D01*
X1573277Y404877D01*
X1573277Y397255D01*
X1571012Y397255D01*
G37*
%LPD*%
%LPC*%
G36*
X1571012Y663955D02*
X1571012Y663955D01*
X1565655Y669312D01*
X1565655Y671577D01*
X1573277Y671577D01*
X1573277Y663955D01*
X1571012Y663955D01*
G37*
%LPD*%
%LPC*%
G36*
X1571012Y473455D02*
X1571012Y473455D01*
X1565655Y478812D01*
X1565655Y481077D01*
X1573277Y481077D01*
X1573277Y473455D01*
X1571012Y473455D01*
G37*
%LPD*%
%LPC*%
G36*
X1571012Y282955D02*
X1571012Y282955D01*
X1565655Y288312D01*
X1565655Y290577D01*
X1573277Y290577D01*
X1573277Y282955D01*
X1571012Y282955D01*
G37*
%LPD*%
%LPC*%
G36*
X1571012Y511555D02*
X1571012Y511555D01*
X1565655Y516912D01*
X1565655Y519177D01*
X1573277Y519177D01*
X1573277Y511555D01*
X1571012Y511555D01*
G37*
%LPD*%
%LPC*%
G36*
X567712Y587755D02*
X567712Y587755D01*
X562355Y593112D01*
X562355Y595377D01*
X569977Y595377D01*
X569977Y587755D01*
X567712Y587755D01*
G37*
%LPD*%
%LPC*%
G36*
X1571012Y587755D02*
X1571012Y587755D01*
X1565655Y593112D01*
X1565655Y595377D01*
X1573277Y595377D01*
X1573277Y587755D01*
X1571012Y587755D01*
G37*
%LPD*%
%LPC*%
G36*
X859812Y486155D02*
X859812Y486155D01*
X854455Y491512D01*
X854455Y493777D01*
X862077Y493777D01*
X862077Y486155D01*
X859812Y486155D01*
G37*
%LPD*%
%LPC*%
G36*
X148612Y422655D02*
X148612Y422655D01*
X143255Y428012D01*
X143255Y430277D01*
X150877Y430277D01*
X150877Y422655D01*
X148612Y422655D01*
G37*
%LPD*%
%LPC*%
G36*
X859812Y422655D02*
X859812Y422655D01*
X854455Y428012D01*
X854455Y430277D01*
X862077Y430277D01*
X862077Y422655D01*
X859812Y422655D01*
G37*
%LPD*%
%LPC*%
G36*
X1571012Y359155D02*
X1571012Y359155D01*
X1565655Y364512D01*
X1565655Y366777D01*
X1573277Y366777D01*
X1573277Y359155D01*
X1571012Y359155D01*
G37*
%LPD*%
%LPC*%
G36*
X1574799Y711199D02*
X1574799Y711199D01*
X1574799Y711201D01*
X1574801Y711201D01*
X1574801Y711199D01*
X1574799Y711199D01*
G37*
%LPD*%
%LPC*%
G36*
X1574799Y368299D02*
X1574799Y368299D01*
X1574799Y368301D01*
X1574801Y368301D01*
X1574801Y368299D01*
X1574799Y368299D01*
G37*
%LPD*%
%LPC*%
G36*
X571499Y165099D02*
X571499Y165099D01*
X571499Y165101D01*
X571501Y165101D01*
X571501Y165099D01*
X571499Y165099D01*
G37*
%LPD*%
%LPC*%
G36*
X571499Y596899D02*
X571499Y596899D01*
X571499Y596901D01*
X571501Y596901D01*
X571501Y596899D01*
X571499Y596899D01*
G37*
%LPD*%
%LPC*%
G36*
X1574799Y596899D02*
X1574799Y596899D01*
X1574799Y596901D01*
X1574801Y596901D01*
X1574801Y596899D01*
X1574799Y596899D01*
G37*
%LPD*%
%LPC*%
G36*
X46199Y749299D02*
X46199Y749299D01*
X46199Y749301D01*
X46201Y749301D01*
X46201Y749299D01*
X46199Y749299D01*
G37*
%LPD*%
%LPC*%
G36*
X1054099Y749299D02*
X1054099Y749299D01*
X1054099Y749301D01*
X1054101Y749301D01*
X1054101Y749299D01*
X1054099Y749299D01*
G37*
%LPD*%
%LPC*%
G36*
X1104899Y749299D02*
X1104899Y749299D01*
X1104899Y749301D01*
X1104901Y749301D01*
X1104901Y749299D01*
X1104899Y749299D01*
G37*
%LPD*%
%LPC*%
G36*
X1574799Y139699D02*
X1574799Y139699D01*
X1574799Y139701D01*
X1574801Y139701D01*
X1574801Y139699D01*
X1574799Y139699D01*
G37*
%LPD*%
%LPC*%
G36*
X203199Y253999D02*
X203199Y253999D01*
X203199Y254001D01*
X203201Y254001D01*
X203201Y253999D01*
X203199Y253999D01*
G37*
%LPD*%
%LPC*%
G36*
X1574799Y330199D02*
X1574799Y330199D01*
X1574799Y330201D01*
X1574801Y330201D01*
X1574801Y330199D01*
X1574799Y330199D01*
G37*
%LPD*%
%LPC*%
G36*
X1574799Y253999D02*
X1574799Y253999D01*
X1574799Y254001D01*
X1574801Y254001D01*
X1574801Y253999D01*
X1574799Y253999D01*
G37*
%LPD*%
%LPC*%
G36*
X393699Y253999D02*
X393699Y253999D01*
X393699Y254001D01*
X393701Y254001D01*
X393701Y253999D01*
X393699Y253999D01*
G37*
%LPD*%
%LPC*%
G36*
X1155699Y749299D02*
X1155699Y749299D01*
X1155699Y749301D01*
X1155701Y749301D01*
X1155701Y749299D01*
X1155699Y749299D01*
G37*
%LPD*%
%LPC*%
G36*
X1206499Y749299D02*
X1206499Y749299D01*
X1206499Y749301D01*
X1206501Y749301D01*
X1206501Y749299D01*
X1206499Y749299D01*
G37*
%LPD*%
%LPC*%
G36*
X1574799Y749299D02*
X1574799Y749299D01*
X1574799Y749301D01*
X1574801Y749301D01*
X1574801Y749299D01*
X1574799Y749299D01*
G37*
%LPD*%
%LPC*%
G36*
X495299Y761999D02*
X495299Y761999D01*
X495299Y762001D01*
X495301Y762001D01*
X495301Y761999D01*
X495299Y761999D01*
G37*
%LPD*%
%LPC*%
G36*
X469899Y761999D02*
X469899Y761999D01*
X469899Y762001D01*
X469901Y762001D01*
X469901Y761999D01*
X469899Y761999D01*
G37*
%LPD*%
%LPC*%
G36*
X444499Y761999D02*
X444499Y761999D01*
X444499Y762001D01*
X444501Y762001D01*
X444501Y761999D01*
X444499Y761999D01*
G37*
%LPD*%
%LPC*%
G36*
X1130299Y444499D02*
X1130299Y444499D01*
X1130299Y444501D01*
X1130301Y444501D01*
X1130301Y444499D01*
X1130299Y444499D01*
G37*
%LPD*%
%LPC*%
G36*
X520699Y761999D02*
X520699Y761999D01*
X520699Y762001D01*
X520701Y762001D01*
X520701Y761999D01*
X520699Y761999D01*
G37*
%LPD*%
%LPC*%
G36*
X546099Y761999D02*
X546099Y761999D01*
X546099Y762001D01*
X546101Y762001D01*
X546101Y761999D01*
X546099Y761999D01*
G37*
%LPD*%
%LPC*%
G36*
X1574799Y634999D02*
X1574799Y634999D01*
X1574799Y635001D01*
X1574801Y635001D01*
X1574801Y634999D01*
X1574799Y634999D01*
G37*
%LPD*%
%LPC*%
G36*
X126999Y647699D02*
X126999Y647699D01*
X126999Y647701D01*
X127001Y647701D01*
X127001Y647699D01*
X126999Y647699D01*
G37*
%LPD*%
%LPC*%
G36*
X1574799Y292099D02*
X1574799Y292099D01*
X1574799Y292101D01*
X1574801Y292101D01*
X1574801Y292099D01*
X1574799Y292099D01*
G37*
%LPD*%
%LPC*%
G36*
X1574799Y406399D02*
X1574799Y406399D01*
X1574799Y406401D01*
X1574801Y406401D01*
X1574801Y406399D01*
X1574799Y406399D01*
G37*
%LPD*%
%LPC*%
G36*
X1181099Y444499D02*
X1181099Y444499D01*
X1181099Y444501D01*
X1181101Y444501D01*
X1181101Y444499D01*
X1181099Y444499D01*
G37*
%LPD*%
%LPC*%
G36*
X863599Y495299D02*
X863599Y495299D01*
X863599Y495301D01*
X863601Y495301D01*
X863601Y495299D01*
X863599Y495299D01*
G37*
%LPD*%
%LPC*%
G36*
X1574799Y673099D02*
X1574799Y673099D01*
X1574799Y673101D01*
X1574801Y673101D01*
X1574801Y673099D01*
X1574799Y673099D01*
G37*
%LPD*%
%LPC*%
G36*
X1574799Y520699D02*
X1574799Y520699D01*
X1574799Y520701D01*
X1574801Y520701D01*
X1574801Y520699D01*
X1574799Y520699D01*
G37*
%LPD*%
%LPC*%
G36*
X1600199Y50799D02*
X1600199Y50799D01*
X1600199Y50801D01*
X1600201Y50801D01*
X1600201Y50799D01*
X1600199Y50799D01*
G37*
%LPD*%
%LPC*%
G36*
X1574799Y50799D02*
X1574799Y50799D01*
X1574799Y50801D01*
X1574801Y50801D01*
X1574801Y50799D01*
X1574799Y50799D01*
G37*
%LPD*%
%LPC*%
G36*
X1549399Y50799D02*
X1549399Y50799D01*
X1549399Y50801D01*
X1549401Y50801D01*
X1549401Y50799D01*
X1549399Y50799D01*
G37*
%LPD*%
%LPC*%
G36*
X1523999Y50799D02*
X1523999Y50799D01*
X1523999Y50801D01*
X1524001Y50801D01*
X1524001Y50799D01*
X1523999Y50799D01*
G37*
%LPD*%
%LPC*%
G36*
X1498599Y50799D02*
X1498599Y50799D01*
X1498599Y50801D01*
X1498601Y50801D01*
X1498601Y50799D01*
X1498599Y50799D01*
G37*
%LPD*%
%LPC*%
G36*
X126999Y50799D02*
X126999Y50799D01*
X126999Y50801D01*
X127001Y50801D01*
X127001Y50799D01*
X126999Y50799D01*
G37*
%LPD*%
%LPC*%
G36*
X1574799Y177799D02*
X1574799Y177799D01*
X1574799Y177801D01*
X1574801Y177801D01*
X1574801Y177799D01*
X1574799Y177799D01*
G37*
%LPD*%
%LPC*%
G36*
X1574799Y558799D02*
X1574799Y558799D01*
X1574799Y558801D01*
X1574801Y558801D01*
X1574801Y558799D01*
X1574799Y558799D01*
G37*
%LPD*%
%LPC*%
G36*
X76199Y701299D02*
X76199Y701299D01*
X76199Y701301D01*
X76201Y701301D01*
X76201Y701299D01*
X76199Y701299D01*
G37*
%LPD*%
%LPC*%
G36*
X1574799Y215899D02*
X1574799Y215899D01*
X1574799Y215901D01*
X1574801Y215901D01*
X1574801Y215899D01*
X1574799Y215899D01*
G37*
%LPD*%
%LPC*%
G36*
X863599Y431799D02*
X863599Y431799D01*
X863599Y431801D01*
X863601Y431801D01*
X863601Y431799D01*
X863599Y431799D01*
G37*
%LPD*%
%LPC*%
G36*
X152399Y431799D02*
X152399Y431799D01*
X152399Y431801D01*
X152401Y431801D01*
X152401Y431799D01*
X152399Y431799D01*
G37*
%LPD*%
%LPC*%
G36*
X1574799Y482599D02*
X1574799Y482599D01*
X1574799Y482601D01*
X1574801Y482601D01*
X1574801Y482599D01*
X1574799Y482599D01*
G37*
%LPD*%
%LPC*%
G36*
X1231899Y444499D02*
X1231899Y444499D01*
X1231899Y444501D01*
X1231901Y444501D01*
X1231901Y444499D01*
X1231899Y444499D01*
G37*
%LPD*%
%LPC*%
G36*
X850899Y380999D02*
X850899Y380999D01*
X850899Y381001D01*
X850901Y381001D01*
X850901Y380999D01*
X850899Y380999D01*
G37*
%LPD*%
%LPC*%
G36*
X1079499Y444499D02*
X1079499Y444499D01*
X1079499Y444501D01*
X1079501Y444501D01*
X1079501Y444499D01*
X1079499Y444499D01*
G37*
%LPD*%
%LPC*%
G36*
X457199Y190499D02*
X457199Y190499D01*
X457199Y190501D01*
X457201Y190501D01*
X457201Y190499D01*
X457199Y190499D01*
G37*
%LPD*%
%LPC*%
G36*
X330199Y596899D02*
X330199Y596899D01*
X330199Y596901D01*
X330201Y596901D01*
X330201Y596899D01*
X330199Y596899D01*
G37*
%LPD*%
D10*
X127000Y431800D03*
X152400Y431800D03*
D11*
X863600Y495300D03*
X838200Y495300D03*
X863600Y431800D03*
X838200Y431800D03*
D12*
X203200Y254000D03*
X203200Y279400D03*
D10*
X546100Y596900D03*
X571500Y596900D03*
X393700Y254000D03*
X419100Y254000D03*
D12*
X850900Y355600D03*
X850900Y381000D03*
X330200Y571500D03*
X330200Y596900D03*
X571500Y165100D03*
X571500Y190500D03*
D10*
X457200Y190500D03*
X482600Y190500D03*
X127000Y647700D03*
X152400Y647700D03*
D13*
X76200Y58420D02*
X76200Y43180D01*
X101600Y43180D02*
X101600Y58420D01*
X127000Y58420D02*
X127000Y43180D01*
X152400Y43180D02*
X152400Y58420D01*
X177800Y58420D02*
X177800Y43180D01*
D14*
X743712Y393700D02*
X754888Y393700D01*
X754888Y444500D02*
X743712Y444500D01*
D10*
X101600Y469900D03*
X177800Y469900D03*
X800100Y88900D03*
X876300Y88900D03*
X101600Y508000D03*
X177800Y508000D03*
X101600Y558800D03*
X177800Y558800D03*
X101600Y596900D03*
X177800Y596900D03*
X431800Y139700D03*
X508000Y139700D03*
X431800Y101600D03*
X508000Y101600D03*
X800100Y139700D03*
X876300Y139700D03*
D13*
X342900Y58420D02*
X342900Y43180D01*
X317500Y43180D02*
X317500Y58420D01*
X292100Y58420D02*
X292100Y43180D01*
X266700Y43180D02*
X266700Y58420D01*
X58420Y558800D02*
X43180Y558800D01*
X43180Y584200D02*
X58420Y584200D01*
X58420Y609600D02*
X43180Y609600D01*
X571500Y58420D02*
X571500Y43180D01*
X546100Y43180D02*
X546100Y58420D01*
X520700Y58420D02*
X520700Y43180D01*
X932180Y558800D02*
X947420Y558800D01*
X947420Y584200D02*
X932180Y584200D01*
X932180Y609600D02*
X947420Y609600D01*
X947420Y635000D02*
X932180Y635000D01*
X932180Y228600D02*
X947420Y228600D01*
X947420Y254000D02*
X932180Y254000D01*
X932180Y279400D02*
X947420Y279400D01*
X947420Y304800D02*
X932180Y304800D01*
X850900Y754380D02*
X850900Y769620D01*
X876300Y769620D02*
X876300Y754380D01*
X901700Y754380D02*
X901700Y769620D01*
X927100Y769620D02*
X927100Y754380D01*
X609600Y754380D02*
X609600Y769620D01*
X635000Y769620D02*
X635000Y754380D01*
X660400Y754380D02*
X660400Y769620D01*
X685800Y769620D02*
X685800Y754380D01*
X317500Y754380D02*
X317500Y769620D01*
X342900Y769620D02*
X342900Y754380D01*
X368300Y754380D02*
X368300Y769620D01*
X393700Y769620D02*
X393700Y754380D01*
X58420Y266700D02*
X43180Y266700D01*
X43180Y292100D02*
X58420Y292100D01*
X58420Y317500D02*
X43180Y317500D01*
X43180Y342900D02*
X58420Y342900D01*
X609600Y248920D02*
X609600Y233680D01*
X584200Y233680D02*
X584200Y248920D01*
X558800Y248920D02*
X558800Y233680D01*
X58420Y393700D02*
X43180Y393700D01*
X43180Y419100D02*
X58420Y419100D01*
X58420Y444500D02*
X43180Y444500D01*
X444500Y754380D02*
X444500Y769620D01*
X469900Y769620D02*
X469900Y754380D01*
X495300Y754380D02*
X495300Y769620D01*
X520700Y769620D02*
X520700Y754380D01*
X546100Y754380D02*
X546100Y769620D01*
X203200Y769620D02*
X203200Y754380D01*
X228600Y754380D02*
X228600Y769620D01*
X254000Y769620D02*
X254000Y754380D01*
X1643380Y368300D02*
X1658620Y368300D01*
X1658620Y342900D02*
X1643380Y342900D01*
X1643380Y317500D02*
X1658620Y317500D01*
X1658620Y292100D02*
X1643380Y292100D01*
X1643380Y266700D02*
X1658620Y266700D01*
X1658620Y241300D02*
X1643380Y241300D01*
X1643380Y215900D02*
X1658620Y215900D01*
X1658620Y190500D02*
X1643380Y190500D01*
X1643380Y698500D02*
X1658620Y698500D01*
X1658620Y673100D02*
X1643380Y673100D01*
X1643380Y647700D02*
X1658620Y647700D01*
X1658620Y622300D02*
X1643380Y622300D01*
X1643380Y596900D02*
X1658620Y596900D01*
X1658620Y571500D02*
X1643380Y571500D01*
X1643380Y546100D02*
X1658620Y546100D01*
X1658620Y520700D02*
X1643380Y520700D01*
D12*
X1054100Y723900D03*
X1054100Y749300D03*
X1104900Y723900D03*
X1104900Y749300D03*
X1181100Y419100D03*
X1181100Y444500D03*
X1231900Y419100D03*
X1231900Y444500D03*
X1079500Y419100D03*
X1079500Y444500D03*
X1130300Y419100D03*
X1130300Y444500D03*
X1155700Y723900D03*
X1155700Y749300D03*
X1206500Y723900D03*
X1206500Y749300D03*
D10*
X1549400Y482600D03*
X1574800Y482600D03*
X1549400Y520700D03*
X1574800Y520700D03*
X1549400Y558800D03*
X1574800Y558800D03*
X1549400Y596900D03*
X1574800Y596900D03*
X1549400Y635000D03*
X1574800Y635000D03*
X1549400Y673100D03*
X1574800Y673100D03*
X1549400Y711200D03*
X1574800Y711200D03*
X1549400Y749300D03*
X1574800Y749300D03*
X1549400Y139700D03*
X1574800Y139700D03*
X1549400Y177800D03*
X1574800Y177800D03*
X1549400Y215900D03*
X1574800Y215900D03*
X1549400Y254000D03*
X1574800Y254000D03*
X1549400Y292100D03*
X1574800Y292100D03*
X1549400Y330200D03*
X1574800Y330200D03*
X1549400Y368300D03*
X1574800Y368300D03*
X1549400Y406400D03*
X1574800Y406400D03*
X1397000Y139700D03*
X1473200Y139700D03*
X1397000Y177800D03*
X1473200Y177800D03*
X1397000Y215900D03*
X1473200Y215900D03*
X1397000Y254000D03*
X1473200Y254000D03*
X1397000Y292100D03*
X1473200Y292100D03*
X1397000Y330200D03*
X1473200Y330200D03*
X1397000Y368300D03*
X1473200Y368300D03*
X1397000Y406400D03*
X1473200Y406400D03*
X1397000Y482600D03*
X1473200Y482600D03*
X1397000Y520700D03*
X1473200Y520700D03*
X1397000Y558800D03*
X1473200Y558800D03*
X1397000Y596900D03*
X1473200Y596900D03*
X1397000Y635000D03*
X1473200Y635000D03*
X1397000Y673100D03*
X1473200Y673100D03*
X1397000Y711200D03*
X1473200Y711200D03*
X1397000Y749300D03*
X1473200Y749300D03*
D15*
X107200Y749300D03*
X76200Y701300D03*
X46200Y749300D03*
D13*
X1498600Y58420D02*
X1498600Y43180D01*
X1524000Y43180D02*
X1524000Y58420D01*
X1549400Y58420D02*
X1549400Y43180D01*
X1574800Y43180D02*
X1574800Y58420D01*
X1600200Y58420D02*
X1600200Y43180D01*
D16*
X368300Y381000D03*
D17*
X76200Y88900D01*
X76200Y50800D01*
X177800Y469900D02*
X279400Y469900D01*
X368300Y381000D01*
X431800Y139700D02*
X431800Y101600D01*
X101600Y50800D02*
X101600Y25400D01*
X88900Y12700D01*
X63500Y12700D01*
X177800Y558800D02*
X215900Y558800D01*
X228600Y571500D01*
X330200Y571500D01*
X177800Y508000D02*
X152400Y482600D01*
X152400Y457200D02*
X203200Y406400D01*
X203200Y279400D01*
X152400Y457200D02*
X152400Y482600D01*
X482600Y190500D02*
X571500Y190500D01*
X876300Y139700D02*
X876300Y88900D01*
X482600Y190500D02*
X419100Y254000D01*
X177800Y622300D02*
X152400Y647700D01*
X177800Y622300D02*
X177800Y596900D01*
X850900Y355600D02*
X850900Y190500D01*
X876300Y165100D01*
X876300Y139700D01*
X203200Y279400D02*
X50800Y127000D01*
X50800Y25400D02*
X63500Y12700D01*
X50800Y25400D02*
X50800Y127000D01*
D16*
X469900Y431800D03*
X469900Y368300D03*
D17*
X457200Y381000D01*
X457200Y419100D01*
X469900Y431800D01*
D16*
X495300Y393700D03*
X520700Y368300D03*
D17*
X495300Y431800D02*
X469900Y431800D01*
X495300Y431800D02*
X508000Y419100D01*
X508000Y406400D01*
X495300Y393700D01*
X495300Y381000D01*
X508000Y368300D01*
X520700Y368300D01*
X546100Y393700D01*
D16*
X546100Y393700D03*
D17*
X1054100Y444500D02*
X1054100Y546100D01*
D16*
X1054100Y546100D03*
X1130300Y279400D03*
D17*
X1130300Y368300D01*
X1054100Y546100D02*
X1016000Y584200D01*
X1181100Y419100D02*
X1130300Y368300D01*
X1079500Y419100D02*
X1054100Y444500D01*
X1016000Y584200D02*
X1016000Y685800D01*
X1054100Y723900D01*
D18*
X228600Y762000D02*
X203200Y762000D01*
X228600Y762000D02*
X254000Y762000D01*
X119900Y762000D02*
X107200Y749300D01*
X119900Y762000D02*
X203200Y762000D01*
D16*
X558800Y292100D03*
D17*
X571500Y279400D01*
X647700Y279400D01*
X787400Y139700D01*
X787400Y101600D02*
X800100Y88900D01*
X787400Y101600D02*
X787400Y139700D01*
D16*
X571500Y292100D03*
D17*
X647700Y292100D01*
X800100Y139700D01*
D16*
X241300Y114300D03*
D17*
X241300Y165100D01*
D16*
X241300Y165100D03*
D17*
X508000Y101600D02*
X520700Y88900D01*
X520700Y50800D01*
X546100Y101600D02*
X508000Y139700D01*
X546100Y101600D02*
X546100Y50800D01*
X165100Y533400D02*
X101600Y596900D01*
X254000Y533400D02*
X381000Y406400D01*
D16*
X381000Y406400D03*
D17*
X254000Y533400D02*
X165100Y533400D01*
X139700Y520700D02*
X101600Y558800D01*
X139700Y520700D02*
X254000Y520700D01*
D16*
X381000Y393700D03*
D17*
X254000Y520700D01*
D16*
X622300Y457200D03*
D17*
X774700Y304800D01*
D16*
X774700Y304800D03*
X1104900Y342900D03*
D17*
X965200Y368300D02*
X965200Y622300D01*
X990600Y342900D02*
X1104900Y342900D01*
X990600Y342900D02*
X965200Y368300D01*
X965200Y622300D02*
X952500Y635000D01*
X939800Y635000D01*
D16*
X1104900Y279400D03*
D17*
X1092200Y292100D01*
X990600Y292100D01*
X901700Y381000D01*
X901700Y546100D01*
X939800Y584200D01*
D16*
X1104900Y317500D03*
D17*
X914400Y533400D02*
X939800Y558800D01*
X914400Y533400D02*
X914400Y393700D01*
X990600Y317500D01*
X1104900Y317500D01*
D16*
X1003300Y558800D03*
D17*
X1003300Y622300D01*
D16*
X1003300Y622300D03*
X342900Y330200D03*
D17*
X266700Y254000D01*
X266700Y50800D01*
M02*
