G04 EAGLE Gerber RS-274X export*
G75*
%MOMM*%
%FSLAX34Y34*%
%LPD*%
%INSoldermask Top*%
%IPPOS*%
%AMOC8*
5,1,8,0,0,1.08239X$1,22.5*%
G01*
%ADD10P,1.649562X8X22.500000*%
%ADD11P,1.649562X8X202.500000*%
%ADD12P,1.649562X8X112.500000*%
%ADD13R,1.678200X0.403097*%
%ADD14R,0.403097X1.678200*%
%ADD15R,1.753200X0.903200*%
%ADD16C,1.727200*%
%ADD17C,1.320800*%
%ADD18R,1.753200X1.503200*%
%ADD19R,2.003200X0.653200*%
%ADD20C,4.203200*%
%ADD21C,0.959600*%


D10*
X127000Y431800D03*
X152400Y431800D03*
D11*
X863600Y495300D03*
X838200Y495300D03*
X863600Y431800D03*
X838200Y431800D03*
D12*
X203200Y254000D03*
X203200Y279400D03*
D10*
X546100Y596900D03*
X571500Y596900D03*
X393700Y254000D03*
X419100Y254000D03*
D12*
X850900Y355600D03*
X850900Y381000D03*
X330200Y571500D03*
X330200Y596900D03*
X571500Y165100D03*
X571500Y190500D03*
D10*
X457200Y190500D03*
X482600Y190500D03*
X127000Y647700D03*
X152400Y647700D03*
D13*
X440620Y454400D03*
X440620Y450400D03*
X440620Y446400D03*
X440620Y442400D03*
X440620Y438400D03*
X440620Y434400D03*
X440620Y430400D03*
X440620Y426400D03*
X440620Y422400D03*
X440620Y418400D03*
X440620Y414400D03*
X440620Y410400D03*
X440620Y406400D03*
X440620Y402400D03*
X440620Y398400D03*
X440620Y394400D03*
X440620Y390400D03*
X440620Y386400D03*
X440620Y382400D03*
X440620Y378400D03*
X440620Y374400D03*
X440620Y370400D03*
X440620Y366400D03*
X440620Y362400D03*
X440620Y358400D03*
D14*
X460000Y339020D03*
X464000Y339020D03*
X468000Y339020D03*
X472000Y339020D03*
X476000Y339020D03*
X480000Y339020D03*
X484000Y339020D03*
X488000Y339020D03*
X492000Y339020D03*
X496000Y339020D03*
X500000Y339020D03*
X504000Y339020D03*
X508000Y339020D03*
X512000Y339020D03*
X516000Y339020D03*
X520000Y339020D03*
X524000Y339020D03*
X528000Y339020D03*
X532000Y339020D03*
X536000Y339020D03*
X540000Y339020D03*
X544000Y339020D03*
X548000Y339020D03*
X552000Y339020D03*
X556000Y339020D03*
D13*
X575380Y358400D03*
X575380Y362400D03*
X575380Y366400D03*
X575380Y370400D03*
X575380Y374400D03*
X575380Y378400D03*
X575380Y382400D03*
X575380Y386400D03*
X575380Y390400D03*
X575380Y394400D03*
X575380Y398400D03*
X575380Y402400D03*
X575380Y406400D03*
X575380Y410400D03*
X575380Y414400D03*
X575380Y418400D03*
X575380Y422400D03*
X575380Y426400D03*
X575380Y430400D03*
X575380Y434400D03*
X575380Y438400D03*
X575380Y442400D03*
X575380Y446400D03*
X575380Y450400D03*
X575380Y454400D03*
D14*
X556000Y473780D03*
X552000Y473780D03*
X548000Y473780D03*
X544000Y473780D03*
X540000Y473780D03*
X536000Y473780D03*
X532000Y473780D03*
X528000Y473780D03*
X524000Y473780D03*
X520000Y473780D03*
X516000Y473780D03*
X512000Y473780D03*
X508000Y473780D03*
X504000Y473780D03*
X500000Y473780D03*
X496000Y473780D03*
X492000Y473780D03*
X488000Y473780D03*
X484000Y473780D03*
X480000Y473780D03*
X476000Y473780D03*
X472000Y473780D03*
X468000Y473780D03*
X464000Y473780D03*
X460000Y473780D03*
D15*
X636600Y133350D03*
X636600Y120650D03*
X636600Y107950D03*
X636600Y95250D03*
X709600Y95250D03*
X709600Y107950D03*
X709600Y120650D03*
X709600Y133350D03*
D16*
X76200Y58420D02*
X76200Y43180D01*
X101600Y43180D02*
X101600Y58420D01*
X127000Y58420D02*
X127000Y43180D01*
X152400Y43180D02*
X152400Y58420D01*
X177800Y58420D02*
X177800Y43180D01*
D17*
X743712Y393700D02*
X754888Y393700D01*
X754888Y444500D02*
X743712Y444500D01*
D10*
X101600Y469900D03*
X177800Y469900D03*
X800100Y88900D03*
X876300Y88900D03*
X101600Y508000D03*
X177800Y508000D03*
X101600Y558800D03*
X177800Y558800D03*
X101600Y596900D03*
X177800Y596900D03*
X431800Y139700D03*
X508000Y139700D03*
X431800Y101600D03*
X508000Y101600D03*
X800100Y139700D03*
X876300Y139700D03*
D16*
X342900Y58420D02*
X342900Y43180D01*
X317500Y43180D02*
X317500Y58420D01*
X292100Y58420D02*
X292100Y43180D01*
X266700Y43180D02*
X266700Y58420D01*
X58420Y558800D02*
X43180Y558800D01*
X43180Y584200D02*
X58420Y584200D01*
X58420Y609600D02*
X43180Y609600D01*
X571500Y58420D02*
X571500Y43180D01*
X546100Y43180D02*
X546100Y58420D01*
X520700Y58420D02*
X520700Y43180D01*
X932180Y558800D02*
X947420Y558800D01*
X947420Y584200D02*
X932180Y584200D01*
X932180Y609600D02*
X947420Y609600D01*
X947420Y635000D02*
X932180Y635000D01*
X932180Y228600D02*
X947420Y228600D01*
X947420Y254000D02*
X932180Y254000D01*
X932180Y279400D02*
X947420Y279400D01*
X947420Y304800D02*
X932180Y304800D01*
X850900Y754380D02*
X850900Y769620D01*
X876300Y769620D02*
X876300Y754380D01*
X901700Y754380D02*
X901700Y769620D01*
X927100Y769620D02*
X927100Y754380D01*
X609600Y754380D02*
X609600Y769620D01*
X635000Y769620D02*
X635000Y754380D01*
X660400Y754380D02*
X660400Y769620D01*
X685800Y769620D02*
X685800Y754380D01*
X317500Y754380D02*
X317500Y769620D01*
X342900Y769620D02*
X342900Y754380D01*
X368300Y754380D02*
X368300Y769620D01*
X393700Y769620D02*
X393700Y754380D01*
X58420Y266700D02*
X43180Y266700D01*
X43180Y292100D02*
X58420Y292100D01*
X58420Y317500D02*
X43180Y317500D01*
X43180Y342900D02*
X58420Y342900D01*
X609600Y248920D02*
X609600Y233680D01*
X584200Y233680D02*
X584200Y248920D01*
X558800Y248920D02*
X558800Y233680D01*
X58420Y393700D02*
X43180Y393700D01*
X43180Y419100D02*
X58420Y419100D01*
X58420Y444500D02*
X43180Y444500D01*
D18*
X306450Y505100D03*
X226950Y505100D03*
X306450Y460100D03*
X226950Y460100D03*
D16*
X444500Y754380D02*
X444500Y769620D01*
X469900Y769620D02*
X469900Y754380D01*
X495300Y754380D02*
X495300Y769620D01*
X520700Y769620D02*
X520700Y754380D01*
X546100Y754380D02*
X546100Y769620D01*
X203200Y769620D02*
X203200Y754380D01*
X228600Y754380D02*
X228600Y769620D01*
X254000Y769620D02*
X254000Y754380D01*
D19*
X1242000Y288250D03*
X1242000Y294750D03*
X1242000Y301250D03*
X1242000Y307750D03*
X1242000Y314250D03*
X1242000Y320750D03*
X1242000Y327250D03*
X1242000Y333750D03*
X1242000Y340250D03*
X1242000Y346750D03*
X1171000Y346750D03*
X1171000Y340250D03*
X1171000Y333750D03*
X1171000Y327250D03*
X1171000Y320750D03*
X1171000Y314250D03*
X1171000Y307750D03*
X1171000Y301250D03*
X1171000Y294750D03*
X1171000Y288250D03*
D16*
X1643380Y368300D02*
X1658620Y368300D01*
X1658620Y342900D02*
X1643380Y342900D01*
X1643380Y317500D02*
X1658620Y317500D01*
X1658620Y292100D02*
X1643380Y292100D01*
X1643380Y266700D02*
X1658620Y266700D01*
X1658620Y241300D02*
X1643380Y241300D01*
X1643380Y215900D02*
X1658620Y215900D01*
X1658620Y190500D02*
X1643380Y190500D01*
D19*
X1191200Y593050D03*
X1191200Y599550D03*
X1191200Y606050D03*
X1191200Y612550D03*
X1191200Y619050D03*
X1191200Y625550D03*
X1191200Y632050D03*
X1191200Y638550D03*
X1191200Y645050D03*
X1191200Y651550D03*
X1120200Y651550D03*
X1120200Y645050D03*
X1120200Y638550D03*
X1120200Y632050D03*
X1120200Y625550D03*
X1120200Y619050D03*
X1120200Y612550D03*
X1120200Y606050D03*
X1120200Y599550D03*
X1120200Y593050D03*
D16*
X1643380Y698500D02*
X1658620Y698500D01*
X1658620Y673100D02*
X1643380Y673100D01*
X1643380Y647700D02*
X1658620Y647700D01*
X1658620Y622300D02*
X1643380Y622300D01*
X1643380Y596900D02*
X1658620Y596900D01*
X1658620Y571500D02*
X1643380Y571500D01*
X1643380Y546100D02*
X1658620Y546100D01*
X1658620Y520700D02*
X1643380Y520700D01*
D12*
X1054100Y723900D03*
X1054100Y749300D03*
X1104900Y723900D03*
X1104900Y749300D03*
X1181100Y419100D03*
X1181100Y444500D03*
X1231900Y419100D03*
X1231900Y444500D03*
X1079500Y419100D03*
X1079500Y444500D03*
X1130300Y419100D03*
X1130300Y444500D03*
X1155700Y723900D03*
X1155700Y749300D03*
X1206500Y723900D03*
X1206500Y749300D03*
D10*
X1549400Y482600D03*
X1574800Y482600D03*
X1549400Y520700D03*
X1574800Y520700D03*
X1549400Y558800D03*
X1574800Y558800D03*
X1549400Y596900D03*
X1574800Y596900D03*
X1549400Y635000D03*
X1574800Y635000D03*
X1549400Y673100D03*
X1574800Y673100D03*
X1549400Y711200D03*
X1574800Y711200D03*
X1549400Y749300D03*
X1574800Y749300D03*
X1549400Y139700D03*
X1574800Y139700D03*
X1549400Y177800D03*
X1574800Y177800D03*
X1549400Y215900D03*
X1574800Y215900D03*
X1549400Y254000D03*
X1574800Y254000D03*
X1549400Y292100D03*
X1574800Y292100D03*
X1549400Y330200D03*
X1574800Y330200D03*
X1549400Y368300D03*
X1574800Y368300D03*
X1549400Y406400D03*
X1574800Y406400D03*
X1397000Y139700D03*
X1473200Y139700D03*
X1397000Y177800D03*
X1473200Y177800D03*
X1397000Y215900D03*
X1473200Y215900D03*
X1397000Y254000D03*
X1473200Y254000D03*
X1397000Y292100D03*
X1473200Y292100D03*
X1397000Y330200D03*
X1473200Y330200D03*
X1397000Y368300D03*
X1473200Y368300D03*
X1397000Y406400D03*
X1473200Y406400D03*
X1397000Y482600D03*
X1473200Y482600D03*
X1397000Y520700D03*
X1473200Y520700D03*
X1397000Y558800D03*
X1473200Y558800D03*
X1397000Y596900D03*
X1473200Y596900D03*
X1397000Y635000D03*
X1473200Y635000D03*
X1397000Y673100D03*
X1473200Y673100D03*
X1397000Y711200D03*
X1473200Y711200D03*
X1397000Y749300D03*
X1473200Y749300D03*
D20*
X107200Y749300D03*
X76200Y701300D03*
X46200Y749300D03*
D16*
X1498600Y58420D02*
X1498600Y43180D01*
X1524000Y43180D02*
X1524000Y58420D01*
X1549400Y58420D02*
X1549400Y43180D01*
X1574800Y43180D02*
X1574800Y58420D01*
X1600200Y58420D02*
X1600200Y43180D01*
D21*
X368300Y381000D03*
X469900Y431800D03*
X469900Y368300D03*
X495300Y393700D03*
X520700Y368300D03*
X546100Y393700D03*
X1054100Y546100D03*
X1130300Y279400D03*
X558800Y292100D03*
X571500Y292100D03*
X241300Y114300D03*
X241300Y165100D03*
X381000Y406400D03*
X381000Y393700D03*
X622300Y457200D03*
X774700Y304800D03*
X1104900Y342900D03*
X1104900Y279400D03*
X1104900Y317500D03*
X1003300Y558800D03*
X1003300Y622300D03*
X342900Y330200D03*
M02*
