M48
;GenerationSoftware,Autodesk,EAGLE,9.3.0*%
;CreationDate,2019-04-10T16:55:49Z*%
FMAT,2
ICI,OFF
METRIC,TZ,000.000
T5C0.350
T4C0.610
T3C0.813
T2C1.000
T1C1.016
%
G90
M71
T1
X16510Y-2540
X40640Y-5080
X43180Y-5080
X52070Y-5080
X26670Y53340
X57150Y-5080
X54610Y-5080
X3810Y21590
X3810Y19050
X3810Y16510
X33020Y53340
X3810Y13970
X35560Y53340
X38100Y53340
X40640Y53340
X43180Y53340
X45720Y53340
X48260Y53340
X50800Y53340
X6350Y-2540
X8890Y-2540
X11430Y-2540
X53340Y53340
X13970Y-2540
X38100Y-5080
X35560Y-5080
X33020Y-5080
X30480Y-5080
X21590Y53340
X24130Y53340
T2
X10160Y44730
X7160Y49530
X13260Y49530
T3
X54610Y19050
X25400Y34290
X25400Y36830
X54610Y7620
X57150Y7620
X46990Y7620
X49530Y7620
X12700Y30480
X5080Y30480
X59690Y48260
X52070Y48260
X5080Y35560
X12700Y35560
X74930Y22860
X52070Y44450
X59690Y44450
X10160Y41910
X7620Y41910
X72390Y22860
X72390Y16510
X74930Y16510
X22860Y15240
X25400Y25400
X25400Y22860
X22860Y12700
X62230Y11430
X69850Y11430
X69850Y2540
X19050Y45720
X26670Y45720
X19050Y40640
X26670Y40640
X39370Y41910
X41910Y41910
X31750Y10160
X34290Y10160
X54610Y16510
X62230Y2540
T4
X66040Y17780
X66040Y22860
T5
X57150Y11430
X43180Y24130
X46990Y16510
X50800Y2540
X44450Y10160
X52070Y24130
X52070Y22860
X52070Y27940
X52070Y26670
X10160Y25400
X40640Y19050
X38100Y21590
X35560Y19050
X35560Y25400
X19050Y31750
X21590Y31750
X52070Y11430
X29210Y20320
X52070Y6350
M30